<svg width="136" height="19" viewBox="0 0 136 19" fill="none" xmlns="http://www.w3.org/2000/svg">
<g clip-path="url(#clip0_4_4883)">
<path d="M19.9697 18.3644H32.969V14.9362H23.8983V10.7316H31.4189V7.30061H23.8983V3.42959H33.0236V0.00146484H19.9697V18.3644Z" fill="#0A0A0A"/>
<path d="M48.619 11.5599L40.1033 0.00146484H34.2393L36.0655 2.32523V18.4219H39.9911V6.36305L48.7858 18.3644H52.5475V0.00146484H48.619V11.5599Z" fill="#0A0A0A"/>
<path d="M14.0514 8.91689C15.777 8.58615 17.215 6.98138 17.215 4.71513C17.2035 2.26771 15.4348 0.00146484 11.8945 0.00146484H0.5L2.2687 2.26771V18.373H12.2914C15.8345 18.373 17.6579 16.1614 17.6579 13.3947C17.5917 11.1199 16.0301 9.18435 14.0514 8.91689ZM6.19724 3.4526H11.1209C12.4495 3.4526 13.2778 4.2291 13.2778 5.3881C13.2778 6.54711 12.4495 7.32361 11.1209 7.32361H6.19724V3.4526ZM11.2848 14.9564H6.19724V10.7316H11.2848C12.7803 10.7316 13.6085 11.672 13.6085 12.8339C13.6085 14.1597 12.7228 14.9362 11.2848 14.9362V14.9564Z" fill="#0A0A0A"/>
<path d="M110.019 11.5599H112.066V13.7197C111.007 14.5966 109.679 15.0838 108.305 15.1002C105.04 15.1002 102.72 12.6125 102.72 9.23899C102.72 5.86551 105.04 3.37494 108.305 3.37494C109.143 3.38189 109.967 3.59804 110.701 4.00381C111.436 4.40958 112.057 4.99214 112.509 5.69871L115.607 3.97314C114.281 1.88233 111.954 0.00146484 108.25 0.00146484C103.05 0.00146484 98.7363 3.59639 98.7363 9.18435C98.7363 14.7723 102.996 18.3644 108.25 18.3644C109.669 18.3879 111.076 18.1034 112.375 17.5304C113.673 16.9574 114.832 16.1096 115.771 15.0455V8.24391H107.364L110.019 11.5599Z" fill="#0A0A0A"/>
<path d="M92.3191 11.5599L83.8006 0.00146484H77.9365L79.7627 2.32523V18.4219H83.6913V6.36305L92.4859 18.3644H96.2448V0.00146484H92.3191V11.5599Z" fill="#0A0A0A"/>
<path d="M128.767 0.00146484H121.192L123.015 2.32523L122.684 3.20814L116.82 18.4219H121.246L122.397 15.3216H130.32L131.47 18.4219H135.894L128.767 0.00146484ZM123.406 11.8388L126.282 3.92713L129.158 11.8388H123.406Z" fill="#0A0A0A"/>
<path d="M75.6707 0.00146484H71.7422V18.4219H75.6707V0.00146484Z" fill="#0A0A0A"/>
<path d="M68.5907 3.1535V0.00146484H54.7603V3.42959H63.4456L54.7603 15.2123V18.3644H68.7575V14.9362H59.8507L68.5907 3.1535Z" fill="#0A0A0A"/>
</g>
<defs>
<clipPath id="clip0_4_4883">
<rect width="135.5" height="18.3629" fill="white" transform="translate(0.5 0.00146484)"/>
</clipPath>
</defs>
</svg>
