<svg width="148" height="21" viewBox="0 0 148 21" fill="none" xmlns="http://www.w3.org/2000/svg">
<path d="M23.1484 20.034L23.0067 20.2472C22.9998 20.2573 22.9908 20.2656 22.9804 20.2716C22.9059 20.315 22.8466 20.373 22.8033 20.4457C22.791 20.4659 22.7745 20.4805 22.7532 20.4909L22.6493 20.5398C22.6286 20.5496 22.6188 20.566 22.6194 20.5893C22.6212 20.6442 22.5944 20.6748 22.5388 20.6815C22.5204 20.6835 22.5028 20.6907 22.4881 20.7023L22.3079 20.8421L21.6903 20.8733L20.1108 20.8617C19.9452 20.8757 19.7559 20.8495 19.6209 20.8495C13.8395 20.8489 8.05868 20.8482 2.27788 20.8489C1.96575 20.8489 1.4887 20.8305 1.20528 20.6632C0.392889 20.1837 0.505279 19.2729 0.505279 18.4691C0.507722 14.4719 0.507112 10.4759 0.504058 6.48055C0.533988 5.94486 0.533376 5.40917 0.502225 4.87348C0.627443 3.79966 1.15458 3.30245 2.26261 3.30856C3.52639 3.31589 4.78957 3.30367 6.05335 3.27191C6.07595 3.2713 6.08817 3.26031 6.09123 3.23832C6.22744 2.23596 5.73267 0.0156307 7.43564 0.00830091C9.81845 -0.0014722 12.8225 -0.000860862 16.4483 0.0107447C16.8178 0.0119664 17.0786 0.0437288 17.2307 0.106032C17.8464 0.357079 18.0321 1.07479 18.0352 1.68683C18.0382 2.21153 18.0382 2.7295 18.0364 3.23954C18.0358 3.27435 18.0529 3.29146 18.0877 3.29207C19.1738 3.30551 20.2409 3.30856 21.2896 3.30062C22.3842 3.29207 23.2846 3.60847 23.2589 4.92235C23.2406 5.85568 23.2363 7.41144 23.2455 9.58901C23.2559 11.9724 23.2424 14.3571 23.2461 16.7411C23.2473 17.5217 23.273 18.6627 23.2394 19.6272C23.2339 19.7714 23.2039 19.907 23.1484 20.034ZM16.6166 1.50851C16.6166 1.49744 16.6144 1.48648 16.6101 1.47626C16.6059 1.46604 16.5997 1.45676 16.5918 1.44894C16.584 1.44113 16.5747 1.43494 16.5644 1.43072C16.5542 1.4265 16.5432 1.42434 16.5322 1.42436L7.63497 1.43989C7.61262 1.43993 7.5912 1.44884 7.57542 1.46468C7.55964 1.48051 7.5508 1.50197 7.55083 1.52432L7.5538 3.2224C7.55382 3.23347 7.55602 3.24443 7.56027 3.25465C7.56452 3.26487 7.57075 3.27415 7.57859 3.28197C7.58643 3.28978 7.59573 3.29597 7.60597 3.30019C7.6162 3.30441 7.62717 3.30657 7.63824 3.30655L16.5354 3.29102C16.5578 3.29098 16.5792 3.28206 16.595 3.26623C16.6108 3.25039 16.6196 3.22894 16.6196 3.20658L16.6166 1.50851ZM21.7667 9.57801C21.7878 9.57802 21.8081 9.56973 21.8231 9.55497C21.838 9.54021 21.8465 9.52017 21.8467 9.49922L21.8772 4.83683C21.8779 4.74948 21.8345 4.70612 21.7471 4.70673C15.1766 4.74154 8.60047 4.63954 2.02989 4.73971C2.01444 4.73987 1.99968 4.74612 1.98882 4.7571C1.97795 4.76808 1.97186 4.7829 1.97186 4.79835L1.97247 9.45768C1.97308 9.53892 2.014 9.57985 2.09524 9.57985L21.7667 9.57801ZM21.8498 11.0495C21.8498 11.038 21.8452 11.0269 21.8371 11.0188C21.8289 11.0107 21.8179 11.0061 21.8064 11.0061C20.3331 10.9884 18.8592 10.9817 17.3841 10.986C17.1355 10.9866 16.8184 11.0269 16.433 11.1063C16.0818 11.1784 15.6145 11.1735 15.3054 11.3799C14.8101 11.7116 14.2212 11.7293 13.6086 11.7312C12.4877 11.7348 11.3663 11.7293 10.2454 11.7141C9.74576 11.7073 9.06592 11.6768 8.78433 11.2614C8.75012 11.2113 8.68232 11.1716 8.63468 11.1643C7.94262 11.055 7.45213 10.9957 7.16444 10.9866C5.7962 10.9444 3.87334 11.0312 2.01706 10.9988C1.99568 10.9982 1.98468 11.0086 1.98468 11.0299L1.98652 19.4495C1.98652 19.5051 2.014 19.5332 2.06959 19.5332H21.7215C21.7406 19.5332 21.7595 19.5293 21.7771 19.5219C21.7947 19.5144 21.8106 19.5035 21.8239 19.4898C21.8372 19.476 21.8476 19.4597 21.8544 19.4419C21.8613 19.4241 21.8645 19.405 21.8638 19.3859C21.8412 18.6939 21.8333 17.9988 21.8394 17.3018C21.8577 15.2293 21.8614 13.1452 21.8498 11.0495Z" fill="#0A0A0A"/>
<path d="M62.6967 12.5354C62.6927 12.5347 62.6889 12.5331 62.6856 12.5307C62.6822 12.5283 62.6795 12.5252 62.6776 12.5216C62.6756 12.5181 62.6745 12.5141 62.6743 12.51C62.6742 12.5059 62.6749 12.5018 62.6766 12.4981L66.2346 4.27525C66.2425 4.2557 66.2572 4.24409 66.2786 4.23982C66.5064 4.19828 66.799 4.23249 66.9578 4.22821C67.4098 4.21661 67.9174 4.25875 68.3877 4.20744C68.402 4.20586 68.4164 4.20887 68.4288 4.21603C68.4411 4.22319 68.4507 4.2341 68.4561 4.24715L71.9012 12.379C71.9555 12.5079 71.9134 12.572 71.7735 12.572H69.7444C69.735 12.572 69.7259 12.5694 69.718 12.5644C69.7101 12.5594 69.7038 12.5523 69.6998 12.5439C69.4787 12.0998 69.293 11.6417 69.1433 11.1683C69.1337 11.1378 69.1147 11.1112 69.0889 11.0922C69.0631 11.0732 69.0319 11.0629 68.9998 11.0627C67.8936 11.0596 66.7898 11.0529 65.6885 11.0419C65.6164 11.0413 65.5273 11.0724 65.4552 11.0914C65.4469 11.0935 65.4392 11.0975 65.4328 11.1031C65.4265 11.1088 65.4215 11.1158 65.4185 11.1238L64.8999 12.4773C64.878 12.5341 64.8364 12.5635 64.7753 12.5641C64.1028 12.5757 63.3088 12.6435 62.6967 12.5354ZM66.099 9.37681C66.0967 9.38253 66.0958 9.38872 66.0965 9.39484C66.0971 9.40097 66.0993 9.40684 66.1027 9.41195C66.1061 9.41707 66.1108 9.42127 66.1162 9.42419C66.1216 9.42711 66.1277 9.42867 66.1338 9.42873L68.3908 9.44828C68.397 9.44838 68.4031 9.44697 68.4086 9.44416C68.4141 9.44135 68.4189 9.43724 68.4224 9.43218C68.426 9.42711 68.4282 9.42126 68.429 9.41512C68.4298 9.40898 68.429 9.40275 68.4268 9.39697L67.3237 6.4803C67.321 6.47308 67.3162 6.46684 67.3099 6.46241C67.3037 6.45798 67.2962 6.45557 67.2885 6.45551C67.2808 6.45544 67.2732 6.45772 67.2669 6.46204C67.2605 6.46636 67.2556 6.47252 67.2528 6.47969L66.099 9.37681Z" fill="#0A0A0A"/>
<path d="M113.615 4.2395L114.258 4.24744L114.772 4.23401C114.969 4.27249 115.167 4.29326 115.363 4.29509C115.619 4.29814 115.936 4.33174 116.241 4.245L116.769 4.24622C116.787 4.2463 116.803 4.24974 116.819 4.25634C116.835 4.26293 116.849 4.27256 116.861 4.28466C116.873 4.29676 116.882 4.31109 116.889 4.32682C116.895 4.34255 116.898 4.35938 116.898 4.37633L116.878 5.83435C116.878 5.85228 116.871 5.86937 116.858 5.88194C116.845 5.8945 116.828 5.90154 116.81 5.90154L112.889 5.89788C112.874 5.89788 112.86 5.90371 112.849 5.91412C112.839 5.92453 112.833 5.93867 112.833 5.95346L112.817 7.71201C112.816 7.79386 112.857 7.83479 112.939 7.8354L116.425 7.84029C116.526 7.84029 116.576 7.89037 116.576 7.99116L116.578 9.40399C116.578 9.42543 116.57 9.446 116.555 9.46121C116.54 9.47643 116.519 9.48506 116.498 9.48522L112.901 9.5121C112.88 9.51226 112.86 9.5207 112.845 9.53557C112.83 9.55045 112.822 9.57055 112.822 9.59151L112.819 12.4917C112.819 12.5009 112.817 12.51 112.814 12.5185C112.81 12.527 112.805 12.5347 112.799 12.5412C112.792 12.5476 112.784 12.5527 112.776 12.5562C112.767 12.5597 112.758 12.5614 112.749 12.5613L110.856 12.5552C110.83 12.555 110.804 12.5444 110.785 12.5256C110.767 12.5069 110.756 12.4815 110.756 12.455L110.753 4.35922C110.753 4.34301 110.756 4.32697 110.763 4.31215C110.77 4.29733 110.779 4.28405 110.791 4.27317C110.803 4.2623 110.817 4.25406 110.833 4.249C110.848 4.24394 110.864 4.24216 110.881 4.24378C111.152 4.27127 111.498 4.22545 111.692 4.21935C112.333 4.19919 112.974 4.20591 113.615 4.2395Z" fill="#0A0A0A"/>
<path d="M121.735 11.5986C120.682 10.6866 120.241 9.46925 120.323 8.06742C120.387 6.97405 120.873 5.92222 121.754 5.24665C121.884 5.14709 122.016 5.04875 122.148 4.95224C123.339 4.08915 125.105 3.97004 126.454 4.52711C127.001 4.75311 127.491 5.05363 127.922 5.42868C128.099 5.5826 127.964 5.72309 127.834 5.88862C127.532 6.27466 127.217 6.64421 126.891 6.99787C126.872 7.01803 126.854 7.01742 126.836 6.99543C126.033 5.99063 124.59 5.61681 123.473 6.36018C122.422 7.05895 122.233 8.4785 122.747 9.59202C122.79 9.68731 122.939 9.86567 123.192 10.1277C124.112 11.083 125.469 10.992 126.447 10.1784C126.636 10.0214 126.773 9.91087 126.857 9.84674C126.878 9.83146 126.897 9.8333 126.914 9.85223C127.246 10.2175 127.579 10.5791 127.913 10.937C128.035 11.0672 128.049 11.2076 127.911 11.3249C127.161 11.962 126.327 12.3853 125.409 12.596C124.185 12.8764 122.678 12.4158 121.735 11.5986Z" fill="#0A0A0A"/>
<path d="M128.546 8.22707C128.556 7.03719 128.984 6.07821 129.829 5.35072C130.38 4.87611 131.011 4.48947 131.716 4.33187C132.976 4.0509 134.426 4.1584 135.548 4.8865C135.882 5.10212 136.168 5.34034 136.407 5.59994C137.811 7.12699 137.865 9.38641 136.608 11.0045C135.834 12.0019 134.497 12.6048 133.263 12.6745C130.846 12.8113 128.346 10.969 128.52 8.36939C128.52 8.3639 128.519 8.3474 128.515 8.31869C128.513 8.3022 128.515 8.28632 128.523 8.27166C128.53 8.25966 128.536 8.24829 128.54 8.23997C128.544 8.23165 128.546 8.22702 128.546 8.22707ZM135.334 8.47873C135.429 8.29182 135.446 8.07376 135.267 7.92655C135.253 7.91433 135.246 7.89906 135.247 7.88013C135.253 7.6187 135.178 7.38292 135.022 7.1728C134.714 6.59313 134.189 6.18083 133.543 6.02995C132.333 5.74592 131.014 6.50578 130.746 7.75857C130.59 8.48667 130.694 9.35403 131.171 9.95019C131.595 10.4822 132.207 10.8646 132.899 10.8811C134.341 10.9165 135.228 9.8207 135.334 8.47873Z" fill="#0A0A0A"/>
<path d="M34.9555 12.4201C35.0294 12.3572 35.0648 12.2906 35.0618 12.2216L38.4897 4.25038C38.4976 4.23205 38.5117 4.2235 38.5318 4.22472C39.1744 4.25832 39.8506 4.26137 40.5598 4.23328C40.6459 4.22961 40.7149 4.26748 40.7485 4.35361C41.4558 6.17752 42.2658 7.96844 43.0183 9.77463C43.3494 10.5693 43.7147 11.3823 44.061 12.1886C44.1062 12.2943 44.1257 12.403 44.1196 12.5148C44.1184 12.5429 44.1037 12.5569 44.0756 12.5569H42.0099C41.9928 12.5569 41.976 12.5518 41.9617 12.5424C41.9474 12.533 41.9361 12.5195 41.9292 12.5038C41.7325 12.0536 41.5664 11.5924 41.4308 11.1197C41.4281 11.1104 41.4234 11.1018 41.4168 11.0946C41.4102 11.0874 41.4021 11.0817 41.3929 11.0781C41.3459 11.0592 41.2909 11.0494 41.228 11.0488C39.988 11.0268 38.833 10.9896 37.7445 11.0158C37.7351 11.016 37.726 11.0189 37.7183 11.0242C37.7106 11.0296 37.7046 11.037 37.7011 11.0457L37.1086 12.5135C37.1028 12.5279 37.0928 12.5402 37.0798 12.5489C37.0669 12.5575 37.0516 12.562 37.0359 12.5618L34.986 12.552C34.9702 12.552 34.9585 12.5453 34.9506 12.5313C34.9335 12.5026 34.9353 12.4653 34.9555 12.4201ZM39.4884 6.50552C39.434 6.56355 39.4059 6.63197 39.4041 6.71076L38.3474 9.41425C38.3333 9.45029 38.3455 9.46861 38.3846 9.46861L40.5811 9.45212C40.6021 9.45196 40.6226 9.4466 40.641 9.43654C40.6593 9.42648 40.6749 9.41202 40.6862 9.39446C40.6976 9.37691 40.7045 9.3568 40.7062 9.33595C40.7079 9.3151 40.7044 9.29415 40.696 9.27498C40.3044 8.38013 39.9123 7.44985 39.6368 6.51041C39.6328 6.49676 39.6253 6.48437 39.6151 6.47444C39.6049 6.46451 39.5923 6.45738 39.5786 6.45375C39.5649 6.45012 39.5505 6.45012 39.5368 6.45373C39.5232 6.45734 39.5107 6.46446 39.5006 6.47437C39.4939 6.48109 39.4896 6.49148 39.4884 6.50552Z" fill="#0A0A0A"/>
<path d="M57.6377 12.3348L57.6805 10.0332C57.6811 10.0143 57.6725 10.0003 57.6554 9.99171C57.6218 9.97461 57.5998 9.94407 57.5888 9.90009C57.5406 9.7028 57.4386 9.52016 57.2822 9.35218L56.9957 8.8391C57.0031 8.75908 56.978 8.70533 56.9212 8.67662L54.6147 4.33735C54.6097 4.32786 54.6072 4.31722 54.6074 4.30646C54.6077 4.29571 54.6108 4.28521 54.6163 4.27598C54.6218 4.26675 54.6297 4.25912 54.639 4.25382C54.6484 4.24852 54.659 4.24573 54.6697 4.24573L56.6134 4.25184C56.6287 4.25184 56.6437 4.25597 56.6569 4.26381C56.6702 4.27166 56.6811 4.28292 56.6885 4.29643L58.6052 7.76527C58.6339 7.8178 58.6651 7.81903 58.6987 7.76955C58.7732 7.65777 58.8697 7.54843 58.9302 7.42261C59.4378 6.36772 60.0456 5.36048 60.5654 4.31659C60.5756 4.296 60.5914 4.27865 60.6109 4.26647C60.6304 4.25428 60.6529 4.24774 60.6759 4.24756L62.6452 4.24268C62.6571 4.24258 62.6689 4.24562 62.6793 4.25147C62.6897 4.25732 62.6984 4.2658 62.7045 4.27605C62.7106 4.2863 62.7139 4.29797 62.7141 4.3099C62.7143 4.32184 62.7114 4.33362 62.7057 4.34407C61.729 6.12339 60.7657 7.91859 59.8159 9.72967C59.7627 9.83107 59.7255 9.92391 59.7236 10.0442C59.7133 10.8774 59.7084 11.7075 59.7102 12.5346C59.7102 12.538 59.7095 12.5414 59.7082 12.5446C59.7069 12.5478 59.705 12.5507 59.7025 12.5531C59.7001 12.5556 59.6972 12.5575 59.694 12.5588C59.6908 12.5601 59.6874 12.5608 59.6839 12.5608L57.6493 12.5553C57.6328 12.5553 57.6237 12.5474 57.6212 12.5315C57.6102 12.4527 57.6157 12.3867 57.6377 12.3348Z" fill="#0A0A0A"/>
<path d="M72.7173 4.27934C72.7173 4.26444 72.7232 4.25014 72.7337 4.2396C72.7443 4.22907 72.7586 4.22314 72.7735 4.22314H76.4995C77.6309 4.22314 78.716 4.65342 79.516 5.4193C80.316 6.18519 80.7654 7.22396 80.7654 8.30709V8.483C80.7654 9.56613 80.316 10.6049 79.516 11.3708C78.716 12.1367 77.6309 12.5669 76.4995 12.5669H72.7735C72.7586 12.5669 72.7443 12.561 72.7337 12.5505C72.7232 12.5399 72.7173 12.5257 72.7173 12.5107V4.27934ZM74.8539 6.03972L74.8625 10.8066C74.8625 10.8173 74.8646 10.828 74.8687 10.8379C74.8728 10.8478 74.8789 10.8568 74.8865 10.8644C74.8941 10.872 74.9031 10.8781 74.913 10.8822C74.9229 10.8863 74.9336 10.8884 74.9443 10.8884L76.2454 10.886C76.8589 10.8848 77.4469 10.6371 77.88 10.1971C78.3131 9.7571 78.5559 9.16098 78.5549 8.53981V8.29426C78.5544 7.98659 78.4941 7.68203 78.3773 7.39797C78.2605 7.11392 78.0896 6.85593 77.8744 6.63874C77.6591 6.42155 77.4037 6.24942 77.1227 6.13218C76.8418 6.01493 76.5407 5.95487 76.2368 5.95543L74.9358 5.95787C74.925 5.95787 74.9144 5.95999 74.9045 5.9641C74.8945 5.96822 74.8855 5.97425 74.8779 5.98185C74.8703 5.98945 74.8643 5.99847 74.8602 6.0084C74.8561 6.01833 74.8539 6.02897 74.8539 6.03972Z" fill="#0A0A0A"/>
<path d="M82.0888 4.24575C82.3582 4.35081 82.5628 4.24453 82.79 4.30989C82.809 4.31538 82.8285 4.316 82.8481 4.3105C83.0484 4.25675 83.2463 4.31416 83.4008 4.30683C83.7288 4.29156 84.0575 4.26774 84.3861 4.23537C84.8491 4.29034 85.3597 4.21277 85.7378 4.23292C85.9993 4.24697 86.2961 4.27629 86.6284 4.32149C87.5825 4.45221 88.6832 5.04593 88.7797 6.12219C88.8555 6.96879 88.4444 7.84104 87.5746 8.04932C87.557 8.05342 87.5413 8.06299 87.5295 8.07664C87.5178 8.09029 87.5107 8.10732 87.5093 8.12527C87.5078 8.14322 87.5121 8.16115 87.5216 8.17649C87.531 8.19183 87.5451 8.20376 87.5617 8.21058C87.8672 8.3358 88.2098 8.47384 88.445 8.68274C89.3368 9.47559 89.2519 11.2506 88.2593 11.9054C87.6528 12.3055 86.9766 12.5144 86.2308 12.5309C85.1808 12.5541 83.8278 12.5608 82.1725 12.5511C82.046 12.5505 81.9471 12.5468 81.8762 12.5395C81.8549 12.5376 81.8445 12.526 81.8445 12.5046C81.842 11.5151 81.8121 10.5146 81.8182 9.53728C81.8237 8.65526 81.8243 7.77323 81.8206 6.89121C81.8176 6.16556 81.8756 5.17236 81.8274 4.30683C81.8268 4.29773 81.8299 4.28877 81.8358 4.28183C81.8417 4.27489 81.8501 4.2705 81.8591 4.26957L82.0888 4.24575ZM83.9323 5.92612L83.9298 7.54112C83.9298 7.56256 83.9383 7.58314 83.9534 7.59835C83.9685 7.61357 83.989 7.6222 84.0104 7.62236L85.4856 7.62542C85.6359 7.62572 85.7849 7.60478 85.9239 7.5638C86.0629 7.52283 86.1893 7.46261 86.2957 7.3866C86.4022 7.31059 86.4867 7.22028 86.5444 7.12081C86.6021 7.02135 86.6319 6.91468 86.6321 6.80692V6.67009C86.6324 6.45261 86.5122 6.24383 86.2979 6.08966C86.0836 5.93548 85.7927 5.84854 85.4892 5.84793L84.0141 5.84488C84.0034 5.8448 83.9928 5.84684 83.9828 5.85088C83.9729 5.85493 83.9639 5.8609 83.9563 5.86845C83.9487 5.87601 83.9426 5.88499 83.9385 5.89489C83.9344 5.90478 83.9323 5.9154 83.9323 5.92612ZM83.9445 9.1885V10.8573C83.9445 10.8856 83.9557 10.9128 83.9758 10.9328C83.9958 10.9529 84.023 10.9642 84.0514 10.9642H85.5686C85.7423 10.9642 85.9143 10.9423 86.0747 10.8997C86.2352 10.8572 86.3809 10.7948 86.5037 10.7162C86.6265 10.6376 86.7239 10.5443 86.7904 10.4415C86.8569 10.3388 86.8911 10.2287 86.8911 10.1176V9.92821C86.8911 9.70368 86.7517 9.48834 86.5037 9.32957C86.2557 9.1708 85.9194 9.08161 85.5686 9.08161H84.0514C84.023 9.08161 83.9958 9.09287 83.9758 9.11292C83.9557 9.13297 83.9445 9.16015 83.9445 9.1885Z" fill="#0A0A0A"/>
<path d="M107.018 4.23805C107.639 4.31685 108.272 4.26309 108.898 4.24172L109.19 4.24904C109.198 4.2492 109.206 4.25101 109.214 4.25435C109.221 4.25769 109.228 4.2625 109.234 4.26851C109.24 4.27452 109.244 4.28162 109.247 4.28939C109.251 4.29716 109.252 4.30545 109.252 4.31379L109.229 5.80358C109.229 5.86222 109.199 5.89154 109.141 5.89154L104.952 5.91231C104.907 5.91292 104.884 5.93552 104.883 5.98011L104.842 7.48395C104.841 7.49485 104.843 7.50571 104.847 7.51588C104.851 7.52605 104.857 7.53534 104.865 7.54319C104.872 7.55104 104.881 7.5573 104.891 7.56161C104.901 7.56591 104.912 7.56816 104.923 7.56824L108.75 7.59206C108.757 7.59206 108.765 7.59347 108.771 7.5962C108.778 7.59893 108.784 7.60294 108.789 7.60798C108.794 7.61303 108.798 7.61902 108.801 7.62562C108.803 7.63222 108.805 7.63928 108.805 7.64642V9.15759C108.805 9.20218 108.783 9.22417 108.738 9.22478L104.968 9.24983C104.952 9.24995 104.937 9.25345 104.923 9.26009C104.909 9.26672 104.896 9.27633 104.886 9.28825C104.876 9.30016 104.869 9.3141 104.865 9.32909C104.861 9.34408 104.86 9.35976 104.863 9.37504C104.879 9.46606 104.899 9.53447 104.891 9.62853C104.86 10.0323 104.846 10.4324 104.849 10.83C104.849 10.8452 104.855 10.8597 104.866 10.8704C104.877 10.8812 104.891 10.8873 104.906 10.8874L109.226 10.9051C109.245 10.9052 109.264 10.9091 109.282 10.9167C109.299 10.9242 109.315 10.9352 109.329 10.949C109.342 10.9628 109.353 10.9791 109.36 10.9971C109.367 11.0151 109.371 11.0343 109.37 11.0536L109.349 12.4114C109.349 12.4253 109.346 12.4389 109.34 12.4516C109.334 12.4642 109.326 12.4756 109.316 12.485C109.306 12.4945 109.294 12.5017 109.281 12.5064C109.268 12.5111 109.254 12.513 109.24 12.5122C109.059 12.5012 108.86 12.5391 108.695 12.5415C106.715 12.5739 104.737 12.5757 102.762 12.547C102.753 12.5469 102.744 12.543 102.737 12.5363C102.731 12.5295 102.727 12.5204 102.727 12.511V4.32356C102.727 4.31106 102.73 4.29868 102.735 4.28719C102.739 4.2757 102.747 4.26534 102.756 4.25675C102.765 4.24817 102.776 4.24154 102.787 4.23727C102.799 4.23301 102.812 4.23119 102.824 4.23194L103.167 4.25271L104.549 4.23439L104.939 4.21973C104.942 4.21973 104.943 4.22095 104.942 4.224C104.942 4.23011 104.941 4.23561 104.941 4.23988C104.94 4.24416 104.942 4.24599 104.946 4.24477C105.132 4.19407 105.295 4.26432 105.454 4.26004C105.845 4.24905 106.236 4.24843 106.626 4.25882C106.748 4.26248 106.882 4.22706 107.018 4.23805Z" fill="#0A0A0A"/>
<path d="M143.205 9.0686C143.246 9.06616 143.275 9.046 143.291 9.00874C143.797 7.8659 144.308 6.7371 144.825 5.62297C145.032 5.17646 145.22 4.73422 145.389 4.29687C145.399 4.27234 145.416 4.25146 145.438 4.23721C145.46 4.22295 145.486 4.21604 145.512 4.21747C146.252 4.26084 146.991 4.26145 147.731 4.2193C147.733 4.21913 147.736 4.21947 147.738 4.22028C147.74 4.2211 147.742 4.22238 147.744 4.22404C147.746 4.2257 147.747 4.22771 147.748 4.22994C147.749 4.23217 147.75 4.23458 147.75 4.23702L147.742 12.5301C147.742 12.5385 147.739 12.5466 147.733 12.5526C147.727 12.5585 147.719 12.5619 147.71 12.5619L145.923 12.5558C145.905 12.5558 145.895 12.5466 145.895 12.5277C145.898 11.0965 145.896 9.66537 145.89 8.23544C145.889 7.93064 145.874 7.62034 145.845 7.30333C145.844 7.29276 145.84 7.28285 145.832 7.2754C145.824 7.26794 145.814 7.26343 145.804 7.2627C145.793 7.26196 145.783 7.26504 145.774 7.27137C145.766 7.2777 145.76 7.28688 145.758 7.29722C145.708 7.51895 145.633 7.73823 145.534 7.95385C145.04 9.02645 144.592 10.1229 144.12 11.2046C144.054 11.3543 143.992 11.5064 143.934 11.6603C143.927 11.6787 143.915 11.6944 143.898 11.7056C143.882 11.7167 143.863 11.7226 143.844 11.7226L142.529 11.7196C142.511 11.7194 142.494 11.714 142.479 11.7041C142.464 11.6942 142.453 11.6803 142.446 11.664C142.016 10.6079 141.565 9.55542 141.091 8.50603C140.966 8.22872 140.822 7.82497 140.66 7.29478C140.653 7.27218 140.639 7.26607 140.617 7.27706C140.557 7.30699 140.527 7.35342 140.527 7.41511C140.54 9.11075 140.542 10.8021 140.534 12.4898C140.533 12.5059 140.527 12.5214 140.516 12.5328C140.504 12.5442 140.489 12.5507 140.472 12.5509L138.643 12.56C138.62 12.56 138.609 12.549 138.609 12.5264L138.626 4.31092C138.626 4.29429 138.633 4.27838 138.645 4.26661C138.656 4.25485 138.672 4.24817 138.689 4.24801L140.854 4.22969C140.876 4.2295 140.898 4.23573 140.917 4.24764C140.935 4.25955 140.95 4.27664 140.96 4.29687C141.464 5.39146 141.953 6.49461 142.475 7.58919C142.69 8.04242 142.897 8.49993 143.095 8.96232C143.127 9.03622 143.163 9.07165 143.205 9.0686Z" fill="#0A0A0A"/>
<path d="M27.2059 4.2621C27.7227 4.29936 28.2352 4.29692 28.744 4.25477C29.3872 4.22728 30.0285 4.234 30.6681 4.27615C31.161 4.30852 31.5617 4.37388 31.8708 4.47161C34.0502 5.16306 35.1063 7.24229 34.5999 9.42597C34.1662 11.2975 32.6209 12.3811 30.7768 12.5314C30.6589 12.5405 30.2521 12.5479 29.5564 12.5534C28.62 12.5601 27.6842 12.5607 26.7478 12.554C26.724 12.554 26.7124 12.5418 26.7124 12.5179L26.7155 4.34761C26.7155 4.33486 26.7182 4.32226 26.7232 4.31053C26.7282 4.2988 26.7355 4.28819 26.7446 4.27932C26.7538 4.27045 26.7646 4.26349 26.7765 4.25886C26.7884 4.25422 26.8011 4.252 26.8138 4.25233L27.2059 4.2621ZM28.8533 5.99988V10.8144C28.8533 10.832 28.8603 10.849 28.8728 10.8614C28.8853 10.8739 28.9022 10.8809 28.9199 10.8809H30.3095C30.6068 10.8809 30.9012 10.82 31.1758 10.7016C31.4504 10.5831 31.7 10.4096 31.9102 10.1907C32.1204 9.9719 32.2871 9.71212 32.4009 9.42621C32.5147 9.1403 32.5732 8.83387 32.5732 8.5244V8.28985C32.5732 7.98038 32.5147 7.67394 32.4009 7.38803C32.2871 7.10213 32.1204 6.84234 31.9102 6.62352C31.7 6.40469 31.4504 6.23111 31.1758 6.11268C30.9012 5.99426 30.6068 5.9333 30.3095 5.9333H28.9199C28.9022 5.9333 28.8853 5.94032 28.8728 5.9528C28.8603 5.96529 28.8533 5.98222 28.8533 5.99988Z" fill="#0A0A0A"/>
<path d="M45.0475 8.75844C45.039 8.36263 45.0457 8.09203 45.0683 7.94605C45.0909 7.79884 45.1013 7.67545 45.1001 7.57711C45.0982 7.45556 45.1373 7.34439 45.122 7.21734C45.0939 6.97912 45.1324 6.78732 45.1214 6.56071C45.1147 6.42449 45.1172 6.29195 45.1275 6.16367C45.1501 5.88086 45.133 5.59989 45.075 5.32013L45.0701 4.27013C45.0701 4.24753 45.0811 4.23654 45.1031 4.23715C45.772 4.24326 46.4255 4.27013 47.0883 4.23349C47.0956 4.23307 47.1029 4.23415 47.1098 4.23667C47.1167 4.23918 47.123 4.24307 47.1283 4.24811C47.1336 4.25314 47.1378 4.25921 47.1407 4.26594C47.1436 4.27266 47.1451 4.27991 47.1451 4.28724L47.1432 12.4661C47.1432 12.4876 47.1348 12.5081 47.1197 12.5233C47.1046 12.5386 47.0841 12.5472 47.0626 12.5474L45.1153 12.5596C45.0884 12.5602 45.075 12.5467 45.075 12.5199L45.0475 8.75844Z" fill="#0A0A0A"/>
<path d="M101.013 4.24609H99.0465C99.0152 4.24609 98.9897 4.27153 98.9897 4.3029V12.5001C98.9897 12.5315 99.0152 12.5569 99.0465 12.5569H101.013C101.045 12.5569 101.07 12.5315 101.07 12.5001V4.3029C101.07 4.27153 101.045 4.24609 101.013 4.24609Z" fill="#0A0A0A"/>
<path d="M50.9608 10.8465C51.0548 10.8502 51.1464 10.8172 51.2301 10.8172C52.2826 10.8147 53.3362 10.8147 54.3923 10.8172C54.4156 10.8172 54.4296 10.8282 54.4345 10.8508C54.4766 11.0377 54.4278 11.2466 54.4339 11.395C54.4473 11.7322 54.4204 12.0797 54.4485 12.4132C54.4552 12.4969 54.4125 12.5391 54.3203 12.5409C52.6375 12.5763 50.8093 12.5775 48.8357 12.5452C48.8156 12.5446 48.8027 12.5348 48.7984 12.5152C48.7801 12.4364 48.7728 12.3583 48.7758 12.2819C48.8058 11.5398 48.7813 10.6431 48.7789 10.0622C48.7746 8.68296 48.7746 7.30495 48.7936 5.92633C48.8009 5.38393 48.7917 4.84152 48.7667 4.29972C48.7655 4.2759 48.7771 4.26368 48.8009 4.26368L50.8649 4.25146C50.8868 4.25146 50.8978 4.26246 50.8978 4.28445C50.9015 6.28366 50.9027 8.28287 50.9015 10.2815C50.9009 10.4586 50.9088 10.6358 50.9247 10.8123C50.9265 10.8343 50.9388 10.8459 50.9608 10.8465Z" fill="#0A0A0A"/>
<path d="M90.5535 4.26222C90.8754 4.29337 91.1985 4.30681 91.5216 4.30253C91.5259 4.30253 91.5363 4.30437 91.5534 4.30803C91.5662 4.31109 91.576 4.3062 91.5821 4.29459C91.5913 4.2781 91.6047 4.27138 91.623 4.27383C91.9419 4.31292 92.2601 4.30436 92.5783 4.24756L93.7621 4.24939C93.9533 4.28665 94.1335 4.29154 94.3015 4.26527C95.6294 4.28909 97.1253 4.87548 97.424 6.3274C97.6958 7.64555 97.4338 8.99485 96.2103 9.73211C96.1987 9.73883 96.1767 9.7486 96.1431 9.76265C96.1132 9.77487 96.0936 9.79014 96.0845 9.80846C96.0762 9.82507 96.0724 9.84351 96.0734 9.86202C96.0744 9.88052 96.0801 9.89847 96.0899 9.91413C96.5969 10.7186 97.1021 11.5053 97.6048 12.2731C97.6213 12.2982 97.6463 12.3238 97.6799 12.3495C97.7208 12.3806 97.7422 12.4099 97.7447 12.438C97.7514 12.5144 97.7166 12.5529 97.639 12.5535L95.39 12.5645C95.382 12.5645 95.3743 12.5622 95.3676 12.558C95.3609 12.5538 95.3555 12.5478 95.3521 12.5407L94.2001 10.3057C94.1847 10.2755 94.1612 10.2502 94.1322 10.2326C94.1032 10.2149 94.0698 10.2055 94.0358 10.2055H92.5741C92.5503 10.2055 92.5275 10.2149 92.5106 10.2317C92.4937 10.2485 92.484 10.2714 92.4837 10.2953L92.4611 12.5327C92.4611 12.5517 92.4513 12.5608 92.4324 12.5608L90.4564 12.5541C90.402 12.5535 90.3751 12.5266 90.3751 12.4722L90.3745 4.30314C90.3745 4.28543 90.3831 4.27444 90.3996 4.26894C90.4509 4.25306 90.5022 4.25061 90.5535 4.26222ZM92.4702 6.01222L92.4617 8.45061C92.4616 8.46593 92.4645 8.48112 92.4703 8.4953C92.4761 8.50949 92.4846 8.52239 92.4954 8.53328C92.5062 8.54417 92.519 8.55284 92.5331 8.55877C92.5473 8.56471 92.5624 8.56781 92.5777 8.56789L94.2166 8.57338C94.5609 8.57457 94.8916 8.44435 95.1359 8.21137C95.3802 7.97838 95.5182 7.66171 95.5194 7.33098L95.5201 7.15384C95.5213 6.82306 95.3857 6.50532 95.1431 6.27049C94.9005 6.03567 94.5707 5.90299 94.2263 5.90166L92.5875 5.89616C92.5722 5.89608 92.557 5.89902 92.5428 5.90481C92.5286 5.9106 92.5157 5.91912 92.5048 5.9299C92.4939 5.94068 92.4853 5.95349 92.4793 5.96762C92.4734 5.98174 92.4703 5.9969 92.4702 6.01222Z" fill="#0A0A0A"/>
<path d="M118.583 12.6644C119.13 12.6644 119.574 12.2205 119.574 11.673C119.574 11.1255 119.13 10.6816 118.583 10.6816C118.035 10.6816 117.591 11.1255 117.591 11.673C117.591 12.2205 118.035 12.6644 118.583 12.6644Z" fill="#0A0A0A"/>
<path d="M77.4795 16.3561C77.4648 16.8465 77.4654 17.3352 77.4819 17.8214C77.4856 17.9259 77.5216 17.9546 77.4886 18.089C77.4685 18.172 77.474 18.3241 77.5063 18.5446C77.4929 18.9924 77.5027 19.3686 77.5357 19.6722C77.5686 19.9782 77.1814 19.8658 77.003 19.8487C76.9827 19.8469 76.9637 19.838 76.9491 19.8237C76.9345 19.8093 76.9253 19.7903 76.923 19.7699C76.9059 19.6221 76.956 19.4737 76.9511 19.3356C76.9334 18.7987 76.9352 18.2667 76.9566 17.7383C77.0311 17.4445 77.0384 17.1452 76.9786 16.8398C76.9865 16.6523 76.9743 16.3292 76.9432 15.8705C76.9267 15.6298 77.3194 15.6866 77.4526 15.7385C77.4614 15.742 77.469 15.7479 77.4743 15.7557C77.4796 15.7634 77.4825 15.7725 77.4825 15.7819L77.4795 16.3561Z" fill="#0A0A0A"/>
<path d="M115.826 19.8699C115.818 19.8699 115.81 19.8682 115.802 19.865C115.794 19.8618 115.787 19.857 115.781 19.8511C115.775 19.8451 115.771 19.838 115.767 19.8303C115.764 19.8225 115.763 19.8142 115.763 19.8058L115.777 15.9234C115.777 15.8626 115.79 15.8043 115.814 15.7614C115.838 15.7184 115.87 15.6943 115.903 15.6943L116.199 15.6956C116.215 15.6956 116.232 15.7015 116.247 15.7131C116.262 15.7247 116.276 15.7417 116.288 15.7631C116.299 15.7845 116.309 15.8099 116.315 15.8378C116.321 15.8657 116.324 15.8956 116.324 15.9258L116.31 19.8082C116.31 19.8249 116.303 19.8409 116.291 19.8527C116.279 19.8645 116.263 19.8711 116.246 19.8711L115.826 19.8699Z" fill="#0A0A0A"/>
<path d="M49.8418 18.6685C49.7936 19.038 49.7856 19.4332 49.818 19.8535C49.6671 19.8926 49.4882 19.9011 49.2817 19.8797C49.2628 19.8779 49.2512 19.8675 49.2469 19.8486C49.2206 19.7209 49.2084 19.6256 49.209 19.5621C49.2206 18.7345 49.2237 17.9062 49.2182 17.0785C49.2157 16.6552 49.278 16.2264 49.3006 15.7946C49.3019 15.7708 49.3128 15.7543 49.3342 15.7439C49.4827 15.6736 49.6219 15.6871 49.752 15.7848C49.7697 15.7982 49.7801 15.816 49.782 15.8386C49.7972 16.0181 49.8198 16.1971 49.8504 16.3749C49.898 16.6534 49.8455 16.9203 49.8717 17.1873C49.9231 17.7205 49.9133 18.2147 49.8418 18.6685Z" fill="#0A0A0A"/>
<path d="M31.7095 17.5699C31.6784 17.6249 31.6625 17.6903 31.6619 17.7654C31.6588 18.2595 31.6509 18.7598 31.6375 19.265C31.6356 19.3584 31.5874 19.4036 31.4939 19.4006L30.9087 19.3786C30.8916 19.3779 30.8753 19.3706 30.8635 19.3582C30.8516 19.3457 30.845 19.3292 30.8452 19.312C30.8538 18.4214 30.8623 17.5235 30.8703 16.6189C30.8715 16.4998 30.8513 16.1815 31.0211 16.1712C31.3675 16.1492 31.5788 16.1205 31.8012 16.4314C31.9551 16.647 32.2648 17.0678 32.7302 17.6927C32.7901 17.7733 32.8676 17.9322 32.9715 18.0293C32.988 18.0452 33.0008 18.0421 33.01 18.0207C33.0417 17.9456 33.0552 17.8857 33.0509 17.8405C33.0234 17.5632 33.0594 17.223 33.0625 17.0208C33.0655 16.7783 33.0741 16.5248 33.0875 16.2591C33.0885 16.2396 33.0968 16.2211 33.1109 16.2075C33.125 16.1938 33.1437 16.1861 33.1633 16.1858L33.7497 16.1736C33.7574 16.1734 33.7651 16.1748 33.7722 16.1777C33.7794 16.1805 33.786 16.1848 33.7915 16.1902C33.797 16.1956 33.8014 16.202 33.8044 16.2091C33.8074 16.2163 33.8089 16.2239 33.8089 16.2316L33.8187 19.3297C33.8187 19.3395 33.8167 19.3492 33.8129 19.3582C33.809 19.3673 33.8034 19.3754 33.7963 19.3822C33.7893 19.389 33.7809 19.3943 33.7717 19.3978C33.7625 19.4012 33.7527 19.4028 33.7429 19.4024L33.1333 19.3798C33.0924 19.378 33.0601 19.3609 33.0362 19.3285C32.6117 18.7506 32.1127 18.1997 31.7572 17.5705C31.7548 17.5663 31.7514 17.5628 31.7472 17.5603C31.7431 17.5579 31.7384 17.5565 31.7335 17.5565C31.7287 17.5564 31.7239 17.5576 31.7197 17.56C31.7155 17.5623 31.712 17.5658 31.7095 17.5699Z" fill="#0A0A0A"/>
<path d="M35.7833 16.8994L35.7827 17.4076C35.7827 17.4149 35.7842 17.4222 35.787 17.4289C35.7898 17.4357 35.7939 17.4418 35.7991 17.4469C35.8043 17.452 35.8104 17.456 35.8171 17.4587C35.8239 17.4614 35.8311 17.4627 35.8383 17.4626L37.1424 17.44C37.1781 17.4394 37.213 17.4504 37.2419 17.4712C37.2709 17.492 37.2923 17.5215 37.3031 17.5554C37.3538 17.716 37.3562 17.8767 37.3092 18.0361C37.3037 18.0563 37.2902 18.0703 37.2701 18.0776C36.9714 18.1864 36.2922 18.1119 35.9061 18.0954C35.8304 18.0923 35.7907 18.1283 35.7864 18.2041L35.7638 18.6378C35.7629 18.6551 35.7657 18.6725 35.7719 18.6887C35.7781 18.705 35.7876 18.7198 35.7997 18.7321C35.8119 18.7445 35.8265 18.7541 35.8426 18.7605C35.8587 18.7669 35.876 18.7698 35.8933 18.7691L37.4179 18.7117C37.4439 18.7107 37.4694 18.719 37.4898 18.7353C37.5102 18.7515 37.5241 18.7746 37.5291 18.8003C37.6073 19.2003 37.6415 19.3567 37.1656 19.3622C36.4467 19.3714 35.74 19.3799 35.0449 19.3885C35.0339 19.3886 35.0229 19.3866 35.0127 19.3825C35.0025 19.3784 34.9932 19.3723 34.9853 19.3646C34.9775 19.3568 34.9713 19.3476 34.967 19.3375C34.9628 19.3273 34.9606 19.3164 34.9606 19.3054L34.9551 16.2617C34.9551 16.2293 34.971 16.2134 35.0027 16.2128L37.4344 16.1621C37.4455 16.1619 37.4563 16.1656 37.465 16.1725C37.4736 16.1795 37.4794 16.1892 37.4814 16.2C37.5199 16.3924 37.5211 16.5854 37.4863 16.7778C37.4846 16.7872 37.4807 16.7961 37.4748 16.8036C37.469 16.8112 37.4614 16.8172 37.4527 16.8212C37.3788 16.8566 37.3055 16.8725 37.2334 16.8682C36.7368 16.8395 36.2671 16.8359 35.8243 16.8566C35.8133 16.8571 35.8028 16.8618 35.7952 16.8698C35.7876 16.8777 35.7833 16.8884 35.7833 16.8994Z" fill="#0A0A0A"/>
<path d="M40.786 17.3399C40.785 17.3365 40.7829 17.3334 40.7801 17.3312C40.7772 17.3291 40.7738 17.3278 40.7702 17.3277C40.7667 17.3275 40.7631 17.3285 40.7602 17.3305C40.7572 17.3325 40.7549 17.3353 40.7536 17.3387C40.5435 17.9476 40.3651 18.5695 40.2179 19.2053C40.1617 19.4503 39.7702 19.3941 39.5204 19.3947C39.3622 19.3953 39.2614 19.3293 39.2192 19.1968C38.9181 18.2561 38.6054 17.299 38.2822 16.3259C38.2765 16.3088 38.2749 16.2906 38.2777 16.2727C38.2804 16.2549 38.2873 16.238 38.2979 16.2233C38.3085 16.2087 38.3223 16.1968 38.3384 16.1886C38.3545 16.1804 38.3723 16.1762 38.3903 16.1763H38.9883C39.083 16.1763 39.1441 16.2221 39.1704 16.3131C39.3444 16.9154 39.502 17.5005 39.6431 18.0692C39.6523 18.1046 39.6535 18.1462 39.648 18.1944C39.6413 18.2561 39.6474 18.2989 39.6664 18.3233C39.7317 18.4064 39.7769 18.3966 39.8026 18.294C39.9547 17.6862 40.1049 17.0919 40.2527 16.5116C40.265 16.4634 40.3022 16.3742 40.3645 16.2441C40.3691 16.2345 40.3758 16.2261 40.3842 16.2195C40.3925 16.2128 40.4023 16.2081 40.4128 16.2056C40.6211 16.1561 40.8324 16.1451 41.0468 16.172C41.0585 16.1733 41.0697 16.1773 41.0797 16.1837C41.0898 16.19 41.0983 16.1985 41.1048 16.2086C41.1897 16.3406 41.252 16.4786 41.2905 16.6222C41.4487 17.2073 41.6136 17.7919 41.7853 18.3764C41.7867 18.3807 41.7895 18.3843 41.7931 18.3868C41.7968 18.3894 41.8011 18.3907 41.8056 18.3905C41.81 18.3904 41.8143 18.3888 41.8178 18.3861C41.8213 18.3833 41.8238 18.3795 41.825 18.3752C41.96 17.7687 42.1121 17.1621 42.2813 16.5568C42.3301 16.3827 42.3772 16.186 42.561 16.1799C42.7522 16.1732 42.9544 16.1799 43.1682 16.2013C43.1785 16.2024 43.1884 16.2058 43.1973 16.2113C43.2061 16.2167 43.2136 16.2241 43.2192 16.2328C43.2248 16.2416 43.2284 16.2514 43.2298 16.2617C43.2311 16.272 43.2301 16.2825 43.2268 16.2923L42.2031 19.3568C42.1999 19.3662 42.1938 19.3743 42.1856 19.38C42.1775 19.3857 42.1678 19.3887 42.1579 19.3886L41.3534 19.3696C41.3368 19.3693 41.3207 19.3635 41.3077 19.3531C41.2946 19.3428 41.2854 19.3284 41.2814 19.3122L40.786 17.3399Z" fill="#0A0A0A"/>
<path d="M44.883 18.0093C43.7401 17.71 43.767 16.4712 44.9074 16.2086C45.4779 16.0772 46.0252 16.156 46.5487 16.4437C46.5717 16.4565 46.589 16.4775 46.5971 16.5025C46.6052 16.5275 46.6034 16.5545 46.5921 16.5781L46.3538 17.0827C46.3331 17.126 46.2995 17.1425 46.2531 17.1321C46.0723 17.0918 45.8994 16.9788 45.7442 16.9312C45.5732 16.8792 45.4077 16.8469 45.2483 16.834C44.9007 16.8066 44.9117 17.2018 45.1664 17.3129C45.7082 17.5499 46.5224 17.567 46.6263 18.3183C46.7148 18.9628 46.1761 19.3354 45.6031 19.3909C45.0253 19.4477 44.4921 19.3305 44.004 19.0391C43.9823 19.0262 43.9645 19.0076 43.9525 18.9852C43.9406 18.9628 43.9349 18.9375 43.9362 18.9121C43.946 18.7239 44.012 18.2603 44.3149 18.3813C44.6625 18.5193 45.1261 18.8015 45.4773 18.7245C45.6917 18.6781 45.8982 18.4692 45.6239 18.3067C45.4156 18.1833 45.1682 18.0844 44.883 18.0093Z" fill="#0A0A0A"/>
<path d="M55.1269 16.6041C55.0908 16.6671 55.0352 16.708 54.9607 16.7257C54.7518 16.7758 54.5735 16.8326 54.4256 16.8967C54.3884 16.9352 54.3407 16.9609 54.2815 16.9725C54.2589 16.9767 54.2473 16.9908 54.2461 17.0134L54.2387 17.1215C54.2027 17.3976 54.2002 17.6731 54.2326 17.9486V19.2789C54.2326 19.3504 54.1972 19.3852 54.1257 19.384L53.488 19.3742C53.4221 19.3736 53.3872 19.34 53.3836 19.274C53.3695 19.012 53.3561 18.7603 53.3445 18.5191C53.3201 18.0133 53.3555 17.4727 53.3512 16.9474C53.3506 16.9236 53.339 16.9089 53.3158 16.9034C52.8729 16.7984 52.2774 17.0439 52.4698 16.2529C52.4752 16.231 52.4878 16.2115 52.5055 16.1976C52.5232 16.1836 52.545 16.176 52.5675 16.176C53.1771 16.179 53.7867 16.1735 54.3957 16.1582C54.5967 16.1534 54.8324 16.1821 55.1024 16.2444C55.1214 16.2486 55.1342 16.2603 55.1403 16.2792C55.1751 16.3885 55.1702 16.4966 55.1269 16.6041Z" fill="#0A0A0A"/>
<path d="M62.3646 19.3725L59.9775 19.3865C59.9298 19.3871 59.906 19.3633 59.906 19.3151L59.9048 16.3062C59.9048 16.2791 59.9154 16.2531 59.9344 16.2338C59.9533 16.2145 59.9791 16.2034 60.0062 16.2029L62.2619 16.1626C62.2911 16.1621 62.3196 16.1708 62.3434 16.1873C62.3672 16.2039 62.3851 16.2275 62.3945 16.2549C62.4238 16.341 62.4708 16.7313 62.3847 16.8229C62.38 16.828 62.3732 16.8311 62.3658 16.8315L60.7844 16.906C60.755 16.9072 60.7404 16.9225 60.7398 16.9518L60.73 17.3549C60.7297 17.3665 60.7317 17.3779 60.7358 17.3886C60.74 17.3994 60.7463 17.4092 60.7543 17.4174C60.7624 17.4257 60.772 17.4322 60.7826 17.4367C60.7932 17.4412 60.8046 17.4435 60.8161 17.4435H62.1196C62.1524 17.4437 62.1839 17.4565 62.2074 17.4794C62.2308 17.5024 62.2445 17.5335 62.2455 17.5663L62.2595 18.0433C62.2599 18.0564 62.256 18.0691 62.2485 18.0797C62.241 18.0903 62.2303 18.0981 62.218 18.102C61.9321 18.1905 61.3634 18.1319 61.0531 18.116C60.967 18.1117 60.8864 18.127 60.81 18.1606C60.7911 18.1692 60.7789 18.1832 60.7734 18.2028C60.7331 18.3353 60.6176 18.7488 60.8693 18.7384C61.2058 18.7244 61.5424 18.7207 61.879 18.7262C61.9962 18.7287 62.2204 18.678 62.3933 18.7256C62.403 18.7284 62.4118 18.7336 62.419 18.7407C62.4261 18.7477 62.4314 18.7564 62.4342 18.7659C62.4849 18.9339 62.4971 19.1043 62.4721 19.2784C62.4683 19.3044 62.4553 19.3282 62.4356 19.3455C62.4159 19.3627 62.3907 19.3723 62.3646 19.3725Z" fill="#0A0A0A"/>
<path d="M73.3509 18.3162C72.9612 18.0566 72.0896 17.998 71.8813 17.5619C71.7066 17.196 71.7261 16.8686 71.9393 16.5784C72.3296 16.0501 73.8542 15.9921 74.2494 16.4935C74.2629 16.5106 74.2672 16.5296 74.2623 16.551C74.2165 16.7483 74.1328 16.9297 74.0124 17.0952C73.9969 17.1167 73.9739 17.1317 73.9479 17.1373C73.9218 17.143 73.8946 17.1388 73.8713 17.1257C73.6435 16.9969 72.6521 16.5412 72.643 17.0989C72.6424 17.1196 72.6485 17.138 72.6613 17.1538C72.7462 17.2644 72.8562 17.3383 72.9912 17.3743C73.5568 17.5258 74.2592 17.6651 74.2922 18.4005C74.3203 19.0181 73.8781 19.3058 73.3094 19.3827C72.7493 19.4585 72.2172 19.3473 71.7139 19.0492C71.4696 18.9044 71.6742 18.6033 71.7744 18.4366C71.8324 18.3407 71.9143 18.3205 72.0206 18.3749C72.3797 18.5593 72.7676 18.7841 73.1781 18.7249C73.3564 18.6992 73.5824 18.4702 73.3509 18.3162Z" fill="#0A0A0A"/>
<path d="M83.1886 17.5207C83.1884 17.5159 83.1866 17.5112 83.1835 17.5075C83.1803 17.5038 83.1761 17.5012 83.1713 17.5001C83.1666 17.4991 83.1616 17.4996 83.1572 17.5017C83.1528 17.5038 83.1492 17.5072 83.147 17.5116C82.976 17.8817 82.6419 18.983 82.265 19.0966C82.0372 19.1663 81.8698 19.0105 81.7764 18.7888C81.653 18.4962 81.5106 18.2158 81.4056 17.9135C81.3634 17.7919 81.314 17.693 81.2578 17.6166C81.2022 17.5403 81.1741 17.5488 81.1722 17.6435L81.1472 19.2622C81.1469 19.286 81.1382 19.3089 81.1225 19.3269C81.1069 19.3449 81.0853 19.3568 81.0617 19.3605C80.8956 19.3862 80.7215 19.3923 80.5388 19.3795C80.4411 19.3721 80.3935 19.3275 80.3965 19.2451C80.4277 18.2641 80.4234 17.2941 80.3849 16.3351C80.3833 16.3007 80.3951 16.2671 80.4178 16.2411C80.4404 16.2152 80.4722 16.199 80.5065 16.1959C80.796 16.1684 81.2315 16.0542 81.3989 16.3718C81.664 16.8745 81.8979 17.3906 82.1007 17.9214C82.1092 17.944 82.1233 17.9477 82.1422 17.9336C82.1948 17.8946 82.2351 17.8481 82.2626 17.7938C82.5179 17.2972 82.7579 16.7981 82.9833 16.296C82.9998 16.2594 83.0266 16.2283 83.0604 16.2066C83.0943 16.1849 83.1337 16.1735 83.1739 16.1739L83.8782 16.18C83.8925 16.1801 83.9066 16.1831 83.9198 16.1888C83.9329 16.1945 83.9448 16.2027 83.9547 16.2129C83.9647 16.2232 83.9725 16.2354 83.9777 16.2487C83.9829 16.262 83.9854 16.2762 83.9851 16.2905C83.9613 17.266 83.9533 18.236 83.9606 19.1993C83.9631 19.4864 83.381 19.3788 83.2301 19.3373C83.2212 19.3348 83.2134 19.3295 83.2078 19.3221C83.2022 19.3147 83.1991 19.3057 83.199 19.2964L83.1886 17.5207Z" fill="#0A0A0A"/>
<path d="M84.8402 19.3602C84.8344 19.3595 84.8288 19.3575 84.8239 19.3543C84.8191 19.3511 84.815 19.3468 84.8121 19.3418C84.8092 19.3367 84.8075 19.3311 84.8072 19.3253C84.8069 19.3194 84.8079 19.3136 84.8102 19.3083C85.2396 18.2803 85.6666 17.2346 86.154 16.2279C86.1588 16.2182 86.1657 16.2098 86.1742 16.2034C86.1827 16.1969 86.1925 16.1925 86.2029 16.1907C86.3709 16.1595 86.5798 16.1565 86.8296 16.1803C87.0086 16.1974 87.0526 16.2371 87.1252 16.4069C87.5027 17.2914 87.8698 18.2882 88.3133 19.202C88.3396 19.2564 88.3279 19.301 88.2772 19.3352C88.1245 19.439 87.6389 19.3962 87.5308 19.37C87.2688 19.3058 87.4563 18.9015 87.1491 18.8166C87.1191 18.808 87.008 18.8025 86.8156 18.8001C86.5114 18.7964 86.2127 18.7983 85.9189 18.8062C85.8979 18.8069 85.8777 18.814 85.861 18.8266C85.8442 18.8392 85.8318 18.8566 85.8254 18.8764L85.6971 19.2771C85.6892 19.302 85.6741 19.3239 85.6538 19.3403C85.6335 19.3567 85.6089 19.3668 85.5829 19.3694C85.3355 19.3932 85.0876 19.3901 84.8402 19.3602ZM86.1974 18.0567C86.1927 18.0718 86.1917 18.0878 86.1945 18.1033C86.1972 18.1188 86.2036 18.1335 86.2132 18.1461C86.2228 18.1586 86.2352 18.1687 86.2494 18.1755C86.2637 18.1822 86.2794 18.1855 86.2951 18.185L86.8467 18.1679C86.8625 18.1674 86.8779 18.1631 86.8917 18.1554C86.9055 18.1477 86.9172 18.1369 86.926 18.1237C86.9347 18.1106 86.9402 18.0955 86.9419 18.0798C86.9436 18.0641 86.9416 18.0482 86.9359 18.0335L86.6354 17.2529C86.628 17.2337 86.6148 17.2172 86.5977 17.2059C86.5806 17.1945 86.5603 17.1887 86.5397 17.1894C86.5192 17.1901 86.4993 17.1971 86.483 17.2096C86.4666 17.2221 86.4546 17.2393 86.4485 17.259L86.1974 18.0567Z" fill="#0A0A0A"/>
<path d="M93.8898 17.3338C93.8935 17.3499 93.9016 17.3647 93.9131 17.3765C93.9247 17.3883 93.9392 17.3966 93.9553 17.4006C93.9713 17.4046 93.9881 17.4041 94.0038 17.3991C94.0196 17.394 94.0336 17.3848 94.0444 17.3723C94.2203 17.1676 94.3956 16.9648 94.5709 16.7639C94.9478 16.3314 95.0706 16.1195 95.6252 16.1647C95.7761 16.1769 95.8946 16.2087 95.9819 16.26C96.0021 16.2716 96.0045 16.2862 95.988 16.3027C95.7168 16.5788 95.3998 16.9306 95.037 17.3576C94.9759 17.4291 94.9374 17.503 94.9209 17.5793C94.9154 17.6038 94.9203 17.6264 94.935 17.6465L96.1261 19.2982C96.1282 19.3011 96.1296 19.3046 96.1301 19.3082C96.1307 19.3118 96.1303 19.3155 96.1291 19.3189C96.1279 19.3222 96.1259 19.3253 96.1232 19.3276C96.1205 19.33 96.1173 19.3316 96.1138 19.3324C95.908 19.3806 95.1921 19.4949 95.0437 19.2774C94.8562 19.0032 94.6748 18.7246 94.4982 18.443C94.4078 18.2989 94.3351 18.2329 94.1635 18.2824C93.8343 18.3771 93.9051 19.052 93.8758 19.2988C93.8734 19.3214 93.8611 19.3354 93.8392 19.3409C93.6058 19.4014 93.3719 19.4087 93.1367 19.3617C93.1268 19.3597 93.1177 19.3551 93.1101 19.3485C93.1025 19.3418 93.0967 19.3333 93.0933 19.3238C93.0536 19.2151 93.0341 19.1449 93.0335 19.1125C93.0255 18.1737 93.0268 17.2458 93.0371 16.329C93.0375 16.3003 93.0477 16.2725 93.0659 16.2504C93.0841 16.2283 93.1093 16.2132 93.1373 16.2074C93.3407 16.1653 93.5447 16.1622 93.7494 16.197C93.8184 16.2093 93.8581 16.2496 93.8691 16.3186C93.9124 16.5861 93.9186 16.8696 93.8874 17.1689C93.8801 17.2385 93.8807 17.2935 93.8898 17.3338Z" fill="#0A0A0A"/>
<path d="M106.838 17.6174C106.831 17.6091 106.822 17.6031 106.812 17.6003C106.802 17.5975 106.791 17.598 106.781 17.6017C106.772 17.6055 106.763 17.6123 106.758 17.6212C106.752 17.6301 106.749 17.6405 106.75 17.651C106.784 18.169 106.796 18.6754 106.786 19.1695C106.785 19.2312 106.775 19.2917 106.757 19.3497C106.749 19.3747 106.733 19.3876 106.706 19.3876L106.051 19.3833C106.023 19.3833 106.006 19.3699 105.998 19.3436C105.971 19.2544 105.958 19.1457 105.958 19.0168C105.96 18.0951 105.964 17.1795 105.97 16.2693C105.97 16.252 105.976 16.2352 105.987 16.2218C105.998 16.2084 106.013 16.1993 106.03 16.196C106.296 16.1435 106.661 16.1075 106.842 16.3512C107.249 16.8979 107.644 17.4311 108.028 17.9515C108.037 17.9636 108.049 17.9727 108.064 17.9773C108.078 17.982 108.093 17.9821 108.108 17.9776C108.122 17.9731 108.135 17.9642 108.144 17.9522C108.153 17.9402 108.158 17.9256 108.158 17.9106C108.169 17.461 108.175 17.0206 108.178 16.5888C108.178 16.3933 108.169 16.1722 108.439 16.1765C108.578 16.1783 108.714 16.1893 108.849 16.2083C108.878 16.2124 108.905 16.2269 108.925 16.2491C108.944 16.2713 108.955 16.2998 108.955 16.3292L108.958 19.3204C108.958 19.3418 108.948 19.3546 108.927 19.3582C108.676 19.4059 108.242 19.4578 108.054 19.2013C107.652 18.6558 107.247 18.1274 106.838 17.6174Z" fill="#0A0A0A"/>
<path d="M112.221 18.563C112.279 18.3675 112.293 18.1519 112.264 17.9162C112.224 17.6004 112.811 17.7323 112.966 17.7641C112.977 17.7663 112.987 17.7722 112.994 17.7808C113 17.7893 113.004 17.8 113.004 17.8111C113.007 18.122 113.007 18.4372 113.003 18.756C113.001 18.9326 112.964 19.0425 112.801 19.1329C111.783 19.6967 110.201 19.4817 109.958 18.111C109.655 16.4062 111.553 15.708 112.816 16.4697C113.129 16.6585 112.723 17.1734 112.471 17.152C112.277 17.1355 112.149 16.9132 111.908 16.8967C110.159 16.777 110.668 19.2508 112.181 18.6076C112.191 18.6036 112.199 18.5975 112.206 18.5898C112.213 18.5821 112.218 18.573 112.221 18.563Z" fill="#0A0A0A"/>
<path d="M127.312 18.5683C127.377 18.3673 127.402 18.145 127.385 17.9013C127.365 17.602 127.859 17.7015 128.019 17.7522C128.04 17.7583 128.051 17.7724 128.053 17.7944C128.078 18.09 128.088 18.4168 128.083 18.7753C128.082 18.958 128.035 19.0783 127.863 19.1669C127.201 19.5059 126.352 19.5541 125.733 19.1315C124.709 18.4327 124.833 16.9142 125.912 16.362C126.169 16.2307 126.45 16.1623 126.752 16.1574C127.06 16.1531 128.008 16.2411 127.999 16.7132C127.992 17.0198 127.744 17.2471 127.435 17.0602C127.087 16.8488 126.732 16.8256 126.37 16.9899C125.93 17.189 125.772 17.8176 125.999 18.2293C126.249 18.6813 126.798 18.8028 127.271 18.6123C127.281 18.6082 127.289 18.6022 127.296 18.5946C127.303 18.587 127.309 18.578 127.312 18.5683Z" fill="#0A0A0A"/>
<path d="M130.983 16.3994C131.038 16.306 131.144 16.265 131.301 16.2767C131.461 16.2638 131.621 16.2424 131.779 16.2125C132.339 16.1044 132.981 16.1606 133.555 16.1606C133.579 16.1606 133.601 16.1696 133.618 16.1858C133.635 16.2019 133.645 16.224 133.646 16.2473C133.656 16.4458 133.758 16.8465 133.44 16.86C133.218 16.8698 133.002 16.8808 132.791 16.8936C132.774 16.8945 132.758 16.9021 132.746 16.9147C132.734 16.9273 132.727 16.944 132.727 16.9614L132.722 19.2874C132.722 19.3485 132.692 19.379 132.63 19.3796L131.992 19.3833C131.975 19.3834 131.959 19.3801 131.943 19.3737C131.928 19.3673 131.913 19.3579 131.902 19.346C131.89 19.3342 131.881 19.32 131.874 19.3045C131.868 19.289 131.865 19.2724 131.865 19.2556L131.879 17.0078C131.879 16.9776 131.868 16.9486 131.847 16.9268C131.826 16.905 131.798 16.8922 131.768 16.8911C131.533 16.882 131.305 16.8417 131.085 16.769C131.076 16.7663 131.069 16.7619 131.062 16.756C131.055 16.7501 131.05 16.7429 131.046 16.7348C130.998 16.6352 130.977 16.5234 130.983 16.3994Z" fill="#0A0A0A"/>
<path d="M134.933 19.3843C134.698 19.4039 134.477 19.3867 134.245 19.3525C134.239 19.3516 134.234 19.3494 134.229 19.346C134.224 19.3425 134.22 19.338 134.217 19.3327C134.214 19.3275 134.212 19.3216 134.212 19.3156C134.212 19.3096 134.213 19.3037 134.215 19.2982L135.566 16.2087C135.57 16.1996 135.576 16.1918 135.584 16.186C135.592 16.1802 135.602 16.1766 135.612 16.1757C135.782 16.1592 135.999 16.158 136.263 16.1708C136.395 16.1775 136.449 16.194 136.503 16.3241C136.886 17.2513 137.275 18.1755 137.67 19.0972C137.696 19.1589 137.715 19.2133 137.724 19.2603C137.728 19.2804 137.725 19.3014 137.714 19.3188C137.703 19.3362 137.686 19.3487 137.666 19.3538C137.434 19.413 137.2 19.4234 136.964 19.3849C136.955 19.3834 136.947 19.3799 136.94 19.3747C136.932 19.3696 136.926 19.3628 136.922 19.355L136.693 18.9451C136.67 18.9029 136.636 18.8673 136.595 18.8418C136.554 18.8162 136.507 18.8016 136.458 18.7991C136.153 18.7833 135.843 18.7808 135.527 18.7918C134.998 18.8095 135.32 19.3519 134.933 19.3843ZM135.57 18.1169C135.567 18.1262 135.566 18.1361 135.567 18.1459C135.569 18.1556 135.572 18.1649 135.578 18.1729C135.584 18.1808 135.592 18.1872 135.601 18.1915C135.61 18.1958 135.619 18.1978 135.629 18.1975L136.334 18.1743C136.343 18.174 136.353 18.1713 136.362 18.1664C136.37 18.1615 136.377 18.1546 136.383 18.1463C136.388 18.138 136.391 18.1285 136.392 18.1187C136.393 18.1089 136.391 18.099 136.387 18.09L136.005 17.189C136 17.1777 135.992 17.1681 135.982 17.1614C135.972 17.1548 135.959 17.1515 135.947 17.1519C135.935 17.1523 135.923 17.1564 135.913 17.1637C135.903 17.171 135.896 17.1811 135.892 17.1927L135.57 18.1169Z" fill="#0A0A0A"/>
<path d="M56.2089 19.3534C56.0922 19.329 56.0989 19.249 56.0965 19.1445C56.0806 18.5514 56.0745 17.7091 56.0782 16.6188C56.0788 16.4704 56.0867 16.3531 56.1032 16.267C56.1051 16.2565 56.1096 16.2467 56.1163 16.2384C56.1231 16.2302 56.1318 16.2238 56.1417 16.2199C56.1918 16.1998 56.2547 16.1882 56.3311 16.1857C57.3206 16.1552 59.0907 15.9445 58.8269 17.5815C58.7749 17.9034 58.5544 18.1263 58.3455 18.3541C58.3299 18.3711 58.3207 18.393 58.3195 18.416C58.3182 18.439 58.3251 18.4616 58.3388 18.48L58.9448 19.2948C58.9625 19.3186 58.957 19.3333 58.927 19.3382C58.6241 19.387 58.3193 19.3993 58.012 19.3742C58.0016 19.3734 57.9915 19.37 57.9829 19.3642C57.9742 19.3584 57.9672 19.3505 57.9626 19.3412C57.8612 19.1311 57.7543 18.9277 57.6413 18.7304C57.5765 18.6162 57.5783 18.5508 57.4232 18.5221C57.2839 18.4965 57.1563 18.5007 57.0408 18.5356C57.0213 18.5411 57.0066 18.5527 56.9975 18.5704C56.893 18.7628 56.9333 19.0493 56.915 19.2624C56.9131 19.2838 56.9044 19.3039 56.8902 19.3199C56.876 19.3358 56.8571 19.3467 56.8362 19.351C56.6218 19.3956 56.4129 19.3968 56.2089 19.3534ZM56.9345 17.0592L56.9358 17.6273C56.9359 17.679 56.9566 17.7286 56.9932 17.7651C57.0299 17.8016 57.0795 17.8221 57.1312 17.8221L57.4971 17.8215C57.567 17.8214 57.6362 17.8102 57.7008 17.7886C57.7653 17.767 57.824 17.7354 57.8733 17.6956C57.9227 17.6557 57.9618 17.6085 57.9884 17.5565C58.015 17.5046 58.0287 17.4489 58.0285 17.3927V17.2889C58.0282 17.1755 57.972 17.067 57.8721 16.987C57.7722 16.9071 57.6369 16.8623 57.4959 16.8625L57.13 16.8631C57.1043 16.8631 57.0788 16.8682 57.0551 16.8781C57.0313 16.8879 57.0097 16.9024 56.9916 16.9206C56.9734 16.9388 56.959 16.9604 56.9492 16.9842C56.9395 17.008 56.9345 17.0335 56.9345 17.0592Z" fill="#0A0A0A"/>
<path d="M65.7111 17.961C65.746 17.9171 65.768 17.8719 65.771 17.8126C65.8058 17.1248 65.8217 16.6557 65.8199 16.4047C65.8174 16.0669 66.281 16.1744 66.4875 16.2086C66.537 16.2165 66.5614 16.2453 66.562 16.2947C66.5712 17.2592 66.5779 18.228 66.5834 19.1998C66.584 19.3152 66.5376 19.3769 66.4441 19.3849C66.2383 19.4014 66.0361 19.394 65.837 19.3629C65.8144 19.3598 65.7967 19.3488 65.7832 19.3311L64.4449 17.5836C64.4296 17.564 64.4199 17.5665 64.4144 17.5903C64.3649 17.8261 64.4107 18.0881 64.4125 18.261C64.415 18.5199 64.4694 19.1069 64.3777 19.3293C64.374 19.3382 64.368 19.3461 64.3603 19.3521C64.3526 19.358 64.3434 19.362 64.3337 19.3635C64.1248 19.3959 63.916 19.3934 63.7064 19.3568C63.6851 19.3525 63.6686 19.3409 63.6582 19.3213C63.6252 19.2578 63.6081 19.1906 63.6069 19.1198C63.591 18.1944 63.5226 17.1908 63.6301 16.274C63.6327 16.2522 63.6426 16.2321 63.6581 16.2166C63.6736 16.2012 63.6939 16.1915 63.7156 16.1891C63.9605 16.1616 64.3002 16.1127 64.4694 16.3473C64.8554 16.8817 65.2494 17.4192 65.6507 17.9598C65.6541 17.9645 65.6585 17.9684 65.6637 17.971C65.6688 17.9737 65.6745 17.9752 65.6804 17.9753C65.6862 17.9754 65.692 17.9742 65.6974 17.9717C65.7027 17.9693 65.7074 17.9656 65.7111 17.961Z" fill="#0A0A0A"/>
<path d="M67.7021 16.3382C67.702 16.2966 67.7183 16.2567 67.7475 16.2272C67.7767 16.1977 67.8164 16.1809 67.8579 16.1806L69.1608 16.1739C69.3743 16.1727 69.586 16.2131 69.7837 16.2927C69.9814 16.3724 70.1613 16.4897 70.3131 16.6379C70.4649 16.7862 70.5856 16.9625 70.6683 17.1569C70.7511 17.3512 70.7942 17.5597 70.7953 17.7705V17.7742C70.7976 18.1999 70.6284 18.6091 70.3251 18.9117C70.0218 19.2144 69.6091 19.3857 69.1779 19.388L67.875 19.3947C67.8544 19.3949 67.8339 19.3909 67.8147 19.3832C67.7956 19.3754 67.7781 19.3639 67.7634 19.3494C67.7487 19.3348 67.7371 19.3176 67.7291 19.2985C67.7211 19.2794 67.7169 19.259 67.7168 19.2383L67.7021 16.3382ZM68.52 17.0052V18.5762C68.52 18.6128 68.5346 18.6479 68.5605 18.6738C68.5864 18.6997 68.6215 18.7143 68.6581 18.7143H69.0264C69.2654 18.7143 69.4945 18.6221 69.6635 18.4581C69.8324 18.294 69.9274 18.0715 69.9274 17.8396V17.7418C69.9274 17.5098 69.8324 17.2874 69.6635 17.1233C69.4945 16.9593 69.2654 16.8671 69.0264 16.8671H68.6581C68.6215 16.8671 68.5864 16.8817 68.5605 16.9076C68.5346 16.9335 68.52 16.9686 68.52 17.0052Z" fill="#0A0A0A"/>
<path d="M90.5858 18.5294C90.4118 18.5007 90.2395 18.5081 90.0679 18.552C90.0465 18.5575 90.0337 18.5716 90.0294 18.593C89.9879 18.8 89.9769 19.0089 89.997 19.2197C89.9988 19.2391 89.9966 19.2586 89.9904 19.2771C89.9843 19.2955 89.9745 19.3125 89.9615 19.327C89.9486 19.3414 89.9328 19.353 89.9151 19.3611C89.8975 19.3691 89.8783 19.3733 89.859 19.3736L89.2213 19.3828C89.1742 19.3834 89.1504 19.3602 89.1486 19.3131C89.1168 18.3181 89.1193 17.3237 89.1559 16.3299C89.1569 16.3019 89.168 16.2752 89.187 16.2547C89.2061 16.2341 89.2319 16.2212 89.2598 16.2181C89.8388 16.1564 90.9255 16.0752 91.4343 16.3562C91.9504 16.6414 92.0323 17.3353 91.8252 17.8514C91.7556 18.0261 91.5974 18.1801 91.4862 18.3364C91.4676 18.3623 91.4568 18.393 91.455 18.4248C91.4533 18.4566 91.4607 18.4883 91.4764 18.516C91.5748 18.6907 91.6969 18.8593 91.8417 19.0212C91.8899 19.0761 91.9516 19.1702 91.9645 19.227C91.9852 19.3205 91.9474 19.3687 91.8515 19.3712L91.1283 19.3876C91.1081 19.3882 91.0883 19.3831 91.071 19.3728C91.0537 19.3625 91.0396 19.3476 91.0305 19.3296L90.642 18.5704C90.6304 18.5472 90.6115 18.5337 90.5858 18.5294ZM89.9934 17.0366L89.9921 17.6193C89.992 17.6442 89.9969 17.6689 90.0064 17.692C90.0158 17.715 90.0298 17.736 90.0474 17.7536C90.065 17.7713 90.0859 17.7853 90.1089 17.7948C90.1319 17.8044 90.1566 17.8093 90.1815 17.8093L90.5834 17.8099C90.7181 17.8101 90.8473 17.769 90.9428 17.6956C91.0382 17.6222 91.0919 17.5225 91.0922 17.4184V17.2425C91.0924 17.1908 91.0793 17.1397 91.0539 17.092C91.0285 17.0442 90.9911 17.0008 90.944 16.9642C90.8968 16.9276 90.8408 16.8986 90.7792 16.8787C90.7175 16.8589 90.6514 16.8486 90.5846 16.8485L90.1827 16.8479C90.1326 16.8479 90.0845 16.8677 90.049 16.9031C90.0135 16.9385 89.9935 16.9865 89.9934 17.0366Z" fill="#0A0A0A"/>
<path d="M97.8655 18.1515L97.8356 18.6945C97.8337 18.7293 97.8502 18.7471 97.8851 18.7477C98.3548 18.7556 98.8636 18.7391 99.4109 18.6988C99.4995 18.6921 99.5514 18.7354 99.5666 18.8277C99.5978 19.0152 99.6992 19.3615 99.3816 19.3646C98.6064 19.3713 97.8484 19.3799 97.1087 19.389C97.0495 19.3896 97.0189 19.3603 97.0183 19.3005C97.0128 18.6976 97.0122 18.1051 97.0165 17.5236C97.0183 17.2377 97.0446 16.7588 97.0183 16.3734C97.0098 16.2494 97.0696 16.1877 97.1985 16.1896C98.0158 16.1993 98.7048 16.1468 99.4133 16.2018C99.4219 16.2025 99.4302 16.2054 99.4374 16.2102C99.4445 16.215 99.4503 16.2216 99.4543 16.2293C99.5428 16.4015 99.5599 16.5817 99.5062 16.7704C99.5008 16.7887 99.4898 16.8047 99.4746 16.8162C99.4595 16.8278 99.441 16.8342 99.4219 16.8346L97.9205 16.8553C97.9035 16.8555 97.8872 16.8622 97.8751 16.874C97.8629 16.8858 97.8558 16.9019 97.8551 16.9189L97.835 17.3947C97.8331 17.4399 97.8545 17.4625 97.8997 17.4619C98.3004 17.4576 98.7066 17.4509 99.1177 17.443C99.1525 17.4423 99.2112 17.4539 99.2936 17.4778C99.3138 17.4839 99.3278 17.4967 99.3358 17.5169C99.3975 17.6781 99.4811 18.0843 99.2032 18.1106C98.7054 18.1582 98.3035 18.0672 97.8991 18.1155C97.8901 18.1167 97.8819 18.121 97.8758 18.1276C97.8696 18.1341 97.866 18.1426 97.8655 18.1515Z" fill="#0A0A0A"/>
<path d="M101.205 16.8788L100.553 16.8238C100.524 16.8214 100.497 16.8108 100.474 16.7932C100.452 16.7757 100.435 16.7519 100.426 16.7249C100.376 16.5764 100.361 16.4237 100.382 16.2655C100.384 16.2466 100.395 16.2362 100.414 16.2356C100.631 16.227 100.845 16.2466 101.057 16.224C101.718 16.1531 102.375 16.1507 103.027 16.2167C103.046 16.2187 103.064 16.2282 103.077 16.2431C103.089 16.2581 103.095 16.2773 103.094 16.2967L103.065 16.6674C103.063 16.6907 103.053 16.709 103.034 16.723C102.848 16.8586 102.41 16.8409 102.17 16.8947C102.16 16.8969 102.15 16.9027 102.143 16.9112C102.137 16.9196 102.133 16.9302 102.133 16.9411V19.3526C102.133 19.3607 102.13 19.3685 102.124 19.3742C102.118 19.3799 102.11 19.3831 102.102 19.3831H101.433C101.4 19.3831 101.369 19.3702 101.345 19.347C101.322 19.3239 101.309 19.2925 101.309 19.2598L101.306 16.9893C101.306 16.9615 101.296 16.9347 101.277 16.9142C101.258 16.8937 101.233 16.8811 101.205 16.8788Z" fill="#0A0A0A"/>
<path d="M104.685 16.1936L104.134 16.1926C104.067 16.1925 104.012 16.2471 104.012 16.3145L104.007 19.2562C104.007 19.3237 104.061 19.3785 104.129 19.3786L104.68 19.3796C104.747 19.3797 104.802 19.3251 104.802 19.2576L104.807 16.3159C104.807 16.2485 104.753 16.1937 104.685 16.1936Z" fill="#0A0A0A"/>
<path d="M119.204 16.5147C119.205 16.4689 119.214 16.4236 119.232 16.3814C119.25 16.3393 119.276 16.3011 119.308 16.2689C119.341 16.2368 119.38 16.2115 119.422 16.1943C119.465 16.1772 119.51 16.1686 119.556 16.169L120.7 16.1787C121.137 16.1826 121.555 16.355 121.862 16.6581C122.169 16.9612 122.339 17.3701 122.335 17.795V17.8169C122.333 18.0274 122.289 18.2354 122.204 18.4291C122.12 18.6228 121.997 18.7984 121.842 18.9459C121.688 19.0934 121.505 19.2098 121.304 19.2886C121.103 19.3674 120.889 19.407 120.672 19.4051L119.528 19.3947C119.482 19.3943 119.437 19.3849 119.395 19.367C119.352 19.3491 119.314 19.3231 119.282 19.2904C119.25 19.2577 119.225 19.219 119.208 19.1766C119.19 19.1341 119.182 19.0887 119.182 19.0429L119.204 16.5147ZM120.077 17.0339L120.086 18.5646C120.086 18.6071 120.103 18.6477 120.133 18.6776C120.163 18.7075 120.204 18.7242 120.247 18.724L120.567 18.7228C120.682 18.7222 120.795 18.6999 120.901 18.6573C121.006 18.6146 121.102 18.5523 121.182 18.474C121.263 18.3958 121.326 18.303 121.37 18.201C121.413 18.0991 121.435 17.99 121.434 17.8799L121.433 17.7039C121.432 17.4818 121.339 17.2692 121.175 17.1129C121.011 16.9567 120.789 16.8696 120.558 16.8708L120.237 16.872C120.216 16.8721 120.195 16.8763 120.175 16.8845C120.156 16.8927 120.138 16.9047 120.123 16.9197C120.109 16.9347 120.097 16.9526 120.089 16.9722C120.081 16.9918 120.077 17.0127 120.077 17.0339Z" fill="#0A0A0A"/>
<path d="M123.964 16.1931L123.402 16.1941C123.326 16.1942 123.264 16.2564 123.264 16.333L123.269 19.2393C123.269 19.3158 123.331 19.3778 123.408 19.3777L123.97 19.3767C124.046 19.3766 124.108 19.3144 124.108 19.2378L124.103 16.3315C124.103 16.2549 124.041 16.193 123.964 16.1931Z" fill="#0A0A0A"/>
<path d="M129.983 16.3014L130.046 19.3292C130.046 19.3362 130.045 19.3432 130.042 19.3497C130.04 19.3562 130.036 19.3621 130.031 19.3671C130.026 19.3721 130.02 19.3761 130.014 19.3788C130.007 19.3815 130 19.3829 129.993 19.3829H129.269C129.223 19.3829 129.199 19.3597 129.199 19.3139C129.181 18.322 129.189 17.33 129.223 16.3386C129.224 16.3026 129.239 16.2682 129.263 16.2419C129.288 16.2156 129.322 16.1992 129.357 16.1957C129.556 16.1768 129.75 16.1926 129.939 16.2446C129.968 16.2525 129.983 16.2714 129.983 16.3014Z" fill="#0A0A0A"/>
<path d="M139.486 18.689C139.898 18.7641 140.277 18.7983 140.624 18.7904C140.645 18.7898 140.662 18.7989 140.674 18.8179C140.735 18.9162 140.754 19.0194 140.731 19.1282C140.728 19.1424 140.721 19.1555 140.71 19.1659C140.7 19.1763 140.687 19.1835 140.673 19.1868C140.303 19.2717 139.952 19.2747 139.578 19.2961C139.279 19.3126 138.976 19.3267 138.669 19.3377C138.591 18.5521 138.648 17.6842 138.692 16.512C138.696 16.4063 138.706 16.3239 138.723 16.264C138.726 16.253 138.732 16.2429 138.74 16.235C138.748 16.227 138.758 16.2214 138.769 16.2188C138.87 16.1962 139.011 16.1932 139.192 16.2097C139.574 16.2451 139.421 16.5902 139.437 16.8327C139.477 17.4545 139.494 18.0733 139.486 18.689Z" fill="#0A0A0A"/>
</svg>
