<svg width="121" height="36" viewBox="0 0 121 36" fill="none" xmlns="http://www.w3.org/2000/svg">
<path d="M6.67178 16.5065C6.67126 16.5409 6.68068 16.5747 6.6989 16.6039C6.71713 16.6331 6.74339 16.6564 6.77453 16.671C6.80567 16.6856 6.84037 16.691 6.87447 16.6863C6.90857 16.6817 6.94061 16.6674 6.96675 16.645L15.5701 9.2305C15.7058 9.11521 15.8785 9.05186 16.0572 9.05173H25.2326C25.4472 9.05173 25.474 9.12324 25.3086 9.26179L10.7701 21.4405C10.2517 21.8741 10.2472 22.3165 10.7522 22.7679L25.2818 35.626C25.465 35.7869 25.4338 35.8673 25.188 35.8673H16.96C16.8081 35.8673 16.674 35.8182 16.5578 35.7154L6.85055 26.969C6.83509 26.9552 6.81594 26.9461 6.79544 26.943C6.77493 26.9398 6.75395 26.9426 6.73502 26.9512C6.7161 26.9597 6.70006 26.9735 6.68883 26.9909C6.67761 27.0084 6.67168 27.0287 6.67178 27.0495V35.5992C6.67178 35.7735 6.58239 35.8584 6.40809 35.8629L1.05838 35.8941C0.852793 35.8986 0.75 35.7958 0.75 35.5902V0.350067C0.75 0.117665 0.866201 0.00146484 1.0986 0.00146484H6.44832C6.5958 0.00146484 6.67178 0.0774424 6.67178 0.224928V16.5065Z" fill="#0A0A0A"/>
<path d="M40.5791 27.631L34.5903 35.6444C34.4786 35.7919 34.3311 35.8679 34.1478 35.8679H27.4573C27.2383 35.8679 27.1936 35.7785 27.3233 35.5997C30.273 31.6086 33.2182 27.631 36.1545 23.6712C37.3478 22.0668 36.4584 21.2265 35.3188 19.7338C32.6596 16.2478 30.0003 12.7662 27.3411 9.28465C27.2205 9.12822 27.2607 9.05225 27.4573 9.05225H34.2998C34.4607 9.05225 34.5903 9.11482 34.6886 9.24442L40.6908 16.9986C40.7054 17.018 40.7243 17.0338 40.746 17.0447C40.7677 17.0555 40.7917 17.0612 40.816 17.0612C40.8403 17.0612 40.8642 17.0555 40.8859 17.0447C40.9077 17.0338 40.9265 17.018 40.9411 16.9986L46.9165 9.23549C46.9595 9.17865 47.0153 9.13252 47.0797 9.10073C47.144 9.06894 47.2151 9.05235 47.2875 9.05225H54.2595C54.4606 9.05225 54.5009 9.13269 54.3757 9.29359C51.4305 13.0969 48.4986 16.9003 45.5757 20.6947C44.7936 21.7047 44.7445 22.6656 45.4283 23.5729C48.4584 27.5952 51.4797 31.622 54.4875 35.6489C54.5947 35.7963 54.559 35.8679 54.3757 35.8679H47.5109C47.3545 35.8679 47.2249 35.8053 47.1311 35.6757L41.0752 27.631C41.0457 27.5926 41.0078 27.5614 40.9644 27.54C40.9211 27.5185 40.8735 27.5073 40.8254 27.5073C40.7773 27.5073 40.73 27.5185 40.6873 27.54C40.6445 27.5614 40.6075 27.5926 40.5791 27.631Z" fill="#0A0A0A"/>
<path d="M79.099 19.2236C79.1079 6.37896 103.005 5.41806 103.774 18.9957C103.894 21.1275 103.921 23.2728 103.854 25.4404C103.85 25.6236 103.756 25.6862 103.582 25.6281C100.359 24.5644 98.6297 27.6124 100.189 30.294C100.265 30.4281 100.23 30.5085 100.073 30.5353C97.5347 30.9778 96.8196 34.0169 98.7056 35.6616C98.8621 35.8001 98.8397 35.8717 98.6297 35.8806L97.2978 35.9387C97.2638 35.9399 97.2299 35.9343 97.1982 35.9222C97.1665 35.9101 97.1376 35.8918 97.1134 35.8684C97.0891 35.8449 97.07 35.8169 97.0571 35.786C97.0442 35.755 97.038 35.7218 97.0386 35.6884C97.0967 30.7946 97.0833 25.9052 96.9984 21.0203C96.9492 18.1555 95.9973 16.2873 93.1593 15.6795C89.0654 14.7991 85.9191 16.7789 85.8431 20.9443C85.7671 25.2348 85.7626 30.1823 85.8386 35.7867C85.8386 35.8104 85.8292 35.8332 85.8124 35.8499C85.7957 35.8667 85.7729 35.8761 85.7492 35.8761L79.3046 35.8627C79.1347 35.8627 79.0498 35.7778 79.0498 35.608C79.0811 30.1286 79.0945 24.6672 79.099 19.2236Z" fill="#0A0A0A"/>
<path d="M71.2709 33.8294C58.0508 41.4495 44.0665 25.6551 53.8453 13.8697C60.7369 5.56578 74.1223 8.53785 77.0765 18.9602C77.4206 20.1803 77.6039 22.1065 77.6173 24.73C77.6307 28.368 77.6307 32.006 77.6128 35.6484C77.6128 35.7959 77.5368 35.8674 77.3894 35.8674H71.6866C71.5257 35.8674 71.4497 35.787 71.4542 35.6261L71.5301 33.9903C71.5317 33.9592 71.5249 33.9283 71.5105 33.9007C71.496 33.8731 71.4745 33.8499 71.448 33.8334C71.4215 33.817 71.3911 33.808 71.36 33.8073C71.3289 33.8066 71.2981 33.8142 71.2709 33.8294ZM71.6821 22.2049C71.6821 21.2488 71.4938 20.3021 71.1279 19.4188C70.762 18.5355 70.2258 17.7329 69.5497 17.0568C68.8737 16.3808 68.0711 15.8445 67.1878 15.4786C66.3045 15.1127 65.3577 14.9244 64.4017 14.9244C62.4708 14.9244 60.619 15.6915 59.2536 17.0568C57.8883 18.4222 57.1212 20.274 57.1212 22.2049C57.1212 24.1358 57.8883 25.9876 59.2536 27.3529C60.619 28.7183 62.4708 29.4853 64.4017 29.4853C65.3577 29.4853 66.3045 29.297 67.1878 28.9311C68.0711 28.5652 68.8737 28.029 69.5497 27.3529C70.2258 26.6769 70.762 25.8743 71.1279 24.991C71.4938 24.1077 71.6821 23.1609 71.6821 22.2049Z" fill="#0A0A0A"/>
<path d="M109.117 25.8652C108.92 28.4976 108.518 31.1479 108.004 33.7356C107.982 33.8474 107.951 33.8518 107.901 33.7446C106.878 31.434 105.89 29.1055 104.938 26.768C103.092 22.2228 109.466 21.2619 109.117 25.8652Z" fill="#0A0A0A"/>
<path d="M110.93 33.4768L109.92 26.7461C109.888 26.5539 109.942 26.393 110.081 26.2589L110.594 25.7405C110.742 25.593 110.724 25.4723 110.532 25.3874C110.411 25.3293 110.308 25.3517 110.219 25.4544C110.174 25.506 110.115 25.5358 110.051 25.5389C109.988 25.5421 109.923 25.5185 109.869 25.4719C109.814 25.4253 109.772 25.3585 109.749 25.2823C109.727 25.2062 109.726 25.1251 109.745 25.0522C110.822 21.2578 115.707 22.822 114.224 26.5226C113.281 28.8779 112.306 31.2109 111.292 33.5259C111.117 33.9237 110.997 33.9058 110.93 33.4768Z" fill="#0A0A0A"/>
<path d="M114.226 27.9975C114.896 26.5673 115.464 25.669 117.104 25.9997C118.695 26.317 119.459 28.1539 118.651 29.4947C118.378 29.9505 117.779 30.4824 116.858 31.0902C115.057 32.279 113.283 33.4813 111.54 34.6969C111.516 34.7136 111.488 34.7222 111.459 34.7213C111.43 34.7204 111.402 34.7101 111.379 34.692C111.356 34.6739 111.34 34.6488 111.333 34.6207C111.326 34.5926 111.328 34.5628 111.339 34.536C112.264 32.3058 113.225 30.1248 114.226 27.9975Z" fill="#0A0A0A"/>
<path d="M107.691 34.5267C107.687 34.6205 107.571 34.6652 107.338 34.6518C105.546 33.4049 103.745 32.158 101.935 30.9155C97.2824 27.72 102.833 24.0552 104.353 27.0943C105.573 29.53 106.686 32.006 107.691 34.5267Z" fill="#0A0A0A"/>
<path d="M107.338 34.6515C107.571 34.6649 107.687 34.6202 107.691 34.5263C107.964 34.7498 108.08 35.161 108.04 35.7598C108.026 35.9252 107.942 36.0056 107.781 36.0012C105.667 35.952 103.557 35.9073 101.443 35.876C95.7315 35.7911 98.8019 29.1274 102.132 31.5855C103.566 32.6448 105.206 33.7978 107.048 35.0403C107.095 35.0726 107.15 35.0926 107.209 35.0984C107.642 35.1386 107.682 34.9867 107.338 34.6515Z" fill="#0A0A0A"/>
<path d="M116.747 31.796C121.198 28.967 122.275 35.7379 118.682 35.8407C116.211 35.9122 113.726 35.9078 111.236 35.8318C111.017 35.8273 110.995 35.7558 111.174 35.6217C113.002 34.2765 114.856 32.9983 116.747 31.796Z" fill="#0A0A0A"/>
</svg>
