<svg width="146" height="26" viewBox="0 0 146 26" fill="none" xmlns="http://www.w3.org/2000/svg">
<path d="M23.7565 1.97971V23.2097H2.55063V1.97971H23.7565ZM25.7589 0.00146484H0.5V25.2603H25.7589V0.00146484Z" fill="#0A0A0A"/>
<path d="M40.3543 5.93652H43.2976V19.2294H40.3543L34.0336 10.8822V19.1812H31.0903V5.93652H33.8647L40.3543 14.4768V5.93652Z" fill="#0A0A0A"/>
<path d="M55.5052 5.93652V8.59027H48.8949V11.2923H54.8297V13.8254H48.8949V16.5756H55.674V19.2294H45.9517V5.93652H55.5052Z" fill="#0A0A0A"/>
<path d="M62.9589 13.5841L65.299 5.93652H68.3629L70.703 13.5841L73.3567 5.93652H76.5412L71.9092 19.2294H69.6897L66.7947 9.9654L63.9239 19.2294H61.7526L57.1206 5.93652H60.3051L62.9589 13.5841Z" fill="#0A0A0A"/>
<path d="M81.1007 8.59027C80.8112 8.83152 80.6905 9.12101 80.6905 9.48289C80.6905 9.84476 80.8594 10.2066 81.2213 10.3755C81.5832 10.6168 82.3552 10.858 83.6338 11.1475C84.8883 11.437 85.8533 11.9195 86.577 12.5226C87.3008 13.1258 87.5903 14.0184 87.5903 15.2246C87.5903 16.4309 87.1802 17.3959 86.2634 18.1196C85.3708 18.8434 84.2128 19.2053 82.717 19.2053C80.6182 19.2053 78.7605 18.4333 77.0718 16.8651L78.8088 14.6939C80.2563 15.9484 81.5832 16.5515 82.7653 16.5515C83.296 16.5515 83.7303 16.4309 84.0198 16.1896C84.3093 15.9484 84.5023 15.6589 84.5023 15.2246C84.5023 14.8145 84.3334 14.5009 84.0198 14.2596C83.7303 14.0184 83.0548 13.7771 82.0415 13.5359C80.4734 13.174 79.3878 12.6915 78.664 12.0884C77.9403 11.4853 77.5784 10.5926 77.5784 9.31402C77.5784 8.05952 78.0609 7.09452 78.9535 6.41902C79.8462 5.76764 81.0042 5.40576 82.331 5.40576C83.2237 5.40576 84.068 5.57464 84.9848 5.88826C85.8774 6.17776 86.6735 6.61202 87.3249 7.14277L85.8292 9.31402C84.6953 8.42139 83.489 7.98714 82.2828 7.98714C81.7762 8.22839 81.4143 8.34902 81.1007 8.59027Z" fill="#0A0A0A"/>
<path d="M102.21 5.93652H105.154V19.2294H102.21L95.8895 10.9304V19.2294H92.9463V5.93652H95.7207L102.21 14.4768V5.93652Z" fill="#0A0A0A"/>
<path d="M119.171 17.3717C117.844 18.6986 116.155 19.35 114.249 19.35C112.271 19.35 110.631 18.6986 109.328 17.3717C108.001 16.0449 107.35 14.4285 107.35 12.4985C107.35 10.5685 108.001 8.87973 109.328 7.62523C110.655 6.29835 112.343 5.64697 114.249 5.64697C116.228 5.64697 117.868 6.29835 119.171 7.62523C120.498 8.9521 121.149 10.5685 121.149 12.4985C121.197 14.4285 120.546 16.0449 119.171 17.3717ZM118.133 12.4985C118.133 11.2922 117.772 10.3272 117 9.48285C116.228 8.63847 115.311 8.22835 114.177 8.22835C113.043 8.22835 112.126 8.63847 111.354 9.48285C110.582 10.3272 110.22 11.3405 110.22 12.4985C110.22 13.7047 110.582 14.6697 111.354 15.5141C112.126 16.3585 113.043 16.7686 114.177 16.7686C115.311 16.7686 116.228 16.3585 117 15.5141C117.772 14.718 118.133 13.7047 118.133 12.4985Z" fill="#0A0A0A"/>
<path d="M127.278 13.5841L129.618 5.93652H132.682L135.022 13.5841L137.676 5.93652H140.861L136.301 19.2294H134.081L131.186 9.9654L128.291 19.2294H126.072L121.44 5.93652H124.624L127.278 13.5841Z" fill="#0A0A0A"/>
<path d="M9.15961 5.93652H6.50586V8.59027H9.15961V5.93652Z" fill="#0A0A0A"/>
<path d="M19.8002 16.5757H17.1465V19.2294H19.8002V16.5757Z" fill="#0A0A0A"/>
<path d="M9.15961 8.59033H6.50586V11.2441H9.15961V8.59033Z" fill="#0A0A0A"/>
<path d="M19.8002 13.8735H17.1465V16.5273H19.8002V13.8735Z" fill="#0A0A0A"/>
<path d="M11.8154 8.59033H9.16162V11.2441H11.8154V8.59033Z" fill="#0A0A0A"/>
<path d="M14.4438 11.2441H11.79V13.8979H14.4438V11.2441Z" fill="#0A0A0A"/>
<path d="M17.0996 13.8735H14.4458V16.5273H17.0996V13.8735Z" fill="#0A0A0A"/>
<path d="M9.15961 11.2441H6.50586V13.8979H9.15961V11.2441Z" fill="#0A0A0A"/>
<path d="M19.8002 11.2441H17.1465V13.8979H19.8002V11.2441Z" fill="#0A0A0A"/>
<path d="M9.15961 13.8735H6.50586V16.5273H9.15961V13.8735Z" fill="#0A0A0A"/>
<path d="M19.8002 8.59033H17.1465V11.2441H19.8002V8.59033Z" fill="#0A0A0A"/>
<path d="M9.15961 16.5757H6.50586V19.2294H9.15961V16.5757Z" fill="#0A0A0A"/>
<path d="M19.8002 5.93652H17.1465V8.59027H19.8002V5.93652Z" fill="#0A0A0A"/>
<path d="M145.25 16.5757H142.596V19.2294H145.25V16.5757Z" fill="#0A0A0A"/>
</svg>
