<svg width="65" height="66" viewBox="0 0 65 66" fill="none" xmlns="http://www.w3.org/2000/svg">
<path fill-rule="evenodd" clip-rule="evenodd" d="M32.4475 6.16895C20.3683 6.16895 10.5371 16.0002 10.5371 28.1065C10.5371 32.4127 11.7829 36.4481 13.9496 39.8335C14.735 41.0793 15.6287 42.2169 16.6579 43.2731L17.4975 44.1127C17.6803 44.259 17.8508 44.4176 18.0257 44.5802L18.0257 44.5802C18.1098 44.6585 18.1949 44.7377 18.2829 44.8168C19.5017 45.846 20.8558 46.7398 22.2913 47.4981C22.6433 47.6877 22.9954 47.8502 23.3475 48.0127C23.6996 48.1752 24.0516 48.3377 24.4308 48.4731C25.7037 48.9877 27.0579 49.3939 28.4392 49.6377C29.7392 49.8814 31.0663 50.0169 32.4475 50.0169C33.8558 50.0169 35.21 49.8815 36.537 49.6106C37.9454 49.3669 39.2725 48.9877 40.5454 48.4731V48.446C40.8975 48.3106 41.2766 48.1481 41.6287 47.9856C41.8047 47.9044 41.9808 47.8164 42.1568 47.7283C42.3329 47.6403 42.509 47.5523 42.685 47.471C42.7663 47.4169 42.8204 47.3898 42.9016 47.3627C43.8496 46.821 44.7433 46.2522 45.5829 45.6564C45.7752 45.4937 45.9595 45.3471 46.1401 45.2034C46.2901 45.0841 46.4376 44.9668 46.585 44.8439C46.734 44.7085 46.8829 44.5799 47.0319 44.4512C47.1808 44.3226 47.3298 44.1939 47.4787 44.0585L48.3183 43.2189C49.3204 42.1627 50.2141 41.0252 51.0266 39.7794C53.1391 36.394 54.3849 32.3856 54.3849 28.1065C54.3849 16.0002 44.5538 6.16895 32.4475 6.16895ZM42.8475 26.4543L38.5413 30.6793C38.3517 30.8418 38.2704 31.1127 38.3246 31.3835L39.3537 37.3148C39.4621 37.9648 38.785 38.4523 38.1892 38.1544L32.8537 35.3377C32.61 35.2293 32.3392 35.2293 32.0954 35.3377L26.76 38.1544C26.1642 38.4523 25.4871 37.9648 25.5954 37.3148L26.6245 31.3835C26.6516 31.1127 26.5704 30.8689 26.4079 30.6793L22.0746 26.4543C21.6141 25.9939 21.8579 25.2085 22.5079 25.1002L28.4933 24.2336C28.737 24.2065 28.9537 24.044 29.0891 23.8002L31.7433 18.3836C32.0412 17.7877 32.8808 17.7877 33.1787 18.3836L35.8329 23.8002C35.9683 24.044 36.185 24.2065 36.4288 24.2336L42.4142 25.1002C43.0642 25.2085 43.3079 25.9939 42.8475 26.4543ZM15.2461 45.6833C14.2169 44.6812 13.269 43.5979 12.4565 42.4062L7.74395 50.5854C7.36479 51.2354 7.36481 52.0209 7.77106 52.6709C8.15023 53.2938 8.80021 53.6729 9.61271 53.6187L16.2753 53.2667L19.3086 59.225C19.6336 59.875 20.3107 60.3083 21.069 60.3354H21.1231C21.8273 60.3354 22.5044 59.9562 22.8836 59.3062L27.0274 52.102C25.6732 51.8041 24.346 51.3979 23.0731 50.8562C20.121 49.6375 17.4669 47.8771 15.2461 45.6833ZM52.5126 42.3525L57.2792 50.5859C57.6313 51.2359 57.6313 52.0214 57.2522 52.6714C56.8459 53.2943 56.1958 53.6734 55.4104 53.6192L48.7208 53.2672L45.6875 59.2255C45.3625 59.8755 44.6855 60.3088 43.9542 60.3359H43.9C43.1688 60.3359 42.4917 59.9567 42.1396 59.3067L37.9688 52.0755C39.3229 51.7776 40.623 51.3713 41.8959 50.8296C44.8209 49.6109 47.475 47.8505 49.6959 45.6297C50.7521 44.6547 51.673 43.5442 52.5126 42.3525Z" fill="#4E79B9"/>
</svg>
