<svg width="65" height="65" viewBox="0 0 65 65" fill="none" xmlns="http://www.w3.org/2000/svg">
<path fill-rule="evenodd" clip-rule="evenodd" d="M43.8003 48.393C40.0444 51.0627 35.4644 52.316 30.8726 51.9308C26.2807 51.5455 21.9736 49.5466 18.715 46.2884C15.4565 43.0303 13.457 38.7234 13.0713 34.1316C12.6855 29.5398 13.9383 24.9597 16.6075 21.2035L43.8003 48.3995V48.393ZM48.3957 43.7975L21.203 16.608C24.9591 13.9365 29.54 12.6819 34.1331 13.0667C38.7262 13.4515 43.0345 15.4508 46.2937 18.71C49.5529 21.9692 51.5523 26.2775 51.9371 30.8707C52.3219 35.4638 51.0672 40.0447 48.3957 43.8007V43.7975ZM58.5 32.5005C58.5 39.3961 55.7607 46.0093 50.8848 50.8853C46.0088 55.7612 39.3956 58.5005 32.5 58.5005C25.6044 58.5005 18.9912 55.7612 14.1152 50.8853C9.23928 46.0093 6.5 39.3961 6.5 32.5005C6.5 25.6049 9.23928 18.9917 14.1152 14.1157C18.9912 9.23977 25.6044 6.50049 32.5 6.50049C39.3956 6.50049 46.0088 9.23977 50.8848 14.1157C55.7607 18.9917 58.5 25.6049 58.5 32.5005V32.5005Z" fill="#7BFEEE"/>
</svg>
