<svg width="65" height="65" viewBox="0 0 65 65" fill="none" xmlns="http://www.w3.org/2000/svg">
<path d="M29.25 15.615C25.7066 13.8898 21.8161 12.9961 17.875 13.002C13.7962 13.002 9.93525 13.9445 6.5 15.615V48.115C10.0435 46.3899 13.9339 45.4962 17.875 45.502C23.2992 45.502 28.3335 47.1595 32.5 50.0032C36.8097 47.0628 41.9077 45.4937 47.125 45.502C51.2038 45.502 55.0648 46.4445 58.5 48.115V15.615C54.9566 13.8898 51.0661 12.9961 47.125 13.002C43.0462 13.002 39.1852 13.9445 35.75 15.615V39.002C35.75 39.8639 35.4076 40.6906 34.7981 41.3001C34.1886 41.9096 33.362 42.252 32.5 42.252C31.638 42.252 30.8114 41.9096 30.2019 41.3001C29.5924 40.6906 29.25 39.8639 29.25 39.002V15.615Z" fill="#7BFEEE"/>
</svg>
