<svg width="65" height="66" viewBox="0 0 65 66" fill="none" xmlns="http://www.w3.org/2000/svg">
<path fill-rule="evenodd" clip-rule="evenodd" d="M20.3673 11.9793C22.4579 11.8124 24.4425 10.9901 26.0385 9.62952C27.8412 8.09419 30.1317 7.25098 32.4995 7.25098C34.8674 7.25098 37.1579 8.09419 38.9605 9.62952C40.5566 10.9901 42.5412 11.8124 44.6318 11.9793C46.9927 12.168 49.2092 13.1914 50.8839 14.8661C52.5587 16.5409 53.5821 18.7574 53.7708 21.1183C53.9365 23.208 54.7588 25.1938 56.1205 26.7895C57.6559 28.5922 58.4991 30.8827 58.4991 33.2505C58.4991 35.6184 57.6559 37.9089 56.1205 39.7115C54.76 41.3076 53.9377 43.2922 53.7708 45.3828C53.5821 47.7437 52.5587 49.9602 50.8839 51.6349C49.2092 53.3096 46.9927 54.3331 44.6318 54.5218C42.5412 54.6887 40.5566 55.511 38.9605 56.8715C37.1579 58.4068 34.8674 59.2501 32.4995 59.2501C30.1317 59.2501 27.8412 58.4068 26.0385 56.8715C24.4425 55.511 22.4579 54.6887 20.3673 54.5218C18.0064 54.3331 15.7899 53.3096 14.1152 51.6349C12.4404 49.9602 11.417 47.7437 11.2283 45.3828C11.0614 43.2922 10.2391 41.3076 8.87854 39.7115C7.34322 37.9089 6.5 35.6184 6.5 33.2505C6.5 30.8827 7.34322 28.5922 8.87854 26.7895C10.2391 25.1935 11.0614 23.2089 11.2283 21.1183C11.417 18.7574 12.4404 16.5409 14.1152 14.8661C15.7899 13.1914 18.0064 12.168 20.3673 11.9793ZM44.5473 29.0483C45.1393 28.4353 45.4669 27.6144 45.4595 26.7622C45.4521 25.9101 45.1103 25.0949 44.5077 24.4924C43.9051 23.8898 43.09 23.548 42.2378 23.5406C41.3857 23.5332 40.5648 23.8608 39.9518 24.4528L29.2495 35.155L25.0473 30.9528C24.4343 30.3608 23.6134 30.0332 22.7612 30.0406C21.9091 30.048 21.094 30.3898 20.4914 30.9924C19.8888 31.5949 19.547 32.4101 19.5396 33.2622C19.5322 34.1144 19.8598 34.9353 20.4518 35.5483L26.9518 42.0483C27.5613 42.6576 28.3878 42.9998 29.2495 42.9998C30.1113 42.9998 30.9378 42.6576 31.5473 42.0483L44.5473 29.0483Z" fill="#7BFEEE"/>
</svg>
