<svg width="65" height="65" viewBox="0 0 65 65" fill="none" xmlns="http://www.w3.org/2000/svg">
<path d="M29.25 6.50098C28.388 6.50098 27.5614 6.84339 26.9519 7.45288C26.3424 8.06237 26 8.88902 26 9.75098C26 10.6129 26.3424 11.4396 26.9519 12.0491C27.5614 12.6586 28.388 13.001 29.25 13.001H35.75C36.612 13.001 37.4386 12.6586 38.0481 12.0491C38.6576 11.4396 39 10.6129 39 9.75098C39 8.88902 38.6576 8.06237 38.0481 7.45288C37.4386 6.84339 36.612 6.50098 35.75 6.50098H29.25Z" fill="#4E79B9"/>
<path fill-rule="evenodd" clip-rule="evenodd" d="M13 16.251C13 14.5271 13.6848 12.8738 14.9038 11.6548C16.1228 10.4358 17.7761 9.75098 19.5 9.75098C19.5 12.3368 20.5272 14.8168 22.3557 16.6453C24.1842 18.4737 26.6641 19.501 29.25 19.501H35.75C38.3359 19.501 40.8158 18.4737 42.6443 16.6453C44.4728 14.8168 45.5 12.3368 45.5 9.75098C47.2239 9.75098 48.8772 10.4358 50.0962 11.6548C51.3152 12.8738 52 14.5271 52 16.251V52.001C52 53.7249 51.3152 55.3782 50.0962 56.5972C48.8772 57.8162 47.2239 58.501 45.5 58.501H19.5C17.7761 58.501 16.1228 57.8162 14.9038 56.5972C13.6848 55.3782 13 53.7249 13 52.001V16.251ZM44.5477 34.7987C45.1398 34.1858 45.4673 33.3648 45.4599 32.5127C45.4525 31.6605 45.1107 30.8454 44.5082 30.2428C43.9056 29.6402 43.0904 29.2984 42.2383 29.291C41.3862 29.2836 40.5652 29.6112 39.9523 30.2032L29.25 40.9055L25.0477 36.7032C24.4348 36.1112 23.6138 35.7836 22.7617 35.791C21.9096 35.7984 21.0944 36.1402 20.4918 36.7428C19.8893 37.3454 19.5475 38.1605 19.5401 39.0127C19.5327 39.8648 19.8602 40.6858 20.4523 41.2987L26.9523 47.7987C27.5617 48.408 28.3882 48.7503 29.25 48.7503C30.1118 48.7503 30.9383 48.408 31.5477 47.7987L44.5477 34.7987Z" fill="#4E79B9"/>
</svg>
