<svg width="65" height="65" viewBox="0 0 65 65" fill="none" xmlns="http://www.w3.org/2000/svg">
<path fill-rule="evenodd" clip-rule="evenodd" d="M13.2698 29.2505H19.5942C19.8835 24.226 20.839 19.598 22.3145 15.867C19.9388 17.3227 17.9024 19.2704 16.3422 21.5789C14.7821 23.8874 13.7344 26.5033 13.2698 29.2505ZM32.5 6.50049C25.6044 6.50049 18.9912 9.23977 14.1152 14.1157C9.23928 18.9917 6.5 25.6049 6.5 32.5005C6.5 39.3961 9.23928 46.0093 14.1152 50.8853C18.9912 55.7612 25.6044 58.5005 32.5 58.5005C39.3956 58.5005 46.0088 55.7612 50.8848 50.8853C55.7607 46.0093 58.5 39.3961 58.5 32.5005C58.5 25.6049 55.7607 18.9917 50.8848 14.1157C46.0088 9.23977 39.3956 6.50049 32.5 6.50049ZM32.5 13.0005C32.253 13.0005 31.746 13.1045 30.9888 13.852C30.2153 14.6125 29.3735 15.8767 28.5935 17.6935C27.3293 20.6412 26.4062 24.655 26.104 29.2505H38.896C38.5938 24.655 37.6707 20.6412 36.4065 17.6935C35.6265 15.8735 34.7815 14.6125 34.0112 13.852C33.254 13.1045 32.747 13.0005 32.5 13.0005ZM45.4058 29.2505C45.1165 24.226 44.161 19.598 42.6855 15.867C45.0612 17.3227 47.0976 19.2704 48.6578 21.5789C50.2179 23.8874 51.2656 26.5033 51.7302 29.2505H45.4058ZM38.896 35.7505H26.104C26.4062 40.346 27.3293 44.3597 28.5935 47.3075C29.3735 49.1275 30.2185 50.3885 30.9888 51.149C31.746 51.8965 32.253 52.0005 32.5 52.0005C32.747 52.0005 33.254 51.8965 34.0112 51.149C34.7847 50.3885 35.6297 49.1242 36.4065 47.3075C37.6707 44.3597 38.5938 40.346 38.896 35.7505ZM42.6855 49.134C44.161 45.4062 45.1165 40.775 45.4058 35.7505H51.7302C51.2656 38.4977 50.2179 41.1136 48.6578 43.4221C47.0976 45.7306 45.0612 47.6783 42.6855 49.134ZM22.3145 49.134C20.839 45.403 19.8835 40.775 19.5975 35.7505H13.2698C13.7344 38.4977 14.7821 41.1136 16.3422 43.4221C17.9024 45.7306 19.9388 47.6783 22.3145 49.134Z" fill="#FDA2D1"/>
</svg>
