<svg width="65" height="65" viewBox="0 0 65 65" fill="none" xmlns="http://www.w3.org/2000/svg">
<path d="M29.25 19.5C29.25 22.0859 28.2228 24.5658 26.3943 26.3943C24.5658 28.2228 22.0859 29.25 19.5 29.25C16.9141 29.25 14.4342 28.2228 12.6057 26.3943C10.7772 24.5658 9.75 22.0859 9.75 19.5C9.75 16.9141 10.7772 14.4342 12.6057 12.6057C14.4342 10.7772 16.9141 9.75 19.5 9.75C22.0859 9.75 24.5658 10.7772 26.3943 12.6057C28.2228 14.4342 29.25 16.9141 29.25 19.5V19.5ZM55.25 19.5C55.25 20.7804 54.9978 22.0482 54.5078 23.2312C54.0178 24.4141 53.2997 25.4889 52.3943 26.3943C51.4889 27.2997 50.4141 28.0178 49.2312 28.5078C48.0482 28.9978 46.7804 29.25 45.5 29.25C44.2196 29.25 42.9518 28.9978 41.7688 28.5078C40.5859 28.0178 39.5111 27.2997 38.6057 26.3943C37.7003 25.4889 36.9822 24.4141 36.4922 23.2312C36.0022 22.0482 35.75 20.7804 35.75 19.5C35.75 16.9141 36.7772 14.4342 38.6057 12.6057C40.4342 10.7772 42.9141 9.75 45.5 9.75C48.0859 9.75 50.5658 10.7772 52.3943 12.6057C54.2228 14.4342 55.25 16.9141 55.25 19.5V19.5ZM42.0225 55.25C42.172 54.1873 42.25 53.105 42.25 52C42.2575 46.8938 40.5396 41.9348 37.375 37.9275C39.8453 36.5013 42.6475 35.7504 45.4999 35.7504C48.3523 35.7504 51.1545 36.5012 53.6248 37.9274C56.0951 39.3536 58.1465 41.4049 59.5728 43.8751C60.999 46.3454 61.7499 49.1476 61.75 52V55.25H42.0225ZM19.5 35.75C23.8098 35.75 27.943 37.462 30.9905 40.5095C34.038 43.557 35.75 47.6902 35.75 52V55.25H3.25V52C3.25 47.6902 4.96205 43.557 8.00951 40.5095C11.057 37.462 15.1902 35.75 19.5 35.75V35.75Z" fill="#F747A1"/>
</svg>
