<svg width="65" height="65" viewBox="0 0 65 65" fill="none" xmlns="http://www.w3.org/2000/svg">
<path d="M6.5 16.25C6.5 14.5261 7.18482 12.8728 8.40381 11.6538C9.62279 10.4348 11.2761 9.75 13 9.75H35.75C37.4739 9.75 39.1272 10.4348 40.3462 11.6538C41.5652 12.8728 42.25 14.5261 42.25 16.25V29.25C42.25 30.9739 41.5652 32.6272 40.3462 33.8462C39.1272 35.0652 37.4739 35.75 35.75 35.75H29.25L19.5 45.5V35.75H13C11.2761 35.75 9.62279 35.0652 8.40381 33.8462C7.18482 32.6272 6.5 30.9739 6.5 29.25V16.25Z" fill="#45F9E3"/>
<path d="M48.7497 22.75V29.25C48.7497 32.6978 47.38 36.0044 44.9421 38.4424C42.5041 40.8804 39.1975 42.25 35.7497 42.25H31.9407L26.2012 47.9928C27.1112 48.477 28.1479 48.75 29.2497 48.75H35.7497L45.4997 58.5V48.75H51.9997C53.7236 48.75 55.3769 48.0652 56.5959 46.8462C57.8149 45.6272 58.4997 43.9739 58.4997 42.25V29.25C58.4997 27.5261 57.8149 25.8728 56.5959 24.6538C55.3769 23.4348 53.7236 22.75 51.9997 22.75H48.7497Z" fill="#45F9E3"/>
</svg>
