<svg width="65" height="65" viewBox="0 0 65 65" fill="none" xmlns="http://www.w3.org/2000/svg">
<path fill-rule="evenodd" clip-rule="evenodd" d="M13 13C13 11.2761 13.6848 9.62279 14.9038 8.40381C16.1228 7.18482 17.7761 6.5 19.5 6.5H45.5C47.2239 6.5 48.8772 7.18482 50.0962 8.40381C51.3152 9.62279 52 11.2761 52 13V52C52.862 52 53.6886 52.3424 54.2981 52.9519C54.9076 53.5614 55.25 54.388 55.25 55.25C55.25 56.112 54.9076 56.9386 54.2981 57.5481C53.6886 58.1576 52.862 58.5 52 58.5H42.25C41.388 58.5 40.5614 58.1576 39.9519 57.5481C39.3424 56.9386 39 56.112 39 55.25V48.75C39 47.888 38.6576 47.0614 38.0481 46.4519C37.4386 45.8424 36.612 45.5 35.75 45.5H29.25C28.388 45.5 27.5614 45.8424 26.9519 46.4519C26.3424 47.0614 26 47.888 26 48.75V55.25C26 56.112 25.6576 56.9386 25.0481 57.5481C24.4386 58.1576 23.612 58.5 22.75 58.5H13C12.138 58.5 11.3114 58.1576 10.7019 57.5481C10.0924 56.9386 9.75 56.112 9.75 55.25C9.75 54.388 10.0924 53.5614 10.7019 52.9519C11.3114 52.3424 12.138 52 13 52V13ZM22.75 16.25H29.25V22.75H22.75V16.25ZM29.25 29.25H22.75V35.75H29.25V29.25ZM35.75 16.25H42.25V22.75H35.75V16.25ZM42.25 29.25H35.75V35.75H42.25V29.25Z" fill="#FDA2D1"/>
</svg>
