<svg width="65" height="65" viewBox="0 0 65 65" fill="none" xmlns="http://www.w3.org/2000/svg">
<path d="M35.75 9.75049C35.75 8.88853 35.4076 8.06188 34.7981 7.45239C34.1886 6.8429 33.362 6.50049 32.5 6.50049C31.638 6.50049 30.8114 6.8429 30.2019 7.45239C29.5924 8.06188 29.25 8.88853 29.25 9.75049V13.0005C29.25 13.8624 29.5924 14.6891 30.2019 15.2986C30.8114 15.9081 31.638 16.2505 32.5 16.2505C33.362 16.2505 34.1886 15.9081 34.7981 15.2986C35.4076 14.6891 35.75 13.8624 35.75 13.0005V9.75049ZM50.8852 18.7107C51.4773 18.0978 51.8048 17.2768 51.7974 16.4247C51.79 15.5725 51.4482 14.7574 50.8457 14.1548C50.2431 13.5523 49.4279 13.2105 48.5758 13.203C47.7237 13.1956 46.9027 13.5232 46.2898 14.1152L43.992 16.413C43.4 17.0259 43.0724 17.8469 43.0798 18.699C43.0872 19.5512 43.429 20.3663 44.0316 20.9689C44.6342 21.5715 45.4493 21.9133 46.3014 21.9207C47.1536 21.9281 47.9745 21.6005 48.5875 21.0085L50.8852 18.7107ZM58.5 32.5005C58.5 33.3624 58.1576 34.1891 57.5481 34.7986C56.9386 35.4081 56.112 35.7505 55.25 35.7505H52C51.138 35.7505 50.3114 35.4081 49.7019 34.7986C49.0924 34.1891 48.75 33.3624 48.75 32.5005C48.75 31.6385 49.0924 30.8119 49.7019 30.2024C50.3114 29.5929 51.138 29.2505 52 29.2505H55.25C56.112 29.2505 56.9386 29.5929 57.5481 30.2024C58.1576 30.8119 58.5 31.6385 58.5 32.5005ZM16.4125 21.0085C16.7123 21.3189 17.0709 21.5665 17.4674 21.7368C17.8639 21.9071 18.2904 21.9968 18.7219 22.0006C19.1535 22.0043 19.5814 21.9221 19.9809 21.7587C20.3803 21.5952 20.7431 21.3539 21.0483 21.0488C21.3534 20.7436 21.5948 20.3808 21.7582 19.9813C21.9216 19.5819 22.0038 19.154 22.0001 18.7224C21.9963 18.2909 21.9067 17.8644 21.7363 17.4679C21.566 17.0714 21.3184 16.7128 21.008 16.413L18.7102 14.1152C18.0973 13.5232 17.2763 13.1956 16.4242 13.203C15.5721 13.2105 14.7569 13.5523 14.1543 14.1548C13.5518 14.7574 13.21 15.5725 13.2026 16.4247C13.1952 17.2768 13.5227 18.0978 14.1147 18.7107L16.4125 21.0085V21.0085ZM16.25 32.5005C16.25 33.3624 15.9076 34.1891 15.2981 34.7986C14.6886 35.4081 13.862 35.7505 13 35.7505H9.75C8.88805 35.7505 8.0614 35.4081 7.4519 34.7986C6.84241 34.1891 6.5 33.3624 6.5 32.5005C6.5 31.6385 6.84241 30.8119 7.4519 30.2024C8.0614 29.5929 8.88805 29.2505 9.75 29.2505H13C13.862 29.2505 14.6886 29.5929 15.2981 30.2024C15.9076 30.8119 16.25 31.6385 16.25 32.5005ZM26 52.0005V48.7505H39V52.0005C39 53.7244 38.3152 55.3777 37.0962 56.5967C35.8772 57.8157 34.2239 58.5005 32.5 58.5005C30.7761 58.5005 29.1228 57.8157 27.9038 56.5967C26.6848 55.3777 26 53.7244 26 52.0005V52.0005ZM39 45.5005C39.0487 44.3955 39.676 43.401 40.5503 42.7087C42.6715 41.0358 44.2188 38.7436 44.9772 36.1507C45.7356 33.5579 45.6674 30.7931 44.7821 28.2408C43.8967 25.6885 42.2382 23.4754 40.0371 21.9091C37.8359 20.3428 35.2015 19.5012 32.5 19.5012C29.7985 19.5012 27.1641 20.3428 24.9629 21.9091C22.7618 23.4754 21.1033 25.6885 20.2179 28.2408C19.3326 30.7931 19.2644 33.5579 20.0228 36.1507C20.7812 38.7436 22.3285 41.0358 24.4497 42.7087C25.3272 43.401 25.9513 44.3955 25.9968 45.5005H39.0033H39Z" fill="#FBBF5B"/>
</svg>
