<svg width="65" height="65" viewBox="0 0 65 65" fill="none" xmlns="http://www.w3.org/2000/svg">
<path d="M35.75 9.75098C35.75 8.88902 35.4076 8.06237 34.7981 7.45288C34.1886 6.84339 33.362 6.50098 32.5 6.50098C31.638 6.50098 30.8114 6.84339 30.2019 7.45288C29.5924 8.06237 29.25 8.88902 29.25 9.75098V13.001C29.25 13.8629 29.5924 14.6896 30.2019 15.2991C30.8114 15.9086 31.638 16.251 32.5 16.251C33.362 16.251 34.1886 15.9086 34.7981 15.2991C35.4076 14.6896 35.75 13.8629 35.75 13.001V9.75098ZM50.8853 18.7112C51.4773 18.0983 51.8048 17.2773 51.7974 16.4252C51.79 15.573 51.4482 14.7579 50.8457 14.1553C50.2431 13.5527 49.4279 13.2109 48.5758 13.2035C47.7237 13.1961 46.9027 13.5237 46.2897 14.1157L43.992 16.4135C43.4 17.0264 43.0724 17.8474 43.0798 18.6995C43.0872 19.5517 43.429 20.3668 44.0316 20.9694C44.6342 21.572 45.4493 21.9138 46.3014 21.9212C47.1536 21.9286 47.9745 21.601 48.5875 21.009L50.8853 18.7112ZM58.5 32.501C58.5 33.3629 58.1576 34.1896 57.5481 34.7991C56.9386 35.4086 56.112 35.751 55.25 35.751H52C51.138 35.751 50.3114 35.4086 49.7019 34.7991C49.0924 34.1896 48.75 33.3629 48.75 32.501C48.75 31.639 49.0924 30.8124 49.7019 30.2029C50.3114 29.5934 51.138 29.251 52 29.251H55.25C56.112 29.251 56.9386 29.5934 57.5481 30.2029C58.1576 30.8124 58.5 31.639 58.5 32.501ZM16.4125 21.009C16.7123 21.3194 17.0709 21.567 17.4674 21.7373C17.8639 21.9076 18.2904 21.9973 18.7219 22.001C19.1535 22.0048 19.5814 21.9226 19.9809 21.7591C20.3803 21.5957 20.7431 21.3544 21.0483 21.0493C21.3534 20.7441 21.5948 20.3812 21.7582 19.9818C21.9216 19.5824 22.0038 19.1545 22.0001 18.7229C21.9963 18.2914 21.9067 17.8649 21.7363 17.4684C21.566 17.0719 21.3184 16.7133 21.008 16.4135L18.7102 14.1157C18.0973 13.5237 17.2763 13.1961 16.4242 13.2035C15.5721 13.2109 14.7569 13.5527 14.1543 14.1553C13.5518 14.7579 13.21 15.573 13.2026 16.4252C13.1952 17.2773 13.5227 18.0983 14.1147 18.7112L16.4125 21.009ZM16.25 32.501C16.25 33.3629 15.9076 34.1896 15.2981 34.7991C14.6886 35.4086 13.862 35.751 13 35.751H9.75C8.88805 35.751 8.0614 35.4086 7.4519 34.7991C6.84241 34.1896 6.5 33.3629 6.5 32.501C6.5 31.639 6.84241 30.8124 7.4519 30.2029C8.0614 29.5934 8.88805 29.251 9.75 29.251H13C13.862 29.251 14.6886 29.5934 15.2981 30.2029C15.9076 30.8124 16.25 31.639 16.25 32.501ZM26 52.001V48.751H39V52.001C39 53.7249 38.3152 55.3782 37.0962 56.5972C35.8772 57.8162 34.2239 58.501 32.5 58.501C30.7761 58.501 29.1228 57.8162 27.9038 56.5972C26.6848 55.3782 26 53.7249 26 52.001ZM39 45.501C39.0488 44.396 39.676 43.4015 40.5503 42.7092C42.6715 41.0363 44.2188 38.7441 44.9772 36.1512C45.7356 33.5584 45.6674 30.7936 44.7821 28.2413C43.8967 25.689 42.2382 23.4759 40.0371 21.9096C37.8359 20.3433 35.2015 19.5017 32.5 19.5017C29.7985 19.5017 27.1641 20.3433 24.9629 21.9096C22.7618 23.4759 21.1033 25.689 20.2179 28.2413C19.3326 30.7936 19.2644 33.5584 20.0228 36.1512C20.7812 38.7441 22.3285 41.0363 24.4497 42.7092C25.3272 43.4015 25.9513 44.396 25.9967 45.501H39.0033H39Z" fill="#FDA2D1"/>
</svg>
