<svg width="65" height="65" viewBox="0 0 65 65" fill="none" xmlns="http://www.w3.org/2000/svg">
<path fill-rule="evenodd" clip-rule="evenodd" d="M16.25 29.25V22.75C16.25 18.4402 17.962 14.307 21.0095 11.2595C24.057 8.21205 28.1902 6.5 32.5 6.5C36.8098 6.5 40.943 8.21205 43.9905 11.2595C47.038 14.307 48.75 18.4402 48.75 22.75V29.25C50.4739 29.25 52.1272 29.9348 53.3462 31.1538C54.5652 32.3728 55.25 34.0261 55.25 35.75V52C55.25 53.7239 54.5652 55.3772 53.3462 56.5962C52.1272 57.8152 50.4739 58.5 48.75 58.5H16.25C14.5261 58.5 12.8728 57.8152 11.6538 56.5962C10.4348 55.3772 9.75 53.7239 9.75 52V35.75C9.75 34.0261 10.4348 32.3728 11.6538 31.1538C12.8728 29.9348 14.5261 29.25 16.25 29.25V29.25ZM42.25 22.75V29.25H22.75V22.75C22.75 20.1641 23.7772 17.6842 25.6057 15.8557C27.4342 14.0272 29.9141 13 32.5 13C35.0859 13 37.5658 14.0272 39.3943 15.8557C41.2228 17.6842 42.25 20.1641 42.25 22.75V22.75Z" fill="#F747A1"/>
</svg>
