<svg width="65" height="65" viewBox="0 0 65 65" fill="none" xmlns="http://www.w3.org/2000/svg">
<path d="M6.5 34.1255C6.5 33.4853 6.6261 32.8514 6.87109 32.2599C7.11608 31.6684 7.47517 31.131 7.92785 30.6783C8.38054 30.2257 8.91796 29.8666 9.50942 29.6216C10.1009 29.3766 10.7348 29.2505 11.375 29.2505C12.0152 29.2505 12.6491 29.3766 13.2406 29.6216C13.832 29.8666 14.3695 30.2257 14.8221 30.6783C15.2748 31.131 15.6339 31.6684 15.8789 32.2599C16.1239 32.8514 16.25 33.4853 16.25 34.1255V53.6255C16.25 54.9184 15.7364 56.1584 14.8221 57.0726C13.9079 57.9869 12.6679 58.5005 11.375 58.5005C10.0821 58.5005 8.84209 57.9869 7.92785 57.0726C7.01361 56.1584 6.5 54.9184 6.5 53.6255V34.1255ZM19.5 33.5827V51.2302C19.4994 52.4381 19.8355 53.6223 20.4704 54.6499C21.1053 55.6775 22.014 56.5078 23.0945 57.0477L23.257 57.129C25.0604 58.0303 27.0487 58.4998 29.0647 58.5005H46.6667C48.17 58.5011 49.6269 57.9806 50.7896 57.0278C51.9522 56.0749 52.7486 54.7485 53.0432 53.2745L56.9432 33.7745C57.1317 32.8316 57.1086 31.8586 56.8757 30.9257C56.6427 29.9927 56.2056 29.1231 55.596 28.3795C54.9864 27.6359 54.2194 27.0368 53.3502 26.6254C52.4811 26.214 51.5316 26.0006 50.57 26.0005H39V13.0005C39 11.2766 38.3152 9.62328 37.0962 8.40429C35.8772 7.18531 34.2239 6.50049 32.5 6.50049C31.638 6.50049 30.8114 6.8429 30.2019 7.45239C29.5924 8.06188 29.25 8.88853 29.25 9.75049V11.9182C29.25 14.7311 28.3377 17.468 26.65 19.7182L22.1 25.7827C20.4123 28.033 19.5 30.7699 19.5 33.5827V33.5827Z" fill="#45F9E3"/>
</svg>
