<svg width="65" height="65" viewBox="0 0 65 65" fill="none" xmlns="http://www.w3.org/2000/svg">
<path fill-rule="evenodd" clip-rule="evenodd" d="M16.25 6.50049C17.112 6.50049 17.9386 6.8429 18.5481 7.45239C19.1576 8.06188 19.5 8.88853 19.5 9.75049V13.0005H22.75C23.612 13.0005 24.4386 13.3429 25.0481 13.9524C25.6576 14.5619 26 15.3885 26 16.2505C26 17.1124 25.6576 17.9391 25.0481 18.5486C24.4386 19.1581 23.612 19.5005 22.75 19.5005H19.5V22.7505C19.5 23.6124 19.1576 24.4391 18.5481 25.0486C17.9386 25.6581 17.112 26.0005 16.25 26.0005C15.388 26.0005 14.5614 25.6581 13.9519 25.0486C13.3424 24.4391 13 23.6124 13 22.7505V19.5005H9.75C8.88805 19.5005 8.0614 19.1581 7.4519 18.5486C6.84241 17.9391 6.5 17.1124 6.5 16.2505C6.5 15.3885 6.84241 14.5619 7.4519 13.9524C8.0614 13.3429 8.88805 13.0005 9.75 13.0005H13V9.75049C13 8.88853 13.3424 8.06188 13.9519 7.45239C14.5614 6.8429 15.388 6.50049 16.25 6.50049ZM16.25 39.0005C17.112 39.0005 17.9386 39.3429 18.5481 39.9524C19.1576 40.5619 19.5 41.3885 19.5 42.2505V45.5005H22.75C23.612 45.5005 24.4386 45.8429 25.0481 46.4524C25.6576 47.0619 26 47.8885 26 48.7505C26 49.6124 25.6576 50.4391 25.0481 51.0486C24.4386 51.6581 23.612 52.0005 22.75 52.0005H19.5V55.2505C19.5 56.1124 19.1576 56.9391 18.5481 57.5486C17.9386 58.1581 17.112 58.5005 16.25 58.5005C15.388 58.5005 14.5614 58.1581 13.9519 57.5486C13.3424 56.9391 13 56.1124 13 55.2505V52.0005H9.75C8.88805 52.0005 8.0614 51.6581 7.4519 51.0486C6.84241 50.4391 6.5 49.6124 6.5 48.7505C6.5 47.8885 6.84241 47.0619 7.4519 46.4524C8.0614 45.8429 8.88805 45.5005 9.75 45.5005H13V42.2505C13 41.3885 13.3424 40.5619 13.9519 39.9524C14.5614 39.3429 15.388 39.0005 16.25 39.0005ZM39 6.50049C39.7172 6.50026 40.4144 6.73729 40.9829 7.17466C41.5513 7.61202 41.9591 8.22515 42.1428 8.91849L45.9745 23.4005L56.875 29.686C57.369 29.9712 57.7793 30.3815 58.0645 30.8756C58.3497 31.3696 58.4999 31.93 58.4999 32.5005C58.4999 33.071 58.3497 33.6314 58.0645 34.1254C57.7793 34.6195 57.369 35.0297 56.875 35.315L45.9745 41.6037L42.1395 56.0825C41.9556 56.7752 41.5478 57.3876 40.9797 57.8245C40.4116 58.2614 39.7151 58.4983 38.9984 58.4983C38.2817 58.4983 37.5851 58.2614 37.017 57.8245C36.4489 57.3876 36.0412 56.7752 35.8572 56.0825L32.0255 41.6005L21.125 35.315C20.631 35.0297 20.2207 34.6195 19.9355 34.1254C19.6503 33.6314 19.5001 33.071 19.5001 32.5005C19.5001 31.93 19.6503 31.3696 19.9355 30.8756C20.2207 30.3815 20.631 29.9712 21.125 29.686L32.0255 23.3972L35.8605 8.91849C36.044 8.22569 36.4513 7.61296 37.0191 7.17565C37.5869 6.73834 38.2833 6.50097 39 6.50049V6.50049Z" fill="#FBBF5B"/>
</svg>
