<svg width="65" height="65" viewBox="0 0 65 65" fill="none" xmlns="http://www.w3.org/2000/svg">
<path d="M27.4072 24.109C27.911 23.7742 28.5317 23.472 29.25 23.2412V28.7597C28.5991 28.5557 27.9791 28.2638 27.4072 27.892C26.2275 27.1055 26 26.371 26 26.0005C26 25.63 26.2275 24.8955 27.4072 24.109ZM35.75 41.7597V36.2412C36.465 36.472 37.089 36.7742 37.5928 37.109C38.7758 37.8987 39 38.63 39 39.0005C39 39.371 38.7725 40.1055 37.5928 40.892C37.0209 41.2638 36.4009 41.5557 35.75 41.7597Z" fill="#FBBF5B"/>
<path fill-rule="evenodd" clip-rule="evenodd" d="M32.5 58.5005C39.3956 58.5005 46.0088 55.7612 50.8848 50.8853C55.7607 46.0093 58.5 39.3961 58.5 32.5005C58.5 25.6049 55.7607 18.9917 50.8848 14.1157C46.0088 9.23977 39.3956 6.50049 32.5 6.50049C25.6044 6.50049 18.9912 9.23977 14.1152 14.1157C9.23928 18.9917 6.5 25.6049 6.5 32.5005C6.5 39.3961 9.23928 46.0093 14.1152 50.8853C18.9912 55.7612 25.6044 58.5005 32.5 58.5005V58.5005ZM35.75 16.2505C35.75 15.3885 35.4076 14.5619 34.7981 13.9524C34.1886 13.3429 33.362 13.0005 32.5 13.0005C31.638 13.0005 30.8114 13.3429 30.2019 13.9524C29.5924 14.5619 29.25 15.3885 29.25 16.2505V16.5495C27.3087 16.8951 25.4565 17.6267 23.803 18.701C21.4565 20.261 19.5 22.7797 19.5 26.0005C19.5 29.218 21.4565 31.7367 23.803 33.3C25.363 34.34 27.2285 35.0712 29.25 35.4515V41.7597C27.9792 41.347 27.04 40.7295 26.5102 40.1217C26.2353 39.7844 25.8954 39.5056 25.5107 39.3021C25.126 39.0986 24.7043 38.9744 24.2707 38.9369C23.8371 38.8994 23.4004 38.9494 22.9865 39.0839C22.5725 39.2184 22.1898 39.4347 21.8611 39.7199C21.5323 40.0051 21.2642 40.3535 21.0726 40.7442C20.8811 41.135 20.7699 41.5603 20.7458 41.9949C20.7217 42.4295 20.7852 42.8644 20.9324 43.274C21.0796 43.6836 21.3075 44.0594 21.6027 44.3792C23.4292 46.4885 26.195 47.8762 29.25 48.4515V48.7505C29.25 49.6124 29.5924 50.4391 30.2019 51.0486C30.8114 51.6581 31.638 52.0005 32.5 52.0005C33.362 52.0005 34.1886 51.6581 34.7981 51.0486C35.4076 50.4391 35.75 49.6124 35.75 48.7505V48.4515C37.6913 48.1059 39.5435 47.3743 41.197 46.3C43.5435 44.74 45.5 42.2212 45.5 39.0005C45.5 35.783 43.5435 33.2642 41.197 31.701C39.5435 30.6267 37.6913 29.8951 35.75 29.5495V23.2412C37.0208 23.654 37.96 24.2715 38.4898 24.8792C38.7673 25.2085 39.1074 25.4793 39.4905 25.676C39.8736 25.8727 40.2919 25.9912 40.7212 26.0248C41.1505 26.0584 41.5822 26.0064 41.9912 25.8717C42.4003 25.7371 42.7784 25.5225 43.1038 25.2404C43.4292 24.9583 43.6952 24.6144 43.8865 24.2286C44.0778 23.8428 44.1905 23.4228 44.2181 22.9931C44.2458 22.5634 44.1877 22.1325 44.0473 21.7254C43.907 21.3183 43.6871 20.9431 43.4005 20.6217C41.5708 18.5125 38.8082 17.1247 35.75 16.5495V16.2505Z" fill="#FBBF5B"/>
</svg>
