<svg width="65" height="65" viewBox="0 0 65 65" fill="none" xmlns="http://www.w3.org/2000/svg">
<path fill-rule="evenodd" clip-rule="evenodd" d="M19.5 19.5005V16.2505C19.5 13.6646 20.5272 11.1847 22.3557 9.3562C24.1842 7.52772 26.6641 6.50049 29.25 6.50049H35.75C38.3359 6.50049 40.8158 7.52772 42.6443 9.3562C44.4728 11.1847 45.5 13.6646 45.5 16.2505V19.5005H52C53.7239 19.5005 55.3772 20.1853 56.5962 21.4043C57.8152 22.6233 58.5 24.2766 58.5 26.0005V37.603C50.1788 40.6864 41.3741 42.2602 32.5 42.2505C23.6259 42.2603 14.8212 40.6865 6.5 37.603V26.0005C6.5 24.2766 7.18482 22.6233 8.40381 21.4043C9.62279 20.1853 11.2761 19.5005 13 19.5005H19.5ZM26 16.2505C26 15.3885 26.3424 14.5619 26.9519 13.9524C27.5614 13.3429 28.388 13.0005 29.25 13.0005H35.75C36.612 13.0005 37.4386 13.3429 38.0481 13.9524C38.6576 14.5619 39 15.3885 39 16.2505V19.5005H26V16.2505ZM29.25 32.5005C29.25 31.6385 29.5924 30.8119 30.2019 30.2024C30.8114 29.5929 31.638 29.2505 32.5 29.2505H32.5325C33.3945 29.2505 34.2211 29.5929 34.8306 30.2024C35.4401 30.8119 35.7825 31.6385 35.7825 32.5005C35.7825 33.3624 35.4401 34.1891 34.8306 34.7986C34.2211 35.4081 33.3945 35.7505 32.5325 35.7505H32.5C31.638 35.7505 30.8114 35.4081 30.2019 34.7986C29.5924 34.1891 29.25 33.3624 29.25 32.5005Z" fill="#FBBF5B"/>
<path d="M6.5 44.4995V52.0005C6.5 53.7244 7.18482 55.3777 8.40381 56.5967C9.62279 57.8157 11.2761 58.5005 13 58.5005H52C53.7239 58.5005 55.3772 57.8157 56.5962 56.5967C57.8152 55.3777 58.5 53.7244 58.5 52.0005V44.4995C50.1227 47.323 41.3403 48.7589 32.5 48.7505C23.413 48.7505 14.6673 47.2555 6.5 44.4995Z" fill="#FBBF5B"/>
</svg>
