<svg width="65" height="66" viewBox="0 0 65 66" fill="none" xmlns="http://www.w3.org/2000/svg">
<path fill-rule="evenodd" clip-rule="evenodd" d="M32.5 59.251C39.3956 59.251 46.0088 56.5117 50.8848 51.6358C55.7607 46.7598 58.5 40.1466 58.5 33.251C58.5 26.3553 55.7607 19.7421 50.8848 14.8662C46.0088 9.99025 39.3956 7.25098 32.5 7.25098C25.6044 7.25098 18.9912 9.99025 14.1152 14.8662C9.23928 19.7421 6.5 26.3553 6.5 33.251C6.5 40.1466 9.23928 46.7598 14.1152 51.6358C18.9912 56.5117 25.6044 59.251 32.5 59.251ZM35.75 20.251C35.75 19.389 35.4076 18.5624 34.7981 17.9529C34.1886 17.3434 33.362 17.001 32.5 17.001C31.638 17.001 30.8114 17.3434 30.2019 17.9529C29.5924 18.5624 29.25 19.389 29.25 20.251V33.251C29.2502 34.1129 29.5927 34.9394 30.2023 35.5487L39.3932 44.743C39.6952 45.0449 40.0537 45.2845 40.4482 45.4479C40.8427 45.6113 41.2656 45.6954 41.6926 45.6954C42.1197 45.6954 42.5425 45.6113 42.937 45.4479C43.3316 45.2845 43.69 45.0449 43.992 44.743C44.294 44.441 44.5335 44.0825 44.6969 43.688C44.8603 43.2935 44.9444 42.8706 44.9444 42.4436C44.9444 42.0166 44.8603 41.5937 44.6969 41.1992C44.5335 40.8047 44.294 40.4462 43.992 40.1442L35.75 31.9055V20.251Z" fill="#FDA2D1"/>
</svg>
