<svg width="65" height="65" viewBox="0 0 65 65" fill="none" xmlns="http://www.w3.org/2000/svg">
<path d="M9.75 13.0005C9.75 12.1385 10.0924 11.3119 10.7019 10.7024C11.3114 10.0929 12.138 9.75049 13 9.75049H52C52.862 9.75049 53.6886 10.0929 54.2981 10.7024C54.9076 11.3119 55.25 12.1385 55.25 13.0005V19.5005C55.25 20.3624 54.9076 21.1891 54.2981 21.7986C53.6886 22.4081 52.862 22.7505 52 22.7505H13C12.138 22.7505 11.3114 22.4081 10.7019 21.7986C10.0924 21.1891 9.75 20.3624 9.75 19.5005V13.0005ZM9.75 32.5005C9.75 31.6385 10.0924 30.8119 10.7019 30.2024C11.3114 29.5929 12.138 29.2505 13 29.2505H32.5C33.362 29.2505 34.1886 29.5929 34.7981 30.2024C35.4076 30.8119 35.75 31.6385 35.75 32.5005V52.0005C35.75 52.8624 35.4076 53.6891 34.7981 54.2986C34.1886 54.9081 33.362 55.2505 32.5 55.2505H13C12.138 55.2505 11.3114 54.9081 10.7019 54.2986C10.0924 53.6891 9.75 52.8624 9.75 52.0005V32.5005ZM45.5 29.2505C44.638 29.2505 43.8114 29.5929 43.2019 30.2024C42.5924 30.8119 42.25 31.6385 42.25 32.5005V52.0005C42.25 52.8624 42.5924 53.6891 43.2019 54.2986C43.8114 54.9081 44.638 55.2505 45.5 55.2505H52C52.862 55.2505 53.6886 54.9081 54.2981 54.2986C54.9076 53.6891 55.25 52.8624 55.25 52.0005V32.5005C55.25 31.6385 54.9076 30.8119 54.2981 30.2024C53.6886 29.5929 52.862 29.2505 52 29.2505H45.5Z" fill="#4E79B9"/>
</svg>
