<svg width="65" height="65" viewBox="0 0 65 65" fill="none" xmlns="http://www.w3.org/2000/svg">
<path fill-rule="evenodd" clip-rule="evenodd" d="M9.75 55.25C9.75 54.388 10.0924 53.5614 10.7019 52.9519C11.3114 52.3424 12.138 52 13 52H52C52.862 52 53.6886 52.3424 54.2981 52.9519C54.9076 53.5614 55.25 54.388 55.25 55.25C55.25 56.112 54.9076 56.9386 54.2981 57.5481C53.6886 58.1576 52.862 58.5 52 58.5H13C12.138 58.5 11.3114 58.1576 10.7019 57.5481C10.0924 56.9386 9.75 56.112 9.75 55.25ZM20.4523 30.2023C21.0617 29.593 21.8882 29.2507 22.75 29.2507C23.6118 29.2507 24.4383 29.593 25.0477 30.2023L29.25 34.4045V9.75C29.25 8.88805 29.5924 8.0614 30.2019 7.4519C30.8114 6.84241 31.638 6.5 32.5 6.5C33.362 6.5 34.1886 6.84241 34.7981 7.4519C35.4076 8.0614 35.75 8.88805 35.75 9.75V34.4045L39.9523 30.2023C40.2521 29.8918 40.6107 29.6442 41.0072 29.4739C41.4037 29.3036 41.8302 29.2139 42.2617 29.2102C42.6932 29.2064 43.1212 29.2887 43.5206 29.4521C43.92 29.6155 44.2829 29.8568 44.588 30.162C44.8932 30.4671 45.1345 30.83 45.2979 31.2294C45.4613 31.6288 45.5436 32.0568 45.5398 32.4883C45.5361 32.9198 45.4464 33.3463 45.2761 33.7428C45.1058 34.1393 44.8582 34.4979 44.5477 34.7977L34.7977 44.5477C34.1883 45.157 33.3618 45.4993 32.5 45.4993C31.6382 45.4993 30.8117 45.157 30.2023 44.5477L20.4523 34.7977C19.843 34.1883 19.5007 33.3618 19.5007 32.5C19.5007 31.6382 19.843 30.8117 20.4523 30.2023V30.2023Z" fill="#F747A1"/>
</svg>
