<svg width="65" height="65" viewBox="0 0 65 65" fill="none" xmlns="http://www.w3.org/2000/svg">
<path fill-rule="evenodd" clip-rule="evenodd" d="M36.7245 3.39932C37.3843 3.60681 37.9606 4.01936 38.3698 4.57698C38.7789 5.1346 38.9995 5.8082 38.9995 6.49982V22.7498H51.9995C52.594 22.7496 53.1771 22.9124 53.6855 23.2205C54.1939 23.5286 54.6081 23.9703 54.8829 24.4975C55.1577 25.0246 55.2826 25.6171 55.2441 26.2103C55.2056 26.8036 55.0051 27.3749 54.6645 27.8621L31.9145 60.3621C31.5185 60.9293 30.9519 61.3554 30.2971 61.5784C29.6423 61.8014 28.9333 61.8096 28.2735 61.6019C27.6137 61.3942 27.0373 60.9813 26.6283 60.4234C26.2194 59.8655 25.9991 59.1916 25.9995 58.4998V42.2498H12.9995C12.405 42.2501 11.8218 42.0873 11.3135 41.7791C10.8051 41.471 10.3909 41.0293 10.1161 40.5022C9.84132 39.975 9.71637 39.3826 9.75487 38.7893C9.79337 38.1961 9.99385 37.6248 10.3345 37.1376L33.0845 4.63758C33.481 4.07138 34.0478 3.64637 34.7023 3.42427C35.3569 3.20218 36.0653 3.19458 36.7245 3.40258V3.39932Z" fill="#F747A1"/>
</svg>
