<svg width="65" height="65" viewBox="0 0 65 65" fill="none" xmlns="http://www.w3.org/2000/svg">
<path fill-rule="evenodd" clip-rule="evenodd" d="M38.9991 22.7505C38.1372 22.7505 37.3105 22.4081 36.701 21.7986C36.0915 21.1891 35.7491 20.3624 35.7491 19.5005C35.7491 18.6385 36.0915 17.8119 36.701 17.2024C37.3105 16.5929 38.1372 16.2505 38.9991 16.2505H55.2491C56.1111 16.2505 56.9377 16.5929 57.5472 17.2024C58.1567 17.8119 58.4991 18.6385 58.4991 19.5005V35.7505C58.4991 36.6124 58.1567 37.4391 57.5472 38.0486C56.9377 38.6581 56.1111 39.0005 55.2491 39.0005C54.3872 39.0005 53.5605 38.6581 52.951 38.0486C52.3415 37.4391 51.9991 36.6124 51.9991 35.7505V27.346L38.0469 41.2982C37.4374 41.9075 36.6109 42.2498 35.7491 42.2498C34.8873 42.2498 34.0608 41.9075 33.4514 41.2982L25.9991 33.846L12.0469 47.7982C11.4339 48.3903 10.613 48.7178 9.76082 48.7104C8.90868 48.703 8.09354 48.3612 7.49097 47.7586C6.88839 47.1561 6.54659 46.3409 6.53919 45.4888C6.53178 44.6367 6.85936 43.8157 7.45138 43.2027L23.7014 26.9527C24.3108 26.3435 25.1373 26.0012 25.9991 26.0012C26.8609 26.0012 27.6874 26.3435 28.2969 26.9527L35.7491 34.405L47.4036 22.7505H38.9991Z" fill="#F747A1"/>
</svg>
