<svg width="65" height="65" viewBox="0 0 65 65" fill="none" xmlns="http://www.w3.org/2000/svg">
<path fill-rule="evenodd" clip-rule="evenodd" d="M34.112 6.93088C33.621 6.65044 33.0654 6.50293 32.5 6.50293C31.9346 6.50293 31.379 6.65044 30.888 6.93088L8.138 19.9309C7.51618 20.2866 7.02932 20.8378 6.75311 21.4988C6.4769 22.1598 6.42683 22.8935 6.61068 23.5859C6.79452 24.2783 7.20199 24.8906 7.76971 25.3275C8.33744 25.7644 9.03362 26.0015 9.75 26.0019V48.7519C8.88805 48.7519 8.0614 49.0943 7.4519 49.7038C6.84241 50.3133 6.5 51.1399 6.5 52.0019C6.5 52.8638 6.84241 53.6905 7.4519 54.3C8.0614 54.9095 8.88805 55.2519 9.75 55.2519H55.25C56.112 55.2519 56.9386 54.9095 57.5481 54.3C58.1576 53.6905 58.5 52.8638 58.5 52.0019C58.5 51.1399 58.1576 50.3133 57.5481 49.7038C56.9386 49.0943 56.112 48.7519 55.25 48.7519V26.0019C55.9664 26.0015 56.6626 25.7644 57.2303 25.3275C57.798 24.8906 58.2055 24.2783 58.3893 23.5859C58.5732 22.8935 58.5231 22.1598 58.2469 21.4988C57.9707 20.8378 57.4838 20.2866 56.862 19.9309L34.112 6.93088ZM19.5 29.2519C18.638 29.2519 17.8114 29.5943 17.2019 30.2038C16.5924 30.8133 16.25 31.6399 16.25 32.5019V42.2519C16.25 43.1138 16.5924 43.9405 17.2019 44.55C17.8114 45.1595 18.638 45.5019 19.5 45.5019C20.362 45.5019 21.1886 45.1595 21.7981 44.55C22.4076 43.9405 22.75 43.1138 22.75 42.2519V32.5019C22.75 31.6399 22.4076 30.8133 21.7981 30.2038C21.1886 29.5943 20.362 29.2519 19.5 29.2519ZM29.25 32.5019C29.25 31.6399 29.5924 30.8133 30.2019 30.2038C30.8114 29.5943 31.638 29.2519 32.5 29.2519C33.362 29.2519 34.1886 29.5943 34.7981 30.2038C35.4076 30.8133 35.75 31.6399 35.75 32.5019V42.2519C35.75 43.1138 35.4076 43.9405 34.7981 44.55C34.1886 45.1595 33.362 45.5019 32.5 45.5019C31.638 45.5019 30.8114 45.1595 30.2019 44.55C29.5924 43.9405 29.25 43.1138 29.25 42.2519V32.5019ZM45.5 29.2519C44.638 29.2519 43.8114 29.5943 43.2019 30.2038C42.5924 30.8133 42.25 31.6399 42.25 32.5019V42.2519C42.25 43.1138 42.5924 43.9405 43.2019 44.55C43.8114 45.1595 44.638 45.5019 45.5 45.5019C46.362 45.5019 47.1886 45.1595 47.7981 44.55C48.4076 43.9405 48.75 43.1138 48.75 42.2519V32.5019C48.75 31.6399 48.4076 30.8133 47.7981 30.2038C47.1886 29.5943 46.362 29.2519 45.5 29.2519Z" fill="#FDA2D1"/>
</svg>
