<svg width="60" height="60" viewBox="0 0 60 60" fill="none" xmlns="http://www.w3.org/2000/svg">
<path fill-rule="evenodd" clip-rule="evenodd" d="M6.498 14.997C15.1834 14.889 23.5344 11.6324 30 5.83203C36.4651 11.6335 44.8162 14.8912 53.502 15C53.832 16.95 54 18.96 54 21.003C54 36.678 43.98 50.013 30 54.954C16.02 50.01 6 36.675 6 21C6 18.954 6.171 16.95 6.498 14.997V14.997ZM41.121 26.121C41.6675 25.5552 41.9699 24.7974 41.963 24.0108C41.9562 23.2242 41.6407 22.4718 41.0845 21.9156C40.5282 21.3594 39.7758 21.0438 38.9892 21.037C38.2026 21.0302 37.4448 21.3326 36.879 21.879L27 31.758L23.121 27.879C22.5552 27.3326 21.7974 27.0302 21.0108 27.037C20.2242 27.0438 19.4718 27.3594 18.9155 27.9156C18.3593 28.4718 18.0438 29.2242 18.037 30.0108C18.0301 30.7974 18.3325 31.5552 18.879 32.121L24.879 38.121C25.4416 38.6834 26.2045 38.9994 27 38.9994C27.7955 38.9994 28.5584 38.6834 29.121 38.121L41.121 26.121V26.121Z" fill="#F747A1"/>
</svg>
