<svg width="65" height="65" viewBox="0 0 65 65" fill="none" xmlns="http://www.w3.org/2000/svg">
<path fill-rule="evenodd" clip-rule="evenodd" d="M7.0395 16.2476C16.4487 16.1306 25.4956 12.6026 32.5 6.31885C39.5039 12.6038 48.5509 16.133 57.9605 16.2508C58.318 18.3633 58.5 20.5408 58.5 22.7541C58.5 39.7353 47.645 54.1816 32.5 59.5343C17.355 54.1783 6.5 39.7321 6.5 22.7508C6.5 20.5343 6.68525 18.3633 7.0395 16.2476ZM44.5477 28.2986C45.1398 27.6856 45.4673 26.8647 45.4599 26.0125C45.4525 25.1604 45.1107 24.3453 44.5082 23.7427C43.9056 23.1401 43.0904 22.7983 42.2383 22.7909C41.3862 22.7835 40.5652 23.1111 39.9523 23.7031L29.25 34.4053L25.0477 30.2031C24.4348 29.6111 23.6138 29.2835 22.7617 29.2909C21.9096 29.2983 21.0944 29.6401 20.4918 30.2427C19.8893 30.8453 19.5475 31.6604 19.5401 32.5125C19.5327 33.3647 19.8602 34.1856 20.4523 34.7986L26.9523 41.2986C27.5617 41.9079 28.3882 42.2502 29.25 42.2502C30.1118 42.2502 30.9383 41.9079 31.5477 41.2986L44.5477 28.2986Z" fill="#7BFEEE"/>
</svg>
