<svg width="65" height="65" viewBox="0 0 65 65" fill="none" xmlns="http://www.w3.org/2000/svg">
<path d="M29.25 29.251C29.25 27.5271 29.9348 25.8738 31.1538 24.6548C32.3728 23.4358 34.0261 22.751 35.75 22.751C37.4739 22.751 39.1272 23.4358 40.3462 24.6548C41.5652 25.8738 42.25 27.5271 42.25 29.251C42.25 30.9749 41.5652 32.6282 40.3462 33.8472C39.1272 35.0662 37.4739 35.751 35.75 35.751C34.0261 35.751 32.3728 35.0662 31.1538 33.8472C29.9348 32.6282 29.25 30.9749 29.25 29.251Z" fill="#F747A1"/>
<path fill-rule="evenodd" clip-rule="evenodd" d="M32.5 58.501C39.3956 58.501 46.0088 55.7617 50.8848 50.8858C55.7607 46.0098 58.5 39.3966 58.5 32.501C58.5 25.6053 55.7607 18.9921 50.8848 14.1162C46.0088 9.24025 39.3956 6.50098 32.5 6.50098C25.6044 6.50098 18.9912 9.24025 14.1152 14.1162C9.23928 18.9921 6.5 25.6053 6.5 32.501C6.5 39.3966 9.23928 46.0098 14.1152 50.8858C18.9912 55.7617 25.6044 58.501 32.5 58.501V58.501ZM35.75 16.251C33.4577 16.2506 31.206 16.8565 29.2233 18.007C27.2406 19.1576 25.5974 20.8119 24.4603 22.8024C23.3232 24.7928 22.7326 27.0485 22.7485 29.3408C22.7643 31.6331 23.386 33.8804 24.5505 35.855L17.2023 43.2C16.5924 43.8094 16.2496 44.6361 16.2493 45.4982C16.2492 45.9251 16.3331 46.3478 16.4963 46.7423C16.6596 47.1367 16.8989 47.4951 17.2006 47.7971C17.5024 48.0991 17.8606 48.3386 18.255 48.5021C18.6493 48.6656 19.072 48.7499 19.4989 48.75C20.361 48.7503 21.1879 48.4081 21.7977 47.7987L29.146 40.4505C30.868 41.4654 32.8008 42.0696 34.7943 42.216C36.7878 42.3625 38.7882 42.0473 40.64 41.2949C42.4918 40.5426 44.1452 39.3733 45.4717 37.8781C46.7982 36.3828 47.762 34.6018 48.2882 32.6735C48.8145 30.7452 48.889 28.7215 48.5059 26.7597C48.1229 24.7979 47.2926 22.9509 46.0796 21.3621C44.8667 19.7734 43.3037 18.4858 41.5122 17.5993C39.7206 16.7129 37.7488 16.2515 35.75 16.251V16.251Z" fill="#F747A1"/>
</svg>
