<svg width="65" height="66" viewBox="0 0 65 66" fill="none" xmlns="http://www.w3.org/2000/svg">
<path d="M49.2098 6.16895H15.7889C10.0744 6.16895 5.41602 10.8273 5.41602 16.5419V49.9627C5.41602 55.6773 10.0744 60.3356 15.7889 60.3356H49.2098C54.9243 60.3356 59.5827 55.6773 59.5827 49.9627V16.5419C59.5827 10.8273 54.9243 6.16895 49.2098 6.16895ZM50.0764 46.8752C49.7243 47.5794 48.9931 47.9856 48.2619 47.9856C47.9369 47.9856 47.6389 47.9314 47.341 47.7689C46.3389 47.2814 45.9327 46.0627 46.4473 45.0606C47.5035 42.921 48.0723 40.5377 48.0723 38.1273C48.0723 29.5689 41.0848 22.5814 32.4994 22.5814C23.9139 22.5814 16.9535 29.5689 16.9535 38.1273C16.9535 40.5377 17.4952 42.921 18.5785 45.0335C19.066 46.0627 18.6598 47.2814 17.6577 47.7689C16.6556 48.2835 15.4368 47.8773 14.9223 46.8752C13.5952 44.194 12.891 41.1606 12.891 38.1273C12.891 27.321 21.6931 18.5189 32.4994 18.5189C43.3327 18.5189 52.1348 27.321 52.1348 38.1273C52.1348 41.1606 51.4035 44.1669 50.0764 46.8752ZM36.4806 38.1273C36.4806 40.3481 34.6931 42.1356 32.4994 42.1356C30.3056 42.1356 28.5181 40.3481 28.5181 38.1273C28.5181 35.9335 30.3056 34.146 32.4994 34.146C32.8514 34.146 33.1764 34.2002 33.4744 34.2814L37.1306 30.6252C37.916 29.8398 39.216 29.8398 40.0014 30.6252C40.7869 31.4377 40.7869 32.7106 40.0014 33.496L36.3452 37.1523C36.4264 37.4773 36.4806 37.8023 36.4806 38.1273Z" fill="#FBBF5B"/>
</svg>
