<svg width="65" height="65" viewBox="0 0 65 65" fill="none" xmlns="http://www.w3.org/2000/svg">
<path fill-rule="evenodd" clip-rule="evenodd" d="M26 13.001C22.5522 13.001 19.2456 14.3707 16.8076 16.8086C14.3696 19.2466 13 22.5532 13 26.001C13 29.4488 14.3696 32.7554 16.8076 35.1934C19.2456 37.6314 22.5522 39.001 26 39.001C29.4478 39.001 32.7544 37.6314 35.1924 35.1934C37.6304 32.7554 39 29.4488 39 26.001C39 22.5532 37.6304 19.2466 35.1924 16.8086C32.7544 14.3707 29.4478 13.001 26 13.001ZM6.5 26.001C6.49961 22.9321 7.22359 19.9063 8.61306 17.1699C10.0025 14.4335 12.0182 12.0637 14.4963 10.2532C16.9743 8.44275 19.8447 7.24272 22.874 6.75073C25.9032 6.25875 29.0059 6.48871 31.9295 7.42191C34.8531 8.35512 37.5152 9.96521 39.6993 12.1212C41.8833 14.2773 43.5277 16.9184 44.4985 19.8297C45.4694 22.7411 45.7394 25.8405 45.2866 28.8758C44.8337 31.9112 43.6708 34.7968 41.8925 37.298L57.5478 52.9533C58.1398 53.5662 58.4673 54.3872 58.4599 55.2393C58.4525 56.0915 58.1107 56.9066 57.5082 57.5092C56.9056 58.1118 56.0904 58.4536 55.2383 58.461C54.3862 58.4684 53.5652 58.1408 52.9522 57.5488L37.3003 41.8968C34.3829 43.9712 30.9509 45.2025 27.3802 45.4559C23.8095 45.7093 20.238 44.9749 17.057 43.3332C13.876 41.6915 11.2082 39.2059 9.3461 36.1487C7.48397 33.0915 6.4993 29.5807 6.5 26.001Z" fill="#FBBF5B"/>
</svg>
