<svg width="65" height="65" viewBox="0 0 65 65" fill="none" xmlns="http://www.w3.org/2000/svg">
<path fill-rule="evenodd" clip-rule="evenodd" d="M58.5 9.75071C58.4997 9.19694 58.3579 8.65242 58.0881 8.16884C57.8183 7.68526 57.4293 7.27864 56.9582 6.98757C56.4871 6.69651 55.9494 6.53065 55.3962 6.50573C54.843 6.48082 54.2926 6.59767 53.7972 6.84521L28.4797 19.5007H16.25C13.6641 19.5007 11.1842 20.5279 9.35571 22.3564C7.52723 24.1849 6.5 26.6648 6.5 29.2507C6.5 31.8366 7.52723 34.3165 9.35571 36.145C11.1842 37.9735 13.6641 39.0007 16.25 39.0007H17.16L22.9158 56.2777C23.1314 56.9251 23.5453 57.4882 24.0989 57.8872C24.6525 58.2862 25.3176 58.5009 26 58.5007H29.25C30.112 58.5007 30.9386 58.1583 31.5481 57.5488C32.1576 56.9393 32.5 56.1127 32.5 55.2507V41.0092L53.7972 51.6562C54.2926 51.9037 54.843 52.0206 55.3962 51.9957C55.9494 51.9708 56.4871 51.8049 56.9582 51.5138C57.4293 51.2228 57.8183 50.8162 58.0881 50.3326C58.3579 49.849 58.4997 49.3045 58.5 48.7507V9.75071Z" fill="#FBBF5B"/>
</svg>
