<svg width="65" height="65" viewBox="0 0 65 65" fill="none" xmlns="http://www.w3.org/2000/svg">
<path d="M33.7814 6.76045C33.3768 6.587 32.9411 6.49756 32.5009 6.49756C32.0607 6.49756 31.625 6.587 31.2204 6.76045L8.47041 16.5104C7.88414 16.7602 7.38423 17.1768 7.03286 17.7084C6.68148 18.24 6.49414 18.8632 6.49414 19.5005C6.49414 20.1377 6.68148 20.7609 7.03286 21.2925C7.38423 21.8241 7.88414 22.2407 8.47041 22.4905L17.0634 26.1662C17.3824 25.8054 17.7776 25.5201 18.2204 25.3309L31.2204 19.7605C31.6138 19.5851 32.0381 19.4897 32.4687 19.4798C32.8993 19.4699 33.3275 19.5457 33.7286 19.7027C34.1296 19.8598 34.4954 20.095 34.8048 20.3946C35.1141 20.6943 35.3608 21.0525 35.5305 21.4483C35.7002 21.8442 35.7896 22.2698 35.7933 22.7005C35.7971 23.1312 35.7152 23.5583 35.5525 23.957C35.3898 24.3558 35.1494 24.7182 34.8453 25.0233C34.5413 25.3283 34.1796 25.5699 33.7814 25.734L24.9187 29.5365L31.2237 32.2372C31.6278 32.4102 32.0629 32.4994 32.5025 32.4994C32.9422 32.4994 33.3772 32.4102 33.7814 32.2372L56.5314 22.4872C57.1157 22.2365 57.6137 21.8199 57.9636 21.289C58.3136 20.7582 58.5001 20.1363 58.5001 19.5005C58.5001 18.8646 58.3136 18.2427 57.9636 17.7119C57.6137 17.181 57.1157 16.7644 56.5314 16.5137L33.7814 6.7637V6.76045ZM10.7584 30.5407L16.2509 32.8905V46.222C15.1256 45.9661 13.9861 45.7772 12.8384 45.6565C12.0979 45.5786 11.4065 45.2489 10.88 44.7223C10.3535 44.1958 10.0237 43.5045 9.94591 42.764C9.5185 38.6719 9.79328 34.5369 10.7584 30.5375V30.5407ZM30.2259 53.8627C28.029 51.707 25.5064 49.9106 22.7509 48.5392V35.6789L28.6594 38.214C29.8733 38.7343 31.1802 39.0026 32.5009 39.0026C33.8216 39.0026 35.1285 38.7343 36.3424 38.214L54.2434 30.5407C55.2142 34.5393 55.4891 38.6753 55.0559 42.7672C54.9781 43.5077 54.6483 44.1991 54.1218 44.7256C53.5953 45.2521 52.9039 45.5819 52.1634 45.6597C45.6066 46.3488 39.4772 49.2405 34.7759 53.8627C34.1684 54.4582 33.3516 54.7917 32.5009 54.7917C31.6502 54.7917 30.8334 54.4582 30.2259 53.8627V53.8627ZM19.5009 58.5004C20.3629 58.5004 21.1895 58.158 21.799 57.5485C22.4085 56.9391 22.7509 56.1124 22.7509 55.2505V48.5392C20.6839 47.5123 18.5018 46.7355 16.2509 46.2252V55.2505C16.2509 56.1124 16.5933 56.9391 17.2028 57.5485C17.8123 58.158 18.639 58.5004 19.5009 58.5004Z" fill="#4E79B9"/>
</svg>
