<svg width="65" height="65" viewBox="0 0 65 65" fill="none" xmlns="http://www.w3.org/2000/svg">
<path d="M33.7804 6.76045C33.3758 6.587 32.9402 6.49756 32.4999 6.49756C32.0597 6.49756 31.6241 6.587 31.2194 6.76045L8.46943 16.5104C7.88316 16.7602 7.38326 17.1768 7.03188 17.7084C6.6805 18.24 6.49316 18.8632 6.49316 19.5005C6.49316 20.1377 6.6805 20.7609 7.03188 21.2925C7.38326 21.8241 7.88316 22.2407 8.46943 22.4905L17.0624 26.1662C17.3814 25.8054 17.7766 25.5201 18.2194 25.3309L31.2194 19.7605C31.6128 19.5851 32.0371 19.4897 32.4677 19.4798C32.8983 19.4699 33.3265 19.5457 33.7276 19.7027C34.1286 19.8598 34.4944 20.095 34.8038 20.3946C35.1131 20.6943 35.3598 21.0525 35.5295 21.4483C35.6993 21.8442 35.7886 22.2698 35.7924 22.7005C35.7961 23.1312 35.7143 23.5583 35.5515 23.957C35.3888 24.3558 35.1484 24.7182 34.8443 25.0233C34.5403 25.3283 34.1787 25.5699 33.7804 25.734L24.9177 29.5365L31.2227 32.2372C31.6269 32.4102 32.0619 32.4994 32.5016 32.4994C32.9412 32.4994 33.3763 32.4102 33.7804 32.2372L56.5304 22.4872C57.1148 22.2365 57.6127 21.8199 57.9627 21.289C58.3126 20.7582 58.4991 20.1363 58.4991 19.5005C58.4991 18.8646 58.3126 18.2427 57.9627 17.7119C57.6127 17.181 57.1148 16.7644 56.5304 16.5137L33.7804 6.7637V6.76045ZM10.7574 30.5407L16.2499 32.8905V46.222C15.1246 45.9661 13.9851 45.7772 12.8374 45.6565C12.0969 45.5786 11.4055 45.2489 10.879 44.7223C10.3525 44.1958 10.0228 43.5045 9.94493 42.764C9.51752 38.6719 9.79231 34.5369 10.7574 30.5375V30.5407ZM30.2249 53.8627C28.028 51.707 25.5054 49.9106 22.7499 48.5392V35.6789L28.6584 38.214C29.8723 38.7343 31.1792 39.0026 32.4999 39.0026C33.8206 39.0026 35.1276 38.7343 36.3414 38.214L54.2424 30.5407C55.2132 34.5393 55.4881 38.6753 55.0549 42.7672C54.9771 43.5077 54.6473 44.1991 54.1208 44.7256C53.5943 45.2521 52.903 45.5819 52.1624 45.6597C45.6056 46.3488 39.4762 49.2405 34.7749 53.8627C34.1674 54.4582 33.3506 54.7917 32.4999 54.7917C31.6492 54.7917 30.8324 54.4582 30.2249 53.8627V53.8627ZM19.4999 58.5004C20.3619 58.5004 21.1885 58.158 21.798 57.5485C22.4075 56.9391 22.7499 56.1124 22.7499 55.2505V48.5392C20.6829 47.5123 18.5009 46.7355 16.2499 46.2252V55.2505C16.2499 56.1124 16.5923 56.9391 17.2018 57.5485C17.8113 58.158 18.638 58.5004 19.4999 58.5004Z" fill="#45F9E3"/>
</svg>
