<svg width="65" height="65" viewBox="0 0 65 65" fill="none" xmlns="http://www.w3.org/2000/svg">
<path fill-rule="evenodd" clip-rule="evenodd" d="M32.5 29.252C35.0859 29.252 37.5658 28.2247 39.3943 26.3962C41.2228 24.5678 42.25 22.0878 42.25 19.502C42.25 16.9161 41.2228 14.4361 39.3943 12.6077C37.5658 10.7792 35.0859 9.75195 32.5 9.75195C29.9141 9.75195 27.4342 10.7792 25.6057 12.6077C23.7772 14.4361 22.75 16.9161 22.75 19.502C22.75 22.0878 23.7772 24.5678 25.6057 26.3962C27.4342 28.2247 29.9141 29.252 32.5 29.252ZM9.75 58.502C9.75 55.5144 10.3384 52.5561 11.4817 49.7959C12.625 47.0357 14.3008 44.5278 16.4133 42.4153C18.5259 40.3027 21.0338 38.627 23.794 37.4837C26.5541 36.3404 29.5124 35.752 32.5 35.752C35.4876 35.752 38.4459 36.3404 41.206 37.4837C43.9662 38.627 46.4741 40.3027 48.5867 42.4153C50.6992 44.5278 52.375 47.0357 53.5183 49.7959C54.6616 52.5561 55.25 55.5144 55.25 58.502H9.75Z" fill="#FBBF5B"/>
</svg>
