<svg width="65" height="65" viewBox="0 0 65 65" fill="none" xmlns="http://www.w3.org/2000/svg">
<path d="M29.4101 9.51252C30.3851 6.51927 34.6199 6.51927 35.5916 9.51252L39.0691 20.2115C39.2816 20.8631 39.6946 21.4308 40.2491 21.8336C40.8036 22.2364 41.4713 22.4535 42.1566 22.454H53.4081C56.5574 22.454 57.8639 26.484 55.3191 28.3365L46.2191 34.947C45.6635 35.3501 45.2497 35.9188 45.0372 36.5715C44.8247 37.2243 44.8243 37.9275 45.0361 38.5805L48.5136 49.2795C49.4886 52.2728 46.0599 54.7655 43.5086 52.913L34.4086 46.3025C33.8536 45.8995 33.1852 45.6825 32.4993 45.6825C31.8133 45.6825 31.145 45.8995 30.5899 46.3025L21.4899 52.913C18.9419 54.7655 15.5164 52.2728 16.4881 49.2795L19.9656 38.5805C20.1775 37.9275 20.1771 37.2243 19.9646 36.5715C19.752 35.9188 19.3383 35.3501 18.7826 34.947L9.68589 28.3398C7.14114 26.4873 8.45089 22.4573 11.5969 22.4573H22.8451C23.531 22.4574 24.1994 22.2406 24.7546 21.8378C25.3098 21.435 25.7233 20.8669 25.9359 20.2148L29.4134 9.51577L29.4101 9.51252Z" fill="#45F9E3"/>
</svg>
