<svg width="21" height="20" viewBox="0 0 21 20" fill="none" xmlns="http://www.w3.org/2000/svg">
<path d="M9.8457 2.00049C9.31527 2.00049 8.80656 2.2112 8.43149 2.58627C8.05642 2.96135 7.8457 3.47006 7.8457 4.00049V12.0005C7.8457 12.5309 8.05642 13.0396 8.43149 13.4147C8.80656 13.7898 9.31527 14.0005 9.8457 14.0005H15.8457C16.3761 14.0005 16.8848 13.7898 17.2599 13.4147C17.635 13.0396 17.8457 12.5309 17.8457 12.0005V6.41449C17.8456 5.8841 17.6348 5.37547 17.2597 5.00049L14.8457 2.58649C14.4707 2.21139 13.9621 2.0006 13.4317 2.00049H9.8457Z" fill="#4E79B9"/>
<path d="M3.8457 8.00049C3.8457 7.47006 4.05642 6.96135 4.43149 6.58627C4.80656 6.2112 5.31527 6.00049 5.8457 6.00049V16.0005H13.8457C13.8457 16.5309 13.635 17.0396 13.2599 17.4147C12.8848 17.7898 12.3761 18.0005 11.8457 18.0005H5.8457C5.31527 18.0005 4.80656 17.7898 4.43149 17.4147C4.05642 17.0396 3.8457 16.5309 3.8457 16.0005V8.00049Z" fill="#4E79B9"/>
</svg>
