<svg width="20" height="21" viewBox="0 0 20 21" fill="none" xmlns="http://www.w3.org/2000/svg">
<path d="M9 2.75195C8.46957 2.75195 7.96086 2.96267 7.58579 3.33774C7.21071 3.71281 7 4.22152 7 4.75195V12.752C7 13.2824 7.21071 13.7911 7.58579 14.1662C7.96086 14.5412 8.46957 14.752 9 14.752H15C15.5304 14.752 16.0391 14.5412 16.4142 14.1662C16.7893 13.7911 17 13.2824 17 12.752V7.16595C16.9999 6.63556 16.7891 6.12694 16.414 5.75195L14 3.33795C13.625 2.96285 13.1164 2.75207 12.586 2.75195H9Z" fill="#D4D4D4"/>
<path d="M3 8.75195C3 8.22152 3.21071 7.71281 3.58579 7.33774C3.96086 6.96267 4.46957 6.75195 5 6.75195V16.752H13C13 17.2824 12.7893 17.7911 12.4142 18.1662C12.0391 18.5412 11.5304 18.752 11 18.752H5C4.46957 18.752 3.96086 18.5412 3.58579 18.1662C3.21071 17.7911 3 17.2824 3 16.752V8.75195Z" fill="#D4D4D4"/>
</svg>
