<svg width="60" height="60" viewBox="0 0 60 60" fill="none" xmlns="http://www.w3.org/2000/svg">
<rect width="60" height="60" fill="#0A0A0A"/>
<path d="M14.3238 17.686L14.308 23.3202C14.308 23.3246 14.3063 23.3289 14.3031 23.3321C14.2999 23.3352 14.2957 23.337 14.2912 23.337L10.0179 23.3386C10.0134 23.3386 10.0091 23.3368 10.006 23.3337C10.0028 23.3305 10.0011 23.3262 10.0011 23.3217L10 10.0169C10 10.0124 10.0018 10.0081 10.0049 10.0049C10.0081 10.0018 10.0124 10 10.0169 10L22.7814 10.0005C22.7836 10.0005 22.7858 10.001 22.7878 10.0018C22.7899 10.0027 22.7917 10.0039 22.7933 10.0055C22.7949 10.007 22.7961 10.0089 22.797 10.0109C22.7978 10.013 22.7983 10.0152 22.7983 10.0174V14.2843C22.7983 14.2888 22.7965 14.2931 22.7933 14.2963C22.7902 14.2994 22.7859 14.3012 22.7814 14.3012L17.1383 14.3186C17.135 14.3186 17.1318 14.3196 17.1291 14.3214C17.1263 14.3232 17.1242 14.3258 17.1229 14.3288C17.1216 14.3318 17.1212 14.3352 17.1218 14.3384C17.1224 14.3416 17.1239 14.3446 17.1262 14.347L26.3584 23.5893C26.3601 23.5909 26.3614 23.5927 26.3622 23.5948C26.3631 23.5969 26.3636 23.5991 26.3636 23.6014C26.3636 23.6037 26.3631 23.6059 26.3622 23.608C26.3614 23.6101 26.3601 23.6119 26.3584 23.6135L23.3381 26.6349C23.3365 26.6366 23.3346 26.6379 23.3325 26.6387C23.3305 26.6396 23.3282 26.6401 23.326 26.6401C23.3237 26.6401 23.3215 26.6396 23.3194 26.6387C23.3173 26.6379 23.3154 26.6366 23.3138 26.6349L14.3523 17.6739C14.3499 17.6716 14.3469 17.6701 14.3437 17.6695C14.3404 17.669 14.3371 17.6693 14.3341 17.6706C14.3311 17.6719 14.3285 17.6741 14.3267 17.6768C14.3248 17.6795 14.3239 17.6827 14.3238 17.686Z" fill="#4E79B9"/>
<path d="M42.9375 14.3038L37.2706 14.3096C37.2664 14.3096 37.2624 14.308 37.2595 14.305C37.2565 14.302 37.2548 14.298 37.2548 14.2938L37.2554 10.0158C37.2554 10.0137 37.2558 10.0117 37.2566 10.0098C37.2574 10.0078 37.2585 10.0061 37.26 10.0046C37.2615 10.0032 37.2632 10.002 37.2651 10.0012C37.267 10.0004 37.2691 10 37.2712 10L50.0368 10.0005C50.041 10.0005 50.045 10.0022 50.0479 10.0052C50.0509 10.0081 50.0526 10.0121 50.0526 10.0163V23.3217C50.0526 23.3259 50.0509 23.33 50.0479 23.3329C50.045 23.3359 50.041 23.3375 50.0368 23.3375H45.7603C45.7561 23.3375 45.7521 23.3359 45.7492 23.3329C45.7462 23.33 45.7445 23.3259 45.7445 23.3217L45.7308 17.6823C45.7308 17.6792 45.7298 17.6762 45.7281 17.6737C45.7264 17.6711 45.7239 17.6691 45.7211 17.6679C45.7182 17.6668 45.715 17.6664 45.712 17.667C45.709 17.6676 45.7062 17.6691 45.704 17.6713L36.7387 26.6381C36.7358 26.641 36.7318 26.6426 36.7277 26.6426C36.7235 26.6426 36.7196 26.641 36.7166 26.6381L33.692 23.6119C33.6891 23.609 33.6875 23.605 33.6875 23.6009C33.6875 23.5967 33.6891 23.5928 33.692 23.5898L42.949 14.3307C42.9512 14.3284 42.9527 14.3256 42.9533 14.3225C42.9539 14.3194 42.9535 14.3162 42.9523 14.3134C42.951 14.3105 42.949 14.308 42.9463 14.3063C42.9437 14.3046 42.9406 14.3038 42.9375 14.3038Z" fill="#4E79B9"/>
<path d="M14.357 42.3246L23.2638 33.4146C23.3049 33.3735 23.3459 33.3735 23.387 33.4146L26.3437 36.3697C26.3516 36.3776 26.356 36.3884 26.356 36.3997C26.356 36.4109 26.3516 36.4217 26.3437 36.4297L17.1293 45.6462C17.1253 45.6501 17.1225 45.6551 17.1214 45.6606C17.1203 45.6661 17.1208 45.6718 17.123 45.6769C17.1251 45.6821 17.1288 45.6865 17.1335 45.6896C17.1382 45.6926 17.1437 45.6942 17.1493 45.6941L22.7708 45.6936C22.7882 45.6936 22.7972 45.702 22.7972 45.7194L22.8008 49.9189C22.8008 49.9726 22.774 49.9995 22.7208 49.9995L10.0526 50C10.0189 50 10.0058 49.9837 10.0137 49.951C10.0252 49.901 10.0005 49.8452 10.0005 49.7983C10.0005 45.4276 10.0005 41.0579 10.0005 36.6888C10.0005 36.6817 10.0033 36.6749 10.0084 36.6698C10.0134 36.6648 10.0202 36.662 10.0273 36.662H14.2796C14.29 36.662 14.3001 36.6661 14.3075 36.6735C14.3149 36.6809 14.3191 36.691 14.3191 36.7015V42.3088C14.3191 42.3446 14.3317 42.3498 14.357 42.3246Z" fill="#4E79B9"/>
<path d="M42.9208 45.6391L33.7454 36.4637C33.7279 36.4461 33.7182 36.4223 33.7183 36.3974C33.7184 36.3725 33.7283 36.3486 33.7459 36.331L36.6963 33.3933C36.701 33.3886 36.7065 33.3848 36.7127 33.3823C36.7188 33.3797 36.7254 33.3784 36.7321 33.3784C36.7387 33.3784 36.7453 33.3797 36.7515 33.3823C36.7576 33.3848 36.7632 33.3886 36.7679 33.3933L45.6931 42.3201C45.6966 42.3235 45.701 42.3258 45.7057 42.3268C45.7105 42.3277 45.7154 42.3272 45.7199 42.3254C45.7244 42.3235 45.7283 42.3204 45.731 42.3163C45.7337 42.3123 45.7352 42.3076 45.7353 42.3027L45.7347 36.6959C45.7347 36.6869 45.7383 36.6782 45.7448 36.6717C45.7512 36.6653 45.7599 36.6617 45.769 36.6617H50.0133C50.0238 36.6617 50.0338 36.6659 50.0412 36.6733C50.0486 36.6807 50.0528 36.6907 50.0528 36.7012V49.9334C50.0528 49.9771 50.0307 49.9993 49.9869 49.9993H37.294C37.2672 49.9993 37.254 49.9861 37.254 49.9592L37.2535 45.7291C37.2535 45.7198 37.2572 45.7108 37.2638 45.7042C37.2704 45.6976 37.2794 45.6939 37.2888 45.6939H42.8513C42.8613 45.6939 42.8708 45.6912 42.8792 45.6854C42.8855 45.6812 42.8929 45.6796 42.9008 45.6807C42.9059 45.6814 42.9111 45.6805 42.9156 45.6781C42.9201 45.6756 42.9238 45.6718 42.926 45.6672C42.9282 45.6626 42.9289 45.6573 42.928 45.6523C42.9271 45.6472 42.9245 45.6426 42.9208 45.6391Z" fill="#4E79B9"/>
</svg>
