<svg width="60" height="60" viewBox="0 0 60 60" fill="none" xmlns="http://www.w3.org/2000/svg">
<rect width="60" height="60" fill="#0A0A0A"/>
<path d="M10 33.4514V26.5078C10 26.4922 10.0062 26.4772 10.0172 26.4662C10.0282 26.4552 10.0432 26.449 10.0588 26.449H21.3061C21.3177 26.449 21.329 26.4456 21.3386 26.4393C21.3483 26.4329 21.3558 26.4239 21.3603 26.4133C21.3649 26.4026 21.3662 26.3909 21.3641 26.3795C21.362 26.3682 21.3566 26.3577 21.3486 26.3494L13.3894 18.3886C13.3788 18.3776 13.3729 18.363 13.3729 18.3478C13.3729 18.3325 13.3788 18.3179 13.3894 18.3069L18.302 13.3878C18.313 13.3772 18.3276 13.3713 18.3429 13.3713C18.3581 13.3713 18.3727 13.3772 18.3837 13.3878L26.3494 21.3469C26.3577 21.355 26.3682 21.3604 26.3795 21.3624C26.3909 21.3645 26.4026 21.3632 26.4133 21.3587C26.4239 21.3542 26.4329 21.3466 26.4393 21.337C26.4456 21.3273 26.449 21.316 26.449 21.3045V10.0588C26.449 10.0432 26.4552 10.0282 26.4662 10.0172C26.4772 10.0062 26.4922 10 26.5078 10H33.4514C33.467 10 33.482 10.0062 33.493 10.0172C33.504 10.0282 33.5102 10.0432 33.5102 10.0588V21.3094C33.5105 21.3208 33.5141 21.3319 33.5206 21.3413C33.527 21.3507 33.5361 21.358 33.5467 21.3623C33.5572 21.3666 33.5688 21.3678 33.58 21.3657C33.5912 21.3635 33.6016 21.3581 33.6098 21.3502L41.569 13.3861C41.5799 13.3755 41.5946 13.3696 41.6098 13.3696C41.625 13.3696 41.6397 13.3755 41.6506 13.3861L46.5584 18.2939C46.5689 18.3048 46.5749 18.3195 46.5749 18.3347C46.5749 18.3499 46.5689 18.3646 46.5584 18.3755L38.6073 26.3494C38.5993 26.3577 38.5939 26.3682 38.5918 26.3795C38.5897 26.3909 38.591 26.4026 38.5956 26.4133C38.6001 26.4239 38.6077 26.4329 38.6173 26.4393C38.6269 26.4456 38.6382 26.449 38.6498 26.449H49.9004C49.916 26.449 49.9309 26.4552 49.942 26.4662C49.953 26.4772 49.9592 26.4922 49.9592 26.5078V33.4514C49.9592 33.4591 49.9577 33.4668 49.9547 33.4739C49.9518 33.4811 49.9474 33.4875 49.942 33.493C49.9365 33.4984 49.93 33.5028 49.9229 33.5057C49.9158 33.5087 49.9081 33.5102 49.9004 33.5102H38.6302C38.6187 33.5102 38.6073 33.5135 38.5977 33.5199C38.5881 33.5263 38.5805 33.5353 38.576 33.5459C38.5714 33.5566 38.5702 33.5683 38.5722 33.5796C38.5743 33.591 38.5797 33.6015 38.5878 33.6098L46.5404 41.5886C46.551 41.5995 46.5569 41.6142 46.5569 41.6294C46.5569 41.6446 46.551 41.6592 46.5404 41.6702L41.662 46.6057C41.6566 46.6114 41.65 46.616 41.6427 46.6191C41.6354 46.6222 41.6275 46.6238 41.6196 46.6238C41.6117 46.6238 41.6038 46.6222 41.5965 46.6191C41.5892 46.616 41.5826 46.6114 41.5771 46.6057L33.6098 38.6041C33.6017 38.5956 33.5912 38.5897 33.5797 38.5873C33.5682 38.5848 33.5563 38.5858 33.5454 38.5902C33.5345 38.5946 33.5251 38.6022 33.5186 38.6119C33.512 38.6217 33.5085 38.6332 33.5086 38.6449L33.5102 49.9412C33.5102 49.9568 33.504 49.9718 33.493 49.9828C33.482 49.9938 33.467 50 33.4514 50H26.5078C26.4922 50 26.4772 49.9938 26.4662 49.9828C26.4552 49.9718 26.449 49.9568 26.449 49.9412V38.6514C26.449 38.6399 26.4456 38.6286 26.4393 38.6189C26.4329 38.6093 26.4239 38.6017 26.4133 38.5972C26.4026 38.5927 26.3909 38.5914 26.3795 38.5935C26.3682 38.5956 26.3577 38.601 26.3494 38.609L18.3788 46.5829C18.3733 46.5883 18.3668 46.5927 18.3597 46.5956C18.3525 46.5986 18.3449 46.6001 18.3371 46.6001C18.3294 46.6001 18.3217 46.5986 18.3146 46.5956C18.3075 46.5927 18.301 46.5883 18.2955 46.5829L13.3927 41.6473C13.3821 41.6364 13.3762 41.6218 13.3762 41.6065C13.3762 41.5913 13.3821 41.5767 13.3927 41.5657L21.3502 33.6098C21.3582 33.6015 21.3636 33.591 21.3657 33.5796C21.3678 33.5683 21.3665 33.5566 21.362 33.5459C21.3575 33.5353 21.3499 33.5263 21.3402 33.5199C21.3306 33.5135 21.3193 33.5102 21.3078 33.5102H10.0588C10.0511 33.5102 10.0434 33.5087 10.0363 33.5057C10.0292 33.5028 10.0227 33.4984 10.0172 33.493C10.0118 33.4875 10.0074 33.4811 10.0045 33.4739C10.0015 33.4668 10 33.4591 10 33.4514Z" fill="#45F9E3"/>
</svg>
