<svg width="60" height="60" viewBox="0 0 60 60" fill="none" xmlns="http://www.w3.org/2000/svg">
<rect width="60" height="60" fill="#0A0A0A"/>
<path d="M28.4731 29.9979C26.8367 29.7687 25.7721 29.5923 25.2814 29.4646C16.2842 27.1245 10.2678 19.563 10.0001 10.2717C9.99608 10.0913 10.0853 10 10.2658 10H49.8093C49.8278 10 49.8461 10.0036 49.8631 10.0107C49.8801 10.0178 49.8954 10.0282 49.9083 10.0412C49.9211 10.0543 49.9312 10.0697 49.9379 10.0867C49.9446 10.1036 49.9478 10.1217 49.9472 10.1399C49.6572 20.7127 41.9416 29.1705 31.2674 29.9715C31.2573 29.9735 31.2573 29.9776 31.2633 29.9837L31.3201 30.0405C31.3282 30.0486 31.3384 30.0526 31.3485 30.0526C41.9254 30.8759 49.6816 39.2851 49.9452 49.8538C49.9457 49.8728 49.9425 49.8917 49.9356 49.9094C49.9287 49.9271 49.9183 49.9432 49.9051 49.9568C49.8918 49.9704 49.876 49.9812 49.8585 49.9886C49.841 49.996 49.8222 49.9998 49.8032 49.9998C37.0141 50.0018 24.2087 49.9877 11.3892 49.9593C10.9694 49.9593 10.5476 49.9532 10.1279 49.941C10.0569 49.939 10.0224 49.9045 10.0245 49.8335C10.2151 39.2262 17.949 31.0766 28.4731 30.0688C28.4778 30.0691 28.4824 30.0685 28.4867 30.0669C28.491 30.0654 28.4949 30.063 28.4982 30.0599C28.5015 30.0568 28.5041 30.053 28.5059 30.0488C28.5077 30.0446 28.5086 30.04 28.5086 30.0354C28.5086 30.0307 28.5077 30.0261 28.5059 30.0216C28.5041 30.0172 28.5015 30.0132 28.4982 30.0097C28.4949 30.0062 28.491 30.0034 28.4867 30.0014C28.4824 29.9993 28.4778 29.9981 28.4731 29.9979Z" fill="#F747A1"/>
</svg>
