<svg width="25" height="26" viewBox="0 0 25 26" fill="none" xmlns="http://www.w3.org/2000/svg">
<path fill-rule="evenodd" clip-rule="evenodd" d="M3.75 21.7512C3.75 21.4197 3.8817 21.1017 4.11612 20.8673C4.35054 20.6329 4.66848 20.5012 5 20.5012H20C20.3315 20.5012 20.6495 20.6329 20.8839 20.8673C21.1183 21.1017 21.25 21.4197 21.25 21.7512C21.25 22.0827 21.1183 22.4007 20.8839 22.6351C20.6495 22.8695 20.3315 23.0012 20 23.0012H5C4.66848 23.0012 4.35054 22.8695 4.11612 22.6351C3.8817 22.4007 3.75 22.0827 3.75 21.7512ZM7.86625 8.88495C7.63191 8.65054 7.50027 8.33265 7.50027 8.0012C7.50027 7.66974 7.63191 7.35186 7.86625 7.11745L11.6163 3.36745C11.8507 3.13311 12.1685 3.00146 12.5 3.00146C12.8315 3.00146 13.1493 3.13311 13.3837 3.36745L17.1337 7.11745C17.3614 7.3532 17.4874 7.66895 17.4846 7.9967C17.4817 8.32445 17.3503 8.63796 17.1185 8.86972C16.8868 9.10148 16.5732 9.23294 16.2455 9.23579C15.9178 9.23864 15.602 9.11265 15.3663 8.88495L13.75 7.2687V16.7512C13.75 17.0827 13.6183 17.4007 13.3839 17.6351C13.1495 17.8695 12.8315 18.0012 12.5 18.0012C12.1685 18.0012 11.8505 17.8695 11.6161 17.6351C11.3817 17.4007 11.25 17.0827 11.25 16.7512V7.2687L9.63375 8.88495C9.39934 9.11929 9.08146 9.25093 8.75 9.25093C8.41854 9.25093 8.10066 9.11929 7.86625 8.88495Z" fill="#0A0A0A"/>
</svg>
