<svg width="32" height="9" viewBox="0 0 32 9" fill="none" xmlns="http://www.w3.org/2000/svg">
<g clip-path="url(#clip0_123_10294)">
<path fill-rule="evenodd" clip-rule="evenodd" d="M23.463 2.89546L0.365351 3.99549L23.514 5.71343C24.2608 7.62097 26.3461 8.6902 28.3615 8.12747C30.5108 7.52736 31.7666 5.29852 31.1665 3.14922C30.5664 1.00002 28.3376 -0.255906 26.1883 0.344284C24.869 0.712594 23.8863 1.69475 23.463 2.89546Z" fill="#7BFEEE"/>
<path d="M28.9082 5.80497C29.7965 4.97289 29.8421 3.5782 29.0101 2.68987C28.178 1.80153 26.7833 1.75593 25.8949 2.58801C25.0066 3.4201 24.961 4.81478 25.7931 5.70312C26.6252 6.59146 28.0199 6.63706 28.9082 5.80497Z" fill="#0A0A0A"/>
</g>
<defs>
<clipPath id="clip0_123_10294">
<rect width="32" height="9" fill="white" transform="matrix(-1 0 0 -1 32 9)"/>
</clipPath>
</defs>
</svg>
