<svg width="78" height="36" viewBox="0 0 78 36" fill="none" xmlns="http://www.w3.org/2000/svg">
<path fill-rule="evenodd" clip-rule="evenodd" d="M33.4256 4.40777C34.6428 4.40777 35.6295 3.42106 35.6295 2.20389C35.6295 0.986713 34.6428 0 33.4256 0C32.2084 0 31.2217 0.986713 31.2217 2.20389C31.2217 3.42106 32.2084 4.40777 33.4256 4.40777ZM26.4466 4.40777C26.4466 5.62494 25.4599 6.61166 24.2427 6.61166C23.0256 6.61166 22.0389 5.62494 22.0389 4.40777C22.0389 3.1906 23.0256 2.20389 24.2427 2.20389C25.4599 2.20389 26.4466 3.1906 26.4466 4.40777ZM16.1618 11.0194C17.379 11.0194 18.3657 10.0327 18.3657 8.81554C18.3657 7.59837 17.379 6.61166 16.1618 6.61166C14.9447 6.61166 13.9579 7.59837 13.9579 8.81554C13.9579 10.0327 14.9447 11.0194 16.1618 11.0194ZM11.3867 15.7945C11.3867 17.0117 10.4 17.9984 9.18286 17.9984C7.96569 17.9984 6.97897 17.0117 6.97897 15.7945C6.97897 14.5773 7.96569 13.5906 9.18286 13.5906C10.4 13.5906 11.3867 14.5773 11.3867 15.7945ZM4.77509 26.4466C5.99226 26.4466 6.97897 25.4599 6.97897 24.2427C6.97897 23.0256 5.99226 22.0389 4.77509 22.0389C3.55791 22.0389 2.5712 23.0256 2.5712 24.2427C2.5712 25.4599 3.55791 26.4466 4.77509 26.4466ZM2.20389 35.9968C3.42106 35.9968 4.40777 35.0101 4.40777 33.7929C4.40777 32.5757 3.42106 31.589 2.20389 31.589C0.986713 31.589 0 32.5757 0 33.7929C0 35.0101 0.986713 35.9968 2.20389 35.9968ZM45.1797 2.20389C45.1797 3.42106 44.1929 4.40777 42.9758 4.40777C41.7586 4.40777 40.7719 3.42106 40.7719 2.20389C40.7719 0.986713 41.7586 0 42.9758 0C44.1929 0 45.1797 0.986713 45.1797 2.20389ZM52.5259 6.61166C53.7431 6.61166 54.7298 5.62494 54.7298 4.40777C54.7298 3.1906 53.7431 2.20389 52.5259 2.20389C51.3088 2.20389 50.3221 3.1906 50.3221 4.40777C50.3221 5.62494 51.3088 6.61166 52.5259 6.61166ZM62.8107 8.81554C62.8107 10.0327 61.824 11.0194 60.6069 11.0194C59.3897 11.0194 58.403 10.0327 58.403 8.81554C58.403 7.59837 59.3897 6.61166 60.6069 6.61166C61.824 6.61166 62.8107 7.59837 62.8107 8.81554ZM67.5858 17.9984C68.803 17.9984 69.7897 17.0117 69.7897 15.7945C69.7897 14.5773 68.803 13.5906 67.5858 13.5906C66.3687 13.5906 65.382 14.5773 65.382 15.7945C65.382 17.0117 66.3687 17.9984 67.5858 17.9984ZM74.1975 24.2427C74.1975 25.4599 73.2108 26.4466 71.9936 26.4466C70.7764 26.4466 69.7897 25.4599 69.7897 24.2427C69.7897 23.0256 70.7764 22.0389 71.9936 22.0389C73.2108 22.0389 74.1975 23.0256 74.1975 24.2427ZM75.2994 35.9968C76.5166 35.9968 77.5033 35.0101 77.5033 33.7929C77.5033 32.5757 76.5166 31.589 75.2994 31.589C74.0823 31.589 73.0956 32.5757 73.0956 33.7929C73.0956 35.0101 74.0823 35.9968 75.2994 35.9968Z" fill="url(#paint0_linear_124_7492)"/>
<defs>
<linearGradient id="paint0_linear_124_7492" x1="-8.74805" y1="35.5" x2="43.9559" y2="74.1052" gradientUnits="userSpaceOnUse">
<stop offset="0.0326" stop-color="#FF299E"/>
<stop offset="0.183924" stop-color="#FF9190"/>
<stop offset="0.257895" stop-color="#FFA378"/>
<stop offset="0.393104" stop-color="#FFBD55"/>
<stop offset="0.5096" stop-color="#F7C05D"/>
<stop offset="0.694919" stop-color="#E1C872"/>
<stop offset="0.7205" stop-color="#BDD495"/>
<stop offset="0.777" stop-color="#A9DBA9"/>
<stop offset="0.9212" stop-color="#57F3D8"/>
<stop offset="1" stop-color="#2FFFEF"/>
</linearGradient>
</defs>
</svg>
