<svg width="144" height="44" viewBox="0 0 144 44" fill="none" xmlns="http://www.w3.org/2000/svg">
<g clip-path="url(#clip0_8_9602)">
<path d="M89.249 33.9278C80.8975 40.0835 68.7925 43.3678 58.3703 43.3678C43.7567 43.3678 30.6007 37.9628 20.6476 28.9732C19.8657 28.2663 20.5663 27.3029 21.5047 27.8534C32.2459 34.103 45.5271 37.8627 59.2461 37.8627C68.4984 37.8627 78.6767 35.9484 88.0354 31.976C89.4492 31.3754 90.6316 32.9018 89.249 33.9278Z" fill="#FF9900"/>
<path d="M92.7179 29.9555C91.6544 28.5918 85.6613 29.3112 82.9713 29.6302C82.1518 29.7303 82.0267 29.0172 82.7648 28.5042C87.538 25.1448 95.3703 26.1145 96.2837 27.2405C97.197 28.3728 96.046 36.2239 91.5605 39.9711C90.8724 40.5466 90.2155 40.2401 90.5221 39.4769C91.5293 36.9621 93.7876 31.3256 92.7179 29.9555Z" fill="#FF9900"/>
<path d="M83.1621 4.78857V1.52303C83.1621 1.02882 83.5375 0.697266 83.9879 0.697266H98.6077C99.0769 0.697266 99.4523 1.03508 99.4523 1.52303V4.31939C99.446 4.78857 99.0519 5.40164 98.3512 6.3713L90.7754 17.1876C93.5906 17.1188 96.5621 17.5379 99.1145 18.9768C99.69 19.3021 99.8464 19.7775 99.8902 20.2467V23.7312C99.8902 24.2067 99.3647 24.7634 98.8142 24.4757C94.3162 22.1172 88.3419 21.8607 83.3685 24.5007C82.8618 24.7759 82.3301 24.2254 82.3301 23.75V20.4407C82.3301 19.9089 82.3363 19.0018 82.8681 18.1948L91.645 5.60809H84.0066C83.5375 5.60809 83.1621 5.27653 83.1621 4.78857Z" fill="white"/>
<path d="M29.8283 25.163H25.3804C24.955 25.1317 24.6172 24.8127 24.5859 24.4061V1.57856C24.5859 1.12188 24.9675 0.759043 25.443 0.759043H29.5906C30.0223 0.777798 30.3663 1.10937 30.3976 1.52225V4.50628H30.4789C31.5612 1.62235 33.5943 0.277344 36.3344 0.277344C39.1182 0.277344 40.8573 1.62235 42.1085 4.50628C43.1845 1.62235 45.6305 0.277344 48.2517 0.277344C50.116 0.277344 52.1554 1.04681 53.4003 2.77342C54.8078 4.69396 54.5201 7.48405 54.5201 9.93008L54.5138 24.3372C54.5138 24.7939 54.1322 25.163 53.6568 25.163H49.2151C48.771 25.1317 48.4144 24.7752 48.4144 24.3372V12.2385C48.4144 11.2751 48.502 8.87285 48.2893 7.9595C47.9577 6.42682 46.963 5.99517 45.6743 5.99517C44.5983 5.99517 43.4723 6.71459 43.0156 7.86566C42.5589 9.01673 42.6027 10.9435 42.6027 12.2385V24.3372C42.6027 24.7939 42.2211 25.163 41.7457 25.163H37.304C36.8536 25.1317 36.5033 24.7752 36.5033 24.3372L36.497 12.2385C36.497 9.69236 36.9162 5.94512 33.757 5.94512C30.5602 5.94512 30.6854 9.59852 30.6854 12.2385V24.3372C30.6854 24.7939 30.3038 25.163 29.8283 25.163Z" fill="white"/>
<path d="M112.037 0.277344C118.637 0.277344 122.209 5.94512 122.209 13.1518C122.209 20.1146 118.261 25.6385 112.037 25.6385C105.556 25.6385 102.027 19.9707 102.027 12.9079C102.027 5.80124 105.599 0.277344 112.037 0.277344ZM112.074 4.93794C108.796 4.93794 108.59 9.40459 108.59 12.1884C108.59 14.9785 108.546 20.9341 112.037 20.9341C115.484 20.9341 115.646 16.1296 115.646 13.2019C115.646 11.2751 115.565 8.97294 114.983 7.14624C114.483 5.55726 113.488 4.93794 112.074 4.93794Z" fill="white"/>
<path d="M130.767 25.163H126.338C125.894 25.1317 125.537 24.7752 125.537 24.3372L125.531 1.50349C125.569 1.08434 125.938 0.759043 126.388 0.759043H130.511C130.899 0.777798 131.218 1.04056 131.305 1.39714V4.88789H131.387C132.632 1.76623 134.377 0.277344 137.449 0.277344C139.444 0.277344 141.39 0.996764 142.641 2.96735C143.805 4.79405 143.805 7.86566 143.805 10.074V24.4436C143.754 24.844 143.385 25.163 142.947 25.163H138.487C138.08 25.1317 137.743 24.8315 137.699 24.4436V12.0446C137.699 9.54848 137.987 5.89507 134.915 5.89507C133.833 5.89507 132.838 6.62075 132.344 7.72177C131.718 9.11683 131.637 10.5056 131.637 12.0446V24.3372C131.631 24.7939 131.243 25.163 130.767 25.163Z" fill="white"/>
<path d="M71.5063 14.2593V13.2959C68.2908 13.2959 64.8939 13.9841 64.8939 17.7751C64.8939 19.6956 65.8886 20.9968 67.5965 20.9968C68.8476 20.9968 69.9674 20.2274 70.6743 18.9762C71.5501 17.4373 71.5063 15.9922 71.5063 14.2593ZM75.9918 25.1007C75.6977 25.3634 75.2723 25.3822 74.9408 25.207C73.4644 23.9809 73.2017 23.4116 72.3884 22.2418C69.9486 24.7316 68.222 25.476 65.0566 25.476C61.3156 25.476 58.4004 23.1676 58.4004 18.5446C58.4004 14.9349 60.3585 12.4764 63.1423 11.2753C65.5571 10.2118 68.9289 10.0241 71.5063 9.7301V9.15456C71.5063 8.09733 71.5877 6.84616 70.9683 5.93282C70.4241 5.1133 69.3856 4.77549 68.4723 4.77549C66.7769 4.77549 65.263 5.64504 64.8939 7.44672C64.8189 7.8471 64.5248 8.24121 64.1245 8.25998L59.808 7.79705C59.4451 7.71573 59.0447 7.4217 59.1448 6.86493C60.1395 1.63507 64.8627 0.0585938 69.0916 0.0585938C71.2561 0.0585938 74.0837 0.63413 75.7916 2.27315C77.9561 4.29379 77.7497 6.99005 77.7497 9.92403V16.8555C77.7497 18.9387 78.613 19.852 79.4262 20.9781C79.714 21.3784 79.7765 21.8601 79.4137 22.1604C78.5066 22.9174 76.8926 24.3249 76.0043 25.1132L75.9918 25.1007Z" fill="white"/>
<path d="M13.1938 14.2593V13.2959C9.97835 13.2959 6.58144 13.9841 6.58144 17.7751C6.58144 19.6956 7.57611 20.9968 9.28395 20.9968C10.5351 20.9968 11.6549 20.2274 12.3618 18.9762C13.2376 17.4373 13.1938 15.9922 13.1938 14.2593ZM17.6793 25.1007C17.3852 25.3634 16.9598 25.3822 16.6283 25.207C15.1519 23.9809 14.8892 23.4116 14.0759 22.2418C11.6361 24.7316 9.90954 25.476 6.74409 25.476C3.0031 25.476 0.0878906 23.1676 0.0878906 18.5446C0.0878906 14.9349 2.04596 12.4764 4.8298 11.2753C7.24455 10.2118 10.6164 10.0241 13.1938 9.7301V9.15456C13.1938 8.09733 13.2752 6.84616 12.6558 5.93282C12.1116 5.1133 11.0731 4.77549 10.1598 4.77549C8.46444 4.77549 6.95053 5.64504 6.58144 7.44672C6.50636 7.8471 6.21234 8.24121 5.81197 8.25998L1.49545 7.79705C1.13261 7.71573 0.732239 7.4217 0.832333 6.86493C1.82701 1.63507 6.55015 0.0585938 10.7791 0.0585938C12.9436 0.0585938 15.7712 0.63413 17.4791 2.27315C19.6436 4.29379 19.4372 6.99005 19.4372 9.92403V16.8555C19.4372 18.9387 20.3005 19.852 21.1137 20.9781C21.4015 21.3784 21.464 21.8601 21.1012 22.1604C20.1941 22.9174 18.5801 24.3249 17.6918 25.1132L17.6793 25.1007Z" fill="white"/>
</g>
<defs>
<clipPath id="clip0_8_9602">
<rect width="143.887" height="43.4286" fill="white"/>
</clipPath>
</defs>
</svg>
