<svg width="379" height="379" viewBox="0 0 379 379" fill="none" xmlns="http://www.w3.org/2000/svg">
<path fill-rule="evenodd" clip-rule="evenodd" d="M75.6883 57.2676C65.6513 57.2676 56.0254 61.2548 48.9282 68.352C41.8309 75.4492 37.8438 85.0751 37.8438 95.1121V284.335C37.8438 294.372 41.8309 303.998 48.9282 311.095C56.0254 318.192 65.6513 322.179 75.6883 322.179H302.755C312.792 322.179 322.418 318.192 329.516 311.095C336.613 303.998 340.6 294.372 340.6 284.335V95.1121C340.6 85.0751 336.613 75.4492 329.516 68.352C322.418 61.2548 312.792 57.2676 302.755 57.2676H75.6883ZM302.755 284.335H75.6883L151.377 132.957L208.144 246.49L245.989 170.801L302.755 284.335Z" fill="black"/>
</svg>
