<svg width="134" height="32" viewBox="0 0 134 32" fill="none" xmlns="http://www.w3.org/2000/svg">
<g clip-path="url(#clip0_8_9611)">
<path d="M77.4062 17.0285C77.4062 13.8683 76.0534 11.0762 71.4783 11.0762C69.1311 11.0762 67.2665 11.7452 66.2556 12.3308L66.9965 14.8661C67.9273 14.2821 69.4125 13.8012 70.8142 13.8012C73.1304 13.798 73.5099 15.1082 73.5099 15.9506V16.1534C68.4539 16.1452 65.2578 17.8921 65.2578 21.4498C65.2578 23.6236 66.8804 25.6617 69.7168 25.6617C71.4473 25.6617 72.9096 24.9633 73.783 23.8608H73.8681C73.8681 23.8608 74.4439 26.2702 77.6286 25.3493C77.4667 24.3401 77.4062 23.2769 77.4062 21.9847V17.0285ZM73.6343 20.3653C73.6343 20.6205 73.613 20.8855 73.5377 21.1128C73.2465 22.0861 72.2423 22.9006 70.9925 22.9006C69.9376 22.9006 69.1099 22.3036 69.1099 21.0523C69.1099 19.1385 71.2232 18.6118 73.6343 18.6249" fill="#D4D4D4"/>
<path d="M0 6.77734C0 6.77734 3.30245 20.2882 3.82753 22.4768C4.44581 25.035 5.55318 25.9804 8.74935 25.3507L10.8136 16.9727C11.3354 14.897 11.6903 13.4085 12.0273 11.2935H12.0845C12.3184 13.4297 12.6554 14.897 13.0823 16.9792C13.0823 16.9792 13.9247 20.7855 14.3614 22.7794C14.7867 24.7733 15.984 26.0312 19.1197 25.3507L24.0333 6.77734H20.0667L18.3804 14.8119C17.9338 17.1395 17.5281 18.9731 17.2124 21.1061H17.1552C16.8706 18.996 16.5091 17.2376 16.0446 14.9575L14.2976 6.77734H10.1593L8.2946 14.7481C7.76298 17.182 7.26575 19.1334 6.95332 21.1993H6.89936C6.57714 19.261 6.14041 16.7927 5.67748 14.4504C5.67748 14.4504 4.5701 8.74346 4.1792 6.77734" fill="#D4D4D4"/>
<path d="M35.0871 17.0285C35.0871 13.8683 33.7311 11.0762 29.156 11.0762C26.8154 11.0762 24.9474 11.7452 23.9366 12.3308L24.6775 14.8661C25.605 14.2821 27.0886 13.8012 28.4953 13.8012C30.8114 13.798 31.1909 15.1082 31.1909 15.9506V16.1534C26.135 16.1452 22.9355 17.8921 22.9355 21.4498C22.9355 23.6236 24.5647 25.6617 27.3879 25.6617C29.1348 25.6617 30.5841 24.9633 31.4575 23.8608H31.5458C31.5458 23.8608 32.1248 26.2702 35.3063 25.3493C35.1427 24.3401 35.0871 23.2769 35.0871 21.9847V17.0285ZM31.312 20.3653C31.312 20.6205 31.2907 20.8855 31.2187 21.1128C30.9242 22.0861 29.92 22.9006 28.667 22.9006C27.6185 22.9006 26.7876 22.3036 26.7876 21.0523C26.7876 19.1385 28.9008 18.6118 31.312 18.6249" fill="#D4D4D4"/>
<path d="M37.1465 6.77734V25.3442H40.9216V21.407V6.77734H37.1465Z" fill="#D4D4D4"/>
<path d="M88.9922 6.77734V20.4763C88.9922 22.3672 89.3471 23.6856 90.1109 24.4936C90.7816 25.2019 91.8791 25.6631 93.1861 25.6631C94.3082 25.6631 95.4057 25.4472 95.9242 25.2591L95.8784 22.3099C95.4908 22.3999 95.0475 22.4768 94.439 22.4768C93.1501 22.4768 92.7248 21.6606 92.7248 19.9627V14.7187H96.0126V11.1708H92.7248V6.77734" fill="#D4D4D4"/>
<path d="M79.2344 11.3987V25.3496H83.1371V18.2048C83.1371 17.8204 83.1616 17.4884 83.2222 17.1809C83.5133 15.6744 84.6566 14.7208 86.3038 14.7208C86.7634 14.7208 87.0758 14.7715 87.4227 14.8255V11.168C87.1314 11.1157 86.9336 11.0879 86.5754 11.0879C85.1147 11.0879 83.4593 12.0153 82.7609 14.0354H82.6644V11.3987" fill="#D4D4D4"/>
<path d="M43.1133 11.3987V25.3496H46.9162V17.1612C46.9162 16.7769 46.9587 16.3843 47.0945 16.0293C47.4037 15.2 48.1708 14.2399 49.4025 14.2399C50.9335 14.2399 51.6565 15.5321 51.6565 17.3968V25.3496H55.4497V17.0631C55.4497 16.7016 55.5004 16.2583 55.6067 15.9377C55.9109 14.9972 56.7419 14.2399 57.8902 14.2399C59.4375 14.2399 60.1867 15.5043 60.1867 17.7027V25.3496H63.9765V17.1236C63.9765 12.8021 61.7782 11.0879 59.2821 11.0879C58.1846 11.0879 57.3111 11.3578 56.5259 11.8419C55.8618 12.2492 55.2796 12.8234 54.7578 13.5742H54.7005C54.1002 12.0726 52.6903 11.0879 50.8484 11.0879C48.4865 11.0879 47.4135 12.2803 46.7821 13.2879H46.7248V11.3987" fill="#D4D4D4"/>
<path d="M116.437 10.7727C117.183 10.7727 117.811 10.3834 117.893 9.88289L118.632 1.50812C118.632 0.678817 117.656 0 116.437 0C115.212 0 114.242 0.678817 114.242 1.50812L114.988 9.88289C115.067 10.3834 115.691 10.7727 116.437 10.7727Z" fill="#D4D4D4"/>
<path d="M111.902 13.3931C112.272 12.7388 112.251 12.0126 111.852 11.6887L104.949 6.86177C104.231 6.44303 103.156 6.94192 102.541 7.99858C101.928 9.0536 102.052 10.2379 102.756 10.6484L110.397 14.1913C110.887 14.3745 111.526 14.0343 111.902 13.3866" fill="#D4D4D4"/>
<path d="M120.973 13.3861C121.364 14.0338 122.003 14.374 122.479 14.2006L130.121 10.6479C130.831 10.2292 130.938 9.05637 130.337 8.00134C129.724 6.94468 128.643 6.44907 127.926 6.85963L121.022 11.6817C120.639 12.0104 120.611 12.74 120.981 13.3926" fill="#D4D4D4"/>
<path d="M116.437 21.2334C117.183 21.2334 117.811 21.6227 117.893 22.1232L118.632 30.498C118.632 31.3273 117.656 31.9996 116.437 31.9996C115.212 31.9996 114.242 31.3273 114.242 30.498L114.988 22.1232C115.067 21.6227 115.691 21.2334 116.437 21.2334Z" fill="#D4D4D4"/>
<path d="M120.973 18.6207C121.364 17.9713 122.003 17.6246 122.479 17.8127L130.121 21.3589C130.831 21.7694 130.938 22.952 130.337 24.0087C129.724 25.0572 128.643 25.5561 127.926 25.1455L121.022 20.3169C120.639 19.9914 120.611 19.2652 120.981 18.6207" fill="#D4D4D4"/>
<path d="M111.902 18.6137C112.272 19.2664 112.251 19.991 111.852 20.3181L104.949 25.1385C104.231 25.5573 103.156 25.0568 102.541 24.0083C101.928 22.9533 102.052 21.769 102.756 21.3584L110.397 17.8122C110.887 17.6258 111.526 17.9693 111.902 18.6137Z" fill="#D4D4D4"/>
<path d="M132.357 24.4105H132.452C132.581 24.4105 132.634 24.4514 132.648 24.5544C132.676 24.6689 132.691 24.7458 132.719 24.7785H132.964C132.943 24.754 132.915 24.6918 132.9 24.5479C132.872 24.4236 132.809 24.3532 132.719 24.3287V24.3058C132.843 24.278 132.915 24.1946 132.915 24.0915C132.915 23.9983 132.872 23.9312 132.83 23.8887C132.748 23.8494 132.67 23.8183 132.496 23.8183C132.342 23.8183 132.23 23.8314 132.14 23.8527V24.7785H132.357V24.4105ZM132.364 23.9885L132.475 23.9737C132.606 23.9737 132.676 24.0343 132.676 24.1193C132.676 24.2142 132.581 24.2583 132.46 24.2583H132.364V23.9885ZM132.503 23.3604C131.966 23.3604 131.541 23.7791 131.541 24.2927C131.541 24.8194 131.966 25.2381 132.503 25.2381C133.046 25.2381 133.458 24.8194 133.458 24.2927C133.458 23.7791 133.046 23.3604 132.503 23.3604ZM132.503 23.5485C132.915 23.5485 133.221 23.8821 133.221 24.2927C133.221 24.7065 132.915 25.05 132.503 25.0435C132.091 25.0435 131.778 24.7065 131.778 24.2927C131.778 23.8821 132.091 23.5485 132.496 23.5485" fill="#D4D4D4"/>
</g>
<defs>
<clipPath id="clip0_8_9611">
<rect width="133.459" height="32" fill="white"/>
</clipPath>
</defs>
</svg>
