<svg width="60" height="60" viewBox="0 0 60 60" fill="none" xmlns="http://www.w3.org/2000/svg">
<rect width="60" height="60" fill="#0A0A0A"/>
<path d="M13.1324 47.6136C10.4364 45.1905 9.48074 42.1804 10.2652 38.5814C10.8409 35.9325 12.5322 34.5404 14.4549 32.6628C17.7322 29.4608 15.1378 27.7394 12.7956 25.3276C9.0725 21.4935 9.38856 15.351 13.5726 11.959C16.9514 9.22167 22.2172 9.30446 25.3722 12.514C26.1793 13.3361 26.9976 14.1488 27.8273 14.9484C30.6869 17.7083 32.8071 14.5514 34.7637 12.7096C39.8 7.96684 48.0721 10.2771 49.6919 17.0686C50.2187 19.2773 49.9045 21.9958 48.6459 23.9843C47.8689 25.2128 46.4259 26.4376 45.3385 27.5193C44.2192 28.633 43.5569 29.7242 44.1533 31.2217C44.3245 31.6526 44.7666 32.232 45.4778 32.9582C46.3751 33.8781 47.4437 34.8884 48.1116 35.8291C51.2252 40.2031 49.7709 46.3456 45.0451 48.9267C41.7264 50.7385 37.1285 50.2738 34.4288 47.401C33.539 46.4547 32.2653 44.8857 31.1723 44.3495C28.6475 43.1135 27.0108 45.5442 25.3948 47.1282C22.0554 50.4017 16.6975 50.8194 13.1324 47.6136ZM34.5831 30.0045C34.5831 28.7831 34.0979 27.6117 33.2342 26.748C32.3705 25.8843 31.1991 25.3991 29.9776 25.3991C28.7562 25.3991 27.5848 25.8843 26.7211 26.748C25.8574 27.6117 25.3722 28.7831 25.3722 30.0045C25.3722 31.226 25.8574 32.3974 26.7211 33.2611C27.5848 34.1248 28.7562 34.61 29.9776 34.61C31.1991 34.61 32.3705 34.1248 33.2342 33.2611C34.0979 32.3974 34.5831 31.226 34.5831 30.0045Z" fill="#FBBF5B"/>
</svg>
