<svg width="304" height="266" viewBox="0 0 304 266" fill="none" xmlns="http://www.w3.org/2000/svg">
<path fill-rule="evenodd" clip-rule="evenodd" d="M38.6883 0.267578C28.6513 0.267578 19.0254 4.25476 11.9282 11.352C4.83093 18.4492 0.84375 28.0751 0.84375 38.1121V227.335C0.84375 237.372 4.83093 246.998 11.9282 254.095C19.0254 261.192 28.6513 265.179 38.6883 265.179H265.755C275.792 265.179 285.418 261.192 292.516 254.095C299.613 246.998 303.6 237.372 303.6 227.335V38.1121C303.6 28.0751 299.613 18.4492 292.516 11.352C285.418 4.25476 275.792 0.267578 265.755 0.267578H38.6883ZM265.755 227.335H38.6883L114.377 75.9566L171.144 189.49L208.989 113.801L265.755 227.335Z" fill="black"/>
</svg>
