<svg width="11" height="11" viewBox="0 0 11 11" fill="none" xmlns="http://www.w3.org/2000/svg">
<path d="M2.62438 10.0668V3.31354H0.381702V10.0668H2.62461H2.62438ZM1.50351 2.39166C2.28541 2.39166 2.7722 1.87309 2.7722 1.22503C2.75756 0.5622 2.28541 0.0581055 1.51838 0.0581055C0.750817 0.0581055 0.249512 0.5622 0.249512 1.22497C0.249512 1.87303 0.736123 2.3916 1.48881 2.3916H1.50333L1.50351 2.39166ZM3.86573 10.0668H6.10822V6.29586C6.10822 6.09429 6.12286 5.8922 6.18211 5.74823C6.34415 5.3448 6.71315 4.9272 7.33283 4.9272C8.14412 4.9272 8.46886 5.54643 8.46886 6.45436V10.0668H10.7113V6.19467C10.7113 4.12046 9.60507 3.15522 8.1296 3.15522C6.91992 3.15522 6.38865 3.83193 6.09347 4.29284H6.1084V3.31377H3.86584C3.89511 3.94731 3.86567 10.067 3.86567 10.067L3.86573 10.0668Z" fill="white"/>
</svg>
