<svg width="116" height="16" viewBox="0 0 116 16" fill="none" xmlns="http://www.w3.org/2000/svg">
<path fill-rule="evenodd" clip-rule="evenodd" d="M11.552 5.86361C11.552 5.10759 11.4218 4.42797 11.1633 3.82639C10.9048 3.22482 10.5326 2.70617 10.0496 2.27209C9.56663 1.83798 8.97823 1.5063 8.28563 1.27542C7.59303 1.04454 6.8191 0.929121 5.96541 0.929121H0.169189V15.6302H2.73151V10.9054H5.65807C6.47435 10.9054 7.23683 10.7965 7.95386 10.5786C8.66749 10.3624 9.29021 10.0437 9.82667 9.62261C10.3585 9.20152 10.7796 8.67798 11.0901 8.04713C11.3974 7.41794 11.552 6.68954 11.552 5.86361ZM8.92598 5.91564C8.92598 6.71718 8.64306 7.36102 8.07259 7.84389C7.50521 8.33005 6.72789 8.57066 5.74588 8.57066H2.73151V3.25896H5.74433C6.71336 3.25896 7.48728 3.48009 8.06115 3.92395C8.63997 4.36619 8.92598 5.03115 8.92598 5.91564ZM28.9209 8.2585C28.9209 7.22284 28.7307 6.24244 28.3535 5.31895C27.9747 4.39544 27.4497 3.58902 26.7781 2.90291C26.1065 2.21677 25.3002 1.67537 24.3636 1.27542C23.4255 0.877083 22.39 0.677094 21.2549 0.677094C20.1217 0.677094 19.0844 0.880329 18.1463 1.2868C17.2081 1.69327 16.3968 2.24281 15.7107 2.93541C15.0246 3.62804 14.4931 4.43774 14.1143 5.36122C13.7355 6.28634 13.5469 7.26511 13.5469 8.30076C13.5469 9.33645 13.7355 10.3169 14.1143 11.242C14.4915 12.1655 15.0181 12.9703 15.6897 13.6564C16.3613 14.3425 17.1676 14.8855 18.1057 15.2839C19.0438 15.6822 20.0797 15.8822 21.2144 15.8822C22.3492 15.8822 23.385 15.679 24.3231 15.2725C25.2612 14.866 26.0725 14.3165 26.7586 13.6238C27.4448 12.9296 27.9763 12.1216 28.355 11.1981C28.7307 10.2746 28.9209 9.29419 28.9209 8.2585ZM26.2107 8.29916C26.2107 9.01291 26.0886 9.68764 25.8431 10.3266C25.5995 10.9639 25.2597 11.5167 24.8255 11.985C24.3914 12.4549 23.8695 12.8239 23.2613 13.0987C22.6516 13.3719 21.9834 13.5084 21.2549 13.5084C20.5268 13.5084 19.8552 13.3686 19.239 13.0889C18.6227 12.8093 18.0943 12.4305 17.6537 11.9557C17.2131 11.4793 16.8702 10.9233 16.6247 10.286C16.3792 9.64862 16.2571 8.97225 16.2571 8.2585C16.2571 7.54474 16.3792 6.87001 16.6247 6.23266C16.8702 5.59535 17.2081 5.04253 17.6441 4.57428C18.0782 4.10443 18.5998 3.73373 19.208 3.46058C19.8178 3.18744 20.4859 3.05087 21.2144 3.05087C21.9429 3.05087 22.6142 3.19068 23.2304 3.47032C23.8466 3.74999 24.375 4.12882 24.8156 4.60356C25.2563 5.07994 25.5995 5.63598 25.845 6.27332C26.0886 6.91067 26.2107 7.5854 26.2107 8.29916ZM32.049 15.6285H42.341V13.2971H34.6116V0.927482H32.049V15.6285ZM49.2509 9.76893L55.0892 0.927482H52.1286L47.9696 7.43745L43.8529 0.927482H40.8077L46.6462 9.83234V15.6285H49.2509V9.76893ZM69.2019 13.5914V7.4163H62.9422V9.66488H66.7011V12.4305C66.2525 12.7703 65.724 13.0385 65.1159 13.2467C64.508 13.4499 63.8528 13.5507 63.1518 13.5507C62.3958 13.5507 61.7131 13.4174 61.1034 13.1524C60.4952 12.8857 59.9702 12.515 59.528 12.0451C59.0871 11.5769 58.7476 11.0192 58.5086 10.3721C58.2696 9.72827 58.1524 9.02429 58.1524 8.26827C58.1524 7.55452 58.2742 6.87978 58.5197 6.24893C58.7637 5.61486 59.1004 5.06204 59.528 4.58569C59.9538 4.10931 60.4596 3.73209 61.04 3.45895C61.6204 3.1858 62.248 3.04923 62.9193 3.04923C63.3813 3.04923 63.8055 3.08825 64.1907 3.16468C64.5763 3.24108 64.9291 3.34677 65.251 3.48009C65.5728 3.61342 65.8817 3.77763 66.1745 3.97435C66.4686 4.17109 66.7565 4.38731 67.036 4.62468L68.675 2.67204C68.2963 2.3501 67.9076 2.06722 67.5094 1.82171C67.1092 1.57621 66.6866 1.36973 66.2379 1.20227C65.789 1.03317 65.3029 0.904725 64.7779 0.813666C64.2526 0.722607 63.6688 0.677094 63.0235 0.677094C61.9178 0.677094 60.8984 0.880329 59.9686 1.2868C59.0367 1.69327 58.2353 2.24281 57.5637 2.93541C56.8924 3.62804 56.3705 4.43774 55.9982 5.36122C55.6275 6.28634 55.4404 7.26511 55.4404 8.30076C55.4404 9.37872 55.6225 10.3803 55.9868 11.3038C56.351 12.2289 56.8665 13.0304 57.5312 13.7084C58.1963 14.3864 58.9978 14.9197 59.9359 15.305C60.874 15.6903 61.9178 15.8822 63.064 15.8822C63.7081 15.8822 64.3258 15.822 64.9127 15.7033C65.5014 15.5847 66.0509 15.4204 66.5613 15.2107C67.0718 15.001 67.5483 14.7555 67.9889 14.4758C68.436 14.1945 68.8377 13.9003 69.2019 13.5914ZM85.0378 15.6285L81.0689 10.0632C81.5859 9.9234 82.0593 9.72341 82.4866 9.46489C82.9127 9.20637 83.2818 8.89096 83.5892 8.52026C83.8962 8.14957 84.1386 7.72198 84.3142 7.2391C84.4899 6.7562 84.5777 6.20666 84.5777 5.59046C84.5777 4.87671 84.4506 4.22962 84.1986 3.64755C83.9466 3.06713 83.5873 2.57612 83.1176 2.17778C82.6492 1.77945 82.0738 1.47053 81.3957 1.25427C80.7161 1.03805 79.9567 0.929121 79.1179 0.929121H72.5657V15.6302H75.1264V10.5054H78.3718L81.9956 15.6302H85.0378V15.6285ZM81.9501 5.72703C81.9501 6.48633 81.6771 7.09276 81.1273 7.53986C80.5813 7.99024 79.8429 8.21623 78.9147 8.21623H75.123V3.25896H78.8937C79.8643 3.25896 80.6153 3.46547 81.1471 3.88168C81.6851 4.29628 81.9501 4.91248 81.9501 5.72703ZM95.3489 0.823437H92.9557L86.4864 15.6285H89.1334L90.6454 12.0793H97.5974L99.0883 15.6285H101.818L95.3489 0.823437ZM96.6512 9.79168H91.59L94.1099 3.91093L96.6512 9.79168ZM115.259 0.927482H104.338V15.6285H106.901V9.64373H114.315V7.31226H106.901V3.25896H115.259V0.927482Z" fill="black"/>
</svg>
