<svg width="69" height="64" viewBox="0 0 69 64" fill="none" xmlns="http://www.w3.org/2000/svg">
<path d="M13.1732 36.8527L13.1936 37.8319H14.1729H26.1724V62.9614H1.04297V36.8319C1.04297 28.748 2.50772 21.5514 6.48946 15.6298C10.2966 9.96785 16.481 5.35939 26.1724 2.29201V14.3633C21.4893 16.0508 18.1317 18.1674 16.0066 21.6117C13.8018 25.1849 13.0308 30.019 13.1732 36.8527ZM54.7151 36.8527L54.7355 37.8319H55.7148H67.7144V62.9614H42.5849V36.8319C42.5849 28.748 44.0497 21.5514 48.0315 15.6298C51.8386 9.96785 58.023 5.35939 67.7144 2.29201V14.3633C63.0313 16.0508 59.6737 18.1674 57.5485 21.6117C55.3438 25.1849 54.5727 30.019 54.7151 36.8527Z" stroke="#8A8A8A" stroke-width="2"/>
</svg>
