<svg width="1024" height="969" viewBox="0 0 1024 969" fill="none" xmlns="http://www.w3.org/2000/svg">
<path d="M1021.03 968.768C1020.76 968.863 1020.47 968.913 1020.17 968.917L2.71336 968.161C1.999 968.156 1.34156 967.877 0.840739 967.39C0.339916 966.903 0.0796395 966.231 0.0620242 965.524L0.767855 2.95401C0.770072 1.50261 1.93886 0.331034 3.41294 0.325331L1020.87 1.0811C1021.58 1.08617 1022.24 1.36557 1022.74 1.85239C1023.24 2.33921 1023.5 3.0118 1023.52 3.71824L1022.81 966.266C1022.8 967.413 1022.08 968.404 1021.03 968.768ZM5.35139 962.889L1017.53 963.628L1018.25 6.32342L6.06351 5.58407L5.35139 962.889Z" fill="#0A0A0A"/>
</svg>
