<svg width="112" height="41" viewBox="0 0 112 41" fill="none" xmlns="http://www.w3.org/2000/svg">
<path d="M12.2743 23.5953H7.54755C7.53763 23.5953 7.52811 23.5992 7.5211 23.6062C7.51408 23.6132 7.51014 23.6228 7.51014 23.6327L7.51496 39.732C7.51496 39.742 7.51102 39.7515 7.50401 39.7585C7.49699 39.7655 7.48747 39.7695 7.47755 39.7695H0.0374176C0.0274938 39.7695 0.0179767 39.7655 0.0109595 39.7585C0.0039423 39.7515 0 39.742 0 39.732V0.0654373C0 0.0555134 0.0039423 0.0459955 0.0109595 0.0389782C0.0179767 0.031961 0.0274938 0.0280196 0.0374176 0.0280196L7.47634 0.0268133C7.48626 0.0268133 7.49578 0.0307547 7.5028 0.0377719C7.50982 0.0447891 7.51376 0.054307 7.51376 0.0642309V15.9837C7.51376 15.9937 7.5177 16.0032 7.52472 16.0102C7.53173 16.0172 7.54125 16.0212 7.55118 16.0212H12.2743C12.2842 16.0212 12.2937 16.0172 12.3007 16.0102C12.3078 16.0032 12.3117 15.9937 12.3117 15.9837V0.0702664C12.3117 0.0603426 12.3156 0.0508246 12.3227 0.0438074C12.3297 0.0367902 12.3392 0.0328469 12.3491 0.0328469L19.8786 0.00146484C19.8885 0.00146484 19.898 0.00540806 19.905 0.0124253C19.912 0.0194425 19.916 0.0289586 19.916 0.0388825V39.732C19.916 39.742 19.912 39.7515 19.905 39.7585C19.898 39.7655 19.8885 39.7695 19.8786 39.7695H12.3491C12.3392 39.7695 12.3297 39.7655 12.3227 39.7585C12.3156 39.7515 12.3117 39.742 12.3117 39.732V23.6327C12.3117 23.6228 12.3078 23.6132 12.3007 23.6062C12.2937 23.5992 12.2842 23.5953 12.2743 23.5953Z" fill="#0A0A0A"/>
<path d="M90.4197 0.118164H83.4696C83.4516 0.118164 83.437 0.132756 83.437 0.150754V39.7365C83.437 39.7545 83.4516 39.7691 83.4696 39.7691H90.4197C90.4377 39.7691 90.4523 39.7545 90.4523 39.7365V0.150754C90.4523 0.132756 90.4377 0.118164 90.4197 0.118164Z" fill="#0A0A0A"/>
<path d="M104.796 36.2494C104.345 36.9905 103.92 37.8982 103.442 38.4739C101.973 40.2459 99.7929 40.4197 97.6311 39.9622C95.6515 39.5422 94.4276 38.3617 93.5718 36.5934C93.2254 35.8788 92.9188 34.9386 92.7607 34.1371C92.086 30.7019 92.0317 27.0892 92.2996 23.3764C92.4082 21.864 92.745 20.3951 93.1663 18.937C94.1053 15.6888 96.3166 13.1384 99.9437 13.3062C101.568 13.381 102.806 14.0581 103.655 15.3388C103.897 15.7021 104.1 16.1982 104.322 16.6267C104.327 16.6363 104.334 16.6442 104.344 16.6495C104.353 16.6549 104.364 16.6574 104.374 16.6567C104.385 16.6561 104.395 16.6523 104.404 16.6459C104.413 16.6395 104.419 16.6308 104.423 16.6207C104.503 16.4034 104.457 16.1523 104.457 15.9713C104.487 10.6966 104.493 5.42427 104.474 0.154375C104.474 0.144772 104.478 0.135562 104.484 0.128771C104.491 0.12198 104.5 0.118164 104.51 0.118164H111.439C111.479 0.118164 111.5 0.138684 111.5 0.178516V39.7087C111.5 39.7486 111.479 39.7691 111.439 39.7691H104.922C104.882 39.7691 104.861 39.7486 104.861 39.7087V36.2687C104.861 36.1854 104.839 36.1782 104.796 36.2494ZM99.7108 32.7599C99.8822 33.4732 100.329 34.4835 101.087 34.7008C104.132 35.5771 104.319 30.7272 104.375 28.9963C104.437 27.0566 104.987 18.1548 101.407 18.4879C100.01 18.6171 99.7615 20.447 99.479 21.5647C99.3547 22.0571 99.2787 22.6027 99.2509 23.2014C99.1362 25.6505 99.1531 28.0983 99.3004 30.545C99.3463 31.3006 99.5358 32.0272 99.7108 32.7599Z" fill="#0A0A0A"/>
<path d="M33.9462 2.35104C34.1454 1.29006 34.942 0.344956 36.1237 0.242358C37.519 0.120448 38.6235 0.353404 39.1377 1.80908C39.3417 2.38725 39.4551 2.85316 39.4793 3.20441C39.6084 5.0753 39.606 6.74221 39.4744 8.20634C39.4406 8.57448 39.3091 9.01867 39.0809 9.5389C38.4448 10.9789 36.4641 11.026 35.2245 10.5806C33.1098 9.82376 33.6469 3.9419 33.9462 2.35104ZM36.819 1.77287C36.0718 1.60751 35.8847 2.48381 35.8594 3.04508C35.787 4.63474 35.7882 6.2244 35.8618 7.81405C35.8859 8.34273 36.003 9.2299 36.7478 9.11161C37.3561 9.01625 37.3501 8.42723 37.3694 7.87199C37.4213 6.397 37.4333 4.9208 37.4056 3.44461C37.3971 2.95455 37.4201 1.90565 36.819 1.77287Z" fill="#0A0A0A"/>
<path d="M44.4275 0.881356C45.3521 0.104029 47.351 -0.069783 48.3407 0.656849C49.1724 1.2664 49.2376 2.3998 49.0698 3.39318C49.0637 3.4306 49.042 3.44871 49.0046 3.44991L47.3739 3.49457C47.3304 3.49578 47.3135 3.47526 47.322 3.43181C47.8205 0.901875 45.0057 1.76128 45.7239 3.31111C46.2212 4.38536 48.0293 4.64125 48.8875 5.49824C49.6262 6.23695 49.7035 7.2762 49.5816 8.27803C49.4331 9.49472 48.8066 10.4012 47.5586 10.6836C46.5109 10.9202 44.9514 10.8659 44.1354 10.1525C43.3026 9.42471 43.3497 8.21527 43.4993 7.19653C43.5054 7.14946 43.5331 7.12411 43.5814 7.1217L45.2628 7.05411C45.2732 7.05378 45.2835 7.05605 45.2928 7.06069C45.3021 7.06533 45.3101 7.07221 45.3161 7.0807C45.322 7.0892 45.3258 7.09904 45.3271 7.10936C45.3283 7.11967 45.327 7.13013 45.3232 7.1398C44.57 9.08433 47.0746 9.8858 47.3896 8.33838C47.7698 6.46387 45.2483 6.08486 44.2634 4.98526C43.2386 3.83979 43.1759 1.93509 44.4275 0.881356Z" fill="#0A0A0A"/>
<path d="M62.4577 8.49153C62.1402 6.6146 61.6164 0.887246 64.308 0.3127C67.0275 -0.266674 68.045 1.44127 68.115 3.8674C68.1524 5.12995 68.144 6.39251 68.0921 7.65385C68.0414 8.89589 67.6189 10.3359 66.2839 10.675C64.3611 11.1627 62.8186 10.6256 62.4577 8.49153ZM64.8283 1.85528C64.4312 2.16066 64.4336 3.08766 64.4311 3.5584C64.4215 5.20117 64.3141 6.94412 64.5482 8.56757C64.5917 8.87416 64.7136 9.03349 65.0117 9.09142C65.7492 9.23748 65.9206 8.64362 65.9327 8.05459C65.9749 5.92659 65.9689 4.10881 65.9146 2.60123C65.8941 2.04841 65.3304 1.46903 64.8283 1.85528Z" fill="#0A0A0A"/>
<path d="M54.7359 2.08823L52.97 2.05806C52.9593 2.05774 52.9492 2.05328 52.9418 2.04562C52.9343 2.03795 52.9302 2.02769 52.9302 2.01702V0.370628C52.9302 0.359744 52.9345 0.349306 52.9422 0.341609C52.9499 0.333913 52.9603 0.32959 52.9712 0.32959H58.7432C58.7541 0.32959 58.7645 0.333913 58.7722 0.341609C58.7799 0.349306 58.7843 0.359744 58.7843 0.370628V2.03874C58.7843 2.04963 58.7799 2.06007 58.7722 2.06776C58.7645 2.07546 58.7541 2.07978 58.7432 2.07978H56.9327C56.9218 2.07978 56.9114 2.08411 56.9037 2.0918C56.896 2.0995 56.8916 2.10994 56.8916 2.12082L56.8929 10.5785C56.8929 10.5894 56.8885 10.5998 56.8808 10.6075C56.8731 10.6152 56.8627 10.6195 56.8518 10.6195L54.8095 10.6268C54.7986 10.6268 54.7882 10.6224 54.7805 10.6147C54.7728 10.607 54.7685 10.5966 54.7685 10.5857L54.7757 2.12927C54.7757 2.11859 54.7716 2.10833 54.7641 2.10067C54.7567 2.09301 54.7466 2.08855 54.7359 2.08823Z" fill="#0A0A0A"/>
<path d="M28.3857 5.30602C29.9621 5.63916 29.9899 7.57645 29.7484 8.8571C29.5433 9.94946 29.0894 10.5687 27.9101 10.623C26.6464 10.6809 25.373 10.5952 24.1044 10.6375C24.0694 10.6387 24.0513 10.6218 24.0513 10.5868V0.389793C24.0513 0.349961 24.0706 0.329442 24.1104 0.329442C25.0555 0.324614 26.0006 0.333064 26.9457 0.35479C27.5191 0.368067 27.9319 0.42359 28.1817 0.523773C29.6772 1.11763 30.0369 3.49669 29.1932 4.66026C29.0496 4.85701 28.778 5.0441 28.3761 5.22033C28.2904 5.25774 28.294 5.28671 28.3857 5.30602ZM26.0489 1.97583L26.0392 4.43334C26.0392 4.45287 26.047 4.4716 26.0608 4.4854C26.0746 4.49921 26.0933 4.50697 26.1129 4.50697L26.7007 4.50939C26.8032 4.50982 26.9047 4.48721 26.9996 4.44285C27.0944 4.39849 27.1806 4.33325 27.2534 4.25086C27.3261 4.16847 27.384 4.07054 27.4235 3.96267C27.4631 3.8548 27.4837 3.73911 27.4841 3.62222L27.4865 2.79661C27.4872 2.56083 27.4059 2.33444 27.2604 2.16719C27.1148 1.99993 26.917 1.90549 26.7104 1.90462L26.1225 1.9022C26.103 1.9022 26.0843 1.90996 26.0705 1.92377C26.0567 1.93757 26.0489 1.9563 26.0489 1.97583ZM26.0513 6.13525V9.00315C26.0513 9.03165 26.0626 9.05897 26.0828 9.07912C26.1029 9.09926 26.1303 9.11058 26.1587 9.11058H26.644C26.9318 9.11058 27.2078 8.97159 27.4113 8.72417C27.6148 8.47676 27.7291 8.14119 27.7291 7.7913V7.34711C27.7291 6.99721 27.6148 6.66165 27.4113 6.41424C27.2078 6.16682 26.9318 6.02783 26.644 6.02783H26.1587C26.1303 6.02783 26.1029 6.03915 26.0828 6.05929C26.0626 6.07944 26.0513 6.10676 26.0513 6.13525Z" fill="#0A0A0A"/>
<path d="M74.0031 5.58741C73.9922 7.2507 73.9886 8.91881 73.9922 10.5918C73.9934 10.6292 73.9741 10.6473 73.9367 10.6461L72.3772 10.6183C72.347 10.6171 72.3325 10.6026 72.3325 10.5736V0.399598C72.3325 0.365801 72.3494 0.348903 72.3832 0.348903L74.1153 0.364593C74.1431 0.364593 74.1636 0.37787 74.1744 0.404425L76.1093 5.19513C76.1194 5.21973 76.1364 5.24079 76.1584 5.25562C76.1803 5.27045 76.2061 5.27839 76.2324 5.27841H76.2831C76.3423 5.27841 76.3724 5.24823 76.3724 5.18909L76.3712 0.392356C76.3712 0.35011 76.3918 0.32959 76.434 0.32959H77.915C77.9549 0.32959 77.9754 0.350109 77.9754 0.389941V10.5555C77.9754 10.6183 77.944 10.6497 77.8812 10.6497H76.4919C76.4473 10.6497 76.4171 10.6292 76.4002 10.5869L74.2155 5.18668C74.2087 5.16918 74.1966 5.1543 74.1807 5.14421C74.1649 5.13411 74.1463 5.12931 74.1276 5.13053C74.1089 5.13174 74.091 5.13889 74.0767 5.15094C74.0623 5.163 74.0522 5.17932 74.0477 5.19754C74.0187 5.30859 74.0043 5.43895 74.0031 5.58741Z" fill="#0A0A0A"/>
<path d="M28.3642 28.1556C28.4101 29.8635 28.4209 31.6499 28.8736 33.1358C29.3793 34.7979 30.8024 35.0514 32.3172 34.8196C34.275 34.5203 34.3402 31.7779 33.989 30.3174C33.9793 30.2763 33.9962 30.2558 34.0385 30.257L39.9601 30.4345C40.0084 30.4357 40.0374 30.4598 40.0471 30.5069C40.3645 31.9855 40.2088 33.2782 39.936 34.793C39.837 35.3471 39.633 35.7804 39.4049 36.2801C38.1617 39.002 35.5267 40.1486 32.6721 40.2609C30.4186 40.3478 27.9912 40.2802 25.9634 39.1891C24.1167 38.1933 22.7696 36.3284 22.2313 34.2583C22.1239 33.8467 21.9609 33.4653 21.8909 33.0585C21.6942 31.9239 21.4926 30.7833 21.4298 29.6439C21.2608 26.578 21.3478 23.6835 21.9839 20.7324C23.1692 15.2235 26.9375 12.2566 32.6504 13.0581C35.9468 13.5204 38.1206 15.8137 39.0416 18.9025C39.1599 19.296 39.3699 19.7607 39.4447 20.1844C39.6294 21.2321 39.8744 22.2375 39.9432 23.2961C40.0483 24.8894 40.2402 26.502 40.2547 28.0965C40.2559 28.1387 40.2353 28.1592 40.1943 28.158L28.4258 28.0916C28.3835 28.0916 28.363 28.1133 28.3642 28.1556ZM32.9968 19.7028C32.8797 18.9725 32.351 18.13 31.5544 18.019C29.7451 17.7643 28.9774 19.1729 28.7396 20.6889C28.538 21.972 28.4185 23.2563 28.3811 24.543C28.381 24.5492 28.382 24.5555 28.3843 24.5613C28.3865 24.5672 28.3898 24.5725 28.3941 24.577C28.3984 24.5815 28.4035 24.5851 28.4091 24.5875C28.4148 24.59 28.4209 24.5912 28.427 24.5912H33.4048C33.4109 24.5912 33.417 24.59 33.4226 24.5876C33.4282 24.5853 33.4334 24.5818 33.4376 24.5774C33.4419 24.573 33.4453 24.5678 33.4475 24.5621C33.4497 24.5564 33.4508 24.5503 33.4506 24.5442C33.4036 22.9207 33.2527 21.3069 32.9968 19.7028Z" fill="#0A0A0A"/>
<path d="M72.8133 36.8636C72.5309 37.35 72.304 37.9294 71.995 38.3253C70.7602 39.9041 68.8591 40.23 66.9858 40.2843C64.1143 40.3663 61.8149 38.6813 60.8987 36.0307C60.0876 33.6854 60.0538 30.342 61.3538 28.1174C62.358 26.3998 64.1565 25.3437 66.0962 24.8995C67.5302 24.5712 68.9641 24.2429 70.3981 23.9133C71.727 23.6092 72.7119 22.967 72.858 21.5065C73.0571 19.498 72.8508 17.2867 70.3341 17.0888C68.6093 16.9536 66.8506 17.8975 66.748 19.7599C66.7142 20.3828 66.7915 21.1215 66.9798 21.9773C66.9882 22.0159 66.9737 22.0412 66.9363 22.0521L61.4419 23.8047C61.4214 23.8107 61.4105 23.8035 61.4081 23.7818C61.2814 22.4239 61.2114 21.0611 61.1981 19.6948C61.1884 18.6628 61.2621 17.8746 61.419 17.3314C62.5657 13.3627 67.5579 12.8135 70.9485 12.9499C73.9347 13.0694 78.6083 13.615 79.6439 17.1998C79.7598 17.6018 79.8177 18.2282 79.8177 19.0816C79.8165 24.057 79.8165 29.0311 79.8177 34.0053C79.8189 35.2087 81.0839 35.7591 82.1123 35.525C82.1533 35.5165 82.1738 35.5322 82.1738 35.5732L82.169 38.924C82.169 38.9444 82.1635 38.9644 82.1531 38.9818C82.1427 38.9993 82.1277 39.0135 82.1099 39.0229C80.1702 40.0936 78.0881 40.4846 75.8647 40.195C73.8309 39.9306 73.3444 38.5836 72.8761 36.872C72.8616 36.8201 72.8411 36.8165 72.8133 36.8636ZM67.3914 30.7174C67.2598 31.8773 67.2719 34.6004 68.5694 35.1508C69.9684 35.7446 71.6534 35.3753 72.281 33.8931C72.6093 33.1157 72.794 32.3058 72.8339 31.4633C72.9075 29.9002 72.9292 28.3359 72.8978 26.7728C72.8966 26.7354 72.8797 26.7245 72.8459 26.7414C72.0408 27.1458 71.2044 27.4729 70.3365 27.7203C68.6853 28.191 67.5953 28.9116 67.3914 30.7174Z" fill="#0A0A0A"/>
<path d="M49.2607 18.404C49.2933 18.3834 49.3271 18.3134 49.3621 18.1939C50.0465 15.8028 51.6663 13.3731 54.3809 13.2777C60.6225 13.0616 59.9719 20.2628 59.5494 24.2629C59.5458 24.3027 59.5241 24.3293 59.4855 24.3413L53.6845 26.1627C53.6386 26.1772 53.6169 26.1603 53.6181 26.112C53.641 25.1621 53.6555 24.2122 53.6616 23.2635C53.67 21.8042 53.4467 19.4987 51.361 19.7993C49.1787 20.1143 49.1267 24.9943 49.1292 26.479C49.1364 30.8521 49.1243 35.2541 49.0929 39.6839C49.0917 39.7406 49.064 39.7696 49.0073 39.7696H42.1863C42.1465 39.7696 42.126 39.7491 42.126 39.7092V13.8824C42.126 13.8197 42.1574 13.7883 42.2201 13.7883H48.965C48.9976 13.7883 49.0145 13.8052 49.0157 13.8378L49.0821 18.2845C49.0845 18.4329 49.1436 18.4728 49.2607 18.404Z" fill="#0A0A0A"/>
</svg>
