<svg width="142" height="12" viewBox="0 0 142 12" fill="none" xmlns="http://www.w3.org/2000/svg">
<path d="M61.7065 9.32774C63.7216 11.59 66.8398 11.4983 68.9823 9.3201C69.0714 9.23094 69.1606 9.22839 69.2498 9.31501L69.6395 9.69459C69.7185 9.77357 69.7185 9.84999 69.6395 9.92897C66.8754 12.6676 62.1039 12.4842 60.262 8.87173C57.1158 2.699 64.3788 -2.96167 69.5809 1.74112C69.5975 1.75623 69.6107 1.77454 69.62 1.79493C69.6292 1.81532 69.6342 1.83738 69.6347 1.85976C69.6352 1.88215 69.6311 1.9044 69.6228 1.92516C69.6144 1.94593 69.6019 1.96479 69.586 1.98059L69.1428 2.42386C69.0587 2.50539 68.9772 2.50539 68.8957 2.42386C66.9238 0.434222 63.8923 0.263535 61.8771 2.2863C60.1244 4.04411 59.9996 7.40943 61.7065 9.32774Z" fill="#0A0A0A"/>
<path d="M83.6891 3.26466C83.9847 -0.984664 89.4976 -0.289181 91.8108 1.43042C91.8846 1.48392 91.8948 1.54761 91.8439 1.62149L90.7077 3.29778C90.621 3.42516 90.514 3.44299 90.3892 3.35383C89.5052 2.71694 87.7296 1.91191 86.7004 2.51313C85.2865 3.34363 86.815 4.27095 87.6124 4.45947C89.011 4.78555 90.1599 5.21354 91.0618 5.74089C92.7635 6.73443 92.4782 9.52146 91.263 10.6882C89.1613 12.7008 85.317 11.7124 83.2917 10.0233C83.2306 9.96983 83.2255 9.91378 83.2764 9.85009L84.6266 8.22475C84.6801 8.16107 84.7413 8.15342 84.8101 8.19928C85.2457 8.48715 85.6864 8.75465 86.1348 8.99921C86.922 9.42975 89.6581 10.0845 89.737 8.48715C89.8389 6.42873 83.3707 7.82733 83.6891 3.26466Z" fill="#0A0A0A"/>
<path d="M133.315 5.16469C132.12 2.93303 133.572 0.382922 136.081 0.0925005C137.918 -0.118947 139.577 0.326876 141.054 1.43506C141.128 1.48856 141.141 1.5548 141.087 1.63122L139.893 3.36611C139.883 3.38079 139.87 3.39332 139.855 3.40296C139.84 3.4126 139.824 3.41916 139.806 3.42225C139.788 3.42533 139.77 3.42489 139.753 3.42093C139.735 3.41698 139.719 3.4096 139.704 3.39923C138.739 2.71648 137.348 2.06176 136.148 2.44135C134.805 2.86679 135.572 4.21445 136.601 4.43099C138.792 4.88955 141.482 5.59777 141.5 8.16316C141.515 10.6063 139.612 11.7807 137.378 11.7807C135.541 11.7781 133.931 11.1973 132.551 10.0382C132.535 10.0251 132.523 10.0091 132.514 9.99128C132.504 9.97342 132.499 9.954 132.497 9.93412C132.495 9.91424 132.498 9.89429 132.504 9.87542C132.51 9.85656 132.52 9.83914 132.533 9.82417L133.911 8.20902C133.969 8.14023 134.033 8.13514 134.102 8.19373C135.093 9.03952 136.232 9.48025 137.513 9.51591C138.889 9.55667 139.727 8.06381 138.074 7.48806C136.644 6.99128 134.117 6.6652 133.315 5.16469Z" fill="#0A0A0A"/>
<path d="M15.7061 8.52546C15.301 9.41711 14.896 10.3138 14.4909 11.2131C14.2998 11.6335 13.9661 11.7481 13.4872 11.5545C13.4133 11.5265 13.3929 11.4755 13.426 11.4042L18.4931 0.454802C18.5448 0.343318 18.6274 0.248946 18.731 0.182813C18.8345 0.11668 18.9549 0.081543 19.0778 0.081543C19.2007 0.081543 19.321 0.11668 19.4246 0.182813C19.5282 0.248946 19.6107 0.343318 19.6624 0.454802L24.7448 11.4373C24.7983 11.552 24.7601 11.608 24.6353 11.608H23.9423C23.8506 11.608 23.7869 11.5672 23.7487 11.4832L22.4163 8.54839C22.3781 8.46432 22.3144 8.42356 22.2227 8.42356H15.864C15.7902 8.42356 15.7367 8.45668 15.7061 8.52546ZM16.213 7.4453C16.2058 7.4617 16.2028 7.47967 16.2043 7.49755C16.2058 7.51543 16.2117 7.53265 16.2216 7.54762C16.2315 7.56259 16.245 7.57483 16.2609 7.58321C16.2767 7.5916 16.2945 7.59586 16.3124 7.5956H21.7998C21.8178 7.59586 21.8355 7.5916 21.8514 7.58321C21.8672 7.57483 21.8807 7.56259 21.8906 7.54762C21.9005 7.53265 21.9065 7.51543 21.908 7.49755C21.9095 7.47967 21.9065 7.4617 21.8992 7.4453L19.1529 1.40504C19.1443 1.38667 19.1306 1.37114 19.1134 1.36027C19.0963 1.34939 19.0764 1.34362 19.0561 1.34362C19.0358 1.34362 19.0159 1.34939 18.9988 1.36027C18.9817 1.37114 18.968 1.38667 18.9593 1.40504L16.213 7.4453Z" fill="#0A0A0A"/>
<path d="M1.14164 2.04944V11.4168C1.14164 11.5442 1.07796 11.6079 0.950578 11.6079H0.410496C0.389419 11.6079 0.368549 11.6037 0.349077 11.5957C0.329605 11.5876 0.311912 11.5758 0.297008 11.5609C0.282105 11.546 0.270283 11.5283 0.262217 11.5088C0.254151 11.4893 0.25 11.4685 0.25 11.4474V0.638096C0.250354 0.525537 0.286715 0.416046 0.353762 0.325635C0.420809 0.235224 0.515026 0.168638 0.622632 0.135617C0.730238 0.102595 0.845587 0.104869 0.951807 0.142108C1.05803 0.179347 1.14955 0.249595 1.21298 0.342579L5.56675 6.75733C5.62025 6.83885 5.6763 6.83885 5.72979 6.75733L10.1014 0.312008C10.1614 0.223839 10.2482 0.157217 10.3488 0.121904C10.4495 0.0865901 10.5588 0.0844415 10.6608 0.115773C10.7627 0.147104 10.852 0.210268 10.9155 0.29601C10.9789 0.381753 11.0132 0.485566 11.0134 0.59224V11.4474C11.0134 11.5544 10.9599 11.6079 10.8529 11.6079H10.2823C10.1753 11.6079 10.1218 11.5544 10.1218 11.4474V2.2456C10.1218 1.98321 10.0479 1.96028 9.90015 2.17682L5.78839 8.16867C5.77131 8.19416 5.74821 8.21501 5.7211 8.22941C5.694 8.24382 5.66369 8.25135 5.63282 8.25135C5.60195 8.25135 5.57145 8.24382 5.54395 8.22941C5.51646 8.21501 5.4928 8.19416 5.47504 8.16867L1.24864 2.01632C1.24158 2.00597 1.23139 1.99816 1.21956 1.99403C1.20773 1.98989 1.19488 1.98967 1.18291 1.99337C1.17094 1.99708 1.16048 2.00452 1.15305 2.01461C1.14562 2.0247 1.14162 2.03691 1.14164 2.04944Z" fill="#0A0A0A"/>
<path d="M28.0188 7.022V11.4496C28.0188 11.5541 27.9653 11.6076 27.8583 11.6076H27.2927C27.1781 11.6076 27.122 11.5516 27.1246 11.4395L27.1297 0.385612C27.1297 0.270972 27.1857 0.214925 27.3004 0.212378C29.6874 0.186902 36.2678 -0.748051 35.9697 3.69998C35.8576 5.37882 34.8539 6.38001 32.956 6.7061C32.9301 6.71088 32.9058 6.72219 32.8854 6.73893C32.8651 6.75566 32.8495 6.77726 32.84 6.80162C32.8305 6.82597 32.8275 6.85226 32.8313 6.87793C32.8351 6.9036 32.8456 6.92778 32.8617 6.94812L36.3671 11.4649C36.441 11.5592 36.4181 11.6076 36.2983 11.6076H35.4143C35.374 11.6077 35.3341 11.5983 35.2978 11.5801C35.2615 11.562 35.2299 11.5357 35.2054 11.5031L31.7331 6.97614C31.6924 6.92264 31.6389 6.89462 31.5701 6.89462H28.1462C28.0621 6.89462 28.0188 6.93793 28.0188 7.022ZM28.0111 1.15752L28.001 5.94183C28.001 5.97832 28.0154 6.01331 28.0412 6.03911C28.067 6.06491 28.102 6.0794 28.1385 6.0794L32.0643 6.0845C32.4615 6.08528 32.855 6.02356 33.2222 5.90286C33.5894 5.78216 33.9232 5.60485 34.2044 5.38105C34.4857 5.15725 34.709 4.89135 34.8615 4.59854C35.0141 4.30572 35.0928 3.99174 35.0934 3.67451V3.44523C35.0944 2.80486 34.777 2.19017 34.2109 1.73632C33.6448 1.28248 32.8763 1.02663 32.0745 1.02505L28.1487 1.01995C28.1306 1.01995 28.1128 1.02351 28.0961 1.03042C28.0794 1.03734 28.0642 1.04747 28.0514 1.06025C28.0387 1.07302 28.0285 1.08819 28.0216 1.10488C28.0147 1.12157 28.0111 1.13946 28.0111 1.15752Z" fill="#0A0A0A"/>
<path d="M42.7305 1.15521V11.4881C42.7305 11.5199 42.7179 11.5503 42.6954 11.5728C42.673 11.5952 42.6425 11.6078 42.6108 11.6078H41.9586C41.9268 11.6078 41.8964 11.5952 41.8739 11.5728C41.8515 11.5503 41.8388 11.5199 41.8388 11.4881V1.15521C41.8388 1.12345 41.8262 1.093 41.8038 1.07055C41.7813 1.04809 41.7509 1.03548 41.7191 1.03548H38.0099C37.9941 1.03548 37.9786 1.03238 37.9641 1.02636C37.9495 1.02034 37.9363 1.01152 37.9252 1.00041C37.9141 0.989287 37.9053 0.976088 37.8993 0.961561C37.8932 0.947034 37.8901 0.931464 37.8901 0.91574V0.327255C37.8901 0.311531 37.8932 0.295961 37.8993 0.281434C37.9053 0.266907 37.9141 0.253708 37.9252 0.242589C37.9363 0.231471 37.9495 0.222651 37.9641 0.216634C37.9786 0.210617 37.9941 0.20752 38.0099 0.20752H46.5595C46.5752 0.20752 46.5908 0.210617 46.6053 0.216634C46.6198 0.222651 46.633 0.231471 46.6441 0.242589C46.6553 0.253708 46.6641 0.266907 46.6701 0.281434C46.6761 0.295961 46.6792 0.311531 46.6792 0.327255V0.91574C46.6792 0.931464 46.6761 0.947034 46.6701 0.961561C46.6641 0.976088 46.6553 0.989287 46.6441 1.00041C46.633 1.01152 46.6198 1.02034 46.6053 1.02636C46.5908 1.03238 46.5752 1.03548 46.5595 1.03548H42.8502C42.8185 1.03548 42.788 1.04809 42.7656 1.07055C42.7431 1.093 42.7305 1.12345 42.7305 1.15521Z" fill="#0A0A0A"/>
<path d="M50.1174 1.16285V5.36632C50.1174 5.4001 50.1309 5.4325 50.1548 5.45639C50.1786 5.48028 50.211 5.4937 50.2448 5.4937H56.4863C56.5201 5.4937 56.5525 5.50712 56.5764 5.53101C56.6003 5.5549 56.6137 5.58729 56.6137 5.62108V6.13059C56.6137 6.16437 56.6003 6.19677 56.5764 6.22066C56.5525 6.24455 56.5201 6.25797 56.4863 6.25797H50.2448C50.211 6.25797 50.1786 6.27139 50.1548 6.29527C50.1309 6.31916 50.1174 6.35156 50.1174 6.38534V10.6525C50.1174 10.6863 50.1309 10.7187 50.1548 10.7426C50.1786 10.7665 50.211 10.7799 50.2448 10.7799H57.2506C57.2844 10.7799 57.3168 10.7933 57.3407 10.8172C57.3646 10.8411 57.378 10.8735 57.378 10.9073V11.4805C57.378 11.5142 57.3646 11.5466 57.3407 11.5705C57.3168 11.5944 57.2844 11.6078 57.2506 11.6078H49.2895C49.2557 11.6078 49.2233 11.5944 49.1994 11.5705C49.1755 11.5466 49.1621 11.5142 49.1621 11.4805V0.334897C49.1621 0.301115 49.1755 0.268716 49.1994 0.244828C49.2233 0.22094 49.2557 0.20752 49.2895 0.20752H57.1869C57.2207 0.20752 57.2531 0.22094 57.277 0.244828C57.3009 0.268716 57.3143 0.301115 57.3143 0.334897V0.908098C57.3143 0.94188 57.3009 0.974279 57.277 0.998167C57.2531 1.02206 57.2207 1.03548 57.1869 1.03548H50.2448C50.211 1.03548 50.1786 1.0489 50.1548 1.07278C50.1309 1.09667 50.1174 1.12907 50.1174 1.16285Z" fill="#0A0A0A"/>
<path d="M73.0484 5.4937H79.9854C80.0199 5.4937 80.0529 5.48001 80.0773 5.45564C80.1017 5.43128 80.1153 5.39823 80.1153 5.36377V0.337445C80.1153 0.302987 80.129 0.26994 80.1534 0.245574C80.1778 0.221208 80.2108 0.20752 80.2453 0.20752H80.8771C80.9115 0.20752 80.9446 0.221208 80.9689 0.245574C80.9933 0.26994 81.007 0.302987 81.007 0.337445V11.4779C81.007 11.5124 80.9933 11.5454 80.9689 11.5698C80.9446 11.5941 80.9115 11.6078 80.8771 11.6078H80.2376C80.2032 11.6078 80.1701 11.5941 80.1458 11.5698C80.1214 11.5454 80.1077 11.5124 80.1077 11.4779L80.1204 6.45413C80.1204 6.41967 80.1068 6.38662 80.0824 6.36226C80.058 6.33789 80.025 6.3242 79.9905 6.3242L73.0484 6.31656C73.0314 6.31656 73.0145 6.31992 72.9987 6.32645C72.9829 6.33298 72.9686 6.34255 72.9566 6.35461C72.9445 6.36668 72.9349 6.381 72.9284 6.39676C72.9219 6.41253 72.9185 6.42942 72.9185 6.44649V11.4779C72.9185 11.5124 72.9048 11.5454 72.8804 11.5698C72.8561 11.5941 72.823 11.6078 72.7886 11.6078H72.1568C72.1223 11.6078 72.0893 11.5941 72.0649 11.5698C72.0405 11.5454 72.0269 11.5124 72.0269 11.4779V0.337445C72.0269 0.302987 72.0405 0.26994 72.0649 0.245574C72.0893 0.221208 72.1223 0.20752 72.1568 0.20752H72.7886C72.823 0.20752 72.8561 0.221208 72.8804 0.245574C72.9048 0.26994 72.9185 0.302987 72.9185 0.337445V5.36377C72.9185 5.39823 72.9322 5.43128 72.9566 5.45564C72.9809 5.48001 73.014 5.4937 73.0484 5.4937Z" fill="#0A0A0A"/>
<path d="M96.9813 9.31503H102.93C102.96 9.31503 102.989 9.32711 103.011 9.34861C103.032 9.37011 103.045 9.39927 103.045 9.42967V11.4932C103.045 11.5236 103.032 11.5528 103.011 11.5743C102.989 11.5958 102.96 11.6078 102.93 11.6078H94.4975C94.4671 11.6078 94.4379 11.5958 94.4164 11.5743C94.3949 11.5528 94.3828 11.5236 94.3828 11.4932V0.32216C94.3828 0.291755 94.3949 0.262596 94.4164 0.241097C94.4379 0.219598 94.4671 0.20752 94.4975 0.20752H102.866C102.897 0.20752 102.926 0.219598 102.947 0.241097C102.969 0.262596 102.981 0.291755 102.981 0.32216V2.38568C102.981 2.41608 102.969 2.44524 102.947 2.46674C102.926 2.48824 102.897 2.50032 102.866 2.50032H96.9813C96.9509 2.50032 96.9218 2.5124 96.9003 2.5339C96.8788 2.5554 96.8667 2.58456 96.8667 2.61496V4.61479C96.8667 4.6452 96.8788 4.67436 96.9003 4.69586C96.9218 4.71735 96.9509 4.72943 96.9813 4.72943H102.102C102.132 4.72943 102.161 4.74151 102.183 4.76301C102.204 4.78451 102.217 4.81367 102.217 4.84407V6.90759C102.217 6.938 102.204 6.96716 102.183 6.98866C102.161 7.01016 102.132 7.02223 102.102 7.02223H96.9813C96.9509 7.02223 96.9218 7.03431 96.9003 7.05581C96.8788 7.07731 96.8667 7.10647 96.8667 7.13687V9.20039C96.8667 9.2308 96.8788 9.25996 96.9003 9.28146C96.9218 9.30296 96.9509 9.31503 96.9813 9.31503Z" fill="#0A0A0A"/>
<path d="M112.677 0.635455C115.579 1.85064 115.416 6.28084 112.507 7.47055C112.486 7.47912 112.467 7.49222 112.452 7.50888C112.437 7.52554 112.426 7.54534 112.42 7.56683C112.414 7.58832 112.412 7.61096 112.416 7.63309C112.419 7.65522 112.428 7.67628 112.44 7.69474L115.026 11.4702C115.035 11.4837 115.04 11.4993 115.041 11.5154C115.042 11.5315 115.038 11.5474 115.031 11.5616C115.024 11.5757 115.013 11.5874 114.999 11.5956C114.986 11.6037 114.971 11.6079 114.955 11.6078H112.219C112.177 11.6079 112.137 11.5977 112.1 11.5781C112.064 11.5585 112.033 11.5302 112.01 11.4957L109.753 8.08961C109.73 8.05507 109.699 8.02675 109.662 8.00718C109.626 7.98762 109.585 7.97742 109.544 7.97751H107.949C107.822 7.97751 107.758 8.0412 107.758 8.16858V11.4473C107.758 11.5543 107.705 11.6078 107.598 11.6078H105.402C105.274 11.6078 105.21 11.5441 105.21 11.4167V0.39089C105.21 0.273702 105.269 0.215108 105.384 0.215108C107.595 0.189633 110.927 -0.0956936 112.677 0.635455ZM107.755 2.63529L107.761 5.62102C107.761 5.65436 107.775 5.68611 107.799 5.70945C107.823 5.73279 107.855 5.74586 107.888 5.74585L110.306 5.74331C110.549 5.7429 110.79 5.7023 111.015 5.62383C111.239 5.54536 111.443 5.43056 111.615 5.286C111.787 5.14143 111.923 4.96994 112.016 4.78132C112.108 4.5927 112.156 4.39066 112.155 4.18675V4.04918C112.154 3.63805 111.958 3.24427 111.61 2.95433C111.262 2.66439 110.791 2.50199 110.3 2.50281L107.883 2.50536C107.866 2.50536 107.849 2.50874 107.833 2.5153C107.818 2.52186 107.804 2.53147 107.792 2.54357C107.78 2.55567 107.771 2.57001 107.764 2.58576C107.758 2.60151 107.755 2.61835 107.755 2.63529Z" fill="#0A0A0A"/>
<path d="M119.45 0.20752H117.209C117.124 0.20752 117.056 0.275954 117.056 0.360373V11.4575C117.056 11.5419 117.124 11.6104 117.209 11.6104H119.45C119.535 11.6104 119.603 11.5419 119.603 11.4575V0.360373C119.603 0.275954 119.535 0.20752 119.45 0.20752Z" fill="#0A0A0A"/>
<path d="M125.008 9.31503H130.947C130.979 9.31503 131.009 9.32765 131.031 9.3501C131.054 9.37256 131.066 9.40301 131.066 9.43477V11.4881C131.066 11.5199 131.054 11.5503 131.031 11.5728C131.009 11.5952 130.979 11.6078 130.947 11.6078H122.525C122.493 11.6078 122.462 11.5952 122.44 11.5728C122.417 11.5503 122.405 11.5199 122.405 11.4881V0.327255C122.405 0.311531 122.408 0.295961 122.414 0.281434C122.42 0.266907 122.429 0.253708 122.44 0.242589C122.451 0.231471 122.464 0.222651 122.479 0.216634C122.493 0.210617 122.509 0.20752 122.525 0.20752H130.883C130.899 0.20752 130.914 0.210617 130.929 0.216634C130.943 0.222651 130.957 0.231471 130.968 0.242589C130.979 0.253708 130.988 0.266907 130.994 0.281434C131 0.295961 131.003 0.311531 131.003 0.327255V2.38059C131.003 2.41234 130.99 2.4428 130.968 2.46525C130.945 2.48771 130.915 2.50032 130.883 2.50032H125.008C124.977 2.50032 124.946 2.51294 124.924 2.53539C124.901 2.55784 124.889 2.5883 124.889 2.62006V4.6097C124.889 4.64145 124.901 4.67191 124.924 4.69436C124.946 4.71682 124.977 4.72943 125.008 4.72943H130.119C130.151 4.72943 130.181 4.74205 130.203 4.7645C130.226 4.78696 130.239 4.81741 130.239 4.84917V6.9025C130.239 6.93425 130.226 6.96471 130.203 6.98716C130.181 7.00962 130.151 7.02223 130.119 7.02223H125.008C124.977 7.02223 124.946 7.03485 124.924 7.0573C124.901 7.07976 124.889 7.11021 124.889 7.14197V9.1953C124.889 9.22705 124.901 9.25751 124.924 9.27996C124.946 9.30242 124.977 9.31503 125.008 9.31503Z" fill="#0A0A0A"/>
</svg>
