<svg width="130" height="29" viewBox="0 0 130 29" fill="none" xmlns="http://www.w3.org/2000/svg">
<path d="M95.8936 13.1469C95.6182 12.9354 95.4683 12.6914 95.4439 12.4137C95.2428 10.1373 95.0662 7.82021 95.2115 5.53686C95.3346 3.58235 95.8378 0.937607 98.0224 0.253181C100.122 -0.405681 102.003 0.228778 103.11 2.15772C103.153 2.23209 103.208 2.27508 103.277 2.31459C103.293 2.32423 103.312 2.32953 103.33 2.32996C103.349 2.33039 103.368 2.32595 103.384 2.31706C103.401 2.30818 103.415 2.29515 103.425 2.27924C103.435 2.26333 103.441 2.24509 103.442 2.22628L103.505 1.14328C103.507 1.0991 103.527 1.05759 103.559 1.02716C103.591 0.99673 103.633 0.97967 103.677 0.979439C106.036 0.963171 108.411 0.960845 110.801 0.972465C111.229 0.974789 111.441 0.898097 111.46 1.40125C111.478 1.90905 111.48 2.41452 111.465 2.91884C111.463 2.98741 111.434 3.05264 111.386 3.10092C111.337 3.1492 111.271 3.1768 111.202 3.17797L109.139 3.21399C108.874 3.21864 108.742 3.35343 108.741 3.61953C108.74 11.6851 108.74 19.7483 108.741 27.8103C108.741 28.0741 108.618 28.2124 108.371 28.2252C107.726 28.2577 107.092 28.2577 106.468 28.2263C106.397 28.2225 106.329 28.1915 106.28 28.1398C106.231 28.0882 106.204 28.0197 106.204 27.9486L106.184 3.63696C106.184 3.52741 106.141 3.42222 106.065 3.344C105.988 3.26578 105.884 3.22077 105.774 3.21864L103.794 3.18029C103.609 3.17681 103.519 3.2686 103.523 3.45337L103.68 9.74683C103.687 10.0478 103.541 10.2082 103.241 10.2279C102.682 10.2651 102.105 10.2767 101.506 10.2616C101.148 10.2523 100.984 10.0687 101.013 9.70965C101.139 8.1723 101.764 2.42266 99.4191 2.30994C98.5557 2.26811 98.0363 2.82704 98.0317 3.69158C98.0119 7.22875 98.0096 9.70035 98.0247 11.1064C98.0282 11.4713 98.2536 11.7037 98.5604 11.9384C100.122 13.1341 101.683 14.331 103.241 15.5313C103.487 15.7207 103.491 15.9578 103.518 16.2518C103.726 18.5026 103.777 20.7546 103.671 23.0089C103.595 24.6194 103.322 27.5047 101.729 28.36C100.816 28.8503 99.8421 29.0246 98.8079 28.8817C96.4258 28.554 95.5589 26.7971 95.3521 24.6438C95.1441 22.4686 95.2684 20.2921 95.3358 18.1261C95.3382 18.0448 95.372 17.9676 95.43 17.9106C95.4881 17.8537 95.5659 17.8214 95.6472 17.8205C96.2887 17.8124 96.9324 17.8124 97.5785 17.8205C97.8202 17.824 97.9747 17.9425 97.984 18.2005C98.0665 20.6814 98.0874 22.6742 98.0456 24.179C98.0317 24.6613 98.041 24.9994 98.0747 25.1958C98.271 26.3787 99.7236 27.0643 100.54 25.9999C100.846 25.6013 101.005 25.0935 101.02 24.4777C101.066 22.5313 101.078 20.2421 101.06 17.6125C101.058 17.2651 100.932 16.9978 100.685 16.8095C99.0845 15.5929 97.4878 14.3716 95.8936 13.1469Z" fill="#0A0A0A"/>
<path d="M90.7565 16.2714C90.401 16.046 89.5701 16.2017 89.1483 16.2238C89.096 16.2264 89.0436 16.2186 88.9943 16.2008C88.9451 16.183 88.8999 16.1555 88.8614 16.1199C88.823 16.0844 88.7921 16.0416 88.7705 15.994C88.7489 15.9463 88.7371 15.8949 88.7358 15.8426L88.6998 14.3227C88.6982 14.2596 88.7092 14.1968 88.7321 14.138C88.755 14.0792 88.7893 14.0254 88.833 13.98C88.8768 13.9345 88.9291 13.8981 88.9871 13.873C89.045 13.8478 89.1073 13.8344 89.1704 13.8335L93.0782 13.7754C93.1433 13.7742 93.2062 13.7987 93.2534 13.8437C93.3006 13.8887 93.3283 13.9506 93.3304 14.016C93.4385 17.5078 93.3978 21.002 93.2084 24.4985C93.055 27.3384 92.0708 28.9943 88.988 29.0013C85.4961 29.0106 85.1289 25.5791 85.1266 22.9391C85.1231 16.6026 85.1219 10.2673 85.1243 3.93083C85.1254 1.44645 87.3809 0.0438999 89.6445 0.127565C92.6483 0.239118 93.3269 3.14764 93.3443 5.58089C93.3536 6.84865 93.3327 8.11757 93.2804 9.38533C93.2723 9.58519 93.3792 9.85129 93.2281 10.1116C93.2084 10.1453 93.1793 10.165 93.1398 10.1708C92.5065 10.2534 91.8709 10.2905 91.2341 10.2836C90.9157 10.2789 90.86 10.1476 90.8693 9.8571C90.9227 8.26631 91.4677 3.21503 89.6561 2.39698C88.6138 1.92636 87.8864 2.76417 87.8713 3.74724C87.805 8.23493 87.7167 12.7401 87.798 17.2278C87.8434 19.7075 87.8933 22.1872 87.9503 24.6658C87.9712 25.5908 88.0955 26.5796 89.3203 26.4634C90.8239 26.3217 90.8483 25.1922 90.8379 23.8826C90.8181 21.3913 90.8228 18.915 90.8541 16.4539C90.8549 16.4176 90.8463 16.3818 90.8292 16.3499C90.8121 16.3179 90.7871 16.2909 90.7565 16.2714Z" fill="#0A0A0A"/>
<path d="M64.7022 17.8681C64.7173 17.7508 64.7266 17.6253 64.7277 17.4893C64.7916 12.0511 64.7452 6.62913 64.8021 1.17347C64.8027 1.11944 64.8246 1.06784 64.8629 1.02995C64.9012 0.992069 64.9529 0.970976 65.0066 0.971283L66.9576 0.977093C66.9846 0.977093 67.0114 0.982444 67.0363 0.992838C67.0613 1.00323 67.084 1.01847 67.1031 1.03767C67.1222 1.05688 67.1373 1.07968 67.1476 1.10478C67.158 1.12987 67.1633 1.15677 67.1633 1.18393L67.1598 27.93C67.1598 28.013 67.1269 28.0926 67.0683 28.1514C67.0097 28.2102 66.9302 28.2434 66.8472 28.2437L64.8625 28.2472C64.7742 28.2473 64.6884 28.2172 64.6196 28.1621C64.5507 28.1069 64.5028 28.03 64.4837 27.9439C63.4635 23.2831 62.4281 18.6106 61.3776 13.9266C61.3312 13.7174 61.2603 13.535 61.1638 13.3793C61.1534 13.3623 61.1377 13.3492 61.1192 13.3418C61.1007 13.3344 61.0803 13.3332 61.0611 13.3382C61.0418 13.3433 61.0247 13.3544 61.0122 13.37C60.9997 13.3855 60.9926 13.4047 60.9919 13.4246C60.9442 14.4297 60.9198 15.4314 60.9186 16.4296C60.9163 20.1933 60.9198 24.028 60.9303 27.9346C60.9303 28.0127 60.8999 28.0876 60.8456 28.1434C60.7913 28.1992 60.7174 28.2315 60.6398 28.2333C60.0518 28.2472 59.4975 28.253 58.9769 28.2496C58.3552 28.2461 58.3971 27.8324 58.3971 27.3188C58.3971 18.893 58.3994 10.4684 58.4052 2.04266C58.4064 0.822545 59.8844 0.232242 60.6235 1.18509C60.7757 1.38147 60.9105 1.73937 61.0255 2.25879C62.1422 7.27056 63.2682 12.2812 64.4012 17.2906C64.4454 17.4847 64.5313 17.6857 64.5918 17.8774C64.5958 17.8896 64.6038 17.9 64.6144 17.9071C64.6251 17.9142 64.6379 17.9174 64.6506 17.9164C64.6634 17.9153 64.6754 17.91 64.6848 17.9012C64.6941 17.8924 64.7002 17.8808 64.7022 17.8681Z" fill="#0A0A0A"/>
<path d="M54.5809 14.7191C54.94 14.9933 55.4257 15.1688 55.7174 15.4593C56.1322 15.873 56.3309 16.397 56.3135 17.0315C56.2798 18.2528 56.2659 19.4729 56.2728 20.693C56.2856 22.9519 56.4378 25.2016 56.7272 27.4408C56.7539 27.6418 56.769 27.8301 56.7748 28.0079C56.7759 28.0383 56.7709 28.0686 56.76 28.097C56.7491 28.1254 56.7327 28.1514 56.7115 28.1733C56.6904 28.1953 56.6651 28.2129 56.637 28.225C56.609 28.2371 56.5788 28.2435 56.5482 28.2438C55.9289 28.2496 55.306 28.2496 54.6774 28.2438C53.4887 28.2333 53.8919 19.1847 53.907 18.7257C53.9488 17.3464 53.5177 15.9833 51.8293 16.1553C51.3529 16.2041 50.7021 16.2587 50.701 16.8549C50.6987 20.5605 50.6824 24.265 50.665 27.9695C50.6647 28.0424 50.6355 28.1121 50.5839 28.1635C50.5323 28.2149 50.4624 28.2438 50.3896 28.2438H48.6047C48.52 28.2438 48.4387 28.2073 48.3788 28.1423C48.3188 28.0774 48.2852 27.9893 48.2852 27.8975L48.2968 1.28504C48.2967 1.22331 48.3196 1.16378 48.3608 1.11803C48.402 1.07228 48.4587 1.04359 48.5199 1.03753C50.8695 0.80048 55.4513 0.322892 56.1369 3.58234C56.3484 4.58516 56.4495 5.73788 56.439 7.03933C56.4251 8.71147 56.3774 10.3836 56.2972 12.0557C56.2728 12.5787 56.2461 12.8936 56.2182 13.0016C56.03 13.7256 55.2642 14.2183 54.603 14.5239C54.5851 14.5322 54.5697 14.5449 54.5581 14.5609C54.5466 14.577 54.5394 14.5957 54.5372 14.6153C54.535 14.6349 54.5378 14.6547 54.5455 14.6729C54.5531 14.6911 54.5654 14.707 54.5809 14.7191ZM50.7033 3.54051L50.7196 13.3897C50.7196 13.4587 50.7332 13.5269 50.7596 13.5906C50.786 13.6542 50.8247 13.712 50.8735 13.7607C50.9223 13.8094 50.9802 13.848 51.0439 13.8742C51.1076 13.9005 51.1759 13.914 51.2448 13.9138L51.6167 13.9126C51.9208 13.9122 52.2219 13.8505 52.5027 13.731C52.7835 13.6115 53.0385 13.4366 53.2533 13.2163C53.468 12.9959 53.6382 12.7345 53.7541 12.4468C53.8701 12.1592 53.9295 11.851 53.9291 11.5398L53.9174 5.38114C53.9165 4.75277 53.6716 4.1505 53.2366 3.70681C52.8017 3.26313 52.2122 3.01438 51.5981 3.01528L51.2262 3.01644C51.0874 3.01675 50.9544 3.0721 50.8564 3.17035C50.7584 3.26859 50.7033 3.40172 50.7033 3.54051Z" fill="#0A0A0A"/>
<path d="M121.475 28.2482C121.412 28.2485 121.35 28.2364 121.291 28.2124C121.233 28.1885 121.18 28.1532 121.136 28.1087C121.091 28.0642 121.056 28.0113 121.032 27.9531C121.008 27.8948 120.996 27.8324 120.996 27.7695C121.03 20.5418 121.04 13.3117 121.029 6.0805C121.026 4.57337 121.09 2.85475 121.089 1.22561C121.089 1.19735 121.099 1.16999 121.117 1.14847C121.136 1.12695 121.161 1.11268 121.189 1.10825C123.992 0.634147 128.708 0.375017 129.134 4.39558C129.366 6.5976 129.977 13.4709 127.421 14.4424C127.368 14.4627 127.322 14.4992 127.291 14.5467C127.259 14.5942 127.243 14.6503 127.245 14.7073C127.247 14.7317 127.267 14.7642 127.31 14.8049C127.335 14.8293 127.369 14.8502 127.409 14.8665C129.145 15.5544 129.06 16.742 129.086 18.571C129.131 21.6794 129.264 24.7854 129.483 27.888C129.5 28.1158 129.407 28.225 129.184 28.2308C128.588 28.2459 127.281 28.4946 127.073 27.7509C126.771 26.6644 126.599 25.5222 126.559 24.323C126.511 22.9553 126.532 20.8543 126.621 18.0202C126.627 17.8145 126.645 16.9233 126.333 16.7199C125.567 16.2191 124.73 16.0692 123.82 16.2714C123.414 16.362 123.443 16.7675 123.442 17.0952C123.441 20.7567 123.44 24.3904 123.441 27.9961C123.441 28.0281 123.435 28.0599 123.423 28.0896C123.411 28.1192 123.393 28.1462 123.37 28.169C123.348 28.1917 123.321 28.2098 123.291 28.2222C123.262 28.2346 123.23 28.2411 123.198 28.2413L121.475 28.2482ZM123.469 3.63911L123.436 13.2862C123.436 13.3693 123.452 13.4517 123.484 13.5287C123.515 13.6056 123.562 13.6756 123.62 13.7346C123.679 13.7937 123.748 13.8406 123.825 13.8727C123.902 13.9048 123.984 13.9215 124.067 13.9218L124.357 13.9229C124.968 13.925 125.555 13.6706 125.989 13.2158C126.423 12.7611 126.668 12.1431 126.67 11.4978L126.691 5.45069C126.692 5.13111 126.634 4.81445 126.519 4.5188C126.404 4.22314 126.235 3.95428 126.022 3.72757C125.808 3.50086 125.555 3.32074 125.276 3.1975C124.996 3.07426 124.697 3.01031 124.394 3.0093L124.104 3.00814C124.021 3.00783 123.939 3.02391 123.862 3.05546C123.785 3.087 123.715 3.13339 123.656 3.19198C123.597 3.25058 123.55 3.32022 123.518 3.39694C123.486 3.47366 123.469 3.55595 123.469 3.63911Z" fill="#0A0A0A"/>
<path d="M4.33348 1.04691C4.64374 1.05155 4.71811 1.13406 4.7611 1.44083C5.45483 6.35034 6.14622 11.2238 6.83297 16.0636C6.83788 16.1034 6.8572 16.14 6.88727 16.1665C6.91735 16.193 6.95609 16.2075 6.99617 16.2074C7.03625 16.2073 7.07489 16.1924 7.10478 16.1657C7.13466 16.139 7.15372 16.1023 7.15834 16.0624C7.8079 11.2273 8.46444 6.38985 9.12795 1.5489C9.157 1.3316 9.21045 1.16079 9.28715 1.03413C9.2988 1.01464 9.31532 0.9985 9.33507 0.987299C9.35483 0.976097 9.37715 0.970211 9.39986 0.970215L13.2357 0.974862C13.2619 0.974894 13.2875 0.982642 13.3092 0.997122C13.3309 1.0116 13.3478 1.03216 13.3577 1.0562C13.4228 1.2154 13.4553 1.37227 13.4553 1.52682C13.4565 10.2942 13.4576 19.057 13.4565 27.8127C13.4565 28.1021 13.3112 28.2462 13.0219 28.2462H11.28C11.0267 28.2462 10.9 28.1195 10.9 27.8662C10.8989 21.2532 10.8989 14.6308 10.9 7.99691C10.9 7.82726 10.7792 7.68549 10.6084 7.74592C10.5723 7.7587 10.5514 7.78426 10.5456 7.82261C9.72406 14.3125 8.90601 20.7721 8.09027 27.1992C8.04263 27.5734 7.95432 27.8488 7.82766 28.0254C7.13277 28.9875 5.87199 28.3984 5.74417 27.327C5.09112 21.8493 4.39158 16.3774 3.64441 10.9124C3.50497 9.89216 3.33996 8.87539 3.14823 7.86328C3.10988 7.66109 3.05759 7.474 2.9902 7.30203C2.98437 7.28648 2.97335 7.27341 2.959 7.26505C2.94466 7.25669 2.92786 7.25354 2.91146 7.25614C2.89506 7.25874 2.88006 7.26692 2.869 7.2793C2.85793 7.29169 2.85149 7.30751 2.85075 7.3241C2.8217 7.77264 2.81124 8.22002 2.81938 8.66623C2.94488 15.0085 3.08432 20.5037 2.96231 27.6942C2.94604 28.6587 1.06009 28.2648 0.548804 28.08C0.516268 28.0684 0.5 28.0451 0.5 28.0114V1.07828C0.5 1.04342 0.51743 1.02599 0.55229 1.02599C1.81772 1.0225 3.07851 1.02948 4.33348 1.04691Z" fill="#0A0A0A"/>
<path d="M71.6195 0.967773H69.7533C69.5627 0.967773 69.4082 1.12229 69.4082 1.31289V27.8951C69.4082 28.0857 69.5627 28.2402 69.7533 28.2402H71.6195C71.8101 28.2402 71.9646 28.0857 71.9646 27.8951V1.31289C71.9646 1.12229 71.8101 0.967773 71.6195 0.967773Z" fill="#0A0A0A"/>
<path d="M76.861 12.9088C76.855 12.8779 76.8376 12.8504 76.8123 12.8317C76.787 12.813 76.7556 12.8045 76.7243 12.8079C76.6931 12.8113 76.6642 12.8262 76.6434 12.8499C76.6227 12.8735 76.6116 12.9041 76.6123 12.9355L76.6111 27.8105C76.6111 28.101 76.4659 28.2462 76.1754 28.2462H74.5485C74.4176 28.2462 74.292 28.1942 74.1993 28.1016C74.1067 28.009 74.0547 27.8834 74.0547 27.7524V1.34329C74.0547 1.09578 74.1779 0.971445 74.4254 0.970283C74.9215 0.966797 75.4189 0.964472 75.9186 0.965634C76.4833 0.966796 76.4926 1.14923 76.596 1.61869C77.7255 6.75711 78.8643 11.8944 80.0112 17.0293C80.0201 17.0687 80.0438 17.1029 80.0774 17.1246C80.1924 17.2001 80.3145 17.1966 80.4411 17.1118C80.4748 17.0897 80.4899 17.0584 80.4876 17.0177C80.2564 12.1361 80.2331 7.25329 80.4179 2.36935C80.4341 1.95218 80.4585 1.55826 80.4899 1.18874C80.4949 1.13017 80.5216 1.07559 80.5648 1.03579C80.6081 0.995982 80.6647 0.973852 80.7235 0.973769L82.8174 0.972606C82.8421 0.972252 82.8662 0.980447 82.8859 0.995851C82.9055 1.01126 82.9195 1.03296 82.9255 1.05743C82.972 1.25033 82.9952 1.43625 82.9952 1.61404C83.001 10.0944 83.0034 18.5748 83.001 27.054C82.9999 28.4147 81.4625 29.17 80.4678 28.1823C80.0472 27.764 79.9705 27.0377 79.8357 26.4161C78.8492 21.8854 77.8568 17.3826 76.861 12.9088Z" fill="#0A0A0A"/>
<path d="M110.752 28.1533C110.672 28.0371 110.64 27.8838 110.66 27.6943C111.545 19.0002 112.437 10.3071 113.335 1.61411C113.383 1.15744 113.5 0.994756 113.965 0.981974C114.963 0.955247 115.934 0.95641 116.881 0.986623C116.986 0.989845 117.086 1.0306 117.163 1.10143C117.24 1.17227 117.289 1.26845 117.301 1.37241L120.336 27.7792C120.342 27.8279 120.338 27.8772 120.324 27.9244C120.311 27.9715 120.288 28.0155 120.258 28.0538C120.227 28.0922 120.189 28.1241 120.146 28.1478C120.103 28.1714 120.056 28.1863 120.007 28.1917C119.609 28.237 119.201 28.2556 118.781 28.2486C118.305 28.2417 117.998 28.3137 117.932 27.7734C117.618 25.1925 117.416 23.4972 117.325 22.6884C117.285 22.327 117.08 22.1469 116.711 22.1469C116.349 22.1457 115.523 22.1492 114.234 22.155C113.879 22.1573 113.686 22.3212 113.656 22.6477C113.491 24.4058 113.322 26.1628 113.151 27.9186C113.103 28.4264 111.229 28.2486 110.862 28.2173C110.84 28.2155 110.819 28.2088 110.8 28.1977C110.78 28.1867 110.764 28.1715 110.752 28.1533ZM114.102 19.4812L116.83 19.508C116.868 19.5084 116.904 19.4953 116.932 19.4712C116.961 19.4471 116.979 19.4135 116.985 19.3767C117.001 19.2663 117.001 19.1361 116.986 18.9862C116.557 14.9006 116.12 10.808 115.673 6.70838C115.67 6.68211 115.662 6.65671 115.649 6.63377C115.636 6.61083 115.618 6.59086 115.597 6.57513C115.575 6.5594 115.551 6.54825 115.525 6.54238C115.499 6.53651 115.472 6.53606 115.446 6.54105L115.27 6.57475C115.215 6.5852 115.186 6.61774 115.18 6.67235C114.786 10.8417 114.403 15.0121 114.032 19.1826C114.024 19.2732 114.026 19.3546 114.039 19.4278C114.042 19.4427 114.05 19.4562 114.061 19.466C114.073 19.4758 114.087 19.4812 114.102 19.4812Z" fill="#0A0A0A"/>
<path d="M40.441 28.1615C40.43 28.158 40.42 28.1518 40.4119 28.1436C40.4037 28.1354 40.3976 28.1253 40.3941 28.1142C40.3906 28.1031 40.3897 28.0913 40.3916 28.0797C40.3935 28.0681 40.3981 28.0571 40.405 28.0476C40.8965 27.3737 41.4287 26.6567 41.8261 25.9734C46.523 17.9102 43.0346 7.94248 33.5909 5.86945C22.7575 3.4908 14.0691 15.0133 19.1483 24.8486C19.6851 25.8886 20.3475 26.8787 21.1353 27.8187C21.1713 27.8617 21.1957 27.9012 21.2085 27.9372C21.2318 28 21.2341 28.0476 21.2167 28.0802C21.1883 28.1297 21.1476 28.1709 21.0984 28.1996C21.0493 28.2284 20.9935 28.2437 20.9366 28.244C20.1267 28.2498 19.311 28.2498 18.4906 28.244C18.2663 28.2417 18.0932 28.1499 17.9735 27.9698C12.0553 19.0839 15.682 7.47651 25.7497 3.8429C31.712 1.68968 38.1832 3.49894 42.3781 8.21207C47.3852 13.8374 48.0336 21.71 43.6621 27.9524C43.5401 28.1255 43.3855 28.215 43.1961 28.2208C42.442 28.2429 41.1347 28.3916 40.441 28.1615Z" fill="#0A0A0A"/>
</svg>
