<svg width="119" height="44" viewBox="0 0 119 44" fill="none" xmlns="http://www.w3.org/2000/svg">
<path fill-rule="evenodd" clip-rule="evenodd" d="M42.8 13.0015V26.0015H46H49.2V21.0015C49.2 17.7015 49.2 15.9015 49.2 15.7015C49.3 15.2015 49.4 14.7015 49.7 14.3015C50.1 13.6015 50.8 13.3015 51.6 13.4015C52.7 13.5015 53.4 14.1015 53.6 15.4015C53.6 15.6015 53.6 17.6015 53.6 20.8015V25.9015H56.8H60V19.9015C60 14.8015 60 13.8015 59.9 13.3015C59.7 11.5015 59.1 10.1015 58 9.10146C57.1 8.20146 56 7.70146 54.7 7.50146C54.2 7.40146 52.8 7.50146 52.4 7.60146C51.2 7.90146 50.3 8.30147 49.5 9.20147L49 9.60146V4.80146V0.00146484H45.8H42.6V13.0015H42.8ZM110.8 0.201466C110.6 0.601466 104.1 16.3015 104.1 16.3015C104.1 16.3015 105.8 16.3015 107.9 16.3015H111.7L115.1 8.20147C117 3.70147 118.5 0.00146484 118.5 0.00146484C118.5 0.00146484 116.8 0.00146484 114.7 0.00146484H110.9L110.8 0.201466ZM28.8 7.60146C27.4 7.80146 26.3 8.20147 25.2 8.90147C23 10.3015 21.6 12.7015 21.2 15.5015C21 16.8015 21.1 18.4015 21.4 19.6015C22.2 22.7015 24.3 25.1015 27 26.0015C28 26.3015 28.4 26.4015 29.6 26.4015C30.5 26.4015 30.8 26.4015 31.1 26.3015C32.4 26.0015 33.3 25.5015 34.1 24.7015L34.5 24.3015V25.1015V25.9015H37.6H40.7V16.9015V7.90147H37.6H34.5V8.70147V9.50146L34.2 9.20147C33.5 8.40147 32.5 7.90146 31.2 7.60146C30.8 7.50146 30.6 7.50146 29.8 7.50146C29.3 7.60146 28.9 7.60146 28.8 7.60146ZM69.6 7.60146C67.9 7.80146 66.1 8.60146 64.8 9.60146C62.3 11.7015 61 15.0015 61.5 18.4015C62 22.2015 64.7 25.1015 68.5 26.1015C69.3 26.3015 70.1 26.4015 71.1 26.4015C72.9 26.4015 74.2 26.1015 75.6 25.4015C78.4 24.0015 80.2 21.5015 80.6 18.4015C80.7 17.6015 80.7 16.3015 80.6 15.6015C80.4 14.1015 79.8 12.6015 78.9 11.4015C78.5 10.9015 77.7 10.0015 77.2 9.60146C75.8 8.50146 74.2 7.80146 72.4 7.60146C71.7 7.50146 70.3 7.50146 69.6 7.60146ZM90 7.60146C88.3 7.80146 86.6 8.50146 85.3 9.60146C84.8 10.0015 83.9 10.9015 83.6 11.4015C82.7 12.6015 82.2 14.1015 81.9 15.6015C81.8 16.3015 81.8 17.7015 81.9 18.4015C82.5 22.4015 85.4 25.5015 89.4 26.3015C90.2 26.5015 90.6 26.5015 91.5 26.5015C93.2 26.5015 94.7 26.2015 96.1 25.4015C99.8 23.5015 101.8 19.3015 100.9 15.0015C100.1 11.0015 96.9 8.10146 92.8 7.60146C92.1 7.50146 90.7 7.50146 90 7.60146ZM0.5 8.00146C0.5 8.00146 2.2 12.1015 4.3 17.1015C6.4 22.1015 8.1 26.2015 8.1 26.2015C8.1 26.2015 7.5 27.7015 6.7 29.5015C5.9 31.3015 5.3 32.7015 5.3 32.8015C5.3 32.9015 6.8 32.8015 8.7 32.8015H12.1L17.2 20.5015C20 13.7015 22.3 8.20146 22.3 8.10146C22.3 8.10146 21.6 8.00146 18.9 8.10146H15.5L13.4 13.3015C12.5 16.1015 11.6 18.5015 11.6 18.5015C11.6 18.5015 10.7 16.1015 9.5 13.3015L7.5 8.10146H4C2.1 8.00146 0.5 8.00146 0.5 8.00146ZM31.9 13.4015C33.2 13.7015 34.2 14.7015 34.6 16.0015C34.7 16.5015 34.7 17.4015 34.6 17.9015C34.3 19.2015 33.3 20.2015 32 20.5015C31.5 20.6015 30.6 20.6015 30.1 20.5015C29 20.2015 28 19.4015 27.6 18.4015C27.1 17.3015 27.3 15.9015 27.9 14.9015C28.8 13.6015 30.3 13.1015 31.9 13.4015ZM71.8 13.5015C73.2 13.7015 74.3 14.8015 74.6 16.2015C74.7 16.7015 74.7 17.5015 74.6 18.0015C74.3 19.3015 73.3 20.2015 72.1 20.6015C71.7 20.7015 70.6 20.7015 70.2 20.6015C69.2 20.3015 68.4 19.6015 67.9 18.7015C67.6 18.1015 67.6 17.8015 67.6 17.1015C67.6 16.5015 67.7 16.2015 67.9 15.7015C68.2 15.1015 68.6 14.5015 69.2 14.1015C69.8 13.5015 70.8 13.3015 71.8 13.5015ZM92.1 13.5015C93.3 13.7015 94.3 14.5015 94.7 15.6015C94.9 16.1015 95 16.4015 95 17.0015C95 17.7015 94.9 18.0015 94.7 18.6015C94.3 19.5015 93.4 20.2015 92.4 20.5015C92 20.6015 90.9 20.6015 90.5 20.5015C89.3 20.2015 88.3 19.2015 88 17.9015C87.9 17.4015 87.9 16.5015 88 16.0015C88.4 14.4015 89.8 13.3015 91.4 13.3015C91.6 13.4015 91.9 13.4015 92.1 13.5015ZM105.7 17.9015C103.8 18.1015 102.4 19.5015 102 21.3015C101.9 21.8015 101.9 22.7015 102 23.2015C102.4 24.8015 103.6 25.9015 105.2 26.3015C105.4 26.3015 105.8 26.4015 106.1 26.4015C107.3 26.4015 108.3 26.0015 109.1 25.2015C110 24.3015 110.3 23.4015 110.3 22.2015C110.3 20.7015 109.6 19.4015 108.4 18.7015C107.6 18.0015 106.5 17.8015 105.7 17.9015ZM53 27.7015C51.7 28.1015 51.1 29.6015 51.8 30.7015C52 31.0015 52.4 31.4015 52.7 31.5015C53 31.6015 53 31.6015 53.6 31.6015C54.1 31.6015 54.2 31.6015 54.5 31.5015C54.9 31.3015 55.3 30.9015 55.5 30.5015C56 29.5015 55.5 28.3015 54.5 27.8015C54.2 27.6015 54.1 27.6015 53.7 27.6015C53.3 27.6015 53.2 27.6015 53 27.7015ZM47.6 27.8015C45.9 28.1015 44.8 29.2015 44.3 31.0015C44.2 31.3015 44.2 31.6015 44.2 32.0015V32.7015H43.5H42.8V34.2015V35.7015H43.5H44.2V39.3015V42.9015H46.1H48V39.3015V35.7015H49.3H50.6V34.2015V32.7015H49.3H48V32.4015C48.1 31.7015 48.4 31.2015 49 31.1015C49.4 31.0015 50 31.0015 50.4 31.2015C50.6 31.3015 50.7 31.3015 50.7 31.3015C50.7 31.3015 50.7 30.6015 50.7 29.7015V28.1015L50.4 28.0015C50 27.8015 49.5 27.8015 48.8 27.8015C48.3 27.7015 47.9 27.8015 47.6 27.8015ZM62.8 32.5015C62 32.7015 61.4 33.1015 61 33.6015L60.8 33.9015V33.3015V32.7015H58.9H57V37.8015V42.9015H58.9H60.8V40.1015C60.8 38.5015 60.8 37.2015 60.8 37.0015C60.9 36.6015 61.1 36.2015 61.3 36.0015C61.8 35.6015 62.7 35.7015 63.1 36.2015C63.4 36.6015 63.4 36.6015 63.4 39.8015V42.8015H65.3H67.2V39.4015C67.2 35.8015 67.2 35.4015 67 34.7015C66.8 34.1015 66.6 33.6015 66.1 33.2015C65.7 32.8015 65.3 32.5015 64.7 32.4015C64.2 32.4015 63.2 32.4015 62.8 32.5015ZM72.3 32.4015C71.7 32.5015 70.8 32.8015 70.3 33.2015C69.2 34.0015 68.5 35.2015 68.2 36.7015C68.1 37.3015 68.1 38.4015 68.2 39.0015C68.4 39.9015 68.7 40.8015 69.2 41.4015C69.9 42.3015 70.8 42.9015 71.9 43.1015C72.5 43.2015 73.5 43.2015 74 43.0015C74.6 42.8015 75 42.6015 75.5 42.2015L75.9 41.8015V42.3015V42.8015H77.8H79.7V37.7015V32.6015H77.8H75.9V33.1015V33.6015L75.6 33.5015C75.1 33.0015 74.4 32.6015 73.6 32.5015C73.3 32.4015 72.6 32.4015 72.3 32.4015ZM86.8 32.5015C86.1 32.6015 85.4 33.1015 85 33.6015L84.8 33.8015V33.2015V32.6015H82.9H81V37.7015V42.8015H82.9H84.8V39.9015C84.8 36.8015 84.8 36.8015 85 36.3015C85.2 35.9015 85.6 35.7015 86 35.7015C86.4 35.7015 86.6 35.8015 86.9 36.0015C87.3 36.4015 87.3 36.3015 87.3 39.7015V42.7015H89.2H91.1V39.0015C91.1 35.3015 91.1 35.3015 91 34.9015C90.9 34.7015 90.8 34.3015 90.7 34.0015C90.5 33.6015 90.4 33.5015 90.1 33.2015C89.7 32.8015 89.4 32.6015 89 32.4015C88.3 32.4015 87.5 32.3015 86.8 32.5015ZM96.7 32.5015C95 32.8015 93.7 33.6015 92.9 35.0015C92.7 35.4015 92.5 35.9015 92.3 36.4015C92.2 36.9015 92.2 37.0015 92.2 37.8015C92.2 38.7015 92.2 39.0015 92.5 39.7015C93.1 41.4015 94.5 42.7015 96.4 43.1015C96.7 43.2015 97 43.2015 97.7 43.2015C98.7 43.2015 99.1 43.1015 99.8 42.8015L100.2 42.6015V40.9015V39.2015L99.9 39.4015C99.4 39.7015 99.1 39.8015 98.5 39.8015C97.9 39.8015 97.6 39.8015 97.2 39.6015C96.8 39.4015 96.5 39.1015 96.3 38.7015C96.2 38.4015 96.2 38.4015 96.2 37.9015C96.2 37.5015 96.2 37.4015 96.3 37.1015C96.6 36.3015 97.3 35.9015 98.3 35.8015C99 35.8015 99.3 35.8015 100.3 36.3015C100.3 36.3015 100.3 35.5015 100.3 34.6015V32.9015L100 32.8015C98.9 32.4015 97.7 32.3015 96.7 32.5015ZM105.3 32.5015C102.4 33.0015 100.6 35.5015 100.8 38.4015C100.9 39.4015 101.2 40.3015 101.7 41.0015C102.4 42.1015 103.5 42.8015 104.9 43.1015C105.5 43.2015 107.1 43.2015 107.8 43.1015C108.8 42.9015 109.7 42.4015 110.4 41.7015C110.7 41.4015 111.2 40.7015 111.2 40.7015C111.2 40.7015 110.5 40.4015 109.6 40.1015L108 39.5015L107.8 39.7015C107.5 40.0015 107.3 40.1015 106.9 40.2015C105.8 40.5015 104.7 39.9015 104.5 38.9015V38.7015H108H111.5V37.8015C111.5 37.2015 111.5 36.8015 111.4 36.6015C111.2 35.4015 110.7 34.6015 110 33.8015C109.3 33.1015 108.5 32.7015 107.4 32.5015C107 32.4015 105.8 32.4015 105.3 32.5015ZM51.7 37.8015V42.9015H53.6H55.5V37.8015V32.7015H53.6H51.7V37.8015ZM106.8 35.3015C107.1 35.4015 107.2 35.5015 107.5 35.7015C107.7 35.9015 107.9 36.1015 107.9 36.4015V36.6015H106.2C104.3 36.6015 104.4 36.6015 104.6 36.2015C104.9 35.5015 105.8 35.1015 106.8 35.3015ZM74.5 35.8015C75 35.9015 75.6 36.4015 75.8 36.9015C76.3 38.0015 75.8 39.3015 74.6 39.7015C74.2 39.8015 73.6 39.8015 73.2 39.7015C72.6 39.5015 72 39.0015 71.9 38.4015C71.8 38.1015 71.8 38.0015 71.8 37.7015C71.8 37.3015 71.8 37.2015 72 36.9015C72.4 36.0015 73.4 35.6015 74.5 35.8015Z" fill="#0A0A0A"/>
</svg>
