<svg width="2337" height="2364" viewBox="0 0 2337 2364" fill="none" xmlns="http://www.w3.org/2000/svg">
<g opacity="0.4">
<path d="M1305.1 1844.83C1874.83 1835.6 2333.24 1615.41 2328.99 1353.01C2324.73 1090.62 1859.43 885.385 1289.71 894.615C719.983 903.846 261.575 1124.04 265.826 1386.44C270.078 1648.83 735.378 1854.07 1305.1 1844.83Z" stroke="url(#paint0_linear_108_6408)" stroke-width="3" stroke-miterlimit="10"/>
<path d="M1310.59 1824.13C1867.08 1788.77 2305.01 1552.34 2288.72 1296.04C2272.44 1039.74 1808.12 860.625 1251.63 895.977C695.134 931.33 257.207 1167.76 273.489 1424.06C289.771 1680.36 754.097 1859.48 1310.59 1824.13Z" stroke="url(#paint1_linear_108_6408)" stroke-width="3" stroke-miterlimit="10"/>
<path d="M1316.19 1802.55C1859.49 1741.04 2276.95 1488.38 2248.63 1238.22C2220.3 988.067 1756.92 835.142 1213.62 896.656C670.329 958.17 252.863 1210.83 281.187 1460.99C309.511 1711.14 772.899 1864.07 1316.19 1802.55Z" stroke="url(#paint2_linear_108_6408)" stroke-width="3" stroke-miterlimit="10"/>
<path d="M1323.14 1781.95C1853.2 1694.27 2250.16 1425.29 2209.78 1181.16C2169.39 937.034 1706.96 810.209 1176.9 897.89C646.836 985.571 249.873 1254.55 290.256 1498.68C330.639 1742.81 793.075 1869.63 1323.14 1781.95Z" stroke="url(#paint3_linear_108_6408)" stroke-width="3" stroke-miterlimit="10"/>
<path d="M1329.27 1760.94C1846.13 1647.1 2222.64 1361.9 2170.23 1123.92C2117.81 885.946 1656.32 785.315 1139.45 899.157C622.588 1013 246.077 1298.2 298.492 1536.18C350.907 1774.15 812.4 1874.78 1329.27 1760.94Z" stroke="url(#paint4_linear_108_6408)" stroke-width="3" stroke-miterlimit="10"/>
<path d="M1335.45 1740.5C1839.06 1600.53 2195.05 1299.04 2130.59 1067.11C2066.12 835.184 1605.61 760.64 1102.01 900.614C598.408 1040.59 242.414 1342.07 306.877 1574C371.341 1805.93 831.85 1880.47 1335.45 1740.5Z" stroke="url(#paint5_linear_108_6408)" stroke-width="3" stroke-miterlimit="10"/>
<path d="M1341.42 1718.77C1831.75 1552.64 2167.23 1234.93 2090.73 1009.15C2014.23 783.367 1554.72 735.016 1064.4 901.15C574.067 1067.29 238.593 1384.99 315.093 1610.77C391.592 1836.55 851.097 1884.91 1341.42 1718.77Z" stroke="url(#paint6_linear_108_6408)" stroke-width="3" stroke-miterlimit="10"/>
<path d="M1347.42 1698.05C1824.55 1505.76 2139.57 1171.77 2051.03 952.077C1962.49 732.382 1503.91 710.168 1026.78 902.462C549.645 1094.76 234.629 1428.74 323.17 1648.44C411.712 1868.13 870.282 1890.35 1347.42 1698.05Z" stroke="url(#paint7_linear_108_6408)" stroke-width="3" stroke-miterlimit="10"/>
<path d="M1353.39 1677.28C1817.27 1458.85 2111.77 1108.58 2011.17 894.938C1910.57 681.295 1452.97 685.176 989.088 903.607C525.204 1122.04 230.704 1472.3 331.303 1685.95C431.902 1899.59 889.506 1895.71 1353.39 1677.28Z" stroke="url(#paint8_linear_108_6408)" stroke-width="3" stroke-miterlimit="10"/>
<path d="M1359.75 1656.43C1810.4 1411.85 2084.42 1045.33 1971.77 837.778C1859.13 630.228 1402.49 660.248 951.834 904.829C501.179 1149.41 227.166 1515.93 339.809 1723.48C452.451 1931.03 909.094 1901.02 1359.75 1656.43Z" stroke="url(#paint9_linear_108_6408)" stroke-width="3" stroke-miterlimit="10"/>
<path d="M1365.98 1635.07C1803.4 1364.32 2056.94 981.567 1932.28 780.157C1807.62 578.748 1351.96 634.955 914.535 905.7C477.115 1176.44 223.576 1559.2 348.24 1760.61C472.904 1962.02 928.563 1905.81 1365.98 1635.07Z" stroke="url(#paint10_linear_108_6408)" stroke-width="3" stroke-miterlimit="10"/>
<path d="M1372.25 1614.54C1796.48 1317.63 2029.57 918.611 1892.88 723.298C1756.19 527.984 1301.47 610.339 877.24 907.243C453.011 1204.15 219.917 1603.17 356.611 1798.48C493.304 1993.79 948.021 1911.44 1372.25 1614.54Z" stroke="url(#paint11_linear_108_6408)" stroke-width="3" stroke-miterlimit="10"/>
<path d="M1378.44 1593.35C1789.43 1270.28 2002.02 854.971 1853.26 665.722C1704.49 476.472 1250.72 584.953 839.727 908.02C428.732 1231.09 216.149 1646.4 364.91 1835.65C513.672 2024.9 967.444 1916.42 1378.44 1593.35Z" stroke="url(#paint12_linear_108_6408)" stroke-width="3" stroke-miterlimit="10"/>
<path d="M1383.95 1573.04C1781.74 1223.84 1973.9 792.303 1813.14 609.179C1652.39 426.056 1199.6 560.686 801.805 909.885C404.013 1259.08 211.856 1690.62 372.611 1873.74C533.365 2056.87 986.156 1922.23 1383.95 1573.04Z" stroke="url(#paint13_linear_108_6408)" stroke-width="3" stroke-miterlimit="10"/>
<path d="M1390.26 1551.7C1774.78 1176.37 1946.43 728.603 1773.64 551.59C1600.86 374.578 1149.08 535.348 764.556 910.681C380.036 1286.01 208.388 1733.78 381.17 1910.79C553.953 2087.8 1005.74 1927.03 1390.26 1551.7Z" stroke="url(#paint14_linear_108_6408)" stroke-width="3" stroke-miterlimit="10"/>
<path d="M1396.97 1530.78C1768.3 1129.27 1919.47 665.193 1734.62 494.243C1549.77 323.292 1098.9 510.2 727.573 911.714C356.247 1313.23 205.076 1777.3 389.924 1948.25C574.773 2119.2 1025.64 1932.3 1396.97 1530.78Z" stroke="url(#paint15_linear_108_6408)" stroke-width="3" stroke-miterlimit="10"/>
<path d="M1402.42 1509.98C1760.51 1082.34 1891.23 602.052 1694.39 437.228C1497.55 272.404 1047.69 485.459 689.607 913.099C331.521 1340.74 200.803 1821.03 397.642 1985.85C594.48 2150.67 1044.34 1937.62 1402.42 1509.98Z" stroke="url(#paint16_linear_108_6408)" stroke-width="3" stroke-miterlimit="10"/>
<path d="M1409.04 1489.33C1753.91 1035.54 1864.16 538.986 1655.28 380.243C1446.41 221.5 997.503 460.682 652.63 914.47C307.758 1368.26 197.512 1864.81 406.388 2023.56C615.265 2182.3 1064.17 1943.12 1409.04 1489.33Z" stroke="url(#paint17_linear_108_6408)" stroke-width="3" stroke-miterlimit="10"/>
<path d="M1414.83 1468.49C1746.44 988.59 1836.2 475.811 1615.29 323.163C1394.39 170.515 946.483 435.802 614.865 915.7C283.247 1395.6 193.496 1908.38 414.399 2061.03C635.302 2213.67 1083.21 1948.39 1414.83 1468.49Z" stroke="url(#paint18_linear_108_6408)" stroke-width="3" stroke-miterlimit="10"/>
<path d="M1420.45 1447.31C1738.83 941.252 1808.08 412.193 1575.12 265.628C1342.15 119.064 895.202 410.494 576.821 916.557C258.439 1422.62 189.193 1951.68 422.155 2098.24C655.117 2244.81 1102.07 1953.38 1420.45 1447.31Z" stroke="url(#paint19_linear_108_6408)" stroke-width="3" stroke-miterlimit="10"/>
</g>
<defs>
<linearGradient id="paint0_linear_108_6408" x1="847.293" y1="925.135" x2="1314.33" y2="2095.46" gradientUnits="userSpaceOnUse">
<stop offset="0.0326" stop-color="#FF299E"/>
<stop offset="0.2705" stop-color="#FF9190"/>
<stop offset="0.3399" stop-color="#FFA378"/>
<stop offset="0.4488" stop-color="#FFBD55"/>
<stop offset="0.5096" stop-color="#F7C05D"/>
<stop offset="0.6043" stop-color="#E1C872"/>
<stop offset="0.7205" stop-color="#BDD495"/>
<stop offset="0.777" stop-color="#A9DBA9"/>
<stop offset="0.9212" stop-color="#57F3D8"/>
<stop offset="1" stop-color="#2FFFEF"/>
</linearGradient>
<linearGradient id="paint1_linear_108_6408" x1="820.565" y1="946.257" x2="1331.19" y2="2068.7" gradientUnits="userSpaceOnUse">
<stop offset="0.0326" stop-color="#FF299E"/>
<stop offset="0.2705" stop-color="#FF9190"/>
<stop offset="0.3399" stop-color="#FFA378"/>
<stop offset="0.4488" stop-color="#FFBD55"/>
<stop offset="0.5096" stop-color="#F7C05D"/>
<stop offset="0.6043" stop-color="#E1C872"/>
<stop offset="0.7205" stop-color="#BDD495"/>
<stop offset="0.777" stop-color="#A9DBA9"/>
<stop offset="0.9212" stop-color="#57F3D8"/>
<stop offset="1" stop-color="#2FFFEF"/>
</linearGradient>
<linearGradient id="paint2_linear_108_6408" x1="793.891" y1="966.722" x2="1347.99" y2="2041.11" gradientUnits="userSpaceOnUse">
<stop offset="0.0326" stop-color="#FF299E"/>
<stop offset="0.2705" stop-color="#FF9190"/>
<stop offset="0.3399" stop-color="#FFA378"/>
<stop offset="0.4488" stop-color="#FFBD55"/>
<stop offset="0.5096" stop-color="#F7C05D"/>
<stop offset="0.6043" stop-color="#E1C872"/>
<stop offset="0.7205" stop-color="#BDD495"/>
<stop offset="0.777" stop-color="#A9DBA9"/>
<stop offset="0.9212" stop-color="#57F3D8"/>
<stop offset="1" stop-color="#2FFFEF"/>
</linearGradient>
<linearGradient id="paint3_linear_108_6408" x1="768.523" y1="987.757" x2="1366.52" y2="2014.42" gradientUnits="userSpaceOnUse">
<stop offset="0.0326" stop-color="#FF299E"/>
<stop offset="0.2705" stop-color="#FF9190"/>
<stop offset="0.3399" stop-color="#FFA378"/>
<stop offset="0.4488" stop-color="#FFBD55"/>
<stop offset="0.5096" stop-color="#F7C05D"/>
<stop offset="0.6043" stop-color="#E1C872"/>
<stop offset="0.7205" stop-color="#BDD495"/>
<stop offset="0.777" stop-color="#A9DBA9"/>
<stop offset="0.9212" stop-color="#57F3D8"/>
<stop offset="1" stop-color="#2FFFEF"/>
</linearGradient>
<linearGradient id="paint4_linear_108_6408" x1="742.406" y1="1008.81" x2="1383.83" y2="1987.43" gradientUnits="userSpaceOnUse">
<stop offset="0.0326" stop-color="#FF299E"/>
<stop offset="0.2705" stop-color="#FF9190"/>
<stop offset="0.3399" stop-color="#FFA378"/>
<stop offset="0.4488" stop-color="#FFBD55"/>
<stop offset="0.5096" stop-color="#F7C05D"/>
<stop offset="0.6043" stop-color="#E1C872"/>
<stop offset="0.7205" stop-color="#BDD495"/>
<stop offset="0.777" stop-color="#A9DBA9"/>
<stop offset="0.9212" stop-color="#57F3D8"/>
<stop offset="1" stop-color="#2FFFEF"/>
</linearGradient>
<linearGradient id="paint5_linear_108_6408" x1="716.343" y1="1030.04" x2="1401.57" y2="1960.86" gradientUnits="userSpaceOnUse">
<stop offset="0.0326" stop-color="#FF299E"/>
<stop offset="0.2705" stop-color="#FF9190"/>
<stop offset="0.3399" stop-color="#FFA378"/>
<stop offset="0.4488" stop-color="#FFBD55"/>
<stop offset="0.5096" stop-color="#F7C05D"/>
<stop offset="0.6043" stop-color="#E1C872"/>
<stop offset="0.7205" stop-color="#BDD495"/>
<stop offset="0.777" stop-color="#A9DBA9"/>
<stop offset="0.9212" stop-color="#57F3D8"/>
<stop offset="1" stop-color="#2FFFEF"/>
</linearGradient>
<linearGradient id="paint6_linear_108_6408" x1="690.116" y1="1050.36" x2="1418.84" y2="1933.1" gradientUnits="userSpaceOnUse">
<stop offset="0.0326" stop-color="#FF299E"/>
<stop offset="0.2705" stop-color="#FF9190"/>
<stop offset="0.3399" stop-color="#FFA378"/>
<stop offset="0.4488" stop-color="#FFBD55"/>
<stop offset="0.5096" stop-color="#F7C05D"/>
<stop offset="0.6043" stop-color="#E1C872"/>
<stop offset="0.7205" stop-color="#BDD495"/>
<stop offset="0.777" stop-color="#A9DBA9"/>
<stop offset="0.9212" stop-color="#57F3D8"/>
<stop offset="1" stop-color="#2FFFEF"/>
</linearGradient>
<linearGradient id="paint7_linear_108_6408" x1="663.826" y1="1071.46" x2="1436.2" y2="1906.35" gradientUnits="userSpaceOnUse">
<stop offset="0.0326" stop-color="#FF299E"/>
<stop offset="0.2705" stop-color="#FF9190"/>
<stop offset="0.3399" stop-color="#FFA378"/>
<stop offset="0.4488" stop-color="#FFBD55"/>
<stop offset="0.5096" stop-color="#F7C05D"/>
<stop offset="0.6043" stop-color="#E1C872"/>
<stop offset="0.7205" stop-color="#BDD495"/>
<stop offset="0.777" stop-color="#A9DBA9"/>
<stop offset="0.9212" stop-color="#57F3D8"/>
<stop offset="1" stop-color="#2FFFEF"/>
</linearGradient>
<linearGradient id="paint8_linear_108_6408" x1="637.505" y1="1092.38" x2="1453.7" y2="1879.44" gradientUnits="userSpaceOnUse">
<stop offset="0.0326" stop-color="#FF299E"/>
<stop offset="0.2705" stop-color="#FF9190"/>
<stop offset="0.3399" stop-color="#FFA378"/>
<stop offset="0.4488" stop-color="#FFBD55"/>
<stop offset="0.5096" stop-color="#F7C05D"/>
<stop offset="0.6043" stop-color="#E1C872"/>
<stop offset="0.7205" stop-color="#BDD495"/>
<stop offset="0.777" stop-color="#A9DBA9"/>
<stop offset="0.9212" stop-color="#57F3D8"/>
<stop offset="1" stop-color="#2FFFEF"/>
</linearGradient>
<linearGradient id="paint9_linear_108_6408" x1="611.604" y1="1113.38" x2="1471.45" y2="1852.54" gradientUnits="userSpaceOnUse">
<stop offset="0.0326" stop-color="#FF299E"/>
<stop offset="0.2705" stop-color="#FF9190"/>
<stop offset="0.3399" stop-color="#FFA378"/>
<stop offset="0.4488" stop-color="#FFBD55"/>
<stop offset="0.5096" stop-color="#F7C05D"/>
<stop offset="0.6043" stop-color="#E1C872"/>
<stop offset="0.7205" stop-color="#BDD495"/>
<stop offset="0.777" stop-color="#A9DBA9"/>
<stop offset="0.9212" stop-color="#57F3D8"/>
<stop offset="1" stop-color="#2FFFEF"/>
</linearGradient>
<linearGradient id="paint10_linear_108_6408" x1="585.661" y1="1134.04" x2="1488.95" y2="1825.21" gradientUnits="userSpaceOnUse">
<stop offset="0.0326" stop-color="#FF299E"/>
<stop offset="0.2705" stop-color="#FF9190"/>
<stop offset="0.3399" stop-color="#FFA378"/>
<stop offset="0.4488" stop-color="#FFBD55"/>
<stop offset="0.5096" stop-color="#F7C05D"/>
<stop offset="0.6043" stop-color="#E1C872"/>
<stop offset="0.7205" stop-color="#BDD495"/>
<stop offset="0.777" stop-color="#A9DBA9"/>
<stop offset="0.9212" stop-color="#57F3D8"/>
<stop offset="1" stop-color="#2FFFEF"/>
</linearGradient>
<linearGradient id="paint11_linear_108_6408" x1="559.689" y1="1155.38" x2="1506.55" y2="1798.69" gradientUnits="userSpaceOnUse">
<stop offset="0.0326" stop-color="#FF299E"/>
<stop offset="0.2705" stop-color="#FF9190"/>
<stop offset="0.3399" stop-color="#FFA378"/>
<stop offset="0.4488" stop-color="#FFBD55"/>
<stop offset="0.5096" stop-color="#F7C05D"/>
<stop offset="0.6043" stop-color="#E1C872"/>
<stop offset="0.7205" stop-color="#BDD495"/>
<stop offset="0.777" stop-color="#A9DBA9"/>
<stop offset="0.9212" stop-color="#57F3D8"/>
<stop offset="1" stop-color="#2FFFEF"/>
</linearGradient>
<linearGradient id="paint12_linear_108_6408" x1="533.535" y1="1175.95" x2="1524.22" y2="1771.39" gradientUnits="userSpaceOnUse">
<stop offset="0.0326" stop-color="#FF299E"/>
<stop offset="0.2705" stop-color="#FF9190"/>
<stop offset="0.3399" stop-color="#FFA378"/>
<stop offset="0.4488" stop-color="#FFBD55"/>
<stop offset="0.5096" stop-color="#F7C05D"/>
<stop offset="0.6043" stop-color="#E1C872"/>
<stop offset="0.7205" stop-color="#BDD495"/>
<stop offset="0.777" stop-color="#A9DBA9"/>
<stop offset="0.9212" stop-color="#57F3D8"/>
<stop offset="1" stop-color="#2FFFEF"/>
</linearGradient>
<linearGradient id="paint13_linear_108_6408" x1="506.941" y1="1197.58" x2="1540.98" y2="1745.16" gradientUnits="userSpaceOnUse">
<stop offset="0.0326" stop-color="#FF299E"/>
<stop offset="0.2705" stop-color="#FF9190"/>
<stop offset="0.3399" stop-color="#FFA378"/>
<stop offset="0.4488" stop-color="#FFBD55"/>
<stop offset="0.5096" stop-color="#F7C05D"/>
<stop offset="0.6043" stop-color="#E1C872"/>
<stop offset="0.7205" stop-color="#BDD495"/>
<stop offset="0.777" stop-color="#A9DBA9"/>
<stop offset="0.9212" stop-color="#57F3D8"/>
<stop offset="1" stop-color="#2FFFEF"/>
</linearGradient>
<linearGradient id="paint14_linear_108_6408" x1="481.078" y1="1218.14" x2="1558.67" y2="1717.77" gradientUnits="userSpaceOnUse">
<stop offset="0.0326" stop-color="#FF299E"/>
<stop offset="0.2705" stop-color="#FF9190"/>
<stop offset="0.3399" stop-color="#FFA378"/>
<stop offset="0.4488" stop-color="#FFBD55"/>
<stop offset="0.5096" stop-color="#F7C05D"/>
<stop offset="0.6043" stop-color="#E1C872"/>
<stop offset="0.7205" stop-color="#BDD495"/>
<stop offset="0.777" stop-color="#A9DBA9"/>
<stop offset="0.9212" stop-color="#57F3D8"/>
<stop offset="1" stop-color="#2FFFEF"/>
</linearGradient>
<linearGradient id="paint15_linear_108_6408" x1="455.422" y1="1238.98" x2="1576.83" y2="1690.78" gradientUnits="userSpaceOnUse">
<stop offset="0.0326" stop-color="#FF299E"/>
<stop offset="0.2705" stop-color="#FF9190"/>
<stop offset="0.3399" stop-color="#FFA378"/>
<stop offset="0.4488" stop-color="#FFBD55"/>
<stop offset="0.5096" stop-color="#F7C05D"/>
<stop offset="0.6043" stop-color="#E1C872"/>
<stop offset="0.7205" stop-color="#BDD495"/>
<stop offset="0.777" stop-color="#A9DBA9"/>
<stop offset="0.9212" stop-color="#57F3D8"/>
<stop offset="1" stop-color="#2FFFEF"/>
</linearGradient>
<linearGradient id="paint16_linear_108_6408" x1="428.813" y1="1260.13" x2="1593.58" y2="1664.05" gradientUnits="userSpaceOnUse">
<stop offset="0.0326" stop-color="#FF299E"/>
<stop offset="0.2705" stop-color="#FF9190"/>
<stop offset="0.3399" stop-color="#FFA378"/>
<stop offset="0.4488" stop-color="#FFBD55"/>
<stop offset="0.5096" stop-color="#F7C05D"/>
<stop offset="0.6043" stop-color="#E1C872"/>
<stop offset="0.7205" stop-color="#BDD495"/>
<stop offset="0.777" stop-color="#A9DBA9"/>
<stop offset="0.9212" stop-color="#57F3D8"/>
<stop offset="1" stop-color="#2FFFEF"/>
</linearGradient>
<linearGradient id="paint17_linear_108_6408" x1="403.178" y1="1281.28" x2="1611.6" y2="1637.36" gradientUnits="userSpaceOnUse">
<stop offset="0.0326" stop-color="#FF299E"/>
<stop offset="0.2705" stop-color="#FF9190"/>
<stop offset="0.3399" stop-color="#FFA378"/>
<stop offset="0.4488" stop-color="#FFBD55"/>
<stop offset="0.5096" stop-color="#F7C05D"/>
<stop offset="0.6043" stop-color="#E1C872"/>
<stop offset="0.7205" stop-color="#BDD495"/>
<stop offset="0.777" stop-color="#A9DBA9"/>
<stop offset="0.9212" stop-color="#57F3D8"/>
<stop offset="1" stop-color="#2FFFEF"/>
</linearGradient>
<linearGradient id="paint18_linear_108_6408" x1="376.784" y1="1302.26" x2="1628.79" y2="1610.44" gradientUnits="userSpaceOnUse">
<stop offset="0.0326" stop-color="#FF299E"/>
<stop offset="0.2705" stop-color="#FF9190"/>
<stop offset="0.3399" stop-color="#FFA378"/>
<stop offset="0.4488" stop-color="#FFBD55"/>
<stop offset="0.5096" stop-color="#F7C05D"/>
<stop offset="0.6043" stop-color="#E1C872"/>
<stop offset="0.7205" stop-color="#BDD495"/>
<stop offset="0.777" stop-color="#A9DBA9"/>
<stop offset="0.9212" stop-color="#57F3D8"/>
<stop offset="1" stop-color="#2FFFEF"/>
</linearGradient>
<linearGradient id="paint19_linear_108_6408" x1="350.1" y1="1322.91" x2="1645.84" y2="1583.18" gradientUnits="userSpaceOnUse">
<stop offset="0.0326" stop-color="#FF299E"/>
<stop offset="0.2705" stop-color="#FF9190"/>
<stop offset="0.3399" stop-color="#FFA378"/>
<stop offset="0.4488" stop-color="#FFBD55"/>
<stop offset="0.5096" stop-color="#F7C05D"/>
<stop offset="0.6043" stop-color="#E1C872"/>
<stop offset="0.7205" stop-color="#BDD495"/>
<stop offset="0.777" stop-color="#A9DBA9"/>
<stop offset="0.9212" stop-color="#57F3D8"/>
<stop offset="1" stop-color="#2FFFEF"/>
</linearGradient>
</defs>
</svg>
