<svg width="112" height="65" viewBox="0 0 112 65" fill="none" xmlns="http://www.w3.org/2000/svg">
<g clip-path="url(#clip0_4_8669)">
<path d="M0 0.805664V28.866H14.692C20.4746 28.866 25.8185 26.8365 25.8185 20.8748C25.8185 16.8445 22.9151 15.0047 19.7217 14.0417C21.6673 13.2613 23.8745 11.6217 23.8745 8.18474C23.8745 3.78575 19.5097 0.805664 13.6331 0.805664H0ZM9.00049 7.34095H12.3095C13.6565 7.34095 14.6837 8.39609 14.6837 9.46698C14.6837 10.4619 13.6164 11.5268 12.3095 11.5268H9.00049V7.34095ZM9.00049 17.3507H13.3684C14.8932 17.3507 16.1728 18.5088 16.1728 19.8324C16.1728 21.238 14.976 22.4052 13.1037 22.4052H9.00049V17.3507Z" fill="#1C252C"/>
<path d="M7.2793 31.9268V59.9871H21.9713C27.754 59.9871 33.0978 57.9576 33.0978 51.9959C33.0978 47.9656 30.1944 46.1258 27.001 45.1628C28.9466 44.3823 31.1538 42.7428 31.1538 39.3058C31.1538 34.9068 26.789 31.9268 20.9124 31.9268H7.2793ZM16.2798 38.462H19.5888C20.9358 38.462 21.963 39.5172 21.963 40.5881C21.963 41.583 20.8957 42.6479 19.5888 42.6479H16.2798V38.462ZM16.2798 48.4718H20.6477C22.1725 48.4718 23.4521 49.6299 23.4521 50.9535C23.4521 52.3591 22.2553 53.5263 20.383 53.5263H16.2798V48.4718Z" fill="#1C252C"/>
<path d="M26.5254 28.8621V0.801758H49.159V7.5786H35.4994V11.2582H46.5912V17.6115H35.4994V22.1117H49.159V28.8621H26.5254Z" fill="#1C252C"/>
<path d="M61.4187 29.6655C67.7896 29.6655 72.8855 26.0314 72.8855 20.1424C72.8855 10.6384 60.5216 12.1009 60.5216 9.14174C60.5216 7.9987 61.7236 7.39212 62.9564 7.39212C65.081 7.39212 66.616 8.79181 66.616 8.79181L71.9353 3.72699C69.8077 1.70226 66.4476 0 61.9212 0C55.1233 0 50.6759 4.03469 50.6759 8.90171C50.6759 18.5267 62.8617 17.1297 62.8617 20.1497C62.8617 21.2084 61.8432 22.2734 59.9959 22.2734C57.8986 22.2734 56.2372 21.0073 54.9442 19.9331L49.5938 25.0341C51.7482 27.1326 55.207 29.6655 61.4187 29.6655Z" fill="#1C252C"/>
<path d="M79.8126 28.8621V7.55213H72.4004V0.801758H96.2252V7.55213H88.8131V28.8621H79.8126Z" fill="#1C252C"/>
<path d="M33.4082 31.9062H42.3822V48.716C42.3822 50.423 44.0811 51.996 45.8523 51.996C47.5231 51.996 49.212 50.5755 49.212 48.6262V31.9062H58.1596V48.5119C58.1596 55.1011 52.6889 60.3571 45.6151 60.3571C38.5011 60.3571 33.4082 54.6369 33.4082 48.1528V31.9062Z" fill="#1C252C"/>
<path d="M69.2253 59.9666V49.9398L58.6777 31.9062H67.7574L73.7256 41.5685L79.7144 31.9062H88.8146L78.2258 50.0429V59.9666H69.2253Z" fill="#1C252C"/>
<path d="M88.8139 47.2637L83.5195 52.5581V59.7055L88.8139 64.9999H111.209V47.2637H88.8139Z" fill="#FFED31"/>
<path d="M87.945 56.1287C87.945 56.7866 87.4116 57.32 86.7537 57.32C86.0958 57.32 85.5625 56.7866 85.5625 56.1287C85.5625 55.4708 86.0958 54.9375 86.7537 54.9375C87.4116 54.9375 87.945 55.4708 87.945 56.1287Z" fill="#1C252C"/>
</g>
<defs>
<clipPath id="clip0_4_8669">
<rect width="111.209" height="65" fill="white"/>
</clipPath>
</defs>
</svg>
