<svg width="2218" height="2145" viewBox="0 0 2218 2145" fill="none" xmlns="http://www.w3.org/2000/svg">
<g opacity="0.3">
<path d="M2184.42 1331.28C2202.43 1082.13 1778.53 848.457 1237.6 809.354C696.679 770.252 243.573 940.529 225.562 1189.68C207.552 1438.83 631.457 1672.5 1172.38 1711.61C1713.31 1750.71 2166.41 1580.43 2184.42 1331.28Z" stroke="url(#paint0_linear_56_7563)" stroke-width="5.23572" stroke-miterlimit="10"/>
<path d="M2148.27 1278.69C2155.34 1035.09 1732.25 825.178 1203.29 809.832C674.317 794.486 239.774 979.519 232.707 1223.12C225.64 1466.71 648.725 1676.63 1177.69 1691.98C1706.66 1707.32 2141.2 1522.29 2148.27 1278.69Z" stroke="url(#paint1_linear_56_7563)" stroke-width="5.23572" stroke-miterlimit="10"/>
<path d="M1183.83 1673.6C1700.74 1665.23 2116.66 1465.44 2112.8 1227.37C2108.95 989.293 1686.78 803.085 1169.86 811.46C652.939 819.835 237.021 1019.62 240.879 1257.7C244.736 1495.77 666.908 1681.98 1183.83 1673.6Z" stroke="url(#paint2_linear_56_7563)" stroke-width="5.23572" stroke-miterlimit="10"/>
<path d="M1188.8 1654.82C1693.71 1622.75 2091.04 1408.23 2076.27 1175.68C2061.5 943.139 1640.21 780.627 1135.3 812.702C630.391 844.778 233.055 1059.29 247.828 1291.84C262.601 1524.38 683.888 1686.9 1188.8 1654.82Z" stroke="url(#paint3_linear_56_7563)" stroke-width="5.23572" stroke-miterlimit="10"/>
<path d="M1193.88 1635.25C1686.82 1579.43 2065.59 1350.19 2039.89 1123.22C2014.19 896.254 1593.75 757.504 1100.82 813.316C607.883 869.129 229.112 1098.37 254.811 1325.34C280.509 1552.31 700.945 1691.06 1193.88 1635.25Z" stroke="url(#paint4_linear_56_7563)" stroke-width="5.23572" stroke-miterlimit="10"/>
<path d="M1200.19 1616.56C1681.12 1537.01 2041.29 1292.95 2004.65 1071.46C1968.01 849.957 1548.43 734.887 1067.5 814.441C586.574 893.995 226.405 1138.05 263.045 1359.55C299.685 1581.04 719.258 1696.11 1200.19 1616.56Z" stroke="url(#paint5_linear_56_7563)" stroke-width="5.23572" stroke-miterlimit="10"/>
<path d="M1205.75 1597.49C1674.71 1494.2 2016.32 1235.44 1968.76 1019.52C1921.21 803.601 1502.49 712.297 1033.53 815.587C564.574 918.877 222.962 1177.65 270.518 1393.56C318.075 1609.48 736.792 1700.78 1205.75 1597.49Z" stroke="url(#paint6_linear_56_7563)" stroke-width="5.23572" stroke-miterlimit="10"/>
<path d="M1211.36 1578.95C1668.28 1451.95 1991.28 1178.41 1932.79 967.983C1874.3 757.553 1456.48 689.918 999.553 816.918C542.628 943.918 219.632 1217.46 278.12 1427.89C336.608 1638.32 754.433 1705.95 1211.36 1578.95Z" stroke="url(#paint7_linear_56_7563)" stroke-width="5.23572" stroke-miterlimit="10"/>
<path d="M1216.78 1559.25C1661.66 1408.52 1966.03 1120.26 1896.63 915.404C1827.22 710.551 1410.3 666.682 965.425 817.417C520.545 968.153 216.166 1256.41 285.575 1461.27C354.984 1666.12 771.897 1709.99 1216.78 1559.25Z" stroke="url(#paint8_linear_56_7563)" stroke-width="5.23572" stroke-miterlimit="10"/>
<path d="M1222.21 1540.45C1655.12 1365.97 1940.94 1062.95 1860.6 863.615C1780.27 664.283 1364.2 644.129 931.294 818.599C498.385 993.07 212.567 1296.1 292.902 1495.43C373.237 1694.76 789.303 1714.92 1222.21 1540.45Z" stroke="url(#paint9_linear_56_7563)" stroke-width="5.23572" stroke-miterlimit="10"/>
<path d="M1227.64 1521.59C1648.52 1323.41 1915.72 1005.61 1824.45 811.766C1733.18 617.926 1317.99 621.447 897.102 819.632C476.215 1017.82 209.012 1335.62 300.286 1529.46C391.561 1723.3 806.75 1719.77 1227.64 1521.59Z" stroke="url(#paint10_linear_56_7563)" stroke-width="5.23572" stroke-miterlimit="10"/>
<path d="M1233.41 1502.69C1642.29 1280.77 1890.9 948.223 1788.7 759.911C1686.5 571.598 1272.18 598.835 863.301 820.746C454.418 1042.66 205.803 1375.21 308.005 1563.52C410.206 1751.83 824.523 1724.6 1233.41 1502.69Z" stroke="url(#paint11_linear_56_7563)" stroke-width="5.23572" stroke-miterlimit="10"/>
<path d="M1239.06 1483.31C1635.93 1237.66 1865.97 890.376 1752.86 707.635C1639.75 524.894 1226.33 575.892 829.453 821.541C432.577 1067.19 202.539 1414.47 315.648 1597.21C428.757 1779.95 842.181 1728.95 1239.06 1483.31Z" stroke="url(#paint12_linear_56_7563)" stroke-width="5.23572" stroke-miterlimit="10"/>
<path d="M1244.75 1464.66C1629.66 1195.27 1841.15 833.238 1717.12 656.028C1593.1 478.818 1180.53 553.539 795.622 822.923C410.714 1092.31 199.226 1454.34 323.25 1631.55C447.273 1808.76 859.842 1734.04 1244.75 1464.66Z" stroke="url(#paint13_linear_56_7563)" stroke-width="5.23572" stroke-miterlimit="10"/>
<path d="M1250.36 1445.44C1623.26 1152.32 1816.14 775.498 1681.16 603.79C1546.19 432.083 1134.48 530.508 761.579 823.63C388.679 1116.75 195.8 1493.57 330.773 1665.28C465.745 1836.99 877.457 1738.56 1250.36 1445.44Z" stroke="url(#paint14_linear_56_7563)" stroke-width="5.23572" stroke-miterlimit="10"/>
<path d="M1255.35 1427.03C1616.27 1110.2 1790.62 718.661 1644.76 552.511C1498.91 386.361 1088.09 508.513 727.168 825.345C366.248 1142.18 191.902 1533.71 337.756 1699.86C483.61 1866.01 894.432 1743.86 1255.35 1427.03Z" stroke="url(#paint15_linear_56_7563)" stroke-width="5.23572" stroke-miterlimit="10"/>
<path d="M1261.08 1407.66C1609.96 1067.12 1765.7 660.861 1608.93 500.256C1452.16 339.65 1042.26 485.519 693.376 826.062C344.496 1166.6 188.758 1572.86 345.526 1733.47C502.293 1894.08 912.201 1748.21 1261.08 1407.66Z" stroke="url(#paint16_linear_56_7563)" stroke-width="5.23572" stroke-miterlimit="10"/>
<path d="M1267.18 1388.67C1604.09 1024.37 1741.25 603.311 1573.53 448.206C1405.82 293.1 996.739 462.684 659.831 826.981C322.922 1191.28 185.764 1612.34 353.479 1767.44C521.193 1922.55 930.271 1752.97 1267.18 1388.67Z" stroke="url(#paint17_linear_56_7563)" stroke-width="5.23572" stroke-miterlimit="10"/>
<path d="M1272.12 1369.79C1597.02 981.791 1715.62 546.021 1537.02 396.475C1358.43 246.929 950.271 440.236 625.375 828.238C300.48 1216.24 181.878 1652.01 360.472 1801.56C539.065 1951.1 947.224 1757.8 1272.12 1369.79Z" stroke="url(#paint18_linear_56_7563)" stroke-width="5.23572" stroke-miterlimit="10"/>
<path d="M1278.12 1351.08C1591.02 939.351 1691.05 488.822 1501.54 344.792C1312.02 200.763 904.726 417.775 591.82 829.502C278.913 1241.23 178.886 1691.76 368.402 1835.79C557.918 1979.82 965.211 1762.81 1278.12 1351.08Z" stroke="url(#paint19_linear_56_7563)" stroke-width="5.23572" stroke-miterlimit="10"/>
<path d="M1283.38 1332.15C1584.26 896.732 1665.69 431.483 1465.26 292.983C1264.84 154.484 858.447 395.183 557.567 830.599C256.687 1266.01 175.254 1731.27 375.682 1869.76C576.11 2008.26 982.5 1767.56 1283.38 1332.15Z" stroke="url(#paint20_linear_56_7563)" stroke-width="5.23572" stroke-miterlimit="10"/>
<path d="M1288.48 1312.94C1577.35 853.781 1640.18 373.761 1428.81 240.781C1217.44 107.801 811.918 372.219 523.047 831.375C234.176 1290.53 171.348 1770.55 382.717 1903.53C594.086 2036.51 999.61 1772.09 1288.48 1312.94Z" stroke="url(#paint21_linear_56_7563)" stroke-width="5.23572" stroke-miterlimit="10"/>
</g>
<defs>
<linearGradient id="paint0_linear_56_7563" x1="259.691" y1="1386.8" x2="1004.33" y2="252.39" gradientUnits="userSpaceOnUse">
<stop offset="0.0326" stop-color="#FF299E"/>
<stop offset="0.2705" stop-color="#FF9190"/>
<stop offset="0.3399" stop-color="#FFA378"/>
<stop offset="0.4488" stop-color="#FFBD55"/>
<stop offset="0.5096" stop-color="#F7C05D"/>
<stop offset="0.6043" stop-color="#E1C872"/>
<stop offset="0.7205" stop-color="#BDD495"/>
<stop offset="0.777" stop-color="#A9DBA9"/>
<stop offset="0.9212" stop-color="#57F3D8"/>
<stop offset="1" stop-color="#2FFFEF"/>
</linearGradient>
<linearGradient id="paint1_linear_56_7563" x1="274.278" y1="1413.81" x2="952.244" y2="276.685" gradientUnits="userSpaceOnUse">
<stop offset="0.0326" stop-color="#FF299E"/>
<stop offset="0.2705" stop-color="#FF9190"/>
<stop offset="0.3399" stop-color="#FFA378"/>
<stop offset="0.4488" stop-color="#FFBD55"/>
<stop offset="0.5096" stop-color="#F7C05D"/>
<stop offset="0.6043" stop-color="#E1C872"/>
<stop offset="0.7205" stop-color="#BDD495"/>
<stop offset="0.777" stop-color="#A9DBA9"/>
<stop offset="0.9212" stop-color="#57F3D8"/>
<stop offset="1" stop-color="#2FFFEF"/>
</linearGradient>
<linearGradient id="paint2_linear_56_7563" x1="768.449" y1="839.151" x2="1192.2" y2="1901" gradientUnits="userSpaceOnUse">
<stop offset="0.0326" stop-color="#FF299E"/>
<stop offset="0.2705" stop-color="#FF9190"/>
<stop offset="0.3399" stop-color="#FFA378"/>
<stop offset="0.4488" stop-color="#FFBD55"/>
<stop offset="0.5096" stop-color="#F7C05D"/>
<stop offset="0.6043" stop-color="#E1C872"/>
<stop offset="0.7205" stop-color="#BDD495"/>
<stop offset="0.777" stop-color="#A9DBA9"/>
<stop offset="0.9212" stop-color="#57F3D8"/>
<stop offset="1" stop-color="#2FFFEF"/>
</linearGradient>
<linearGradient id="paint3_linear_56_7563" x1="744.196" y1="858.322" x2="1207.49" y2="1876.72" gradientUnits="userSpaceOnUse">
<stop offset="0.0326" stop-color="#FF299E"/>
<stop offset="0.2705" stop-color="#FF9190"/>
<stop offset="0.3399" stop-color="#FFA378"/>
<stop offset="0.4488" stop-color="#FFBD55"/>
<stop offset="0.5096" stop-color="#F7C05D"/>
<stop offset="0.6043" stop-color="#E1C872"/>
<stop offset="0.7205" stop-color="#BDD495"/>
<stop offset="0.777" stop-color="#A9DBA9"/>
<stop offset="0.9212" stop-color="#57F3D8"/>
<stop offset="1" stop-color="#2FFFEF"/>
</linearGradient>
<linearGradient id="paint4_linear_56_7563" x1="719.992" y1="876.888" x2="1222.73" y2="1851.69" gradientUnits="userSpaceOnUse">
<stop offset="0.0326" stop-color="#FF299E"/>
<stop offset="0.2705" stop-color="#FF9190"/>
<stop offset="0.3399" stop-color="#FFA378"/>
<stop offset="0.4488" stop-color="#FFBD55"/>
<stop offset="0.5096" stop-color="#F7C05D"/>
<stop offset="0.6043" stop-color="#E1C872"/>
<stop offset="0.7205" stop-color="#BDD495"/>
<stop offset="0.777" stop-color="#A9DBA9"/>
<stop offset="0.9212" stop-color="#57F3D8"/>
<stop offset="1" stop-color="#2FFFEF"/>
</linearGradient>
<linearGradient id="paint5_linear_56_7563" x1="696.982" y1="895.978" x2="1239.55" y2="1827.48" gradientUnits="userSpaceOnUse">
<stop offset="0.0326" stop-color="#FF299E"/>
<stop offset="0.2705" stop-color="#FF9190"/>
<stop offset="0.3399" stop-color="#FFA378"/>
<stop offset="0.4488" stop-color="#FFBD55"/>
<stop offset="0.5096" stop-color="#F7C05D"/>
<stop offset="0.6043" stop-color="#E1C872"/>
<stop offset="0.7205" stop-color="#BDD495"/>
<stop offset="0.777" stop-color="#A9DBA9"/>
<stop offset="0.9212" stop-color="#57F3D8"/>
<stop offset="1" stop-color="#2FFFEF"/>
</linearGradient>
<linearGradient id="paint6_linear_56_7563" x1="673.286" y1="915.075" x2="1255.26" y2="1802.98" gradientUnits="userSpaceOnUse">
<stop offset="0.0326" stop-color="#FF299E"/>
<stop offset="0.2705" stop-color="#FF9190"/>
<stop offset="0.3399" stop-color="#FFA378"/>
<stop offset="0.4488" stop-color="#FFBD55"/>
<stop offset="0.5096" stop-color="#F7C05D"/>
<stop offset="0.6043" stop-color="#E1C872"/>
<stop offset="0.7205" stop-color="#BDD495"/>
<stop offset="0.777" stop-color="#A9DBA9"/>
<stop offset="0.9212" stop-color="#57F3D8"/>
<stop offset="1" stop-color="#2FFFEF"/>
</linearGradient>
<linearGradient id="paint7_linear_56_7563" x1="649.632" y1="934.346" x2="1271.35" y2="1778.89" gradientUnits="userSpaceOnUse">
<stop offset="0.0326" stop-color="#FF299E"/>
<stop offset="0.2705" stop-color="#FF9190"/>
<stop offset="0.3399" stop-color="#FFA378"/>
<stop offset="0.4488" stop-color="#FFBD55"/>
<stop offset="0.5096" stop-color="#F7C05D"/>
<stop offset="0.6043" stop-color="#E1C872"/>
<stop offset="0.7205" stop-color="#BDD495"/>
<stop offset="0.777" stop-color="#A9DBA9"/>
<stop offset="0.9212" stop-color="#57F3D8"/>
<stop offset="1" stop-color="#2FFFEF"/>
</linearGradient>
<linearGradient id="paint8_linear_56_7563" x1="625.837" y1="952.796" x2="1287.01" y2="1753.71" gradientUnits="userSpaceOnUse">
<stop offset="0.0326" stop-color="#FF299E"/>
<stop offset="0.2705" stop-color="#FF9190"/>
<stop offset="0.3399" stop-color="#FFA378"/>
<stop offset="0.4488" stop-color="#FFBD55"/>
<stop offset="0.5096" stop-color="#F7C05D"/>
<stop offset="0.6043" stop-color="#E1C872"/>
<stop offset="0.7205" stop-color="#BDD495"/>
<stop offset="0.777" stop-color="#A9DBA9"/>
<stop offset="0.9212" stop-color="#57F3D8"/>
<stop offset="1" stop-color="#2FFFEF"/>
</linearGradient>
<linearGradient id="paint9_linear_56_7563" x1="601.982" y1="971.934" x2="1302.77" y2="1729.44" gradientUnits="userSpaceOnUse">
<stop offset="0.0326" stop-color="#FF299E"/>
<stop offset="0.2705" stop-color="#FF9190"/>
<stop offset="0.3399" stop-color="#FFA378"/>
<stop offset="0.4488" stop-color="#FFBD55"/>
<stop offset="0.5096" stop-color="#F7C05D"/>
<stop offset="0.6043" stop-color="#E1C872"/>
<stop offset="0.7205" stop-color="#BDD495"/>
<stop offset="0.777" stop-color="#A9DBA9"/>
<stop offset="0.9212" stop-color="#57F3D8"/>
<stop offset="1" stop-color="#2FFFEF"/>
</linearGradient>
<linearGradient id="paint10_linear_56_7563" x1="578.107" y1="990.908" x2="1318.65" y2="1705.02" gradientUnits="userSpaceOnUse">
<stop offset="0.0326" stop-color="#FF299E"/>
<stop offset="0.2705" stop-color="#FF9190"/>
<stop offset="0.3399" stop-color="#FFA378"/>
<stop offset="0.4488" stop-color="#FFBD55"/>
<stop offset="0.5096" stop-color="#F7C05D"/>
<stop offset="0.6043" stop-color="#E1C872"/>
<stop offset="0.7205" stop-color="#BDD495"/>
<stop offset="0.777" stop-color="#A9DBA9"/>
<stop offset="0.9212" stop-color="#57F3D8"/>
<stop offset="1" stop-color="#2FFFEF"/>
</linearGradient>
<linearGradient id="paint11_linear_56_7563" x1="554.608" y1="1009.97" x2="1334.75" y2="1680.62" gradientUnits="userSpaceOnUse">
<stop offset="0.0326" stop-color="#FF299E"/>
<stop offset="0.2705" stop-color="#FF9190"/>
<stop offset="0.3399" stop-color="#FFA378"/>
<stop offset="0.4488" stop-color="#FFBD55"/>
<stop offset="0.5096" stop-color="#F7C05D"/>
<stop offset="0.6043" stop-color="#E1C872"/>
<stop offset="0.7205" stop-color="#BDD495"/>
<stop offset="0.777" stop-color="#A9DBA9"/>
<stop offset="0.9212" stop-color="#57F3D8"/>
<stop offset="1" stop-color="#2FFFEF"/>
</linearGradient>
<linearGradient id="paint12_linear_56_7563" x1="531.062" y1="1028.72" x2="1350.62" y2="1655.82" gradientUnits="userSpaceOnUse">
<stop offset="0.0326" stop-color="#FF299E"/>
<stop offset="0.2705" stop-color="#FF9190"/>
<stop offset="0.3399" stop-color="#FFA378"/>
<stop offset="0.4488" stop-color="#FFBD55"/>
<stop offset="0.5096" stop-color="#F7C05D"/>
<stop offset="0.6043" stop-color="#E1C872"/>
<stop offset="0.7205" stop-color="#BDD495"/>
<stop offset="0.777" stop-color="#A9DBA9"/>
<stop offset="0.9212" stop-color="#57F3D8"/>
<stop offset="1" stop-color="#2FFFEF"/>
</linearGradient>
<linearGradient id="paint13_linear_56_7563" x1="507.504" y1="1048.06" x2="1366.6" y2="1631.75" gradientUnits="userSpaceOnUse">
<stop offset="0.0326" stop-color="#FF299E"/>
<stop offset="0.2705" stop-color="#FF9190"/>
<stop offset="0.3399" stop-color="#FFA378"/>
<stop offset="0.4488" stop-color="#FFBD55"/>
<stop offset="0.5096" stop-color="#F7C05D"/>
<stop offset="0.6043" stop-color="#E1C872"/>
<stop offset="0.7205" stop-color="#BDD495"/>
<stop offset="0.777" stop-color="#A9DBA9"/>
<stop offset="0.9212" stop-color="#57F3D8"/>
<stop offset="1" stop-color="#2FFFEF"/>
</linearGradient>
<linearGradient id="paint14_linear_56_7563" x1="483.768" y1="1066.72" x2="1382.62" y2="1606.97" gradientUnits="userSpaceOnUse">
<stop offset="0.0326" stop-color="#FF299E"/>
<stop offset="0.2705" stop-color="#FF9190"/>
<stop offset="0.3399" stop-color="#FFA378"/>
<stop offset="0.4488" stop-color="#FFBD55"/>
<stop offset="0.5096" stop-color="#F7C05D"/>
<stop offset="0.6043" stop-color="#E1C872"/>
<stop offset="0.7205" stop-color="#BDD495"/>
<stop offset="0.777" stop-color="#A9DBA9"/>
<stop offset="0.9212" stop-color="#57F3D8"/>
<stop offset="1" stop-color="#2FFFEF"/>
</linearGradient>
<linearGradient id="paint15_linear_56_7563" x1="459.636" y1="1086.37" x2="1397.83" y2="1583.2" gradientUnits="userSpaceOnUse">
<stop offset="0.0326" stop-color="#FF299E"/>
<stop offset="0.2705" stop-color="#FF9190"/>
<stop offset="0.3399" stop-color="#FFA378"/>
<stop offset="0.4488" stop-color="#FFBD55"/>
<stop offset="0.5096" stop-color="#F7C05D"/>
<stop offset="0.6043" stop-color="#E1C872"/>
<stop offset="0.7205" stop-color="#BDD495"/>
<stop offset="0.777" stop-color="#A9DBA9"/>
<stop offset="0.9212" stop-color="#57F3D8"/>
<stop offset="1" stop-color="#2FFFEF"/>
</linearGradient>
<linearGradient id="paint16_linear_56_7563" x1="436.173" y1="1105.02" x2="1413.89" y2="1558.34" gradientUnits="userSpaceOnUse">
<stop offset="0.0326" stop-color="#FF299E"/>
<stop offset="0.2705" stop-color="#FF9190"/>
<stop offset="0.3399" stop-color="#FFA378"/>
<stop offset="0.4488" stop-color="#FFBD55"/>
<stop offset="0.5096" stop-color="#F7C05D"/>
<stop offset="0.6043" stop-color="#E1C872"/>
<stop offset="0.7205" stop-color="#BDD495"/>
<stop offset="0.777" stop-color="#A9DBA9"/>
<stop offset="0.9212" stop-color="#57F3D8"/>
<stop offset="1" stop-color="#2FFFEF"/>
</linearGradient>
<linearGradient id="paint17_linear_56_7563" x1="412.905" y1="1123.92" x2="1430.37" y2="1533.84" gradientUnits="userSpaceOnUse">
<stop offset="0.0326" stop-color="#FF299E"/>
<stop offset="0.2705" stop-color="#FF9190"/>
<stop offset="0.3399" stop-color="#FFA378"/>
<stop offset="0.4488" stop-color="#FFBD55"/>
<stop offset="0.5096" stop-color="#F7C05D"/>
<stop offset="0.6043" stop-color="#E1C872"/>
<stop offset="0.7205" stop-color="#BDD495"/>
<stop offset="0.777" stop-color="#A9DBA9"/>
<stop offset="0.9212" stop-color="#57F3D8"/>
<stop offset="1" stop-color="#2FFFEF"/>
</linearGradient>
<linearGradient id="paint18_linear_56_7563" x1="388.754" y1="1143.1" x2="1445.56" y2="1509.58" gradientUnits="userSpaceOnUse">
<stop offset="0.0326" stop-color="#FF299E"/>
<stop offset="0.2705" stop-color="#FF9190"/>
<stop offset="0.3399" stop-color="#FFA378"/>
<stop offset="0.4488" stop-color="#FFBD55"/>
<stop offset="0.5096" stop-color="#F7C05D"/>
<stop offset="0.6043" stop-color="#E1C872"/>
<stop offset="0.7205" stop-color="#BDD495"/>
<stop offset="0.777" stop-color="#A9DBA9"/>
<stop offset="0.9212" stop-color="#57F3D8"/>
<stop offset="1" stop-color="#2FFFEF"/>
</linearGradient>
<linearGradient id="paint19_linear_56_7563" x1="365.489" y1="1162.31" x2="1461.91" y2="1485.39" gradientUnits="userSpaceOnUse">
<stop offset="0.0326" stop-color="#FF299E"/>
<stop offset="0.2705" stop-color="#FF9190"/>
<stop offset="0.3399" stop-color="#FFA378"/>
<stop offset="0.4488" stop-color="#FFBD55"/>
<stop offset="0.5096" stop-color="#F7C05D"/>
<stop offset="0.6043" stop-color="#E1C872"/>
<stop offset="0.7205" stop-color="#BDD495"/>
<stop offset="0.777" stop-color="#A9DBA9"/>
<stop offset="0.9212" stop-color="#57F3D8"/>
<stop offset="1" stop-color="#2FFFEF"/>
</linearGradient>
<linearGradient id="paint20_linear_56_7563" x1="341.553" y1="1181.33" x2="1477.51" y2="1460.95" gradientUnits="userSpaceOnUse">
<stop offset="0.0326" stop-color="#FF299E"/>
<stop offset="0.2705" stop-color="#FF9190"/>
<stop offset="0.3399" stop-color="#FFA378"/>
<stop offset="0.4488" stop-color="#FFBD55"/>
<stop offset="0.5096" stop-color="#F7C05D"/>
<stop offset="0.6043" stop-color="#E1C872"/>
<stop offset="0.7205" stop-color="#BDD495"/>
<stop offset="0.777" stop-color="#A9DBA9"/>
<stop offset="0.9212" stop-color="#57F3D8"/>
<stop offset="1" stop-color="#2FFFEF"/>
</linearGradient>
<linearGradient id="paint21_linear_56_7563" x1="317.341" y1="1200.06" x2="1492.98" y2="1436.21" gradientUnits="userSpaceOnUse">
<stop offset="0.0326" stop-color="#FF299E"/>
<stop offset="0.2705" stop-color="#FF9190"/>
<stop offset="0.3399" stop-color="#FFA378"/>
<stop offset="0.4488" stop-color="#FFBD55"/>
<stop offset="0.5096" stop-color="#F7C05D"/>
<stop offset="0.6043" stop-color="#E1C872"/>
<stop offset="0.7205" stop-color="#BDD495"/>
<stop offset="0.777" stop-color="#A9DBA9"/>
<stop offset="0.9212" stop-color="#57F3D8"/>
<stop offset="1" stop-color="#2FFFEF"/>
</linearGradient>
</defs>
</svg>
