<svg width="105" height="42" viewBox="0 0 105 42" fill="none" xmlns="http://www.w3.org/2000/svg">
<g clip-path="url(#clip0_4_8680)">
<path d="M13.5669 9.18359C6.1858 9.18359 0.0351562 12.315 0.0351562 21.7624C0.0351562 29.2467 4.17102 33.96 13.7575 33.96C25.0411 33.96 25.7645 26.5271 25.7645 26.5271H20.297C20.297 26.5271 19.1247 30.5294 13.4239 30.5294C8.78079 30.5294 5.44127 27.3928 5.44127 22.9964H26.3362V20.2377C26.3362 15.8883 23.5752 9.18359 13.5669 9.18359ZM13.3763 12.7095C17.7961 12.7095 20.8092 15.4171 20.8092 19.4753H5.56219C5.56219 15.167 9.49509 12.7095 13.3763 12.7095Z" fill="#E53238"/>
<path d="M26.3331 0.0351562V29.2153C26.3331 30.8717 26.2148 33.1974 26.2148 33.1974H31.4297C31.4297 33.1974 31.6168 31.527 31.6168 30.0005C31.6168 30.0005 34.1933 34.0312 41.1989 34.0312C48.576 34.0312 53.5871 28.9095 53.5871 21.5715C53.5871 14.7452 48.9843 9.25482 41.2108 9.25482C33.9315 9.25482 31.6695 13.1857 31.6695 13.1857V0.0351562H26.3331ZM39.8648 12.8641C44.8744 12.8641 48.06 16.5821 48.06 21.5715C48.06 26.9218 44.3808 30.4219 39.9005 30.4219C34.5537 30.4219 31.6695 26.2472 31.6695 21.6192C31.6695 17.3068 34.2576 12.8641 39.8648 12.8641Z" fill="#0064D2"/>
<path d="M66.5454 9.18359C55.4411 9.18359 54.729 15.2637 54.729 16.2353H60.256C60.256 16.2353 60.5458 12.6856 66.1642 12.6856C69.8151 12.6856 72.6442 14.3567 72.6442 17.5694V18.713H66.1642C57.5616 18.713 53.0137 21.2296 53.0137 26.3365C53.0137 31.3624 57.2158 34.0969 62.8944 34.0969C70.6336 34.0969 73.1266 29.8206 73.1266 29.8206C73.1266 31.5215 73.2577 33.1976 73.2577 33.1976H78.1712C78.1712 33.1976 77.9806 31.12 77.9806 29.7909V18.302C77.9806 10.7689 71.9044 9.18359 66.5454 9.18359ZM72.6442 22.1435V23.6682C72.6442 25.6569 71.4171 30.6009 64.1928 30.6009C60.2368 30.6009 58.5407 28.6265 58.5407 26.3365C58.5407 22.1704 64.2526 22.1435 72.6442 22.1435Z" fill="#F5AF02"/>
<path d="M75.0059 10.1367H81.2238L90.1474 28.0145L99.0505 10.1367H104.683L88.4661 41.9648H82.5579L87.2375 33.0923L75.0059 10.1367Z" fill="#86B817"/>
</g>
<defs>
<clipPath id="clip0_4_8680">
<rect width="104.717" height="42" fill="white"/>
</clipPath>
</defs>
</svg>
