<svg width="2408" height="2416" viewBox="0 0 2408 2416" fill="none" xmlns="http://www.w3.org/2000/svg">
<path d="M1464.29 1860.41C1464 1860.38 1463.72 1860.3 1463.44 1860.18L539.613 1433.84C538.966 1433.54 538.486 1433.01 538.235 1432.36C537.984 1431.71 538.029 1430.99 538.308 1430.34L941.64 556.343C942.249 555.025 943.801 554.45 945.142 555.062L1868.97 981.401C1869.62 981.704 1870.1 982.233 1870.35 982.885C1870.6 983.536 1870.55 984.256 1870.27 984.905L1466.94 1858.88C1466.46 1859.91 1465.39 1860.51 1464.29 1860.41ZM544.215 1430.16L1463.26 1854.27L1864.39 985.065L945.35 560.947L544.215 1430.16Z" fill="#0A0A0A"/>
<path d="M1448.8 1889.45C1448.47 1889.42 1448.16 1889.34 1447.86 1889.17L511.377 1416.7C510.756 1416.37 510.276 1415.84 510.051 1415.17C509.826 1414.5 509.895 1413.78 510.196 1413.16L957.206 527.206C957.86 525.918 959.455 525.395 960.744 526.05L1897.23 998.548C1898.52 999.202 1899.04 1000.8 1898.39 1002.09L1451.4 1888.01C1451.1 1888.64 1450.52 1889.11 1449.87 1889.34C1449.53 1889.45 1449.16 1889.49 1448.8 1889.45ZM516.108 1413.17L1447.87 1883.28L1892.5 1002.03L960.734 531.938L516.108 1413.17Z" fill="#0A0A0A"/>
<path d="M1431.76 1918.84C1431.43 1918.8 1431.08 1918.7 1430.76 1918.52L482.9 1398.03C482.282 1397.69 481.828 1397.13 481.627 1396.46C481.425 1395.79 481.518 1395.08 481.843 1394.46L974.276 497.733C974.625 497.115 975.175 496.661 975.846 496.46C976.518 496.259 977.233 496.352 977.853 496.677L1925.71 1017.19C1926.99 1017.89 1927.44 1019.5 1926.74 1020.76L1434.33 1917.49C1433.8 1918.45 1432.79 1918.94 1431.76 1918.84ZM487.735 1394.68L1430.96 1912.65L1920.87 1020.54L977.626 502.569L487.735 1394.68Z" fill="#0A0A0A"/>
<path d="M1413.18 1948.5C1412.8 1948.47 1412.42 1948.33 1412.08 1948.16L454.237 1377.78C452.982 1377.03 452.581 1375.43 453.329 1374.17L992.94 468C993.287 467.406 993.885 466.957 994.551 466.803C995.22 466.626 995.957 466.745 996.551 467.092L1954.39 1037.47C1955.65 1038.21 1956.05 1039.82 1955.3 1041.08L1415.69 1947.22C1415.34 1947.82 1414.75 1948.27 1414.08 1948.42C1413.78 1948.51 1413.47 1948.53 1413.18 1948.5ZM459.202 1374.59L1412.52 1942.26L1949.43 1040.61L996.108 472.963L459.202 1374.59Z" fill="#0A0A0A"/>
<path d="M1392.95 1978.4C1392.55 1978.36 1392.15 1978.23 1391.79 1978L425.42 1355.88C424.828 1355.51 424.426 1354.91 424.275 1354.22C424.124 1353.53 424.265 1352.82 424.635 1352.23L1013.2 438.013C1013.57 437.421 1014.16 437.019 1014.85 436.868C1015.54 436.717 1016.25 436.858 1016.84 437.229L1983.19 1059.35C1984.41 1060.14 1984.76 1061.77 1983.97 1063L1395.41 1977.21C1394.87 1978.08 1393.89 1978.49 1392.95 1978.4ZM430.488 1352.86L1392.4 1972.12L1978.1 1062.34L1016.19 443.079L430.488 1352.86Z" fill="#0A0A0A"/>
<path d="M1371.02 2008.47C1370.57 2008.42 1370.15 2008.26 1369.76 2008.01L396.548 1332.27C395.35 1331.43 395.049 1329.79 395.886 1328.61L1035.16 407.871C1035.55 407.305 1036.17 406.906 1036.86 406.778C1037.55 406.651 1038.25 406.816 1038.82 407.208L2012.08 1082.95C2013.28 1083.79 2013.58 1085.44 2012.75 1086.61L1373.45 2007.35C1373.06 2007.91 1372.44 2008.31 1371.75 2008.44C1371.5 2008.49 1371.26 2008.49 1371.02 2008.47ZM401.718 1329.46L1370.61 2002.18L2006.89 1085.76L1037.99 413.043L401.718 1329.46Z" fill="#0A0A0A"/>
<path d="M1347.37 2038.66C1346.91 2038.62 1346.45 2038.45 1346.04 2038.15L367.627 1306.93C367.063 1306.51 366.688 1305.9 366.587 1305.19C366.484 1304.5 366.672 1303.79 367.089 1303.23L1058.87 377.586C1059.76 376.416 1061.4 376.187 1062.57 377.048L2040.98 1108.27C2042.16 1109.13 2042.38 1110.79 2041.52 1111.97L1349.74 2037.61C1349.15 2038.4 1348.25 2038.75 1347.37 2038.66ZM372.902 1304.27L1347.11 2032.34L2035.71 1110.95L1061.53 382.862L372.902 1304.27Z" fill="#0A0A0A"/>
<path d="M1321.92 2068.93C1321.41 2068.88 1320.93 2068.69 1320.52 2068.36L338.757 1279.78C338.22 1279.34 337.87 1278.7 337.791 1278.02C337.714 1277.31 337.924 1276.63 338.365 1276.07L1084.42 347.285C1085.33 346.141 1087.01 345.964 1088.13 346.868L2069.9 1135.45C2070.43 1135.89 2070.78 1136.52 2070.86 1137.21C2070.94 1137.91 2070.73 1138.59 2070.29 1139.16L1324.21 2067.96C1323.63 2068.68 1322.75 2069.01 1321.92 2068.93ZM344.11 1277.32L1321.75 2062.61L2064.5 1137.9L1086.85 352.635L344.11 1277.32Z" fill="#0A0A0A"/>
<path d="M1294.59 2099.18C1294.06 2099.13 1293.53 2098.91 1293.13 2098.56L309.972 1250.75C309.437 1250.29 309.112 1249.66 309.059 1248.95C309.006 1248.25 309.24 1247.57 309.701 1247.03L1111.76 316.937C1112.71 315.846 1114.39 315.717 1115.48 316.667L2098.64 1164.47C2099.17 1164.93 2099.5 1165.57 2099.55 1166.27C2099.6 1166.98 2099.37 1167.65 2098.91 1168.19L1296.84 2098.29C1296.38 2098.82 1295.75 2099.15 1295.04 2099.2C1294.87 2099.21 1294.73 2099.19 1294.59 2099.18ZM315.428 1248.48L1294.57 2092.85L2093.2 1166.75L1114.04 322.37L315.428 1248.48Z" fill="#0A0A0A"/>
<path d="M1265.35 2129.39C1264.78 2129.34 1264.25 2129.09 1263.82 2128.71L281.394 1219.82C280.885 1219.33 280.586 1218.68 280.557 1217.98C280.528 1217.27 280.786 1216.6 281.245 1216.09L1141.08 286.659C1142.07 285.596 1143.74 285.515 1144.81 286.51L2127.22 1195.38C2128.28 1196.38 2128.36 1198.05 2127.36 1199.11L1267.53 2128.54C1267.05 2129.05 1266.39 2129.35 1265.69 2129.38C1265.59 2129.39 1265.47 2129.4 1265.35 2129.39ZM286.903 1217.74L1265.46 2123.03L2121.7 1197.48L1143.15 292.193L286.903 1217.74Z" fill="#0A0A0A"/>
<path d="M1234.13 2159.44C1233.53 2159.38 1232.96 2159.11 1232.54 2158.68L253.052 1186.92C252.015 1185.91 252.008 1184.22 253.047 1183.21L1172.37 256.57C1172.85 256.085 1173.54 255.788 1174.24 255.783C1174.94 255.778 1175.61 256.059 1176.09 256.54L2155.58 1228.3C2156.62 1229.32 2156.62 1231.01 2155.58 1232.02L1236.25 2158.68C1235.77 2159.19 1235.09 2159.46 1234.39 2159.46C1234.3 2159.45 1234.23 2159.45 1234.13 2159.44ZM258.615 1185.04L1234.35 2153.09L2149.97 1230.17L1174.23 262.13L258.615 1185.04Z" fill="#0A0A0A"/>
<path d="M1200.9 2189.27C1200.26 2189.21 1199.68 2188.91 1199.24 2188.46L225.022 1152.04C224.014 1150.97 224.077 1149.31 225.139 1148.31L1205.66 226.65C1206.16 226.168 1206.84 225.919 1207.54 225.938C1208.21 225.954 1208.91 226.262 1209.39 226.767L2183.59 1263.19C2184.07 1263.69 2184.32 1264.37 2184.3 1265.07C2184.28 1265.77 2183.97 1266.44 2183.47 1266.92L1202.95 2188.57C1202.44 2189.06 1201.77 2189.31 1201.07 2189.29C1201 2189.28 1200.95 2189.28 1200.9 2189.27ZM230.665 1150.33L1201.25 2182.93L2177.92 1264.89L1207.34 232.291L230.665 1150.33Z" fill="#0A0A0A"/>
<path d="M1165.58 2218.83C1164.91 2218.76 1164.29 2218.44 1163.85 2217.94L197.41 1115.06C196.454 1113.96 196.565 1112.3 197.646 1111.34L1241.04 197.025C1241.57 196.569 1242.24 196.32 1242.96 196.389C1243.71 196.412 1244.3 196.759 1244.78 197.287L2211.2 1300.16C2211.65 1300.69 2211.9 1301.39 2211.86 1302.08C2211.82 1302.78 2211.49 1303.42 2210.96 1303.9L1167.57 2218.2C1167.04 2218.65 1166.37 2218.9 1165.65 2218.83C1165.62 2218.83 1165.6 2218.83 1165.58 2218.83ZM203.106 1113.56L1166.06 2212.48L2205.48 1301.66L1242.54 202.745L203.106 1113.56Z" fill="#0A0A0A"/>
<path d="M1128.11 2248.01C1127.48 2248.05 1126.78 2247.59 1126.32 2247.04L170.291 1075.96C169.361 1074.83 169.546 1073.16 170.671 1072.26L1278.58 167.802C1279.13 167.348 1279.63 167.154 1280.52 167.215C1281.21 167.282 1281.85 167.633 1282.28 168.181L2238.32 1339.26C2239.25 1340.39 2239.06 1342.06 2237.94 1342.97L1130.03 2247.42C1129.5 2247.85 1128.81 2248.08 1128.11 2248.01ZM176.038 1074.68L1128.74 2241.67L2232.57 1340.54L1279.86 173.549L176.038 1074.68Z" fill="#0A0A0A"/>
<path d="M1088.47 2276.72C1087.76 2276.65 1087.09 2276.3 1086.62 2275.7L143.764 1034.72C143.334 1034.18 143.161 1033.46 143.252 1032.77C143.342 1032.08 143.717 1031.44 144.263 1031.03L1318.27 139.028C1318.84 138.6 1319.56 138.451 1320.23 138.515C1320.92 138.606 1321.53 138.979 1321.96 139.527L2264.82 1380.47C2265.7 1381.64 2265.47 1383.29 2264.32 1384.17L1090.33 2276.2C1089.79 2276.6 1089.12 2276.78 1088.47 2276.72ZM149.564 1033.64L1089.25 2270.4L2259.07 1381.59L1319.38 144.83L149.564 1033.64Z" fill="#0A0A0A"/>
<path d="M1046.6 2304.87C1045.86 2304.8 1045.14 2304.42 1044.7 2303.77L117.907 991.279C117.504 990.709 117.355 989.995 117.469 989.306C117.584 988.617 117.98 988.003 118.55 987.6L1360.23 110.829C1361.42 109.978 1363.06 110.256 1363.91 111.472L2290.7 1423.97C2291.1 1424.54 2291.25 1425.25 2291.14 1425.94C2291.02 1426.63 2290.62 1427.24 2290.05 1427.65L1048.38 2304.39C1047.84 2304.77 1047.22 2304.93 1046.6 2304.87ZM123.737 990.391L1047.49 2298.56L2284.87 1424.81L1361.11 116.659L123.737 990.391Z" fill="#0A0A0A"/>
</svg>
