<svg width="2567" height="2575" viewBox="0 0 2567 2575" fill="none" xmlns="http://www.w3.org/2000/svg">
<path d="M1560.21 1983.39C1559.91 1983.36 1559.61 1983.28 1559.31 1983.15L574.414 1528.62C573.725 1528.3 573.213 1527.74 572.945 1527.04C572.677 1526.35 572.725 1525.58 573.023 1524.89L1003.02 593.119C1003.67 591.715 1005.32 591.102 1006.75 591.754L1991.65 1046.28C1992.34 1046.6 1992.85 1047.16 1993.12 1047.86C1993.38 1048.55 1993.34 1049.32 1993.04 1050.01L1563.05 1981.76C1562.53 1982.86 1561.39 1983.5 1560.21 1983.39ZM579.321 1524.7L1559.12 1976.85L1986.77 1050.18L1006.97 598.028L579.321 1524.7Z" fill="url(#paint0_linear_54_6615)"/>
<path d="M1543.7 2014.36C1543.35 2014.32 1543.02 2014.24 1542.7 2014.05L544.311 1510.35C543.65 1510 543.138 1509.44 542.898 1508.72C542.658 1508 542.732 1507.24 543.053 1506.57L1019.61 562.057C1020.31 560.683 1022.01 560.126 1023.38 560.824L2021.77 1064.56C2023.15 1065.25 2023.71 1066.95 2023.01 1068.33L1546.48 2012.82C1546.16 2013.48 1545.54 2013.99 1544.85 2014.23C1544.48 2014.35 1544.09 2014.39 1543.7 2014.36ZM549.356 1506.59L1542.72 2007.78L2016.74 1068.27L1023.37 567.102L549.356 1506.59Z" fill="url(#paint1_linear_54_6615)"/>
<path d="M1525.54 2045.68C1525.18 2045.65 1524.81 2045.53 1524.47 2045.35L513.952 1490.45C513.293 1490.08 512.809 1489.49 512.595 1488.78C512.38 1488.06 512.479 1487.3 512.826 1486.64L1037.81 530.636C1038.18 529.976 1038.77 529.492 1039.48 529.278C1040.2 529.064 1040.96 529.163 1041.62 529.509L2052.14 1084.43C2053.51 1085.18 2053.98 1086.9 2053.24 1088.24L1528.28 2044.25C1527.72 2045.27 1526.64 2045.79 1525.54 2045.68ZM519.107 1486.88L1524.68 2039.09L2046.98 1088L1041.38 535.79L519.107 1486.88Z" fill="url(#paint2_linear_54_6615)"/>
<path d="M1505.73 2077.31C1505.32 2077.27 1504.92 2077.13 1504.55 2076.94L483.396 1468.86C482.057 1468.06 481.63 1466.35 482.427 1465.01L1057.71 498.937C1058.08 498.303 1058.72 497.824 1059.43 497.661C1060.14 497.472 1060.93 497.599 1061.56 497.968L2082.72 1106.05C2084.06 1106.84 2084.48 1108.56 2083.69 1109.9L1508.41 2075.94C1508.04 2076.58 1507.4 2077.06 1506.69 2077.22C1506.37 2077.32 1506.03 2077.34 1505.73 2077.31ZM488.689 1465.46L1505.03 2070.65L2077.43 1109.4L1061.09 504.228L488.689 1465.46Z" fill="url(#paint3_linear_54_6615)"/>
<path d="M1484.17 2109.18C1483.73 2109.14 1483.31 2109 1482.92 2108.75L452.673 1445.51C452.042 1445.11 451.614 1444.48 451.453 1443.74C451.292 1443.01 451.442 1442.25 451.837 1441.62L1079.31 466.967C1079.7 466.336 1080.33 465.908 1081.07 465.747C1081.81 465.586 1082.56 465.736 1083.19 466.131L2113.42 1129.38C2114.72 1130.22 2115.1 1131.96 2114.25 1133.27L1486.78 2107.92C1486.21 2108.84 1485.16 2109.28 1484.17 2109.18ZM458.077 1442.29L1483.57 2102.49L2107.99 1132.56L1082.49 472.368L458.077 1442.29Z" fill="url(#paint4_linear_54_6615)"/>
<path d="M1460.79 2141.24C1460.3 2141.19 1459.85 2141.02 1459.44 2140.75L421.893 1420.34C420.615 1419.45 420.295 1417.69 421.187 1416.44L1102.72 434.833C1103.14 434.23 1103.8 433.805 1104.53 433.669C1105.26 433.534 1106.02 433.709 1106.62 434.127L2144.22 1154.54C2145.5 1155.43 2145.82 1157.19 2144.93 1158.44L1463.37 2140.05C1462.95 2140.65 1462.29 2141.07 1461.56 2141.21C1461.3 2141.26 1461.04 2141.26 1460.79 2141.24ZM427.405 1417.35L1460.35 2134.53L2138.69 1157.53L1105.74 440.347L427.405 1417.35Z" fill="url(#paint5_linear_54_6615)"/>
<path d="M1435.57 2173.43C1435.08 2173.38 1434.58 2173.2 1434.15 2172.88L391.059 1393.32C390.459 1392.88 390.059 1392.22 389.951 1391.47C389.841 1390.73 390.042 1389.98 390.486 1389.38L1128 402.546C1128.94 401.298 1130.69 401.054 1131.94 401.972L2175.03 1181.53C2176.28 1182.45 2176.52 1184.22 2175.61 1185.47L1438.09 2172.31C1437.47 2173.15 1436.51 2173.52 1435.57 2173.43ZM396.684 1390.49L1435.29 2166.68L2169.41 1184.39L1130.83 408.17L396.684 1390.49Z" fill="url(#paint6_linear_54_6615)"/>
<path d="M1408.43 2205.69C1407.9 2205.64 1407.38 2205.44 1406.95 2205.09L360.282 1364.38C359.709 1363.91 359.337 1363.23 359.252 1362.5C359.17 1361.75 359.394 1361.02 359.863 1360.42L1155.24 370.241C1156.21 369.021 1158 368.833 1159.19 369.797L2205.86 1210.51C2206.43 1210.97 2206.8 1211.65 2206.89 1212.38C2206.97 1213.13 2206.75 1213.86 2206.28 1214.46L1410.87 2204.66C1410.26 2205.43 1409.33 2205.78 1408.43 2205.69ZM365.988 1361.76L1408.26 2198.96L2200.1 1213.12L1157.83 375.945L365.988 1361.76Z" fill="url(#paint7_linear_54_6615)"/>
<path d="M1379.3 2237.94C1378.74 2237.89 1378.17 2237.66 1377.74 2237.28L329.594 1333.43C329.024 1332.94 328.677 1332.26 328.621 1331.51C328.564 1330.76 328.814 1330.04 329.306 1329.47L1184.39 337.888C1185.4 336.724 1187.19 336.587 1188.35 337.599L2236.5 1241.45C2237.07 1241.94 2237.41 1242.61 2237.47 1243.37C2237.53 1244.12 2237.28 1244.84 2236.79 1245.41L1381.7 2236.99C1381.21 2237.56 1380.53 2237.91 1379.78 2237.96C1379.6 2237.97 1379.45 2237.96 1379.3 2237.94ZM335.411 1331.01L1379.27 2231.2L2230.71 1243.87L1186.82 343.679L335.411 1331.01Z" fill="url(#paint8_linear_54_6615)"/>
<path d="M1348.13 2270.15C1347.52 2270.1 1346.95 2269.84 1346.5 2269.43L299.126 1300.45C298.584 1299.94 298.265 1299.24 298.234 1298.49C298.203 1297.74 298.478 1297.02 298.968 1296.47L1215.64 305.607C1216.7 304.474 1218.48 304.388 1219.62 305.449L2266.97 1274.4C2268.1 1275.46 2268.19 1277.25 2267.12 1278.38L1350.45 2269.25C1349.94 2269.79 1349.24 2270.11 1348.49 2270.14C1348.39 2270.15 1348.26 2270.17 1348.13 2270.15ZM305 1298.24L1348.24 2263.37L2261.09 1276.64L1217.85 311.507L305 1298.24Z" fill="url(#paint9_linear_54_6615)"/>
<path d="M1314.84 2302.19C1314.21 2302.13 1313.59 2301.84 1313.15 2301.38L268.911 1265.39C267.805 1264.3 267.798 1262.5 268.905 1261.42L1249 273.531C1249.52 273.014 1250.24 272.697 1250.99 272.692C1251.74 272.686 1252.45 272.987 1252.97 273.499L2297.2 1309.5C2298.31 1310.58 2298.32 1312.38 2297.21 1313.46L1317.11 2301.38C1316.59 2301.92 1315.87 2302.21 1315.12 2302.22C1315.02 2302.21 1314.95 2302.2 1314.84 2302.19ZM274.842 1263.38L1315.08 2295.42L2291.22 1311.49L1250.98 279.459L274.842 1263.38Z" fill="url(#paint10_linear_54_6615)"/>
<path d="M1279.42 2333.99C1278.73 2333.93 1278.12 2333.61 1277.65 2333.13L239.029 1228.19C237.954 1227.06 238.021 1225.29 239.153 1224.21L1284.49 241.633C1285.03 241.118 1285.75 240.853 1286.49 240.873C1287.21 240.89 1287.95 241.219 1288.47 241.757L2327.06 1346.69C2327.58 1347.23 2327.84 1347.95 2327.82 1348.69C2327.8 1349.44 2327.48 1350.15 2326.94 1350.67L1281.6 2333.25C1281.06 2333.76 1280.34 2334.03 1279.6 2334.01C1279.52 2334 1279.47 2334 1279.42 2333.99ZM245.044 1226.38L1279.78 2327.23L2321.02 1348.5L1286.28 247.646L245.044 1226.38Z" fill="url(#paint11_linear_54_6615)"/>
<path d="M1241.76 2365.5C1241.04 2365.43 1240.38 2365.09 1239.92 2364.55L209.591 1188.77C208.572 1187.59 208.69 1185.83 209.843 1184.81L1322.21 210.049C1322.77 209.563 1323.49 209.297 1324.26 209.371C1325.05 209.396 1325.69 209.765 1326.2 210.329L2356.5 1386.11C2356.99 1386.67 2357.25 1387.42 2357.2 1388.16C2357.16 1388.9 2356.81 1389.59 2356.25 1390.1L1243.88 2364.83C1243.32 2365.32 1242.6 2365.58 1241.83 2365.51C1241.81 2365.51 1241.78 2365.5 1241.76 2365.5ZM215.663 1187.17L1242.28 2358.73L2350.4 1387.71L1323.81 216.147L215.663 1187.17Z" fill="url(#paint12_linear_54_6615)"/>
<path d="M1201.82 2396.61C1201.14 2396.65 1200.39 2396.17 1199.91 2395.58L180.679 1147.09C179.688 1145.89 179.885 1144.1 181.084 1143.14L1362.23 178.894C1362.82 178.41 1363.35 178.203 1364.3 178.269C1365.04 178.34 1365.72 178.714 1366.18 179.298L2385.41 1427.79C2386.4 1428.99 2386.21 1430.78 2385.01 1431.74L1203.86 2395.99C1203.3 2396.45 1202.56 2396.68 1201.82 2396.61ZM186.807 1145.72L1202.49 2389.86L2379.28 1429.16L1363.6 185.021L186.807 1145.72Z" fill="url(#paint13_linear_54_6615)"/>
<path d="M1159.56 2427.22C1158.79 2427.15 1158.08 2426.77 1157.58 2426.13L152.399 1103.12C151.94 1102.54 151.756 1101.78 151.853 1101.04C151.949 1100.3 152.349 1099.62 152.931 1099.19L1404.55 148.217C1405.16 147.761 1405.92 147.602 1406.63 147.671C1407.37 147.767 1408.03 148.165 1408.48 148.749L2413.67 1471.73C2414.6 1472.98 2414.36 1474.73 2413.14 1475.67L1161.54 2426.66C1160.96 2427.1 1160.25 2427.29 1159.56 2427.22ZM158.583 1101.97L1160.39 2420.48L2407.53 1472.92L1405.73 154.403L158.583 1101.97Z" fill="url(#paint14_linear_54_6615)"/>
<path d="M1114.91 2457.24C1114.12 2457.16 1113.36 2456.75 1112.89 2456.06L124.833 1056.81C124.402 1056.2 124.244 1055.44 124.366 1054.7C124.488 1053.97 124.911 1053.32 125.518 1052.88L1449.27 118.156C1450.55 117.248 1452.29 117.545 1453.2 118.841L2441.26 1518.1C2441.69 1518.7 2441.84 1519.47 2441.72 1520.2C2441.6 1520.94 2441.18 1521.59 2440.57 1522.02L1116.82 2456.72C1116.24 2457.13 1115.58 2457.3 1114.91 2457.24ZM131.048 1055.86L1115.87 2450.51L2435.04 1518.99L1450.22 124.371L131.048 1055.86Z" fill="url(#paint15_linear_54_6615)"/>
<defs>
<linearGradient id="paint0_linear_54_6615" x1="1051.22" y1="628.752" x2="1860.51" y2="1859.56" gradientUnits="userSpaceOnUse">
<stop offset="0.0326" stop-color="#FF299E"/>
<stop offset="0.148076" stop-color="#FF9190"/>
<stop offset="0.242628" stop-color="#FFA378"/>
<stop offset="0.340354" stop-color="#FFBD55"/>
<stop offset="0.44348" stop-color="#F7C05D"/>
<stop offset="0.555748" stop-color="#E1C872"/>
<stop offset="0.638527" stop-color="#BDD495"/>
<stop offset="0.699899" stop-color="#A9DBA9"/>
<stop offset="0.744739" stop-color="#57F3D8"/>
<stop offset="0.831936" stop-color="#2FFFEF"/>
</linearGradient>
<linearGradient id="paint1_linear_54_6615" x1="1040.65" y1="596.777" x2="1889.99" y2="1885.32" gradientUnits="userSpaceOnUse">
<stop offset="0.0326" stop-color="#FF299E"/>
<stop offset="0.148076" stop-color="#FF9190"/>
<stop offset="0.242628" stop-color="#FFA378"/>
<stop offset="0.340354" stop-color="#FFBD55"/>
<stop offset="0.44348" stop-color="#F7C05D"/>
<stop offset="0.555748" stop-color="#E1C872"/>
<stop offset="0.638527" stop-color="#BDD495"/>
<stop offset="0.699899" stop-color="#A9DBA9"/>
<stop offset="0.744739" stop-color="#57F3D8"/>
<stop offset="0.831936" stop-color="#2FFFEF"/>
</linearGradient>
<linearGradient id="paint2_linear_54_6615" x1="1029.96" y1="564.279" x2="1920.03" y2="1911.35" gradientUnits="userSpaceOnUse">
<stop offset="0.0326" stop-color="#FF299E"/>
<stop offset="0.148076" stop-color="#FF9190"/>
<stop offset="0.242628" stop-color="#FFA378"/>
<stop offset="0.340354" stop-color="#FFBD55"/>
<stop offset="0.44348" stop-color="#F7C05D"/>
<stop offset="0.555748" stop-color="#E1C872"/>
<stop offset="0.638527" stop-color="#BDD495"/>
<stop offset="0.699899" stop-color="#A9DBA9"/>
<stop offset="0.744739" stop-color="#57F3D8"/>
<stop offset="0.831936" stop-color="#2FFFEF"/>
</linearGradient>
<linearGradient id="paint3_linear_54_6615" x1="1019.17" y1="531.393" x2="1950.53" y2="1937.68" gradientUnits="userSpaceOnUse">
<stop offset="0.0326" stop-color="#FF299E"/>
<stop offset="0.148076" stop-color="#FF9190"/>
<stop offset="0.242628" stop-color="#FFA378"/>
<stop offset="0.340354" stop-color="#FFBD55"/>
<stop offset="0.44348" stop-color="#F7C05D"/>
<stop offset="0.555748" stop-color="#E1C872"/>
<stop offset="0.638527" stop-color="#BDD495"/>
<stop offset="0.699899" stop-color="#A9DBA9"/>
<stop offset="0.744739" stop-color="#57F3D8"/>
<stop offset="0.831936" stop-color="#2FFFEF"/>
</linearGradient>
<linearGradient id="paint4_linear_54_6615" x1="1008.25" y1="498.054" x2="1981.47" y2="1964.19" gradientUnits="userSpaceOnUse">
<stop offset="0.0326" stop-color="#FF299E"/>
<stop offset="0.148076" stop-color="#FF9190"/>
<stop offset="0.242628" stop-color="#FFA378"/>
<stop offset="0.340354" stop-color="#FFBD55"/>
<stop offset="0.44348" stop-color="#F7C05D"/>
<stop offset="0.555748" stop-color="#E1C872"/>
<stop offset="0.638527" stop-color="#BDD495"/>
<stop offset="0.699899" stop-color="#A9DBA9"/>
<stop offset="0.744739" stop-color="#57F3D8"/>
<stop offset="0.831936" stop-color="#2FFFEF"/>
</linearGradient>
<linearGradient id="paint5_linear_54_6615" x1="997.274" y1="464.384" x2="2012.82" y2="1990.88" gradientUnits="userSpaceOnUse">
<stop offset="0.0326" stop-color="#FF299E"/>
<stop offset="0.148076" stop-color="#FF9190"/>
<stop offset="0.242628" stop-color="#FFA378"/>
<stop offset="0.340354" stop-color="#FFBD55"/>
<stop offset="0.44348" stop-color="#F7C05D"/>
<stop offset="0.555748" stop-color="#E1C872"/>
<stop offset="0.638527" stop-color="#BDD495"/>
<stop offset="0.699899" stop-color="#A9DBA9"/>
<stop offset="0.744739" stop-color="#57F3D8"/>
<stop offset="0.831936" stop-color="#2FFFEF"/>
</linearGradient>
<linearGradient id="paint6_linear_54_6615" x1="986.213" y1="430.394" x2="2044.51" y2="2017.66" gradientUnits="userSpaceOnUse">
<stop offset="0.0326" stop-color="#FF299E"/>
<stop offset="0.148076" stop-color="#FF9190"/>
<stop offset="0.242628" stop-color="#FFA378"/>
<stop offset="0.340354" stop-color="#FFBD55"/>
<stop offset="0.44348" stop-color="#F7C05D"/>
<stop offset="0.555748" stop-color="#E1C872"/>
<stop offset="0.638527" stop-color="#BDD495"/>
<stop offset="0.699899" stop-color="#A9DBA9"/>
<stop offset="0.744739" stop-color="#57F3D8"/>
<stop offset="0.831936" stop-color="#2FFFEF"/>
</linearGradient>
<linearGradient id="paint7_linear_54_6615" x1="975.151" y1="396.201" x2="2076.52" y2="2044.56" gradientUnits="userSpaceOnUse">
<stop offset="0.0326" stop-color="#FF299E"/>
<stop offset="0.148076" stop-color="#FF9190"/>
<stop offset="0.242628" stop-color="#FFA378"/>
<stop offset="0.340354" stop-color="#FFBD55"/>
<stop offset="0.44348" stop-color="#F7C05D"/>
<stop offset="0.555748" stop-color="#E1C872"/>
<stop offset="0.638527" stop-color="#BDD495"/>
<stop offset="0.699899" stop-color="#A9DBA9"/>
<stop offset="0.744739" stop-color="#57F3D8"/>
<stop offset="0.831936" stop-color="#2FFFEF"/>
</linearGradient>
<linearGradient id="paint8_linear_54_6615" x1="964.021" y1="361.8" x2="2108.75" y2="2071.43" gradientUnits="userSpaceOnUse">
<stop offset="0.0326" stop-color="#FF299E"/>
<stop offset="0.148076" stop-color="#FF9190"/>
<stop offset="0.242628" stop-color="#FFA378"/>
<stop offset="0.340354" stop-color="#FFBD55"/>
<stop offset="0.44348" stop-color="#F7C05D"/>
<stop offset="0.555748" stop-color="#E1C872"/>
<stop offset="0.638527" stop-color="#BDD495"/>
<stop offset="0.699899" stop-color="#A9DBA9"/>
<stop offset="0.744739" stop-color="#57F3D8"/>
<stop offset="0.831936" stop-color="#2FFFEF"/>
</linearGradient>
<linearGradient id="paint9_linear_54_6615" x1="952.943" y1="327.255" x2="2141.28" y2="2098.21" gradientUnits="userSpaceOnUse">
<stop offset="0.0326" stop-color="#FF299E"/>
<stop offset="0.148076" stop-color="#FF9190"/>
<stop offset="0.242628" stop-color="#FFA378"/>
<stop offset="0.340354" stop-color="#FFBD55"/>
<stop offset="0.44348" stop-color="#F7C05D"/>
<stop offset="0.555748" stop-color="#E1C872"/>
<stop offset="0.638527" stop-color="#BDD495"/>
<stop offset="0.699899" stop-color="#A9DBA9"/>
<stop offset="0.744739" stop-color="#57F3D8"/>
<stop offset="0.831936" stop-color="#2FFFEF"/>
</linearGradient>
<linearGradient id="paint10_linear_54_6615" x1="941.878" y1="292.717" x2="2173.86" y2="2124.96" gradientUnits="userSpaceOnUse">
<stop offset="0.0326" stop-color="#FF299E"/>
<stop offset="0.148076" stop-color="#FF9190"/>
<stop offset="0.242628" stop-color="#FFA378"/>
<stop offset="0.340354" stop-color="#FFBD55"/>
<stop offset="0.44348" stop-color="#F7C05D"/>
<stop offset="0.555748" stop-color="#E1C872"/>
<stop offset="0.638527" stop-color="#BDD495"/>
<stop offset="0.699899" stop-color="#A9DBA9"/>
<stop offset="0.744739" stop-color="#57F3D8"/>
<stop offset="0.831936" stop-color="#2FFFEF"/>
</linearGradient>
<linearGradient id="paint11_linear_54_6615" x1="930.858" y1="258.171" x2="2206.52" y2="2151.49" gradientUnits="userSpaceOnUse">
<stop offset="0.0326" stop-color="#FF299E"/>
<stop offset="0.148076" stop-color="#FF9190"/>
<stop offset="0.242628" stop-color="#FFA378"/>
<stop offset="0.340354" stop-color="#FFBD55"/>
<stop offset="0.44348" stop-color="#F7C05D"/>
<stop offset="0.555748" stop-color="#E1C872"/>
<stop offset="0.638527" stop-color="#BDD495"/>
<stop offset="0.699899" stop-color="#A9DBA9"/>
<stop offset="0.744739" stop-color="#57F3D8"/>
<stop offset="0.831936" stop-color="#2FFFEF"/>
</linearGradient>
<linearGradient id="paint12_linear_54_6615" x1="919.944" y1="223.723" x2="2239.23" y2="2177.78" gradientUnits="userSpaceOnUse">
<stop offset="0.0326" stop-color="#FF299E"/>
<stop offset="0.148076" stop-color="#FF9190"/>
<stop offset="0.242628" stop-color="#FFA378"/>
<stop offset="0.340354" stop-color="#FFBD55"/>
<stop offset="0.44348" stop-color="#F7C05D"/>
<stop offset="0.555748" stop-color="#E1C872"/>
<stop offset="0.638527" stop-color="#BDD495"/>
<stop offset="0.699899" stop-color="#A9DBA9"/>
<stop offset="0.744739" stop-color="#57F3D8"/>
<stop offset="0.831936" stop-color="#2FFFEF"/>
</linearGradient>
<linearGradient id="paint13_linear_54_6615" x1="909.13" y1="189.462" x2="2271.88" y2="2203.75" gradientUnits="userSpaceOnUse">
<stop offset="0.0326" stop-color="#FF299E"/>
<stop offset="0.148076" stop-color="#FF9190"/>
<stop offset="0.242628" stop-color="#FFA378"/>
<stop offset="0.340354" stop-color="#FFBD55"/>
<stop offset="0.44348" stop-color="#F7C05D"/>
<stop offset="0.555748" stop-color="#E1C872"/>
<stop offset="0.638527" stop-color="#BDD495"/>
<stop offset="0.699899" stop-color="#A9DBA9"/>
<stop offset="0.744739" stop-color="#57F3D8"/>
<stop offset="0.831936" stop-color="#2FFFEF"/>
</linearGradient>
<linearGradient id="paint14_linear_54_6615" x1="898.463" y1="155.479" x2="2304.36" y2="2229.3" gradientUnits="userSpaceOnUse">
<stop offset="0.0326" stop-color="#FF299E"/>
<stop offset="0.148076" stop-color="#FF9190"/>
<stop offset="0.242628" stop-color="#FFA378"/>
<stop offset="0.340354" stop-color="#FFBD55"/>
<stop offset="0.44348" stop-color="#F7C05D"/>
<stop offset="0.555748" stop-color="#E1C872"/>
<stop offset="0.638527" stop-color="#BDD495"/>
<stop offset="0.699899" stop-color="#A9DBA9"/>
<stop offset="0.744739" stop-color="#57F3D8"/>
<stop offset="0.831936" stop-color="#2FFFEF"/>
</linearGradient>
<linearGradient id="paint15_linear_54_6615" x1="887.988" y1="121.858" x2="2336.65" y2="2254.41" gradientUnits="userSpaceOnUse">
<stop offset="0.0326" stop-color="#FF299E"/>
<stop offset="0.148076" stop-color="#FF9190"/>
<stop offset="0.242628" stop-color="#FFA378"/>
<stop offset="0.340354" stop-color="#FFBD55"/>
<stop offset="0.44348" stop-color="#F7C05D"/>
<stop offset="0.555748" stop-color="#E1C872"/>
<stop offset="0.638527" stop-color="#BDD495"/>
<stop offset="0.699899" stop-color="#A9DBA9"/>
<stop offset="0.744739" stop-color="#57F3D8"/>
<stop offset="0.831936" stop-color="#2FFFEF"/>
</linearGradient>
</defs>
</svg>
